  0
SECTION
  2
HEADER
  9
$ANGBASE
  50
0.0
  9
$ANGDIR
  70
1
  9
$MEASUREMENT
  70
0
  0
ENDSEC
  0
SECTION
  2
TABLES
  0
TABLE
  2
LTYPE
  70
4
  0
LTYPE
  5
40F
  2
CONTINUOUS
  70
0
  3
Solid line
  72
65
  73
0
  40
0.0
  0
LTYPE
  5
410
  2
DASHDOT
 70
0
  3
Dash Dot ____ _ ____ _
 72
65
 73
4
 40
2.0
 49
1.25
 49
-0.25
 49
0.25
 49
-0.25
  0
LTYPE
  5
411
  2
DASHED
 70
0
  3
Dashed __ __ __ __ __
 72
65
 73
2
 40
0.75
 49
0.5
 49
-0.25
  0
LTYPE
  5
43B
  2
DOTTED
 70
0
  3
Dotted .  .  .  .
 72
65
 73
2
 40
0.2
 49
0.0
 49
-0.2
  0
ENDTAB
  0
TABLE
  2
STYLE
  70
4
  0
STYLE
  2
KICAD
  70
0
  40
0
  41
1
  42
1
  50
0
  71
0
  3
isocp.shx
  0
STYLE
  2
KICADB
  70
0
  40
0
  41
1
  42
1
  50
0
  71
0
  3
isocp.shx
  0
STYLE
  2
KICADI
  70
0
  40
0
  41
1
  42
1
  50
15
  71
0
  3
isocp.shx
  0
STYLE
  2
KICADBI
  70
0
  40
0
  41
1
  42
1
  50
15
  71
0
  3
isocp.shx
  0
ENDTAB
  0
TABLE
  2
LAYER
  70
1
  0
LAYER
  2
BLACK
  70
0
  62
7
  6
CONTINUOUS
  0
ENDTAB
  0
ENDSEC
  0
SECTION
  2
ENTITIES
0
LINE
8
BLACK
6
CONTINUOUS
10
0.2141057480314961
20
0.3251920866141732
11
0.2280341338582677
21
0.3228255511811023
0
LINE
8
BLACK
6
CONTINUOUS
10
0.2280341338582677
20
0.3228255511811023
11
0.2416099606299213
21
0.3189144488188976
0
LINE
8
BLACK
6
CONTINUOUS
10
0.2416099606299213
20
0.3189144488188976
11
0.2546625196850394
21
0.313507874015748
0
LINE
8
BLACK
6
CONTINUOUS
10
0.2546625196850394
20
0.313507874015748
11
0.2670276771653543
21
0.3066738976377953
0
LINE
8
BLACK
6
CONTINUOUS
10
0.2670276771653543
20
0.3066738976377953
11
0.2785498818897638
21
0.2984984645669291
0
LINE
8
BLACK
6
CONTINUOUS
10
0.2785498818897638
20
0.2984984645669291
11
0.2890843307086614
21
0.2890843307086614
0
LINE
8
BLACK
6
CONTINUOUS
10
0.2890843307086614
20
0.2890843307086614
11
0.2984984645669291
21
0.2785498818897638
0
LINE
8
BLACK
6
CONTINUOUS
10
0.2984984645669291
20
0.2785498818897638
11
0.3066738976377953
21
0.2670276771653543
0
LINE
8
BLACK
6
CONTINUOUS
10
0.3066738976377953
20
0.2670276771653543
11
0.313507874015748
21
0.2546625196850394
0
LINE
8
BLACK
6
CONTINUOUS
10
0.313507874015748
20
0.2546625196850394
11
0.3189144488188976
21
0.2416099606299213
0
LINE
8
BLACK
6
CONTINUOUS
10
0.3189144488188976
20
0.2416099606299213
11
0.3228255511811023
21
0.2280341338582677
0
LINE
8
BLACK
6
CONTINUOUS
10
0.3228255511811023
20
0.2280341338582677
11
0.3251920866141732
21
0.2141057480314961
0
LINE
8
BLACK
6
CONTINUOUS
10
0.3251920866141732
20
0.2141057480314961
11
0.3259842519685039
21
0.2
0
LINE
8
BLACK
6
CONTINUOUS
10
0.3259842519685039
20
0.2
11
0.3251920866141732
21
0.1858942519685039
0
LINE
8
BLACK
6
CONTINUOUS
10
0.3251920866141732
20
0.1858942519685039
11
0.3228255511811023
21
0.1719658661417323
0
LINE
8
BLACK
6
CONTINUOUS
10
0.3228255511811023
20
0.1719658661417323
11
0.3189144488188976
21
0.1583900393700787
0
LINE
8
BLACK
6
CONTINUOUS
10
0.3189144488188976
20
0.1583900393700787
11
0.313507874015748
21
0.1453374803149606
0
LINE
8
BLACK
6
CONTINUOUS
10
0.313507874015748
20
0.1453374803149606
11
0.3066738976377953
21
0.1329723228346457
0
LINE
8
BLACK
6
CONTINUOUS
10
0.3066738976377953
20
0.1329723228346457
11
0.2984984645669291
21
0.1214501181102362
0
LINE
8
BLACK
6
CONTINUOUS
10
0.2984984645669291
20
0.1214501181102362
11
0.2890843307086614
21
0.1109156692913386
0
LINE
8
BLACK
6
CONTINUOUS
10
0.2890843307086614
20
0.1109156692913386
11
0.2785498818897638
21
0.1015015354330709
0
LINE
8
BLACK
6
CONTINUOUS
10
0.2785498818897638
20
0.1015015354330709
11
0.2670276771653543
21
0.0933261023622047
0
LINE
8
BLACK
6
CONTINUOUS
10
0.2670276771653543
20
0.0933261023622047
11
0.2546625196850394
21
0.086492125984252
0
LINE
8
BLACK
6
CONTINUOUS
10
0.2546625196850394
20
0.086492125984252
11
0.2416099606299213
21
0.0810855511811024
0
LINE
8
BLACK
6
CONTINUOUS
10
0.2416099606299213
20
0.0810855511811024
11
0.2280341338582677
21
0.0771744488188976
0
LINE
8
BLACK
6
CONTINUOUS
10
0.2280341338582677
20
0.0771744488188976
11
0.2141057480314961
21
0.0748079133858268
0
LINE
8
BLACK
6
CONTINUOUS
10
0.2141057480314961
20
0.0748079133858268
11
0.2
21
0.0740157480314961
0
LINE
8
BLACK
6
CONTINUOUS
10
0.2
20
0.0740157480314961
11
0.1858942519685039
21
0.0748079133858268
0
LINE
8
BLACK
6
CONTINUOUS
10
0.1858942519685039
20
0.0748079133858268
11
0.1719658661417323
21
0.0771744488188976
0
LINE
8
BLACK
6
CONTINUOUS
10
0.1719658661417323
20
0.0771744488188976
11
0.1583900393700787
21
0.0810855511811024
0
LINE
8
BLACK
6
CONTINUOUS
10
0.1583900393700787
20
0.0810855511811024
11
0.1453374803149606
21
0.086492125984252
0
LINE
8
BLACK
6
CONTINUOUS
10
0.1453374803149606
20
0.086492125984252
11
0.1329723228346457
21
0.0933261023622047
0
LINE
8
BLACK
6
CONTINUOUS
10
0.1329723228346457
20
0.0933261023622047
11
0.1214501181102362
21
0.1015015354330709
0
LINE
8
BLACK
6
CONTINUOUS
10
0.1214501181102362
20
0.1015015354330709
11
0.1109156692913386
21
0.1109156692913386
0
LINE
8
BLACK
6
CONTINUOUS
10
0.1109156692913386
20
0.1109156692913386
11
0.1015015354330709
21
0.1214501181102362
0
LINE
8
BLACK
6
CONTINUOUS
10
0.1015015354330709
20
0.1214501181102362
11
0.0933261023622047
21
0.1329723228346457
0
LINE
8
BLACK
6
CONTINUOUS
10
0.0933261023622047
20
0.1329723228346457
11
0.086492125984252
21
0.1453374803149606
0
LINE
8
BLACK
6
CONTINUOUS
10
0.086492125984252
20
0.1453374803149606
11
0.0810855511811024
21
0.1583900393700787
0
LINE
8
BLACK
6
CONTINUOUS
10
0.0810855511811024
20
0.1583900393700787
11
0.0771744488188976
21
0.1719658661417323
0
LINE
8
BLACK
6
CONTINUOUS
10
0.0771744488188976
20
0.1719658661417323
11
0.0748079133858268
21
0.1858942519685039
0
LINE
8
BLACK
6
CONTINUOUS
10
0.0748079133858268
20
0.1858942519685039
11
0.0740157480314961
21
0.2
0
LINE
8
BLACK
6
CONTINUOUS
10
0.0740157480314961
20
0.2
11
0.0748079133858268
21
0.2141057480314961
0
LINE
8
BLACK
6
CONTINUOUS
10
0.0748079133858268
20
0.2141057480314961
11
0.0771744488188976
21
0.2280341338582677
0
LINE
8
BLACK
6
CONTINUOUS
10
0.0771744488188976
20
0.2280341338582677
11
0.0810855511811024
21
0.2416099606299213
0
LINE
8
BLACK
6
CONTINUOUS
10
0.0810855511811024
20
0.2416099606299213
11
0.086492125984252
21
0.2546625196850394
0
LINE
8
BLACK
6
CONTINUOUS
10
0.086492125984252
20
0.2546625196850394
11
0.0933261023622047
21
0.2670276771653543
0
LINE
8
BLACK
6
CONTINUOUS
10
0.0933261023622047
20
0.2670276771653543
11
0.1015015354330709
21
0.2785498818897638
0
LINE
8
BLACK
6
CONTINUOUS
10
0.1015015354330709
20
0.2785498818897638
11
0.1109156692913386
21
0.2890843307086614
0
LINE
8
BLACK
6
CONTINUOUS
10
0.1109156692913386
20
0.2890843307086614
11
0.1214501181102362
21
0.2984984645669291
0
LINE
8
BLACK
6
CONTINUOUS
10
0.1214501181102362
20
0.2984984645669291
11
0.1329723228346457
21
0.3066738976377953
0
LINE
8
BLACK
6
CONTINUOUS
10
0.1329723228346457
20
0.3066738976377953
11
0.1453374803149606
21
0.313507874015748
0
LINE
8
BLACK
6
CONTINUOUS
10
0.1453374803149606
20
0.313507874015748
11
0.1583900393700787
21
0.3189144488188976
0
LINE
8
BLACK
6
CONTINUOUS
10
0.1583900393700787
20
0.3189144488188976
11
0.1719658661417323
21
0.3228255511811023
0
LINE
8
BLACK
6
CONTINUOUS
10
0.1719658661417323
20
0.3228255511811023
11
0.1858942519685039
21
0.3251920866141732
0
LINE
8
BLACK
6
CONTINUOUS
10
0.1858942519685039
20
0.3251920866141732
11
0.2
21
0.3259842519685039
0
LINE
8
BLACK
6
CONTINUOUS
10
0.2
20
0.3259842519685039
11
0.2141057480314961
21
0.3251920866141732
0
LINE
8
BLACK
6
CONTINUOUS
10
2.2141057480314958
20
0.3251920866141732
11
2.2280341338582677
21
0.3228255511811023
0
LINE
8
BLACK
6
CONTINUOUS
10
2.2280341338582677
20
0.3228255511811023
11
2.2416099606299213
21
0.3189144488188976
0
LINE
8
BLACK
6
CONTINUOUS
10
2.2416099606299213
20
0.3189144488188976
11
2.2546625196850392
21
0.313507874015748
0
LINE
8
BLACK
6
CONTINUOUS
10
2.2546625196850392
20
0.313507874015748
11
2.2670276771653541
21
0.3066738976377953
0
LINE
8
BLACK
6
CONTINUOUS
10
2.2670276771653541
20
0.3066738976377953
11
2.2785498818897638
21
0.2984984645669291
0
LINE
8
BLACK
6
CONTINUOUS
10
2.2785498818897638
20
0.2984984645669291
11
2.2890843307086612
21
0.2890843307086614
0
LINE
8
BLACK
6
CONTINUOUS
10
2.2890843307086612
20
0.2890843307086614
11
2.2984984645669293
21
0.2785498818897638
0
LINE
8
BLACK
6
CONTINUOUS
10
2.2984984645669293
20
0.2785498818897638
11
2.3066738976377952
21
0.2670276771653543
0
LINE
8
BLACK
6
CONTINUOUS
10
2.3066738976377952
20
0.2670276771653543
11
2.3135078740157482
21
0.2546625196850394
0
LINE
8
BLACK
6
CONTINUOUS
10
2.3135078740157482
20
0.2546625196850394
11
2.3189144488188975
21
0.2416099606299213
0
LINE
8
BLACK
6
CONTINUOUS
10
2.3189144488188975
20
0.2416099606299213
11
2.3228255511811025
21
0.2280341338582677
0
LINE
8
BLACK
6
CONTINUOUS
10
2.3228255511811025
20
0.2280341338582677
11
2.3251920866141731
21
0.2141057480314961
0
LINE
8
BLACK
6
CONTINUOUS
10
2.3251920866141731
20
0.2141057480314961
11
2.3259842519685039
21
0.2
0
LINE
8
BLACK
6
CONTINUOUS
10
2.3259842519685039
20
0.2
11
2.3251920866141731
21
0.1858942519685039
0
LINE
8
BLACK
6
CONTINUOUS
10
2.3251920866141731
20
0.1858942519685039
11
2.3228255511811025
21
0.1719658661417323
0
LINE
8
BLACK
6
CONTINUOUS
10
2.3228255511811025
20
0.1719658661417323
11
2.3189144488188975
21
0.1583900393700787
0
LINE
8
BLACK
6
CONTINUOUS
10
2.3189144488188975
20
0.1583900393700787
11
2.3135078740157482
21
0.1453374803149606
0
LINE
8
BLACK
6
CONTINUOUS
10
2.3135078740157482
20
0.1453374803149606
11
2.3066738976377952
21
0.1329723228346457
0
LINE
8
BLACK
6
CONTINUOUS
10
2.3066738976377952
20
0.1329723228346457
11
2.2984984645669293
21
0.1214501181102362
0
LINE
8
BLACK
6
CONTINUOUS
10
2.2984984645669293
20
0.1214501181102362
11
2.2890843307086612
21
0.1109156692913386
0
LINE
8
BLACK
6
CONTINUOUS
10
2.2890843307086612
20
0.1109156692913386
11
2.2785498818897638
21
0.1015015354330709
0
LINE
8
BLACK
6
CONTINUOUS
10
2.2785498818897638
20
0.1015015354330709
11
2.2670276771653541
21
0.0933261023622047
0
LINE
8
BLACK
6
CONTINUOUS
10
2.2670276771653541
20
0.0933261023622047
11
2.2546625196850392
21
0.086492125984252
0
LINE
8
BLACK
6
CONTINUOUS
10
2.2546625196850392
20
0.086492125984252
11
2.2416099606299213
21
0.0810855511811024
0
LINE
8
BLACK
6
CONTINUOUS
10
2.2416099606299213
20
0.0810855511811024
11
2.2280341338582677
21
0.0771744488188976
0
LINE
8
BLACK
6
CONTINUOUS
10
2.2280341338582677
20
0.0771744488188976
11
2.2141057480314958
21
0.0748079133858268
0
LINE
8
BLACK
6
CONTINUOUS
10
2.2141057480314958
20
0.0748079133858268
11
2.1999999999999997
21
0.0740157480314961
0
LINE
8
BLACK
6
CONTINUOUS
10
2.1999999999999997
20
0.0740157480314961
11
2.1858942519685041
21
0.0748079133858268
0
LINE
8
BLACK
6
CONTINUOUS
10
2.1858942519685041
20
0.0748079133858268
11
2.1719658661417323
21
0.0771744488188976
0
LINE
8
BLACK
6
CONTINUOUS
10
2.1719658661417323
20
0.0771744488188976
11
2.1583900393700786
21
0.0810855511811024
0
LINE
8
BLACK
6
CONTINUOUS
10
2.1583900393700786
20
0.0810855511811024
11
2.1453374803149607
21
0.086492125984252
0
LINE
8
BLACK
6
CONTINUOUS
10
2.1453374803149607
20
0.086492125984252
11
2.1329723228346458
21
0.0933261023622047
0
LINE
8
BLACK
6
CONTINUOUS
10
2.1329723228346458
20
0.0933261023622047
11
2.1214501181102361
21
0.1015015354330709
0
LINE
8
BLACK
6
CONTINUOUS
10
2.1214501181102361
20
0.1015015354330709
11
2.1109156692913387
21
0.1109156692913386
0
LINE
8
BLACK
6
CONTINUOUS
10
2.1109156692913387
20
0.1109156692913386
11
2.1015015354330706
21
0.1214501181102362
0
LINE
8
BLACK
6
CONTINUOUS
10
2.1015015354330706
20
0.1214501181102362
11
2.0933261023622047
21
0.1329723228346457
0
LINE
8
BLACK
6
CONTINUOUS
10
2.0933261023622047
20
0.1329723228346457
11
2.0864921259842517
21
0.1453374803149606
0
LINE
8
BLACK
6
CONTINUOUS
10
2.0864921259842517
20
0.1453374803149606
11
2.0810855511811024
21
0.1583900393700787
0
LINE
8
BLACK
6
CONTINUOUS
10
2.0810855511811024
20
0.1583900393700787
11
2.0771744488188975
21
0.1719658661417323
0
LINE
8
BLACK
6
CONTINUOUS
10
2.0771744488188975
20
0.1719658661417323
11
2.0748079133858268
21
0.1858942519685039
0
LINE
8
BLACK
6
CONTINUOUS
10
2.0748079133858268
20
0.1858942519685039
11
2.074015748031496
21
0.2
0
LINE
8
BLACK
6
CONTINUOUS
10
2.074015748031496
20
0.2
11
2.0748079133858268
21
0.2141057480314961
0
LINE
8
BLACK
6
CONTINUOUS
10
2.0748079133858268
20
0.2141057480314961
11
2.0771744488188975
21
0.2280341338582677
0
LINE
8
BLACK
6
CONTINUOUS
10
2.0771744488188975
20
0.2280341338582677
11
2.0810855511811024
21
0.2416099606299213
0
LINE
8
BLACK
6
CONTINUOUS
10
2.0810855511811024
20
0.2416099606299213
11
2.0864921259842517
21
0.2546625196850394
0
LINE
8
BLACK
6
CONTINUOUS
10
2.0864921259842517
20
0.2546625196850394
11
2.0933261023622047
21
0.2670276771653543
0
LINE
8
BLACK
6
CONTINUOUS
10
2.0933261023622047
20
0.2670276771653543
11
2.1015015354330706
21
0.2785498818897638
0
LINE
8
BLACK
6
CONTINUOUS
10
2.1015015354330706
20
0.2785498818897638
11
2.1109156692913387
21
0.2890843307086614
0
LINE
8
BLACK
6
CONTINUOUS
10
2.1109156692913387
20
0.2890843307086614
11
2.1214501181102361
21
0.2984984645669291
0
LINE
8
BLACK
6
CONTINUOUS
10
2.1214501181102361
20
0.2984984645669291
11
2.1329723228346458
21
0.3066738976377953
0
LINE
8
BLACK
6
CONTINUOUS
10
2.1329723228346458
20
0.3066738976377953
11
2.1453374803149607
21
0.313507874015748
0
LINE
8
BLACK
6
CONTINUOUS
10
2.1453374803149607
20
0.313507874015748
11
2.1583900393700786
21
0.3189144488188976
0
LINE
8
BLACK
6
CONTINUOUS
10
2.1583900393700786
20
0.3189144488188976
11
2.1719658661417323
21
0.3228255511811023
0
LINE
8
BLACK
6
CONTINUOUS
10
2.1719658661417323
20
0.3228255511811023
11
2.1858942519685041
21
0.3251920866141732
0
LINE
8
BLACK
6
CONTINUOUS
10
2.1858942519685041
20
0.3251920866141732
11
2.1999999999999997
21
0.3259842519685039
0
LINE
8
BLACK
6
CONTINUOUS
10
2.1999999999999997
20
0.3259842519685039
11
2.2141057480314958
21
0.3251920866141732
0
LINE
8
BLACK
6
CONTINUOUS
10
0.639013937007874
20
0.2313240157480315
11
0.6479314173228347
21
0.2282626377952756
0
LINE
8
BLACK
6
CONTINUOUS
10
0.6479314173228347
20
0.2282626377952756
11
0.6562234251968504
21
0.2237752362204724
0
LINE
8
BLACK
6
CONTINUOUS
10
0.6562234251968504
20
0.2237752362204724
11
0.6636637007874016
21
0.2179842519685039
0
LINE
8
BLACK
6
CONTINUOUS
10
0.6636637007874016
20
0.2179842519685039
11
0.6700493700787401
21
0.2110475590551181
0
LINE
8
BLACK
6
CONTINUOUS
10
0.6700493700787401
20
0.2110475590551181
11
0.6752061811023622
21
0.2031544881889764
0
LINE
8
BLACK
6
CONTINUOUS
10
0.6752061811023622
20
0.2031544881889764
11
0.6789935039370079
21
0.1945202362204724
0
LINE
8
BLACK
6
CONTINUOUS
10
0.6789935039370079
20
0.1945202362204724
11
0.681308031496063
21
0.1853803937007874
0
LINE
8
BLACK
6
CONTINUOUS
10
0.681308031496063
20
0.1853803937007874
11
0.6820866141732284
21
0.1759842519685039
0
LINE
8
BLACK
6
CONTINUOUS
10
0.6820866141732284
20
0.1759842519685039
11
0.681308031496063
21
0.1665881102362205
0
LINE
8
BLACK
6
CONTINUOUS
10
0.681308031496063
20
0.1665881102362205
11
0.6789935039370079
21
0.1574482677165354
0
LINE
8
BLACK
6
CONTINUOUS
10
0.6789935039370079
20
0.1574482677165354
11
0.6752061811023622
21
0.1488140157480315
0
LINE
8
BLACK
6
CONTINUOUS
10
0.6752061811023622
20
0.1488140157480315
11
0.6700493700787401
21
0.1409209448818897
0
LINE
8
BLACK
6
CONTINUOUS
10
0.6700493700787401
20
0.1409209448818897
11
0.6636637007874016
21
0.1339842519685039
0
LINE
8
BLACK
6
CONTINUOUS
10
0.6636637007874016
20
0.1339842519685039
11
0.6562234251968504
21
0.1281932677165354
0
LINE
8
BLACK
6
CONTINUOUS
10
0.6562234251968504
20
0.1281932677165354
11
0.6479314173228347
21
0.1237058661417323
0
LINE
8
BLACK
6
CONTINUOUS
10
0.6479314173228347
20
0.1237058661417323
11
0.639013937007874
21
0.1206444881889764
0
LINE
8
BLACK
6
CONTINUOUS
10
0.639013937007874
20
0.1206444881889764
11
0.6297141732283464
21
0.1190925984251968
0
LINE
8
BLACK
6
CONTINUOUS
10
0.6297141732283464
20
0.1190925984251968
11
0.6202858267716536
21
0.1190925984251968
0
LINE
8
BLACK
6
CONTINUOUS
10
0.6202858267716536
20
0.1190925984251968
11
0.610986062992126
21
0.1206444881889764
0
LINE
8
BLACK
6
CONTINUOUS
10
0.610986062992126
20
0.1206444881889764
11
0.6020685826771653
21
0.1237058661417323
0
LINE
8
BLACK
6
CONTINUOUS
10
0.6020685826771653
20
0.1237058661417323
11
0.5937765748031496
21
0.1281932677165354
0
LINE
8
BLACK
6
CONTINUOUS
10
0.5937765748031496
20
0.1281932677165354
11
0.5863362992125984
21
0.1339842519685039
0
LINE
8
BLACK
6
CONTINUOUS
10
0.5863362992125984
20
0.1339842519685039
11
0.5799506299212598
21
0.1409209448818897
0
LINE
8
BLACK
6
CONTINUOUS
10
0.5799506299212598
20
0.1409209448818897
11
0.5747938188976378
21
0.1488140157480315
0
LINE
8
BLACK
6
CONTINUOUS
10
0.5747938188976378
20
0.1488140157480315
11
0.5710064960629921
21
0.1574482677165354
0
LINE
8
BLACK
6
CONTINUOUS
10
0.5710064960629921
20
0.1574482677165354
11
0.568691968503937
21
0.1665881102362205
0
LINE
8
BLACK
6
CONTINUOUS
10
0.568691968503937
20
0.1665881102362205
11
0.5679133858267716
21
0.1759842519685039
0
LINE
8
BLACK
6
CONTINUOUS
10
0.5679133858267716
20
0.1759842519685039
11
0.568691968503937
21
0.1853803937007874
0
LINE
8
BLACK
6
CONTINUOUS
10
0.568691968503937
20
0.1853803937007874
11
0.5710064960629921
21
0.1945202362204724
0
LINE
8
BLACK
6
CONTINUOUS
10
0.5710064960629921
20
0.1945202362204724
11
0.5747938188976378
21
0.2031544881889764
0
LINE
8
BLACK
6
CONTINUOUS
10
0.5747938188976378
20
0.2031544881889764
11
0.5799506299212598
21
0.2110475590551181
0
LINE
8
BLACK
6
CONTINUOUS
10
0.5799506299212598
20
0.2110475590551181
11
0.5863362992125984
21
0.2179842519685039
0
LINE
8
BLACK
6
CONTINUOUS
10
0.5863362992125984
20
0.2179842519685039
11
0.5937765748031496
21
0.2237752362204724
0
LINE
8
BLACK
6
CONTINUOUS
10
0.5937765748031496
20
0.2237752362204724
11
0.6020685826771653
21
0.2282626377952756
0
LINE
8
BLACK
6
CONTINUOUS
10
0.6020685826771653
20
0.2282626377952756
11
0.610986062992126
21
0.2313240157480315
0
LINE
8
BLACK
6
CONTINUOUS
10
0.610986062992126
20
0.2313240157480315
11
0.6202858267716536
21
0.232875905511811
0
LINE
8
BLACK
6
CONTINUOUS
10
0.6202858267716536
20
0.232875905511811
11
0.6297141732283464
21
0.232875905511811
0
LINE
8
BLACK
6
CONTINUOUS
10
0.6297141732283464
20
0.232875905511811
11
0.639013937007874
21
0.2313240157480315
0
LINE
8
BLACK
6
CONTINUOUS
10
1.1890139370078741
20
0.2313240157480315
11
1.1979314173228346
21
0.2282626377952756
0
LINE
8
BLACK
6
CONTINUOUS
10
1.1979314173228346
20
0.2282626377952756
11
1.2062234251968504
21
0.2237752362204724
0
LINE
8
BLACK
6
CONTINUOUS
10
1.2062234251968504
20
0.2237752362204724
11
1.2136637007874016
21
0.2179842519685039
0
LINE
8
BLACK
6
CONTINUOUS
10
1.2136637007874016
20
0.2179842519685039
11
1.22004937007874
21
0.2110475590551181
0
LINE
8
BLACK
6
CONTINUOUS
10
1.22004937007874
20
0.2110475590551181
11
1.2252061811023622
21
0.2031544881889764
0
LINE
8
BLACK
6
CONTINUOUS
10
1.2252061811023622
20
0.2031544881889764
11
1.2289935039370079
21
0.1945202362204724
0
LINE
8
BLACK
6
CONTINUOUS
10
1.2289935039370079
20
0.1945202362204724
11
1.2313080314960629
21
0.1853803937007874
0
LINE
8
BLACK
6
CONTINUOUS
10
1.2313080314960629
20
0.1853803937007874
11
1.2320866141732283
21
0.1759842519685039
0
LINE
8
BLACK
6
CONTINUOUS
10
1.2320866141732283
20
0.1759842519685039
11
1.2313080314960629
21
0.1665881102362205
0
LINE
8
BLACK
6
CONTINUOUS
10
1.2313080314960629
20
0.1665881102362205
11
1.2289935039370079
21
0.1574482677165354
0
LINE
8
BLACK
6
CONTINUOUS
10
1.2289935039370079
20
0.1574482677165354
11
1.2252061811023622
21
0.1488140157480315
0
LINE
8
BLACK
6
CONTINUOUS
10
1.2252061811023622
20
0.1488140157480315
11
1.22004937007874
21
0.1409209448818897
0
LINE
8
BLACK
6
CONTINUOUS
10
1.22004937007874
20
0.1409209448818897
11
1.2136637007874016
21
0.1339842519685039
0
LINE
8
BLACK
6
CONTINUOUS
10
1.2136637007874016
20
0.1339842519685039
11
1.2062234251968504
21
0.1281932677165354
0
LINE
8
BLACK
6
CONTINUOUS
10
1.2062234251968504
20
0.1281932677165354
11
1.1979314173228346
21
0.1237058661417323
0
LINE
8
BLACK
6
CONTINUOUS
10
1.1979314173228346
20
0.1237058661417323
11
1.1890139370078741
21
0.1206444881889764
0
LINE
8
BLACK
6
CONTINUOUS
10
1.1890139370078741
20
0.1206444881889764
11
1.1797141732283465
21
0.1190925984251968
0
LINE
8
BLACK
6
CONTINUOUS
10
1.1797141732283465
20
0.1190925984251968
11
1.1702858267716536
21
0.1190925984251968
0
LINE
8
BLACK
6
CONTINUOUS
10
1.1702858267716536
20
0.1190925984251968
11
1.160986062992126
21
0.1206444881889764
0
LINE
8
BLACK
6
CONTINUOUS
10
1.160986062992126
20
0.1206444881889764
11
1.1520685826771653
21
0.1237058661417323
0
LINE
8
BLACK
6
CONTINUOUS
10
1.1520685826771653
20
0.1237058661417323
11
1.1437765748031496
21
0.1281932677165354
0
LINE
8
BLACK
6
CONTINUOUS
10
1.1437765748031496
20
0.1281932677165354
11
1.1363362992125985
21
0.1339842519685039
0
LINE
8
BLACK
6
CONTINUOUS
10
1.1363362992125985
20
0.1339842519685039
11
1.1299506299212598
21
0.1409209448818897
0
LINE
8
BLACK
6
CONTINUOUS
10
1.1299506299212598
20
0.1409209448818897
11
1.1247938188976379
21
0.1488140157480315
0
LINE
8
BLACK
6
CONTINUOUS
10
1.1247938188976379
20
0.1488140157480315
11
1.1210064960629922
21
0.1574482677165354
0
LINE
8
BLACK
6
CONTINUOUS
10
1.1210064960629922
20
0.1574482677165354
11
1.1186919685039369
21
0.1665881102362205
0
LINE
8
BLACK
6
CONTINUOUS
10
1.1186919685039369
20
0.1665881102362205
11
1.1179133858267716
21
0.1759842519685039
0
LINE
8
BLACK
6
CONTINUOUS
10
1.1179133858267716
20
0.1759842519685039
11
1.1186919685039369
21
0.1853803937007874
0
LINE
8
BLACK
6
CONTINUOUS
10
1.1186919685039369
20
0.1853803937007874
11
1.1210064960629922
21
0.1945202362204724
0
LINE
8
BLACK
6
CONTINUOUS
10
1.1210064960629922
20
0.1945202362204724
11
1.1247938188976379
21
0.2031544881889764
0
LINE
8
BLACK
6
CONTINUOUS
10
1.1247938188976379
20
0.2031544881889764
11
1.1299506299212598
21
0.2110475590551181
0
LINE
8
BLACK
6
CONTINUOUS
10
1.1299506299212598
20
0.2110475590551181
11
1.1363362992125985
21
0.2179842519685039
0
LINE
8
BLACK
6
CONTINUOUS
10
1.1363362992125985
20
0.2179842519685039
11
1.1437765748031496
21
0.2237752362204724
0
LINE
8
BLACK
6
CONTINUOUS
10
1.1437765748031496
20
0.2237752362204724
11
1.1520685826771653
21
0.2282626377952756
0
LINE
8
BLACK
6
CONTINUOUS
10
1.1520685826771653
20
0.2282626377952756
11
1.160986062992126
21
0.2313240157480315
0
LINE
8
BLACK
6
CONTINUOUS
10
1.160986062992126
20
0.2313240157480315
11
1.1702858267716536
21
0.232875905511811
0
LINE
8
BLACK
6
CONTINUOUS
10
1.1702858267716536
20
0.232875905511811
11
1.1797141732283465
21
0.232875905511811
0
LINE
8
BLACK
6
CONTINUOUS
10
1.1797141732283465
20
0.232875905511811
11
1.1890139370078741
21
0.2313240157480315
0
LINE
8
BLACK
6
CONTINUOUS
10
1.7732888582677164
20
0.2285344881889764
11
1.775843346456693
21
0.2268275984251968
0
LINE
8
BLACK
6
CONTINUOUS
10
1.775843346456693
20
0.2268275984251968
11
1.7775502362204725
21
0.2242731102362205
0
LINE
8
BLACK
6
CONTINUOUS
10
1.7775502362204725
20
0.2242731102362205
11
1.7781496062992126
21
0.221259842519685
0
LINE
8
BLACK
6
CONTINUOUS
10
1.7781496062992126
20
0.221259842519685
11
1.7781496062992126
21
0.1307086614173228
0
LINE
8
BLACK
6
CONTINUOUS
10
1.7781496062992126
20
0.1307086614173228
11
1.7775502362204725
21
0.1276953937007874
0
LINE
8
BLACK
6
CONTINUOUS
10
1.7775502362204725
20
0.1276953937007874
11
1.775843346456693
21
0.125140905511811
0
LINE
8
BLACK
6
CONTINUOUS
10
1.775843346456693
20
0.125140905511811
11
1.7732888582677164
21
0.1234340157480315
0
LINE
8
BLACK
6
CONTINUOUS
10
1.7732888582677164
20
0.1234340157480315
11
1.7702755905511811
21
0.1228346456692913
0
LINE
8
BLACK
6
CONTINUOUS
10
1.7702755905511811
20
0.1228346456692913
11
1.6797244094488188
21
0.1228346456692913
0
LINE
8
BLACK
6
CONTINUOUS
10
1.6797244094488188
20
0.1228346456692913
11
1.6767111417322835
21
0.1234340157480315
0
LINE
8
BLACK
6
CONTINUOUS
10
1.6767111417322835
20
0.1234340157480315
11
1.674156653543307
21
0.125140905511811
0
LINE
8
BLACK
6
CONTINUOUS
10
1.674156653543307
20
0.125140905511811
11
1.6724497637795275
21
0.1276953937007874
0
LINE
8
BLACK
6
CONTINUOUS
10
1.6724497637795275
20
0.1276953937007874
11
1.6718503937007874
21
0.1307086614173228
0
LINE
8
BLACK
6
CONTINUOUS
10
1.6718503937007874
20
0.1307086614173228
11
1.6718503937007874
21
0.221259842519685
0
LINE
8
BLACK
6
CONTINUOUS
10
1.6718503937007874
20
0.221259842519685
11
1.6724497637795275
21
0.2242731102362205
0
LINE
8
BLACK
6
CONTINUOUS
10
1.6724497637795275
20
0.2242731102362205
11
1.674156653543307
21
0.2268275984251968
0
LINE
8
BLACK
6
CONTINUOUS
10
1.674156653543307
20
0.2268275984251968
11
1.6767111417322835
21
0.2285344881889764
0
LINE
8
BLACK
6
CONTINUOUS
10
1.6767111417322835
20
0.2285344881889764
11
1.6797244094488188
21
0.2291338582677165
0
LINE
8
BLACK
6
CONTINUOUS
10
1.6797244094488188
20
0.2291338582677165
11
1.7702755905511811
21
0.2291338582677165
0
LINE
8
BLACK
6
CONTINUOUS
10
1.7702755905511811
20
0.2291338582677165
11
1.7732888582677164
21
0.2285344881889764
0
LINE
8
BLACK
6
CONTINUOUS
10
2.0861927559055116
20
0.4844477165354331
11
2.0931102362204723
21
0.4813678346456693
0
LINE
8
BLACK
6
CONTINUOUS
10
2.0931102362204723
20
0.4813678346456693
11
2.0992362204724411
21
0.4769170472440944
0
LINE
8
BLACK
6
CONTINUOUS
10
2.0992362204724411
20
0.4769170472440944
11
2.1043029921259842
21
0.471289842519685
0
LINE
8
BLACK
6
CONTINUOUS
10
2.1043029921259842
20
0.471289842519685
11
2.1080890551181102
21
0.4647322047244095
0
LINE
8
BLACK
6
CONTINUOUS
10
2.1080890551181102
20
0.4647322047244095
11
2.1104289763779529
21
0.4575306692913386
0
LINE
8
BLACK
6
CONTINUOUS
10
2.1104289763779529
20
0.4575306692913386
11
2.1112204724409449
21
0.45
0
LINE
8
BLACK
6
CONTINUOUS
10
2.1112204724409449
20
0.45
11
2.1104289763779529
21
0.4424693307086614
0
LINE
8
BLACK
6
CONTINUOUS
10
2.1104289763779529
20
0.4424693307086614
11
2.1080890551181102
21
0.4352677952755906
0
LINE
8
BLACK
6
CONTINUOUS
10
2.1080890551181102
20
0.4352677952755906
11
2.1043029921259842
21
0.4287101574803149
0
LINE
8
BLACK
6
CONTINUOUS
10
2.1043029921259842
20
0.4287101574803149
11
2.0992362204724411
21
0.4230829527559055
0
LINE
8
BLACK
6
CONTINUOUS
10
2.0992362204724411
20
0.4230829527559055
11
2.0931102362204723
21
0.4186321653543307
0
LINE
8
BLACK
6
CONTINUOUS
10
2.0931102362204723
20
0.4186321653543307
11
2.0861927559055116
21
0.4155522834645669
0
LINE
8
BLACK
6
CONTINUOUS
10
2.0861927559055116
20
0.4155522834645669
11
2.0787860629921258
21
0.4139779527559055
0
LINE
8
BLACK
6
CONTINUOUS
10
2.0787860629921258
20
0.4139779527559055
11
2.0712139370078742
21
0.4139779527559055
0
LINE
8
BLACK
6
CONTINUOUS
10
2.0712139370078742
20
0.4139779527559055
11
2.0638072440944883
21
0.4155522834645669
0
LINE
8
BLACK
6
CONTINUOUS
10
2.0638072440944883
20
0.4155522834645669
11
2.0568897637795276
21
0.4186321653543307
0
LINE
8
BLACK
6
CONTINUOUS
10
2.0568897637795276
20
0.4186321653543307
11
2.0507637795275588
21
0.4230829527559055
0
LINE
8
BLACK
6
CONTINUOUS
10
2.0507637795275588
20
0.4230829527559055
11
2.0456970078740158
21
0.4287101574803149
0
LINE
8
BLACK
6
CONTINUOUS
10
2.0456970078740158
20
0.4287101574803149
11
2.0419109448818897
21
0.4352677952755906
0
LINE
8
BLACK
6
CONTINUOUS
10
2.0419109448818897
20
0.4352677952755906
11
2.039571023622047
21
0.4424693307086614
0
LINE
8
BLACK
6
CONTINUOUS
10
2.039571023622047
20
0.4424693307086614
11
2.038779527559055
21
0.45
0
LINE
8
BLACK
6
CONTINUOUS
10
2.038779527559055
20
0.45
11
2.039571023622047
21
0.4575306692913386
0
LINE
8
BLACK
6
CONTINUOUS
10
2.039571023622047
20
0.4575306692913386
11
2.0419109448818897
21
0.4647322047244095
0
LINE
8
BLACK
6
CONTINUOUS
10
2.0419109448818897
20
0.4647322047244095
11
2.0456970078740158
21
0.471289842519685
0
LINE
8
BLACK
6
CONTINUOUS
10
2.0456970078740158
20
0.471289842519685
11
2.0507637795275588
21
0.4769170472440944
0
LINE
8
BLACK
6
CONTINUOUS
10
2.0507637795275588
20
0.4769170472440944
11
2.0568897637795276
21
0.4813678346456693
0
LINE
8
BLACK
6
CONTINUOUS
10
2.0568897637795276
20
0.4813678346456693
11
2.0638072440944883
21
0.4844477165354331
0
LINE
8
BLACK
6
CONTINUOUS
10
2.0638072440944883
20
0.4844477165354331
11
2.0712139370078742
21
0.4860220472440945
0
LINE
8
BLACK
6
CONTINUOUS
10
2.0712139370078742
20
0.4860220472440945
11
2.0787860629921258
21
0.4860220472440945
0
LINE
8
BLACK
6
CONTINUOUS
10
2.0787860629921258
20
0.4860220472440945
11
2.0861927559055116
21
0.4844477165354331
0
LINE
8
BLACK
6
CONTINUOUS
10
2.1861927559055117
20
0.4844477165354331
11
2.1931102362204724
21
0.4813678346456693
0
LINE
8
BLACK
6
CONTINUOUS
10
2.1931102362204724
20
0.4813678346456693
11
2.1992362204724407
21
0.4769170472440944
0
LINE
8
BLACK
6
CONTINUOUS
10
2.1992362204724407
20
0.4769170472440944
11
2.2043029921259842
21
0.471289842519685
0
LINE
8
BLACK
6
CONTINUOUS
10
2.2043029921259842
20
0.471289842519685
11
2.2080890551181103
21
0.4647322047244095
0
LINE
8
BLACK
6
CONTINUOUS
10
2.2080890551181103
20
0.4647322047244095
11
2.2104289763779525
21
0.4575306692913386
0
LINE
8
BLACK
6
CONTINUOUS
10
2.2104289763779525
20
0.4575306692913386
11
2.211220472440945
21
0.45
0
LINE
8
BLACK
6
CONTINUOUS
10
2.211220472440945
20
0.45
11
2.2104289763779525
21
0.4424693307086614
0
LINE
8
BLACK
6
CONTINUOUS
10
2.2104289763779525
20
0.4424693307086614
11
2.2080890551181103
21
0.4352677952755906
0
LINE
8
BLACK
6
CONTINUOUS
10
2.2080890551181103
20
0.4352677952755906
11
2.2043029921259842
21
0.4287101574803149
0
LINE
8
BLACK
6
CONTINUOUS
10
2.2043029921259842
20
0.4287101574803149
11
2.1992362204724407
21
0.4230829527559055
0
LINE
8
BLACK
6
CONTINUOUS
10
2.1992362204724407
20
0.4230829527559055
11
2.1931102362204724
21
0.4186321653543307
0
LINE
8
BLACK
6
CONTINUOUS
10
2.1931102362204724
20
0.4186321653543307
11
2.1861927559055117
21
0.4155522834645669
0
LINE
8
BLACK
6
CONTINUOUS
10
2.1861927559055117
20
0.4155522834645669
11
2.1787860629921258
21
0.4139779527559055
0
LINE
8
BLACK
6
CONTINUOUS
10
2.1787860629921258
20
0.4139779527559055
11
2.1712139370078738
21
0.4139779527559055
0
LINE
8
BLACK
6
CONTINUOUS
10
2.1712139370078738
20
0.4139779527559055
11
2.163807244094488
21
0.4155522834645669
0
LINE
8
BLACK
6
CONTINUOUS
10
2.163807244094488
20
0.4155522834645669
11
2.1568897637795277
21
0.4186321653543307
0
LINE
8
BLACK
6
CONTINUOUS
10
2.1568897637795277
20
0.4186321653543307
11
2.1507637795275589
21
0.4230829527559055
0
LINE
8
BLACK
6
CONTINUOUS
10
2.1507637795275589
20
0.4230829527559055
11
2.1456970078740158
21
0.4287101574803149
0
LINE
8
BLACK
6
CONTINUOUS
10
2.1456970078740158
20
0.4287101574803149
11
2.1419109448818898
21
0.4352677952755906
0
LINE
8
BLACK
6
CONTINUOUS
10
2.1419109448818898
20
0.4352677952755906
11
2.1395710236220471
21
0.4424693307086614
0
LINE
8
BLACK
6
CONTINUOUS
10
2.1395710236220471
20
0.4424693307086614
11
2.1387795275590551
21
0.45
0
LINE
8
BLACK
6
CONTINUOUS
10
2.1387795275590551
20
0.45
11
2.1395710236220471
21
0.4575306692913386
0
LINE
8
BLACK
6
CONTINUOUS
10
2.1395710236220471
20
0.4575306692913386
11
2.1419109448818898
21
0.4647322047244095
0
LINE
8
BLACK
6
CONTINUOUS
10
2.1419109448818898
20
0.4647322047244095
11
2.1456970078740158
21
0.471289842519685
0
LINE
8
BLACK
6
CONTINUOUS
10
2.1456970078740158
20
0.471289842519685
11
2.1507637795275589
21
0.4769170472440944
0
LINE
8
BLACK
6
CONTINUOUS
10
2.1507637795275589
20
0.4769170472440944
11
2.1568897637795277
21
0.4813678346456693
0
LINE
8
BLACK
6
CONTINUOUS
10
2.1568897637795277
20
0.4813678346456693
11
2.163807244094488
21
0.4844477165354331
0
LINE
8
BLACK
6
CONTINUOUS
10
2.163807244094488
20
0.4844477165354331
11
2.1712139370078738
21
0.4860220472440945
0
LINE
8
BLACK
6
CONTINUOUS
10
2.1712139370078738
20
0.4860220472440945
11
2.1787860629921258
21
0.4860220472440945
0
LINE
8
BLACK
6
CONTINUOUS
10
2.1787860629921258
20
0.4860220472440945
11
2.1861927559055117
21
0.4844477165354331
0
LINE
8
BLACK
6
CONTINUOUS
10
2.2861927559055117
20
0.4844477165354331
11
2.2931102362204725
21
0.4813678346456693
0
LINE
8
BLACK
6
CONTINUOUS
10
2.2931102362204725
20
0.4813678346456693
11
2.2992362204724408
21
0.4769170472440944
0
LINE
8
BLACK
6
CONTINUOUS
10
2.2992362204724408
20
0.4769170472440944
11
2.3043029921259843
21
0.471289842519685
0
LINE
8
BLACK
6
CONTINUOUS
10
2.3043029921259843
20
0.471289842519685
11
2.3080890551181104
21
0.4647322047244095
0
LINE
8
BLACK
6
CONTINUOUS
10
2.3080890551181104
20
0.4647322047244095
11
2.3104289763779526
21
0.4575306692913386
0
LINE
8
BLACK
6
CONTINUOUS
10
2.3104289763779526
20
0.4575306692913386
11
2.3112204724409446
21
0.45
0
LINE
8
BLACK
6
CONTINUOUS
10
2.3112204724409446
20
0.45
11
2.3104289763779526
21
0.4424693307086614
0
LINE
8
BLACK
6
CONTINUOUS
10
2.3104289763779526
20
0.4424693307086614
11
2.3080890551181104
21
0.4352677952755906
0
LINE
8
BLACK
6
CONTINUOUS
10
2.3080890551181104
20
0.4352677952755906
11
2.3043029921259843
21
0.4287101574803149
0
LINE
8
BLACK
6
CONTINUOUS
10
2.3043029921259843
20
0.4287101574803149
11
2.2992362204724408
21
0.4230829527559055
0
LINE
8
BLACK
6
CONTINUOUS
10
2.2992362204724408
20
0.4230829527559055
11
2.2931102362204725
21
0.4186321653543307
0
LINE
8
BLACK
6
CONTINUOUS
10
2.2931102362204725
20
0.4186321653543307
11
2.2861927559055117
21
0.4155522834645669
0
LINE
8
BLACK
6
CONTINUOUS
10
2.2861927559055117
20
0.4155522834645669
11
2.2787860629921259
21
0.4139779527559055
0
LINE
8
BLACK
6
CONTINUOUS
10
2.2787860629921259
20
0.4139779527559055
11
2.2712139370078739
21
0.4139779527559055
0
LINE
8
BLACK
6
CONTINUOUS
10
2.2712139370078739
20
0.4139779527559055
11
2.2638072440944881
21
0.4155522834645669
0
LINE
8
BLACK
6
CONTINUOUS
10
2.2638072440944881
20
0.4155522834645669
11
2.2568897637795273
21
0.4186321653543307
0
LINE
8
BLACK
6
CONTINUOUS
10
2.2568897637795273
20
0.4186321653543307
11
2.250763779527559
21
0.4230829527559055
0
LINE
8
BLACK
6
CONTINUOUS
10
2.250763779527559
20
0.4230829527559055
11
2.2456970078740155
21
0.4287101574803149
0
LINE
8
BLACK
6
CONTINUOUS
10
2.2456970078740155
20
0.4287101574803149
11
2.2419109448818899
21
0.4352677952755906
0
LINE
8
BLACK
6
CONTINUOUS
10
2.2419109448818899
20
0.4352677952755906
11
2.2395710236220472
21
0.4424693307086614
0
LINE
8
BLACK
6
CONTINUOUS
10
2.2395710236220472
20
0.4424693307086614
11
2.2387795275590552
21
0.45
0
LINE
8
BLACK
6
CONTINUOUS
10
2.2387795275590552
20
0.45
11
2.2395710236220472
21
0.4575306692913386
0
LINE
8
BLACK
6
CONTINUOUS
10
2.2395710236220472
20
0.4575306692913386
11
2.2419109448818899
21
0.4647322047244095
0
LINE
8
BLACK
6
CONTINUOUS
10
2.2419109448818899
20
0.4647322047244095
11
2.2456970078740155
21
0.471289842519685
0
LINE
8
BLACK
6
CONTINUOUS
10
2.2456970078740155
20
0.471289842519685
11
2.250763779527559
21
0.4769170472440944
0
LINE
8
BLACK
6
CONTINUOUS
10
2.250763779527559
20
0.4769170472440944
11
2.2568897637795273
21
0.4813678346456693
0
LINE
8
BLACK
6
CONTINUOUS
10
2.2568897637795273
20
0.4813678346456693
11
2.2638072440944881
21
0.4844477165354331
0
LINE
8
BLACK
6
CONTINUOUS
10
2.2638072440944881
20
0.4844477165354331
11
2.2712139370078739
21
0.4860220472440945
0
LINE
8
BLACK
6
CONTINUOUS
10
2.2712139370078739
20
0.4860220472440945
11
2.2787860629921259
21
0.4860220472440945
0
LINE
8
BLACK
6
CONTINUOUS
10
2.2787860629921259
20
0.4860220472440945
11
2.2861927559055117
21
0.4844477165354331
0
LINE
8
BLACK
6
CONTINUOUS
10
2.2207101181102362
20
0.5848337007874016
11
2.2232646062992125
21
0.5831268110236221
0
LINE
8
BLACK
6
CONTINUOUS
10
2.2232646062992125
20
0.5831268110236221
11
2.224971496062992
21
0.5805723228346457
0
LINE
8
BLACK
6
CONTINUOUS
10
2.224971496062992
20
0.5805723228346457
11
2.2255708661417324
21
0.5775590551181102
0
LINE
8
BLACK
6
CONTINUOUS
10
2.2255708661417324
20
0.5775590551181102
11
2.2255708661417324
21
0.5224409448818897
0
LINE
8
BLACK
6
CONTINUOUS
10
2.2255708661417324
20
0.5224409448818897
11
2.224971496062992
21
0.5194276771653543
0
LINE
8
BLACK
6
CONTINUOUS
10
2.224971496062992
20
0.5194276771653543
11
2.2232646062992125
21
0.5168731889763779
0
LINE
8
BLACK
6
CONTINUOUS
10
2.2232646062992125
20
0.5168731889763779
11
2.2207101181102362
21
0.5151662992125984
0
LINE
8
BLACK
6
CONTINUOUS
10
2.2207101181102362
20
0.5151662992125984
11
2.2176968503937009
21
0.5145669291338583
0
LINE
8
BLACK
6
CONTINUOUS
10
2.2176968503937009
20
0.5145669291338583
11
2.182303149606299
21
0.5145669291338583
0
LINE
8
BLACK
6
CONTINUOUS
10
2.182303149606299
20
0.5145669291338583
11
2.1792898818897637
21
0.5151662992125984
0
LINE
8
BLACK
6
CONTINUOUS
10
2.1792898818897637
20
0.5151662992125984
11
2.1767353937007874
21
0.5168731889763779
0
LINE
8
BLACK
6
CONTINUOUS
10
2.1767353937007874
20
0.5168731889763779
11
2.1750285039370079
21
0.5194276771653543
0
LINE
8
BLACK
6
CONTINUOUS
10
2.1750285039370079
20
0.5194276771653543
11
2.1744291338582675
21
0.5224409448818897
0
LINE
8
BLACK
6
CONTINUOUS
10
2.1744291338582675
20
0.5224409448818897
11
2.1744291338582675
21
0.5775590551181102
0
LINE
8
BLACK
6
CONTINUOUS
10
2.1744291338582675
20
0.5775590551181102
11
2.1750285039370079
21
0.5805723228346457
0
LINE
8
BLACK
6
CONTINUOUS
10
2.1750285039370079
20
0.5805723228346457
11
2.1767353937007874
21
0.5831268110236221
0
LINE
8
BLACK
6
CONTINUOUS
10
2.1767353937007874
20
0.5831268110236221
11
2.1792898818897637
21
0.5848337007874016
0
LINE
8
BLACK
6
CONTINUOUS
10
2.1792898818897637
20
0.5848337007874016
11
2.182303149606299
21
0.5854330708661417
0
LINE
8
BLACK
6
CONTINUOUS
10
2.182303149606299
20
0.5854330708661417
11
2.2176968503937009
21
0.5854330708661417
0
LINE
8
BLACK
6
CONTINUOUS
10
2.2176968503937009
20
0.5854330708661417
11
2.2207101181102362
21
0.5848337007874016
0
LINE
8
BLACK
6
CONTINUOUS
10
2.2955132677165353
20
0.5848337007874016
11
2.2980677559055116
21
0.5831268110236221
0
LINE
8
BLACK
6
CONTINUOUS
10
2.2980677559055116
20
0.5831268110236221
11
2.2997746456692911
21
0.5805723228346457
0
LINE
8
BLACK
6
CONTINUOUS
10
2.2997746456692911
20
0.5805723228346457
11
2.3003740157480315
21
0.5775590551181102
0
LINE
8
BLACK
6
CONTINUOUS
10
2.3003740157480315
20
0.5775590551181102
11
2.3003740157480315
21
0.5224409448818897
0
LINE
8
BLACK
6
CONTINUOUS
10
2.3003740157480315
20
0.5224409448818897
11
2.2997746456692911
21
0.5194276771653543
0
LINE
8
BLACK
6
CONTINUOUS
10
2.2997746456692911
20
0.5194276771653543
11
2.2980677559055116
21
0.5168731889763779
0
LINE
8
BLACK
6
CONTINUOUS
10
2.2980677559055116
20
0.5168731889763779
11
2.2955132677165353
21
0.5151662992125984
0
LINE
8
BLACK
6
CONTINUOUS
10
2.2955132677165353
20
0.5151662992125984
11
2.2925
21
0.5145669291338583
0
LINE
8
BLACK
6
CONTINUOUS
10
2.2925
20
0.5145669291338583
11
2.2574999999999998
21
0.5145669291338583
0
LINE
8
BLACK
6
CONTINUOUS
10
2.2574999999999998
20
0.5145669291338583
11
2.2544867322834645
21
0.5151662992125984
0
LINE
8
BLACK
6
CONTINUOUS
10
2.2544867322834645
20
0.5151662992125984
11
2.2519322440944882
21
0.5168731889763779
0
LINE
8
BLACK
6
CONTINUOUS
10
2.2519322440944882
20
0.5168731889763779
11
2.2502253543307087
21
0.5194276771653543
0
LINE
8
BLACK
6
CONTINUOUS
10
2.2502253543307087
20
0.5194276771653543
11
2.2496259842519684
21
0.5224409448818897
0
LINE
8
BLACK
6
CONTINUOUS
10
2.2496259842519684
20
0.5224409448818897
11
2.2496259842519684
21
0.5775590551181102
0
LINE
8
BLACK
6
CONTINUOUS
10
2.2496259842519684
20
0.5775590551181102
11
2.2502253543307087
21
0.5805723228346457
0
LINE
8
BLACK
6
CONTINUOUS
10
2.2502253543307087
20
0.5805723228346457
11
2.2519322440944882
21
0.5831268110236221
0
LINE
8
BLACK
6
CONTINUOUS
10
2.2519322440944882
20
0.5831268110236221
11
2.2544867322834645
21
0.5848337007874016
0
LINE
8
BLACK
6
CONTINUOUS
10
2.2544867322834645
20
0.5848337007874016
11
2.2574999999999998
21
0.5854330708661417
0
LINE
8
BLACK
6
CONTINUOUS
10
2.2574999999999998
20
0.5854330708661417
11
2.2925
21
0.5854330708661417
0
LINE
8
BLACK
6
CONTINUOUS
10
2.2925
20
0.5854330708661417
11
2.2955132677165353
21
0.5848337007874016
0
LINE
8
BLACK
6
CONTINUOUS
10
2.0861927559055116
20
0.709447716535433
11
2.0931102362204723
21
0.7063678346456693
0
LINE
8
BLACK
6
CONTINUOUS
10
2.0931102362204723
20
0.7063678346456693
11
2.0992362204724411
21
0.7019170472440944
0
LINE
8
BLACK
6
CONTINUOUS
10
2.0992362204724411
20
0.7019170472440944
11
2.1043029921259842
21
0.6962898425196851
0
LINE
8
BLACK
6
CONTINUOUS
10
2.1043029921259842
20
0.6962898425196851
11
2.1080890551181102
21
0.6897322047244094
0
LINE
8
BLACK
6
CONTINUOUS
10
2.1080890551181102
20
0.6897322047244094
11
2.1104289763779529
21
0.6825306692913385
0
LINE
8
BLACK
6
CONTINUOUS
10
2.1104289763779529
20
0.6825306692913385
11
2.1112204724409449
21
0.6749999999999999
0
LINE
8
BLACK
6
CONTINUOUS
10
2.1112204724409449
20
0.6749999999999999
11
2.1104289763779529
21
0.6674693307086614
0
LINE
8
BLACK
6
CONTINUOUS
10
2.1104289763779529
20
0.6674693307086614
11
2.1080890551181102
21
0.6602677952755905
0
LINE
8
BLACK
6
CONTINUOUS
10
2.1080890551181102
20
0.6602677952755905
11
2.1043029921259842
21
0.6537101574803149
0
LINE
8
BLACK
6
CONTINUOUS
10
2.1043029921259842
20
0.6537101574803149
11
2.0992362204724411
21
0.6480829527559056
0
LINE
8
BLACK
6
CONTINUOUS
10
2.0992362204724411
20
0.6480829527559056
11
2.0931102362204723
21
0.6436321653543307
0
LINE
8
BLACK
6
CONTINUOUS
10
2.0931102362204723
20
0.6436321653543307
11
2.0861927559055116
21
0.6405522834645669
0
LINE
8
BLACK
6
CONTINUOUS
10
2.0861927559055116
20
0.6405522834645669
11
2.0787860629921258
21
0.6389779527559055
0
LINE
8
BLACK
6
CONTINUOUS
10
2.0787860629921258
20
0.6389779527559055
11
2.0712139370078742
21
0.6389779527559055
0
LINE
8
BLACK
6
CONTINUOUS
10
2.0712139370078742
20
0.6389779527559055
11
2.0638072440944883
21
0.6405522834645669
0
LINE
8
BLACK
6
CONTINUOUS
10
2.0638072440944883
20
0.6405522834645669
11
2.0568897637795276
21
0.6436321653543307
0
LINE
8
BLACK
6
CONTINUOUS
10
2.0568897637795276
20
0.6436321653543307
11
2.0507637795275588
21
0.6480829527559056
0
LINE
8
BLACK
6
CONTINUOUS
10
2.0507637795275588
20
0.6480829527559056
11
2.0456970078740158
21
0.6537101574803149
0
LINE
8
BLACK
6
CONTINUOUS
10
2.0456970078740158
20
0.6537101574803149
11
2.0419109448818897
21
0.6602677952755905
0
LINE
8
BLACK
6
CONTINUOUS
10
2.0419109448818897
20
0.6602677952755905
11
2.039571023622047
21
0.6674693307086614
0
LINE
8
BLACK
6
CONTINUOUS
10
2.039571023622047
20
0.6674693307086614
11
2.038779527559055
21
0.6749999999999999
0
LINE
8
BLACK
6
CONTINUOUS
10
2.038779527559055
20
0.6749999999999999
11
2.039571023622047
21
0.6825306692913385
0
LINE
8
BLACK
6
CONTINUOUS
10
2.039571023622047
20
0.6825306692913385
11
2.0419109448818897
21
0.6897322047244094
0
LINE
8
BLACK
6
CONTINUOUS
10
2.0419109448818897
20
0.6897322047244094
11
2.0456970078740158
21
0.6962898425196851
0
LINE
8
BLACK
6
CONTINUOUS
10
2.0456970078740158
20
0.6962898425196851
11
2.0507637795275588
21
0.7019170472440944
0
LINE
8
BLACK
6
CONTINUOUS
10
2.0507637795275588
20
0.7019170472440944
11
2.0568897637795276
21
0.7063678346456693
0
LINE
8
BLACK
6
CONTINUOUS
10
2.0568897637795276
20
0.7063678346456693
11
2.0638072440944883
21
0.709447716535433
0
LINE
8
BLACK
6
CONTINUOUS
10
2.0638072440944883
20
0.709447716535433
11
2.0712139370078742
21
0.7110220472440945
0
LINE
8
BLACK
6
CONTINUOUS
10
2.0712139370078742
20
0.7110220472440945
11
2.0787860629921258
21
0.7110220472440945
0
LINE
8
BLACK
6
CONTINUOUS
10
2.0787860629921258
20
0.7110220472440945
11
2.0861927559055116
21
0.709447716535433
0
LINE
8
BLACK
6
CONTINUOUS
10
2.1861927559055117
20
0.709447716535433
11
2.1931102362204724
21
0.7063678346456693
0
LINE
8
BLACK
6
CONTINUOUS
10
2.1931102362204724
20
0.7063678346456693
11
2.1992362204724407
21
0.7019170472440944
0
LINE
8
BLACK
6
CONTINUOUS
10
2.1992362204724407
20
0.7019170472440944
11
2.2043029921259842
21
0.6962898425196851
0
LINE
8
BLACK
6
CONTINUOUS
10
2.2043029921259842
20
0.6962898425196851
11
2.2080890551181103
21
0.6897322047244094
0
LINE
8
BLACK
6
CONTINUOUS
10
2.2080890551181103
20
0.6897322047244094
11
2.2104289763779525
21
0.6825306692913385
0
LINE
8
BLACK
6
CONTINUOUS
10
2.2104289763779525
20
0.6825306692913385
11
2.211220472440945
21
0.6749999999999999
0
LINE
8
BLACK
6
CONTINUOUS
10
2.211220472440945
20
0.6749999999999999
11
2.2104289763779525
21
0.6674693307086614
0
LINE
8
BLACK
6
CONTINUOUS
10
2.2104289763779525
20
0.6674693307086614
11
2.2080890551181103
21
0.6602677952755905
0
LINE
8
BLACK
6
CONTINUOUS
10
2.2080890551181103
20
0.6602677952755905
11
2.2043029921259842
21
0.6537101574803149
0
LINE
8
BLACK
6
CONTINUOUS
10
2.2043029921259842
20
0.6537101574803149
11
2.1992362204724407
21
0.6480829527559056
0
LINE
8
BLACK
6
CONTINUOUS
10
2.1992362204724407
20
0.6480829527559056
11
2.1931102362204724
21
0.6436321653543307
0
LINE
8
BLACK
6
CONTINUOUS
10
2.1931102362204724
20
0.6436321653543307
11
2.1861927559055117
21
0.6405522834645669
0
LINE
8
BLACK
6
CONTINUOUS
10
2.1861927559055117
20
0.6405522834645669
11
2.1787860629921258
21
0.6389779527559055
0
LINE
8
BLACK
6
CONTINUOUS
10
2.1787860629921258
20
0.6389779527559055
11
2.1712139370078738
21
0.6389779527559055
0
LINE
8
BLACK
6
CONTINUOUS
10
2.1712139370078738
20
0.6389779527559055
11
2.163807244094488
21
0.6405522834645669
0
LINE
8
BLACK
6
CONTINUOUS
10
2.163807244094488
20
0.6405522834645669
11
2.1568897637795277
21
0.6436321653543307
0
LINE
8
BLACK
6
CONTINUOUS
10
2.1568897637795277
20
0.6436321653543307
11
2.1507637795275589
21
0.6480829527559056
0
LINE
8
BLACK
6
CONTINUOUS
10
2.1507637795275589
20
0.6480829527559056
11
2.1456970078740158
21
0.6537101574803149
0
LINE
8
BLACK
6
CONTINUOUS
10
2.1456970078740158
20
0.6537101574803149
11
2.1419109448818898
21
0.6602677952755905
0
LINE
8
BLACK
6
CONTINUOUS
10
2.1419109448818898
20
0.6602677952755905
11
2.1395710236220471
21
0.6674693307086614
0
LINE
8
BLACK
6
CONTINUOUS
10
2.1395710236220471
20
0.6674693307086614
11
2.1387795275590551
21
0.6749999999999999
0
LINE
8
BLACK
6
CONTINUOUS
10
2.1387795275590551
20
0.6749999999999999
11
2.1395710236220471
21
0.6825306692913385
0
LINE
8
BLACK
6
CONTINUOUS
10
2.1395710236220471
20
0.6825306692913385
11
2.1419109448818898
21
0.6897322047244094
0
LINE
8
BLACK
6
CONTINUOUS
10
2.1419109448818898
20
0.6897322047244094
11
2.1456970078740158
21
0.6962898425196851
0
LINE
8
BLACK
6
CONTINUOUS
10
2.1456970078740158
20
0.6962898425196851
11
2.1507637795275589
21
0.7019170472440944
0
LINE
8
BLACK
6
CONTINUOUS
10
2.1507637795275589
20
0.7019170472440944
11
2.1568897637795277
21
0.7063678346456693
0
LINE
8
BLACK
6
CONTINUOUS
10
2.1568897637795277
20
0.7063678346456693
11
2.163807244094488
21
0.709447716535433
0
LINE
8
BLACK
6
CONTINUOUS
10
2.163807244094488
20
0.709447716535433
11
2.1712139370078738
21
0.7110220472440945
0
LINE
8
BLACK
6
CONTINUOUS
10
2.1712139370078738
20
0.7110220472440945
11
2.1787860629921258
21
0.7110220472440945
0
LINE
8
BLACK
6
CONTINUOUS
10
2.1787860629921258
20
0.7110220472440945
11
2.1861927559055117
21
0.709447716535433
0
LINE
8
BLACK
6
CONTINUOUS
10
2.2861927559055117
20
0.709447716535433
11
2.2931102362204725
21
0.7063678346456693
0
LINE
8
BLACK
6
CONTINUOUS
10
2.2931102362204725
20
0.7063678346456693
11
2.2992362204724408
21
0.7019170472440944
0
LINE
8
BLACK
6
CONTINUOUS
10
2.2992362204724408
20
0.7019170472440944
11
2.3043029921259843
21
0.6962898425196851
0
LINE
8
BLACK
6
CONTINUOUS
10
2.3043029921259843
20
0.6962898425196851
11
2.3080890551181104
21
0.6897322047244094
0
LINE
8
BLACK
6
CONTINUOUS
10
2.3080890551181104
20
0.6897322047244094
11
2.3104289763779526
21
0.6825306692913385
0
LINE
8
BLACK
6
CONTINUOUS
10
2.3104289763779526
20
0.6825306692913385
11
2.3112204724409446
21
0.6749999999999999
0
LINE
8
BLACK
6
CONTINUOUS
10
2.3112204724409446
20
0.6749999999999999
11
2.3104289763779526
21
0.6674693307086614
0
LINE
8
BLACK
6
CONTINUOUS
10
2.3104289763779526
20
0.6674693307086614
11
2.3080890551181104
21
0.6602677952755905
0
LINE
8
BLACK
6
CONTINUOUS
10
2.3080890551181104
20
0.6602677952755905
11
2.3043029921259843
21
0.6537101574803149
0
LINE
8
BLACK
6
CONTINUOUS
10
2.3043029921259843
20
0.6537101574803149
11
2.2992362204724408
21
0.6480829527559056
0
LINE
8
BLACK
6
CONTINUOUS
10
2.2992362204724408
20
0.6480829527559056
11
2.2931102362204725
21
0.6436321653543307
0
LINE
8
BLACK
6
CONTINUOUS
10
2.2931102362204725
20
0.6436321653543307
11
2.2861927559055117
21
0.6405522834645669
0
LINE
8
BLACK
6
CONTINUOUS
10
2.2861927559055117
20
0.6405522834645669
11
2.2787860629921259
21
0.6389779527559055
0
LINE
8
BLACK
6
CONTINUOUS
10
2.2787860629921259
20
0.6389779527559055
11
2.2712139370078739
21
0.6389779527559055
0
LINE
8
BLACK
6
CONTINUOUS
10
2.2712139370078739
20
0.6389779527559055
11
2.2638072440944881
21
0.6405522834645669
0
LINE
8
BLACK
6
CONTINUOUS
10
2.2638072440944881
20
0.6405522834645669
11
2.2568897637795273
21
0.6436321653543307
0
LINE
8
BLACK
6
CONTINUOUS
10
2.2568897637795273
20
0.6436321653543307
11
2.250763779527559
21
0.6480829527559056
0
LINE
8
BLACK
6
CONTINUOUS
10
2.250763779527559
20
0.6480829527559056
11
2.2456970078740155
21
0.6537101574803149
0
LINE
8
BLACK
6
CONTINUOUS
10
2.2456970078740155
20
0.6537101574803149
11
2.2419109448818899
21
0.6602677952755905
0
LINE
8
BLACK
6
CONTINUOUS
10
2.2419109448818899
20
0.6602677952755905
11
2.2395710236220472
21
0.6674693307086614
0
LINE
8
BLACK
6
CONTINUOUS
10
2.2395710236220472
20
0.6674693307086614
11
2.2387795275590552
21
0.6749999999999999
0
LINE
8
BLACK
6
CONTINUOUS
10
2.2387795275590552
20
0.6749999999999999
11
2.2395710236220472
21
0.6825306692913385
0
LINE
8
BLACK
6
CONTINUOUS
10
2.2395710236220472
20
0.6825306692913385
11
2.2419109448818899
21
0.6897322047244094
0
LINE
8
BLACK
6
CONTINUOUS
10
2.2419109448818899
20
0.6897322047244094
11
2.2456970078740155
21
0.6962898425196851
0
LINE
8
BLACK
6
CONTINUOUS
10
2.2456970078740155
20
0.6962898425196851
11
2.250763779527559
21
0.7019170472440944
0
LINE
8
BLACK
6
CONTINUOUS
10
2.250763779527559
20
0.7019170472440944
11
2.2568897637795273
21
0.7063678346456693
0
LINE
8
BLACK
6
CONTINUOUS
10
2.2568897637795273
20
0.7063678346456693
11
2.2638072440944881
21
0.709447716535433
0
LINE
8
BLACK
6
CONTINUOUS
10
2.2638072440944881
20
0.709447716535433
11
2.2712139370078739
21
0.7110220472440945
0
LINE
8
BLACK
6
CONTINUOUS
10
2.2712139370078739
20
0.7110220472440945
11
2.2787860629921259
21
0.7110220472440945
0
LINE
8
BLACK
6
CONTINUOUS
10
2.2787860629921259
20
0.7110220472440945
11
2.2861927559055117
21
0.709447716535433
0
LINE
8
BLACK
6
CONTINUOUS
10
0.1830132677165354
20
0.7622746456692914
11
0.1855677559055118
21
0.7605677559055118
0
LINE
8
BLACK
6
CONTINUOUS
10
0.1855677559055118
20
0.7605677559055118
11
0.1872746456692913
21
0.7580132677165354
0
LINE
8
BLACK
6
CONTINUOUS
10
0.1872746456692913
20
0.7580132677165354
11
0.1878740157480315
21
0.755
0
LINE
8
BLACK
6
CONTINUOUS
10
0.1878740157480315
20
0.755
11
0.1878740157480315
21
0.695
0
LINE
8
BLACK
6
CONTINUOUS
10
0.1878740157480315
20
0.695
11
0.1872746456692913
21
0.6919867322834645
0
LINE
8
BLACK
6
CONTINUOUS
10
0.1872746456692913
20
0.6919867322834645
11
0.1855677559055118
21
0.6894322440944882
0
LINE
8
BLACK
6
CONTINUOUS
10
0.1855677559055118
20
0.6894322440944882
11
0.1830132677165354
21
0.6877253543307087
0
LINE
8
BLACK
6
CONTINUOUS
10
0.1830132677165354
20
0.6877253543307087
11
0.18
21
0.6871259842519685
0
LINE
8
BLACK
6
CONTINUOUS
10
0.18
20
0.6871259842519685
11
0.12
21
0.6871259842519685
0
LINE
8
BLACK
6
CONTINUOUS
10
0.12
20
0.6871259842519685
11
0.1169867322834646
21
0.6877253543307087
0
LINE
8
BLACK
6
CONTINUOUS
10
0.1169867322834646
20
0.6877253543307087
11
0.1144322440944882
21
0.6894322440944882
0
LINE
8
BLACK
6
CONTINUOUS
10
0.1144322440944882
20
0.6894322440944882
11
0.1127253543307087
21
0.6919867322834645
0
LINE
8
BLACK
6
CONTINUOUS
10
0.1127253543307087
20
0.6919867322834645
11
0.1121259842519685
21
0.695
0
LINE
8
BLACK
6
CONTINUOUS
10
0.1121259842519685
20
0.695
11
0.1121259842519685
21
0.755
0
LINE
8
BLACK
6
CONTINUOUS
10
0.1121259842519685
20
0.755
11
0.1127253543307087
21
0.7580132677165354
0
LINE
8
BLACK
6
CONTINUOUS
10
0.1127253543307087
20
0.7580132677165354
11
0.1144322440944882
21
0.7605677559055118
0
LINE
8
BLACK
6
CONTINUOUS
10
0.1144322440944882
20
0.7605677559055118
11
0.1169867322834646
21
0.7622746456692914
0
LINE
8
BLACK
6
CONTINUOUS
10
0.1169867322834646
20
0.7622746456692914
11
0.12
21
0.7628740157480315
0
LINE
8
BLACK
6
CONTINUOUS
10
0.12
20
0.7628740157480315
11
0.18
21
0.7628740157480315
0
LINE
8
BLACK
6
CONTINUOUS
10
0.18
20
0.7628740157480315
11
0.1830132677165354
21
0.7622746456692914
0
LINE
8
BLACK
6
CONTINUOUS
10
0.2830132677165354
20
0.7622746456692914
11
0.2855677559055118
21
0.7605677559055118
0
LINE
8
BLACK
6
CONTINUOUS
10
0.2855677559055118
20
0.7605677559055118
11
0.2872746456692913
21
0.7580132677165354
0
LINE
8
BLACK
6
CONTINUOUS
10
0.2872746456692913
20
0.7580132677165354
11
0.2878740157480315
21
0.755
0
LINE
8
BLACK
6
CONTINUOUS
10
0.2878740157480315
20
0.755
11
0.2878740157480315
21
0.695
0
LINE
8
BLACK
6
CONTINUOUS
10
0.2878740157480315
20
0.695
11
0.2872746456692913
21
0.6919867322834645
0
LINE
8
BLACK
6
CONTINUOUS
10
0.2872746456692913
20
0.6919867322834645
11
0.2855677559055118
21
0.6894322440944882
0
LINE
8
BLACK
6
CONTINUOUS
10
0.2855677559055118
20
0.6894322440944882
11
0.2830132677165354
21
0.6877253543307087
0
LINE
8
BLACK
6
CONTINUOUS
10
0.2830132677165354
20
0.6877253543307087
11
0.28
21
0.6871259842519685
0
LINE
8
BLACK
6
CONTINUOUS
10
0.28
20
0.6871259842519685
11
0.22
21
0.6871259842519685
0
LINE
8
BLACK
6
CONTINUOUS
10
0.22
20
0.6871259842519685
11
0.2169867322834646
21
0.6877253543307087
0
LINE
8
BLACK
6
CONTINUOUS
10
0.2169867322834646
20
0.6877253543307087
11
0.2144322440944882
21
0.6894322440944882
0
LINE
8
BLACK
6
CONTINUOUS
10
0.2144322440944882
20
0.6894322440944882
11
0.2127253543307087
21
0.6919867322834645
0
LINE
8
BLACK
6
CONTINUOUS
10
0.2127253543307087
20
0.6919867322834645
11
0.2121259842519685
21
0.695
0
LINE
8
BLACK
6
CONTINUOUS
10
0.2121259842519685
20
0.695
11
0.2121259842519685
21
0.755
0
LINE
8
BLACK
6
CONTINUOUS
10
0.2121259842519685
20
0.755
11
0.2127253543307087
21
0.7580132677165354
0
LINE
8
BLACK
6
CONTINUOUS
10
0.2127253543307087
20
0.7580132677165354
11
0.2144322440944882
21
0.7605677559055118
0
LINE
8
BLACK
6
CONTINUOUS
10
0.2144322440944882
20
0.7605677559055118
11
0.2169867322834646
21
0.7622746456692914
0
LINE
8
BLACK
6
CONTINUOUS
10
0.2169867322834646
20
0.7622746456692914
11
0.22
21
0.7628740157480315
0
LINE
8
BLACK
6
CONTINUOUS
10
0.22
20
0.7628740157480315
11
0.28
21
0.7628740157480315
0
LINE
8
BLACK
6
CONTINUOUS
10
0.28
20
0.7628740157480315
11
0.2830132677165354
21
0.7622746456692914
0
LINE
8
BLACK
6
CONTINUOUS
10
2.2207101181102362
20
0.8098337007874016
11
2.2232646062992125
21
0.808126811023622
0
LINE
8
BLACK
6
CONTINUOUS
10
2.2232646062992125
20
0.808126811023622
11
2.224971496062992
21
0.8055723228346456
0
LINE
8
BLACK
6
CONTINUOUS
10
2.224971496062992
20
0.8055723228346456
11
2.2255708661417324
21
0.8025590551181102
0
LINE
8
BLACK
6
CONTINUOUS
10
2.2255708661417324
20
0.8025590551181102
11
2.2255708661417324
21
0.7474409448818897
0
LINE
8
BLACK
6
CONTINUOUS
10
2.2255708661417324
20
0.7474409448818897
11
2.224971496062992
21
0.7444276771653543
0
LINE
8
BLACK
6
CONTINUOUS
10
2.224971496062992
20
0.7444276771653543
11
2.2232646062992125
21
0.7418731889763779
0
LINE
8
BLACK
6
CONTINUOUS
10
2.2232646062992125
20
0.7418731889763779
11
2.2207101181102362
21
0.7401662992125984
0
LINE
8
BLACK
6
CONTINUOUS
10
2.2207101181102362
20
0.7401662992125984
11
2.2176968503937009
21
0.7395669291338582
0
LINE
8
BLACK
6
CONTINUOUS
10
2.2176968503937009
20
0.7395669291338582
11
2.182303149606299
21
0.7395669291338582
0
LINE
8
BLACK
6
CONTINUOUS
10
2.182303149606299
20
0.7395669291338582
11
2.1792898818897637
21
0.7401662992125984
0
LINE
8
BLACK
6
CONTINUOUS
10
2.1792898818897637
20
0.7401662992125984
11
2.1767353937007874
21
0.7418731889763779
0
LINE
8
BLACK
6
CONTINUOUS
10
2.1767353937007874
20
0.7418731889763779
11
2.1750285039370079
21
0.7444276771653543
0
LINE
8
BLACK
6
CONTINUOUS
10
2.1750285039370079
20
0.7444276771653543
11
2.1744291338582675
21
0.7474409448818897
0
LINE
8
BLACK
6
CONTINUOUS
10
2.1744291338582675
20
0.7474409448818897
11
2.1744291338582675
21
0.8025590551181102
0
LINE
8
BLACK
6
CONTINUOUS
10
2.1744291338582675
20
0.8025590551181102
11
2.1750285039370079
21
0.8055723228346456
0
LINE
8
BLACK
6
CONTINUOUS
10
2.1750285039370079
20
0.8055723228346456
11
2.1767353937007874
21
0.808126811023622
0
LINE
8
BLACK
6
CONTINUOUS
10
2.1767353937007874
20
0.808126811023622
11
2.1792898818897637
21
0.8098337007874016
0
LINE
8
BLACK
6
CONTINUOUS
10
2.1792898818897637
20
0.8098337007874016
11
2.182303149606299
21
0.8104330708661417
0
LINE
8
BLACK
6
CONTINUOUS
10
2.182303149606299
20
0.8104330708661417
11
2.2176968503937009
21
0.8104330708661417
0
LINE
8
BLACK
6
CONTINUOUS
10
2.2176968503937009
20
0.8104330708661417
11
2.2207101181102362
21
0.8098337007874016
0
LINE
8
BLACK
6
CONTINUOUS
10
2.2955132677165353
20
0.8098337007874016
11
2.2980677559055116
21
0.808126811023622
0
LINE
8
BLACK
6
CONTINUOUS
10
2.2980677559055116
20
0.808126811023622
11
2.2997746456692911
21
0.8055723228346456
0
LINE
8
BLACK
6
CONTINUOUS
10
2.2997746456692911
20
0.8055723228346456
11
2.3003740157480315
21
0.8025590551181102
0
LINE
8
BLACK
6
CONTINUOUS
10
2.3003740157480315
20
0.8025590551181102
11
2.3003740157480315
21
0.7474409448818897
0
LINE
8
BLACK
6
CONTINUOUS
10
2.3003740157480315
20
0.7474409448818897
11
2.2997746456692911
21
0.7444276771653543
0
LINE
8
BLACK
6
CONTINUOUS
10
2.2997746456692911
20
0.7444276771653543
11
2.2980677559055116
21
0.7418731889763779
0
LINE
8
BLACK
6
CONTINUOUS
10
2.2980677559055116
20
0.7418731889763779
11
2.2955132677165353
21
0.7401662992125984
0
LINE
8
BLACK
6
CONTINUOUS
10
2.2955132677165353
20
0.7401662992125984
11
2.2925
21
0.7395669291338582
0
LINE
8
BLACK
6
CONTINUOUS
10
2.2925
20
0.7395669291338582
11
2.2574999999999998
21
0.7395669291338582
0
LINE
8
BLACK
6
CONTINUOUS
10
2.2574999999999998
20
0.7395669291338582
11
2.2544867322834645
21
0.7401662992125984
0
LINE
8
BLACK
6
CONTINUOUS
10
2.2544867322834645
20
0.7401662992125984
11
2.2519322440944882
21
0.7418731889763779
0
LINE
8
BLACK
6
CONTINUOUS
10
2.2519322440944882
20
0.7418731889763779
11
2.2502253543307087
21
0.7444276771653543
0
LINE
8
BLACK
6
CONTINUOUS
10
2.2502253543307087
20
0.7444276771653543
11
2.2496259842519684
21
0.7474409448818897
0
LINE
8
BLACK
6
CONTINUOUS
10
2.2496259842519684
20
0.7474409448818897
11
2.2496259842519684
21
0.8025590551181102
0
LINE
8
BLACK
6
CONTINUOUS
10
2.2496259842519684
20
0.8025590551181102
11
2.2502253543307087
21
0.8055723228346456
0
LINE
8
BLACK
6
CONTINUOUS
10
2.2502253543307087
20
0.8055723228346456
11
2.2519322440944882
21
0.808126811023622
0
LINE
8
BLACK
6
CONTINUOUS
10
2.2519322440944882
20
0.808126811023622
11
2.2544867322834645
21
0.8098337007874016
0
LINE
8
BLACK
6
CONTINUOUS
10
2.2544867322834645
20
0.8098337007874016
11
2.2574999999999998
21
0.8104330708661417
0
LINE
8
BLACK
6
CONTINUOUS
10
2.2574999999999998
20
0.8104330708661417
11
2.2925
21
0.8104330708661417
0
LINE
8
BLACK
6
CONTINUOUS
10
2.2925
20
0.8104330708661417
11
2.2955132677165353
21
0.8098337007874016
0
LINE
8
BLACK
6
CONTINUOUS
10
0.1830132677165354
20
0.8622746456692914
11
0.1855677559055118
21
0.8605677559055118
0
LINE
8
BLACK
6
CONTINUOUS
10
0.1855677559055118
20
0.8605677559055118
11
0.1872746456692913
21
0.8580132677165354
0
LINE
8
BLACK
6
CONTINUOUS
10
0.1872746456692913
20
0.8580132677165354
11
0.1878740157480315
21
0.855
0
LINE
8
BLACK
6
CONTINUOUS
10
0.1878740157480315
20
0.855
11
0.1878740157480315
21
0.7949999999999999
0
LINE
8
BLACK
6
CONTINUOUS
10
0.1878740157480315
20
0.7949999999999999
11
0.1872746456692913
21
0.7919867322834645
0
LINE
8
BLACK
6
CONTINUOUS
10
0.1872746456692913
20
0.7919867322834645
11
0.1855677559055118
21
0.7894322440944882
0
LINE
8
BLACK
6
CONTINUOUS
10
0.1855677559055118
20
0.7894322440944882
11
0.1830132677165354
21
0.7877253543307087
0
LINE
8
BLACK
6
CONTINUOUS
10
0.1830132677165354
20
0.7877253543307087
11
0.18
21
0.7871259842519684
0
LINE
8
BLACK
6
CONTINUOUS
10
0.18
20
0.7871259842519684
11
0.12
21
0.7871259842519684
0
LINE
8
BLACK
6
CONTINUOUS
10
0.12
20
0.7871259842519684
11
0.1169867322834646
21
0.7877253543307087
0
LINE
8
BLACK
6
CONTINUOUS
10
0.1169867322834646
20
0.7877253543307087
11
0.1144322440944882
21
0.7894322440944882
0
LINE
8
BLACK
6
CONTINUOUS
10
0.1144322440944882
20
0.7894322440944882
11
0.1127253543307087
21
0.7919867322834645
0
LINE
8
BLACK
6
CONTINUOUS
10
0.1127253543307087
20
0.7919867322834645
11
0.1121259842519685
21
0.7949999999999999
0
LINE
8
BLACK
6
CONTINUOUS
10
0.1121259842519685
20
0.7949999999999999
11
0.1121259842519685
21
0.855
0
LINE
8
BLACK
6
CONTINUOUS
10
0.1121259842519685
20
0.855
11
0.1127253543307087
21
0.8580132677165354
0
LINE
8
BLACK
6
CONTINUOUS
10
0.1127253543307087
20
0.8580132677165354
11
0.1144322440944882
21
0.8605677559055118
0
LINE
8
BLACK
6
CONTINUOUS
10
0.1144322440944882
20
0.8605677559055118
11
0.1169867322834646
21
0.8622746456692914
0
LINE
8
BLACK
6
CONTINUOUS
10
0.1169867322834646
20
0.8622746456692914
11
0.12
21
0.8628740157480315
0
LINE
8
BLACK
6
CONTINUOUS
10
0.12
20
0.8628740157480315
11
0.18
21
0.8628740157480315
0
LINE
8
BLACK
6
CONTINUOUS
10
0.18
20
0.8628740157480315
11
0.1830132677165354
21
0.8622746456692914
0
LINE
8
BLACK
6
CONTINUOUS
10
0.2830132677165354
20
0.8622746456692914
11
0.2855677559055118
21
0.8605677559055118
0
LINE
8
BLACK
6
CONTINUOUS
10
0.2855677559055118
20
0.8605677559055118
11
0.2872746456692913
21
0.8580132677165354
0
LINE
8
BLACK
6
CONTINUOUS
10
0.2872746456692913
20
0.8580132677165354
11
0.2878740157480315
21
0.855
0
LINE
8
BLACK
6
CONTINUOUS
10
0.2878740157480315
20
0.855
11
0.2878740157480315
21
0.7949999999999999
0
LINE
8
BLACK
6
CONTINUOUS
10
0.2878740157480315
20
0.7949999999999999
11
0.2872746456692913
21
0.7919867322834645
0
LINE
8
BLACK
6
CONTINUOUS
10
0.2872746456692913
20
0.7919867322834645
11
0.2855677559055118
21
0.7894322440944882
0
LINE
8
BLACK
6
CONTINUOUS
10
0.2855677559055118
20
0.7894322440944882
11
0.2830132677165354
21
0.7877253543307087
0
LINE
8
BLACK
6
CONTINUOUS
10
0.2830132677165354
20
0.7877253543307087
11
0.28
21
0.7871259842519684
0
LINE
8
BLACK
6
CONTINUOUS
10
0.28
20
0.7871259842519684
11
0.22
21
0.7871259842519684
0
LINE
8
BLACK
6
CONTINUOUS
10
0.22
20
0.7871259842519684
11
0.2169867322834646
21
0.7877253543307087
0
LINE
8
BLACK
6
CONTINUOUS
10
0.2169867322834646
20
0.7877253543307087
11
0.2144322440944882
21
0.7894322440944882
0
LINE
8
BLACK
6
CONTINUOUS
10
0.2144322440944882
20
0.7894322440944882
11
0.2127253543307087
21
0.7919867322834645
0
LINE
8
BLACK
6
CONTINUOUS
10
0.2127253543307087
20
0.7919867322834645
11
0.2121259842519685
21
0.7949999999999999
0
LINE
8
BLACK
6
CONTINUOUS
10
0.2121259842519685
20
0.7949999999999999
11
0.2121259842519685
21
0.855
0
LINE
8
BLACK
6
CONTINUOUS
10
0.2121259842519685
20
0.855
11
0.2127253543307087
21
0.8580132677165354
0
LINE
8
BLACK
6
CONTINUOUS
10
0.2127253543307087
20
0.8580132677165354
11
0.2144322440944882
21
0.8605677559055118
0
LINE
8
BLACK
6
CONTINUOUS
10
0.2144322440944882
20
0.8605677559055118
11
0.2169867322834646
21
0.8622746456692914
0
LINE
8
BLACK
6
CONTINUOUS
10
0.2169867322834646
20
0.8622746456692914
11
0.22
21
0.8628740157480315
0
LINE
8
BLACK
6
CONTINUOUS
10
0.22
20
0.8628740157480315
11
0.28
21
0.8628740157480315
0
LINE
8
BLACK
6
CONTINUOUS
10
0.28
20
0.8628740157480315
11
0.2830132677165354
21
0.8622746456692914
0
LINE
8
BLACK
6
CONTINUOUS
10
2.0861927559055116
20
0.934447716535433
11
2.0931102362204723
21
0.9313678346456693
0
LINE
8
BLACK
6
CONTINUOUS
10
2.0931102362204723
20
0.9313678346456693
11
2.0992362204724411
21
0.9269170472440945
0
LINE
8
BLACK
6
CONTINUOUS
10
2.0992362204724411
20
0.9269170472440945
11
2.1043029921259842
21
0.921289842519685
0
LINE
8
BLACK
6
CONTINUOUS
10
2.1043029921259842
20
0.921289842519685
11
2.1080890551181102
21
0.9147322047244094
0
LINE
8
BLACK
6
CONTINUOUS
10
2.1080890551181102
20
0.9147322047244094
11
2.1104289763779529
21
0.9075306692913385
0
LINE
8
BLACK
6
CONTINUOUS
10
2.1104289763779529
20
0.9075306692913385
11
2.1112204724409449
21
0.9
0
LINE
8
BLACK
6
CONTINUOUS
10
2.1112204724409449
20
0.9
11
2.1104289763779529
21
0.8924693307086614
0
LINE
8
BLACK
6
CONTINUOUS
10
2.1104289763779529
20
0.8924693307086614
11
2.1080890551181102
21
0.8852677952755905
0
LINE
8
BLACK
6
CONTINUOUS
10
2.1080890551181102
20
0.8852677952755905
11
2.1043029921259842
21
0.8787101574803149
0
LINE
8
BLACK
6
CONTINUOUS
10
2.1043029921259842
20
0.8787101574803149
11
2.0992362204724411
21
0.8730829527559055
0
LINE
8
BLACK
6
CONTINUOUS
10
2.0992362204724411
20
0.8730829527559055
11
2.0931102362204723
21
0.8686321653543307
0
LINE
8
BLACK
6
CONTINUOUS
10
2.0931102362204723
20
0.8686321653543307
11
2.0861927559055116
21
0.8655522834645669
0
LINE
8
BLACK
6
CONTINUOUS
10
2.0861927559055116
20
0.8655522834645669
11
2.0787860629921258
21
0.8639779527559055
0
LINE
8
BLACK
6
CONTINUOUS
10
2.0787860629921258
20
0.8639779527559055
11
2.0712139370078742
21
0.8639779527559055
0
LINE
8
BLACK
6
CONTINUOUS
10
2.0712139370078742
20
0.8639779527559055
11
2.0638072440944883
21
0.8655522834645669
0
LINE
8
BLACK
6
CONTINUOUS
10
2.0638072440944883
20
0.8655522834645669
11
2.0568897637795276
21
0.8686321653543307
0
LINE
8
BLACK
6
CONTINUOUS
10
2.0568897637795276
20
0.8686321653543307
11
2.0507637795275588
21
0.8730829527559055
0
LINE
8
BLACK
6
CONTINUOUS
10
2.0507637795275588
20
0.8730829527559055
11
2.0456970078740158
21
0.8787101574803149
0
LINE
8
BLACK
6
CONTINUOUS
10
2.0456970078740158
20
0.8787101574803149
11
2.0419109448818897
21
0.8852677952755905
0
LINE
8
BLACK
6
CONTINUOUS
10
2.0419109448818897
20
0.8852677952755905
11
2.039571023622047
21
0.8924693307086614
0
LINE
8
BLACK
6
CONTINUOUS
10
2.039571023622047
20
0.8924693307086614
11
2.038779527559055
21
0.9
0
LINE
8
BLACK
6
CONTINUOUS
10
2.038779527559055
20
0.9
11
2.039571023622047
21
0.9075306692913385
0
LINE
8
BLACK
6
CONTINUOUS
10
2.039571023622047
20
0.9075306692913385
11
2.0419109448818897
21
0.9147322047244094
0
LINE
8
BLACK
6
CONTINUOUS
10
2.0419109448818897
20
0.9147322047244094
11
2.0456970078740158
21
0.921289842519685
0
LINE
8
BLACK
6
CONTINUOUS
10
2.0456970078740158
20
0.921289842519685
11
2.0507637795275588
21
0.9269170472440945
0
LINE
8
BLACK
6
CONTINUOUS
10
2.0507637795275588
20
0.9269170472440945
11
2.0568897637795276
21
0.9313678346456693
0
LINE
8
BLACK
6
CONTINUOUS
10
2.0568897637795276
20
0.9313678346456693
11
2.0638072440944883
21
0.934447716535433
0
LINE
8
BLACK
6
CONTINUOUS
10
2.0638072440944883
20
0.934447716535433
11
2.0712139370078742
21
0.9360220472440944
0
LINE
8
BLACK
6
CONTINUOUS
10
2.0712139370078742
20
0.9360220472440944
11
2.0787860629921258
21
0.9360220472440944
0
LINE
8
BLACK
6
CONTINUOUS
10
2.0787860629921258
20
0.9360220472440944
11
2.0861927559055116
21
0.934447716535433
0
LINE
8
BLACK
6
CONTINUOUS
10
2.1861927559055117
20
0.934447716535433
11
2.1931102362204724
21
0.9313678346456693
0
LINE
8
BLACK
6
CONTINUOUS
10
2.1931102362204724
20
0.9313678346456693
11
2.1992362204724407
21
0.9269170472440945
0
LINE
8
BLACK
6
CONTINUOUS
10
2.1992362204724407
20
0.9269170472440945
11
2.2043029921259842
21
0.921289842519685
0
LINE
8
BLACK
6
CONTINUOUS
10
2.2043029921259842
20
0.921289842519685
11
2.2080890551181103
21
0.9147322047244094
0
LINE
8
BLACK
6
CONTINUOUS
10
2.2080890551181103
20
0.9147322047244094
11
2.2104289763779525
21
0.9075306692913385
0
LINE
8
BLACK
6
CONTINUOUS
10
2.2104289763779525
20
0.9075306692913385
11
2.211220472440945
21
0.9
0
LINE
8
BLACK
6
CONTINUOUS
10
2.211220472440945
20
0.9
11
2.2104289763779525
21
0.8924693307086614
0
LINE
8
BLACK
6
CONTINUOUS
10
2.2104289763779525
20
0.8924693307086614
11
2.2080890551181103
21
0.8852677952755905
0
LINE
8
BLACK
6
CONTINUOUS
10
2.2080890551181103
20
0.8852677952755905
11
2.2043029921259842
21
0.8787101574803149
0
LINE
8
BLACK
6
CONTINUOUS
10
2.2043029921259842
20
0.8787101574803149
11
2.1992362204724407
21
0.8730829527559055
0
LINE
8
BLACK
6
CONTINUOUS
10
2.1992362204724407
20
0.8730829527559055
11
2.1931102362204724
21
0.8686321653543307
0
LINE
8
BLACK
6
CONTINUOUS
10
2.1931102362204724
20
0.8686321653543307
11
2.1861927559055117
21
0.8655522834645669
0
LINE
8
BLACK
6
CONTINUOUS
10
2.1861927559055117
20
0.8655522834645669
11
2.1787860629921258
21
0.8639779527559055
0
LINE
8
BLACK
6
CONTINUOUS
10
2.1787860629921258
20
0.8639779527559055
11
2.1712139370078738
21
0.8639779527559055
0
LINE
8
BLACK
6
CONTINUOUS
10
2.1712139370078738
20
0.8639779527559055
11
2.163807244094488
21
0.8655522834645669
0
LINE
8
BLACK
6
CONTINUOUS
10
2.163807244094488
20
0.8655522834645669
11
2.1568897637795277
21
0.8686321653543307
0
LINE
8
BLACK
6
CONTINUOUS
10
2.1568897637795277
20
0.8686321653543307
11
2.1507637795275589
21
0.8730829527559055
0
LINE
8
BLACK
6
CONTINUOUS
10
2.1507637795275589
20
0.8730829527559055
11
2.1456970078740158
21
0.8787101574803149
0
LINE
8
BLACK
6
CONTINUOUS
10
2.1456970078740158
20
0.8787101574803149
11
2.1419109448818898
21
0.8852677952755905
0
LINE
8
BLACK
6
CONTINUOUS
10
2.1419109448818898
20
0.8852677952755905
11
2.1395710236220471
21
0.8924693307086614
0
LINE
8
BLACK
6
CONTINUOUS
10
2.1395710236220471
20
0.8924693307086614
11
2.1387795275590551
21
0.9
0
LINE
8
BLACK
6
CONTINUOUS
10
2.1387795275590551
20
0.9
11
2.1395710236220471
21
0.9075306692913385
0
LINE
8
BLACK
6
CONTINUOUS
10
2.1395710236220471
20
0.9075306692913385
11
2.1419109448818898
21
0.9147322047244094
0
LINE
8
BLACK
6
CONTINUOUS
10
2.1419109448818898
20
0.9147322047244094
11
2.1456970078740158
21
0.921289842519685
0
LINE
8
BLACK
6
CONTINUOUS
10
2.1456970078740158
20
0.921289842519685
11
2.1507637795275589
21
0.9269170472440945
0
LINE
8
BLACK
6
CONTINUOUS
10
2.1507637795275589
20
0.9269170472440945
11
2.1568897637795277
21
0.9313678346456693
0
LINE
8
BLACK
6
CONTINUOUS
10
2.1568897637795277
20
0.9313678346456693
11
2.163807244094488
21
0.934447716535433
0
LINE
8
BLACK
6
CONTINUOUS
10
2.163807244094488
20
0.934447716535433
11
2.1712139370078738
21
0.9360220472440944
0
LINE
8
BLACK
6
CONTINUOUS
10
2.1712139370078738
20
0.9360220472440944
11
2.1787860629921258
21
0.9360220472440944
0
LINE
8
BLACK
6
CONTINUOUS
10
2.1787860629921258
20
0.9360220472440944
11
2.1861927559055117
21
0.934447716535433
0
LINE
8
BLACK
6
CONTINUOUS
10
2.2861927559055117
20
0.934447716535433
11
2.2931102362204725
21
0.9313678346456693
0
LINE
8
BLACK
6
CONTINUOUS
10
2.2931102362204725
20
0.9313678346456693
11
2.2992362204724408
21
0.9269170472440945
0
LINE
8
BLACK
6
CONTINUOUS
10
2.2992362204724408
20
0.9269170472440945
11
2.3043029921259843
21
0.921289842519685
0
LINE
8
BLACK
6
CONTINUOUS
10
2.3043029921259843
20
0.921289842519685
11
2.3080890551181104
21
0.9147322047244094
0
LINE
8
BLACK
6
CONTINUOUS
10
2.3080890551181104
20
0.9147322047244094
11
2.3104289763779526
21
0.9075306692913385
0
LINE
8
BLACK
6
CONTINUOUS
10
2.3104289763779526
20
0.9075306692913385
11
2.3112204724409446
21
0.9
0
LINE
8
BLACK
6
CONTINUOUS
10
2.3112204724409446
20
0.9
11
2.3104289763779526
21
0.8924693307086614
0
LINE
8
BLACK
6
CONTINUOUS
10
2.3104289763779526
20
0.8924693307086614
11
2.3080890551181104
21
0.8852677952755905
0
LINE
8
BLACK
6
CONTINUOUS
10
2.3080890551181104
20
0.8852677952755905
11
2.3043029921259843
21
0.8787101574803149
0
LINE
8
BLACK
6
CONTINUOUS
10
2.3043029921259843
20
0.8787101574803149
11
2.2992362204724408
21
0.8730829527559055
0
LINE
8
BLACK
6
CONTINUOUS
10
2.2992362204724408
20
0.8730829527559055
11
2.2931102362204725
21
0.8686321653543307
0
LINE
8
BLACK
6
CONTINUOUS
10
2.2931102362204725
20
0.8686321653543307
11
2.2861927559055117
21
0.8655522834645669
0
LINE
8
BLACK
6
CONTINUOUS
10
2.2861927559055117
20
0.8655522834645669
11
2.2787860629921259
21
0.8639779527559055
0
LINE
8
BLACK
6
CONTINUOUS
10
2.2787860629921259
20
0.8639779527559055
11
2.2712139370078739
21
0.8639779527559055
0
LINE
8
BLACK
6
CONTINUOUS
10
2.2712139370078739
20
0.8639779527559055
11
2.2638072440944881
21
0.8655522834645669
0
LINE
8
BLACK
6
CONTINUOUS
10
2.2638072440944881
20
0.8655522834645669
11
2.2568897637795273
21
0.8686321653543307
0
LINE
8
BLACK
6
CONTINUOUS
10
2.2568897637795273
20
0.8686321653543307
11
2.250763779527559
21
0.8730829527559055
0
LINE
8
BLACK
6
CONTINUOUS
10
2.250763779527559
20
0.8730829527559055
11
2.2456970078740155
21
0.8787101574803149
0
LINE
8
BLACK
6
CONTINUOUS
10
2.2456970078740155
20
0.8787101574803149
11
2.2419109448818899
21
0.8852677952755905
0
LINE
8
BLACK
6
CONTINUOUS
10
2.2419109448818899
20
0.8852677952755905
11
2.2395710236220472
21
0.8924693307086614
0
LINE
8
BLACK
6
CONTINUOUS
10
2.2395710236220472
20
0.8924693307086614
11
2.2387795275590552
21
0.9
0
LINE
8
BLACK
6
CONTINUOUS
10
2.2387795275590552
20
0.9
11
2.2395710236220472
21
0.9075306692913385
0
LINE
8
BLACK
6
CONTINUOUS
10
2.2395710236220472
20
0.9075306692913385
11
2.2419109448818899
21
0.9147322047244094
0
LINE
8
BLACK
6
CONTINUOUS
10
2.2419109448818899
20
0.9147322047244094
11
2.2456970078740155
21
0.921289842519685
0
LINE
8
BLACK
6
CONTINUOUS
10
2.2456970078740155
20
0.921289842519685
11
2.250763779527559
21
0.9269170472440945
0
LINE
8
BLACK
6
CONTINUOUS
10
2.250763779527559
20
0.9269170472440945
11
2.2568897637795273
21
0.9313678346456693
0
LINE
8
BLACK
6
CONTINUOUS
10
2.2568897637795273
20
0.9313678346456693
11
2.2638072440944881
21
0.934447716535433
0
LINE
8
BLACK
6
CONTINUOUS
10
2.2638072440944881
20
0.934447716535433
11
2.2712139370078739
21
0.9360220472440944
0
LINE
8
BLACK
6
CONTINUOUS
10
2.2712139370078739
20
0.9360220472440944
11
2.2787860629921259
21
0.9360220472440944
0
LINE
8
BLACK
6
CONTINUOUS
10
2.2787860629921259
20
0.9360220472440944
11
2.2861927559055117
21
0.934447716535433
0
LINE
8
BLACK
6
CONTINUOUS
10
0.1830132677165354
20
0.9622746456692913
11
0.1855677559055118
21
0.9605677559055118
0
LINE
8
BLACK
6
CONTINUOUS
10
0.1855677559055118
20
0.9605677559055118
11
0.1872746456692913
21
0.9580132677165354
0
LINE
8
BLACK
6
CONTINUOUS
10
0.1872746456692913
20
0.9580132677165354
11
0.1878740157480315
21
0.955
0
LINE
8
BLACK
6
CONTINUOUS
10
0.1878740157480315
20
0.955
11
0.1878740157480315
21
0.895
0
LINE
8
BLACK
6
CONTINUOUS
10
0.1878740157480315
20
0.895
11
0.1872746456692913
21
0.8919867322834646
0
LINE
8
BLACK
6
CONTINUOUS
10
0.1872746456692913
20
0.8919867322834646
11
0.1855677559055118
21
0.8894322440944882
0
LINE
8
BLACK
6
CONTINUOUS
10
0.1855677559055118
20
0.8894322440944882
11
0.1830132677165354
21
0.8877253543307086
0
LINE
8
BLACK
6
CONTINUOUS
10
0.1830132677165354
20
0.8877253543307086
11
0.18
21
0.8871259842519685
0
LINE
8
BLACK
6
CONTINUOUS
10
0.18
20
0.8871259842519685
11
0.12
21
0.8871259842519685
0
LINE
8
BLACK
6
CONTINUOUS
10
0.12
20
0.8871259842519685
11
0.1169867322834646
21
0.8877253543307086
0
LINE
8
BLACK
6
CONTINUOUS
10
0.1169867322834646
20
0.8877253543307086
11
0.1144322440944882
21
0.8894322440944882
0
LINE
8
BLACK
6
CONTINUOUS
10
0.1144322440944882
20
0.8894322440944882
11
0.1127253543307087
21
0.8919867322834646
0
LINE
8
BLACK
6
CONTINUOUS
10
0.1127253543307087
20
0.8919867322834646
11
0.1121259842519685
21
0.895
0
LINE
8
BLACK
6
CONTINUOUS
10
0.1121259842519685
20
0.895
11
0.1121259842519685
21
0.955
0
LINE
8
BLACK
6
CONTINUOUS
10
0.1121259842519685
20
0.955
11
0.1127253543307087
21
0.9580132677165354
0
LINE
8
BLACK
6
CONTINUOUS
10
0.1127253543307087
20
0.9580132677165354
11
0.1144322440944882
21
0.9605677559055118
0
LINE
8
BLACK
6
CONTINUOUS
10
0.1144322440944882
20
0.9605677559055118
11
0.1169867322834646
21
0.9622746456692913
0
LINE
8
BLACK
6
CONTINUOUS
10
0.1169867322834646
20
0.9622746456692913
11
0.12
21
0.9628740157480314
0
LINE
8
BLACK
6
CONTINUOUS
10
0.12
20
0.9628740157480314
11
0.18
21
0.9628740157480314
0
LINE
8
BLACK
6
CONTINUOUS
10
0.18
20
0.9628740157480314
11
0.1830132677165354
21
0.9622746456692913
0
LINE
8
BLACK
6
CONTINUOUS
10
0.2830132677165354
20
0.9622746456692913
11
0.2855677559055118
21
0.9605677559055118
0
LINE
8
BLACK
6
CONTINUOUS
10
0.2855677559055118
20
0.9605677559055118
11
0.2872746456692913
21
0.9580132677165354
0
LINE
8
BLACK
6
CONTINUOUS
10
0.2872746456692913
20
0.9580132677165354
11
0.2878740157480315
21
0.955
0
LINE
8
BLACK
6
CONTINUOUS
10
0.2878740157480315
20
0.955
11
0.2878740157480315
21
0.895
0
LINE
8
BLACK
6
CONTINUOUS
10
0.2878740157480315
20
0.895
11
0.2872746456692913
21
0.8919867322834646
0
LINE
8
BLACK
6
CONTINUOUS
10
0.2872746456692913
20
0.8919867322834646
11
0.2855677559055118
21
0.8894322440944882
0
LINE
8
BLACK
6
CONTINUOUS
10
0.2855677559055118
20
0.8894322440944882
11
0.2830132677165354
21
0.8877253543307086
0
LINE
8
BLACK
6
CONTINUOUS
10
0.2830132677165354
20
0.8877253543307086
11
0.28
21
0.8871259842519685
0
LINE
8
BLACK
6
CONTINUOUS
10
0.28
20
0.8871259842519685
11
0.22
21
0.8871259842519685
0
LINE
8
BLACK
6
CONTINUOUS
10
0.22
20
0.8871259842519685
11
0.2169867322834646
21
0.8877253543307086
0
LINE
8
BLACK
6
CONTINUOUS
10
0.2169867322834646
20
0.8877253543307086
11
0.2144322440944882
21
0.8894322440944882
0
LINE
8
BLACK
6
CONTINUOUS
10
0.2144322440944882
20
0.8894322440944882
11
0.2127253543307087
21
0.8919867322834646
0
LINE
8
BLACK
6
CONTINUOUS
10
0.2127253543307087
20
0.8919867322834646
11
0.2121259842519685
21
0.895
0
LINE
8
BLACK
6
CONTINUOUS
10
0.2121259842519685
20
0.895
11
0.2121259842519685
21
0.955
0
LINE
8
BLACK
6
CONTINUOUS
10
0.2121259842519685
20
0.955
11
0.2127253543307087
21
0.9580132677165354
0
LINE
8
BLACK
6
CONTINUOUS
10
0.2127253543307087
20
0.9580132677165354
11
0.2144322440944882
21
0.9605677559055118
0
LINE
8
BLACK
6
CONTINUOUS
10
0.2144322440944882
20
0.9605677559055118
11
0.2169867322834646
21
0.9622746456692913
0
LINE
8
BLACK
6
CONTINUOUS
10
0.2169867322834646
20
0.9622746456692913
11
0.22
21
0.9628740157480314
0
LINE
8
BLACK
6
CONTINUOUS
10
0.22
20
0.9628740157480314
11
0.28
21
0.9628740157480314
0
LINE
8
BLACK
6
CONTINUOUS
10
0.28
20
0.9628740157480314
11
0.2830132677165354
21
0.9622746456692913
0
LINE
8
BLACK
6
CONTINUOUS
10
2.2305723228346457
20
0.9999714960629921
11
2.233126811023622
21
0.9982646062992125
0
LINE
8
BLACK
6
CONTINUOUS
10
2.233126811023622
20
0.9982646062992125
11
2.2348337007874015
21
0.9957101181102362
0
LINE
8
BLACK
6
CONTINUOUS
10
2.2348337007874015
20
0.9957101181102362
11
2.2354330708661418
21
0.9926968503937008
0
LINE
8
BLACK
6
CONTINUOUS
10
2.2354330708661418
20
0.9926968503937008
11
2.2354330708661418
21
0.9573031496062991
0
LINE
8
BLACK
6
CONTINUOUS
10
2.2354330708661418
20
0.9573031496062991
11
2.2348337007874015
21
0.9542898818897637
0
LINE
8
BLACK
6
CONTINUOUS
10
2.2348337007874015
20
0.9542898818897637
11
2.233126811023622
21
0.9517353937007874
0
LINE
8
BLACK
6
CONTINUOUS
10
2.233126811023622
20
0.9517353937007874
11
2.2305723228346457
21
0.9500285039370079
0
LINE
8
BLACK
6
CONTINUOUS
10
2.2305723228346457
20
0.9500285039370079
11
2.2275590551181104
21
0.9494291338582677
0
LINE
8
BLACK
6
CONTINUOUS
10
2.2275590551181104
20
0.9494291338582677
11
2.1724409448818895
21
0.9494291338582677
0
LINE
8
BLACK
6
CONTINUOUS
10
2.1724409448818895
20
0.9494291338582677
11
2.1694276771653542
21
0.9500285039370079
0
LINE
8
BLACK
6
CONTINUOUS
10
2.1694276771653542
20
0.9500285039370079
11
2.1668731889763779
21
0.9517353937007874
0
LINE
8
BLACK
6
CONTINUOUS
10
2.1668731889763779
20
0.9517353937007874
11
2.1651662992125984
21
0.9542898818897637
0
LINE
8
BLACK
6
CONTINUOUS
10
2.1651662992125984
20
0.9542898818897637
11
2.1645669291338581
21
0.9573031496062991
0
LINE
8
BLACK
6
CONTINUOUS
10
2.1645669291338581
20
0.9573031496062991
11
2.1645669291338581
21
0.9926968503937008
0
LINE
8
BLACK
6
CONTINUOUS
10
2.1645669291338581
20
0.9926968503937008
11
2.1651662992125984
21
0.9957101181102362
0
LINE
8
BLACK
6
CONTINUOUS
10
2.1651662992125984
20
0.9957101181102362
11
2.1668731889763779
21
0.9982646062992125
0
LINE
8
BLACK
6
CONTINUOUS
10
2.1668731889763779
20
0.9982646062992125
11
2.1694276771653542
21
0.9999714960629921
0
LINE
8
BLACK
6
CONTINUOUS
10
2.1694276771653542
20
0.9999714960629921
11
2.1724409448818895
21
1.0005708661417323
0
LINE
8
BLACK
6
CONTINUOUS
10
2.1724409448818895
20
1.0005708661417323
11
2.2275590551181104
21
1.0005708661417323
0
LINE
8
BLACK
6
CONTINUOUS
10
2.2275590551181104
20
1.0005708661417323
11
2.2305723228346457
21
0.9999714960629921
0
LINE
8
BLACK
6
CONTINUOUS
10
2.3305723228346458
20
0.9997746456692913
11
2.3331268110236221
21
0.9980677559055118
0
LINE
8
BLACK
6
CONTINUOUS
10
2.3331268110236221
20
0.9980677559055118
11
2.3348337007874016
21
0.9955132677165354
0
LINE
8
BLACK
6
CONTINUOUS
10
2.3348337007874016
20
0.9955132677165354
11
2.3354330708661415
21
0.9924999999999999
0
LINE
8
BLACK
6
CONTINUOUS
10
2.3354330708661415
20
0.9924999999999999
11
2.3354330708661415
21
0.9575
0
LINE
8
BLACK
6
CONTINUOUS
10
2.3354330708661415
20
0.9575
11
2.3348337007874016
21
0.9544867322834646
0
LINE
8
BLACK
6
CONTINUOUS
10
2.3348337007874016
20
0.9544867322834646
11
2.3331268110236221
21
0.9519322440944882
0
LINE
8
BLACK
6
CONTINUOUS
10
2.3331268110236221
20
0.9519322440944882
11
2.3305723228346458
21
0.9502253543307086
0
LINE
8
BLACK
6
CONTINUOUS
10
2.3305723228346458
20
0.9502253543307086
11
2.32755905511811
21
0.9496259842519685
0
LINE
8
BLACK
6
CONTINUOUS
10
2.32755905511811
20
0.9496259842519685
11
2.2724409448818896
21
0.9496259842519685
0
LINE
8
BLACK
6
CONTINUOUS
10
2.2724409448818896
20
0.9496259842519685
11
2.2694276771653543
21
0.9502253543307086
0
LINE
8
BLACK
6
CONTINUOUS
10
2.2694276771653543
20
0.9502253543307086
11
2.266873188976378
21
0.9519322440944882
0
LINE
8
BLACK
6
CONTINUOUS
10
2.266873188976378
20
0.9519322440944882
11
2.2651662992125985
21
0.9544867322834646
0
LINE
8
BLACK
6
CONTINUOUS
10
2.2651662992125985
20
0.9544867322834646
11
2.2645669291338582
21
0.9575
0
LINE
8
BLACK
6
CONTINUOUS
10
2.2645669291338582
20
0.9575
11
2.2645669291338582
21
0.9924999999999999
0
LINE
8
BLACK
6
CONTINUOUS
10
2.2645669291338582
20
0.9924999999999999
11
2.2651662992125985
21
0.9955132677165354
0
LINE
8
BLACK
6
CONTINUOUS
10
2.2651662992125985
20
0.9955132677165354
11
2.266873188976378
21
0.9980677559055118
0
LINE
8
BLACK
6
CONTINUOUS
10
2.266873188976378
20
0.9980677559055118
11
2.2694276771653543
21
0.9997746456692913
0
LINE
8
BLACK
6
CONTINUOUS
10
2.2694276771653543
20
0.9997746456692913
11
2.2724409448818896
21
1.0003740157480314
0
LINE
8
BLACK
6
CONTINUOUS
10
2.2724409448818896
20
1.0003740157480314
11
2.32755905511811
21
1.0003740157480314
0
LINE
8
BLACK
6
CONTINUOUS
10
2.32755905511811
20
1.0003740157480314
11
2.3305723228346458
21
0.9997746456692913
0
LINE
8
BLACK
6
CONTINUOUS
10
0.1830132677165354
20
1.0622746456692913
11
0.1855677559055118
21
1.0605677559055118
0
LINE
8
BLACK
6
CONTINUOUS
10
0.1855677559055118
20
1.0605677559055118
11
0.1872746456692913
21
1.0580132677165355
0
LINE
8
BLACK
6
CONTINUOUS
10
0.1872746456692913
20
1.0580132677165355
11
0.1878740157480315
21
1.0549999999999999
0
LINE
8
BLACK
6
CONTINUOUS
10
0.1878740157480315
20
1.0549999999999999
11
0.1878740157480315
21
0.995
0
LINE
8
BLACK
6
CONTINUOUS
10
0.1878740157480315
20
0.995
11
0.1872746456692913
21
0.9919867322834646
0
LINE
8
BLACK
6
CONTINUOUS
10
0.1872746456692913
20
0.9919867322834646
11
0.1855677559055118
21
0.9894322440944882
0
LINE
8
BLACK
6
CONTINUOUS
10
0.1855677559055118
20
0.9894322440944882
11
0.1830132677165354
21
0.9877253543307086
0
LINE
8
BLACK
6
CONTINUOUS
10
0.1830132677165354
20
0.9877253543307086
11
0.18
21
0.9871259842519685
0
LINE
8
BLACK
6
CONTINUOUS
10
0.18
20
0.9871259842519685
11
0.12
21
0.9871259842519685
0
LINE
8
BLACK
6
CONTINUOUS
10
0.12
20
0.9871259842519685
11
0.1169867322834646
21
0.9877253543307086
0
LINE
8
BLACK
6
CONTINUOUS
10
0.1169867322834646
20
0.9877253543307086
11
0.1144322440944882
21
0.9894322440944882
0
LINE
8
BLACK
6
CONTINUOUS
10
0.1144322440944882
20
0.9894322440944882
11
0.1127253543307087
21
0.9919867322834646
0
LINE
8
BLACK
6
CONTINUOUS
10
0.1127253543307087
20
0.9919867322834646
11
0.1121259842519685
21
0.995
0
LINE
8
BLACK
6
CONTINUOUS
10
0.1121259842519685
20
0.995
11
0.1121259842519685
21
1.0549999999999999
0
LINE
8
BLACK
6
CONTINUOUS
10
0.1121259842519685
20
1.0549999999999999
11
0.1127253543307087
21
1.0580132677165355
0
LINE
8
BLACK
6
CONTINUOUS
10
0.1127253543307087
20
1.0580132677165355
11
0.1144322440944882
21
1.0605677559055118
0
LINE
8
BLACK
6
CONTINUOUS
10
0.1144322440944882
20
1.0605677559055118
11
0.1169867322834646
21
1.0622746456692913
0
LINE
8
BLACK
6
CONTINUOUS
10
0.1169867322834646
20
1.0622746456692913
11
0.12
21
1.0628740157480314
0
LINE
8
BLACK
6
CONTINUOUS
10
0.12
20
1.0628740157480314
11
0.18
21
1.0628740157480314
0
LINE
8
BLACK
6
CONTINUOUS
10
0.18
20
1.0628740157480314
11
0.1830132677165354
21
1.0622746456692913
0
LINE
8
BLACK
6
CONTINUOUS
10
0.2830132677165354
20
1.0622746456692913
11
0.2855677559055118
21
1.0605677559055118
0
LINE
8
BLACK
6
CONTINUOUS
10
0.2855677559055118
20
1.0605677559055118
11
0.2872746456692913
21
1.0580132677165355
0
LINE
8
BLACK
6
CONTINUOUS
10
0.2872746456692913
20
1.0580132677165355
11
0.2878740157480315
21
1.0549999999999999
0
LINE
8
BLACK
6
CONTINUOUS
10
0.2878740157480315
20
1.0549999999999999
11
0.2878740157480315
21
0.995
0
LINE
8
BLACK
6
CONTINUOUS
10
0.2878740157480315
20
0.995
11
0.2872746456692913
21
0.9919867322834646
0
LINE
8
BLACK
6
CONTINUOUS
10
0.2872746456692913
20
0.9919867322834646
11
0.2855677559055118
21
0.9894322440944882
0
LINE
8
BLACK
6
CONTINUOUS
10
0.2855677559055118
20
0.9894322440944882
11
0.2830132677165354
21
0.9877253543307086
0
LINE
8
BLACK
6
CONTINUOUS
10
0.2830132677165354
20
0.9877253543307086
11
0.28
21
0.9871259842519685
0
LINE
8
BLACK
6
CONTINUOUS
10
0.28
20
0.9871259842519685
11
0.22
21
0.9871259842519685
0
LINE
8
BLACK
6
CONTINUOUS
10
0.22
20
0.9871259842519685
11
0.2169867322834646
21
0.9877253543307086
0
LINE
8
BLACK
6
CONTINUOUS
10
0.2169867322834646
20
0.9877253543307086
11
0.2144322440944882
21
0.9894322440944882
0
LINE
8
BLACK
6
CONTINUOUS
10
0.2144322440944882
20
0.9894322440944882
11
0.2127253543307087
21
0.9919867322834646
0
LINE
8
BLACK
6
CONTINUOUS
10
0.2127253543307087
20
0.9919867322834646
11
0.2121259842519685
21
0.995
0
LINE
8
BLACK
6
CONTINUOUS
10
0.2121259842519685
20
0.995
11
0.2121259842519685
21
1.0549999999999999
0
LINE
8
BLACK
6
CONTINUOUS
10
0.2121259842519685
20
1.0549999999999999
11
0.2127253543307087
21
1.0580132677165355
0
LINE
8
BLACK
6
CONTINUOUS
10
0.2127253543307087
20
1.0580132677165355
11
0.2144322440944882
21
1.0605677559055118
0
LINE
8
BLACK
6
CONTINUOUS
10
0.2144322440944882
20
1.0605677559055118
11
0.2169867322834646
21
1.0622746456692913
0
LINE
8
BLACK
6
CONTINUOUS
10
0.2169867322834646
20
1.0622746456692913
11
0.22
21
1.0628740157480314
0
LINE
8
BLACK
6
CONTINUOUS
10
0.22
20
1.0628740157480314
11
0.28
21
1.0628740157480314
0
LINE
8
BLACK
6
CONTINUOUS
10
0.28
20
1.0628740157480314
11
0.2830132677165354
21
1.0622746456692913
0
LINE
8
BLACK
6
CONTINUOUS
10
2.3305723228346458
20
1.0749714960629921
11
2.3331268110236221
21
1.0732646062992126
0
LINE
8
BLACK
6
CONTINUOUS
10
2.3331268110236221
20
1.0732646062992126
11
2.3348337007874016
21
1.0707101181102361
0
LINE
8
BLACK
6
CONTINUOUS
10
2.3348337007874016
20
1.0707101181102361
11
2.3354330708661415
21
1.0676968503937008
0
LINE
8
BLACK
6
CONTINUOUS
10
2.3354330708661415
20
1.0676968503937008
11
2.3354330708661415
21
1.0323031496062991
0
LINE
8
BLACK
6
CONTINUOUS
10
2.3354330708661415
20
1.0323031496062991
11
2.3348337007874016
21
1.0292898818897638
0
LINE
8
BLACK
6
CONTINUOUS
10
2.3348337007874016
20
1.0292898818897638
11
2.3331268110236221
21
1.0267353937007875
0
LINE
8
BLACK
6
CONTINUOUS
10
2.3331268110236221
20
1.0267353937007875
11
2.3305723228346458
21
1.025028503937008
0
LINE
8
BLACK
6
CONTINUOUS
10
2.3305723228346458
20
1.025028503937008
11
2.32755905511811
21
1.0244291338582676
0
LINE
8
BLACK
6
CONTINUOUS
10
2.32755905511811
20
1.0244291338582676
11
2.2724409448818896
21
1.0244291338582676
0
LINE
8
BLACK
6
CONTINUOUS
10
2.2724409448818896
20
1.0244291338582676
11
2.2694276771653543
21
1.025028503937008
0
LINE
8
BLACK
6
CONTINUOUS
10
2.2694276771653543
20
1.025028503937008
11
2.266873188976378
21
1.0267353937007875
0
LINE
8
BLACK
6
CONTINUOUS
10
2.266873188976378
20
1.0267353937007875
11
2.2651662992125985
21
1.0292898818897638
0
LINE
8
BLACK
6
CONTINUOUS
10
2.2651662992125985
20
1.0292898818897638
11
2.2645669291338582
21
1.0323031496062991
0
LINE
8
BLACK
6
CONTINUOUS
10
2.2645669291338582
20
1.0323031496062991
11
2.2645669291338582
21
1.0676968503937008
0
LINE
8
BLACK
6
CONTINUOUS
10
2.2645669291338582
20
1.0676968503937008
11
2.2651662992125985
21
1.0707101181102361
0
LINE
8
BLACK
6
CONTINUOUS
10
2.2651662992125985
20
1.0707101181102361
11
2.266873188976378
21
1.0732646062992126
0
LINE
8
BLACK
6
CONTINUOUS
10
2.266873188976378
20
1.0732646062992126
11
2.2694276771653543
21
1.0749714960629921
0
LINE
8
BLACK
6
CONTINUOUS
10
2.2694276771653543
20
1.0749714960629921
11
2.2724409448818896
21
1.0755708661417323
0
LINE
8
BLACK
6
CONTINUOUS
10
2.2724409448818896
20
1.0755708661417323
11
2.32755905511811
21
1.0755708661417323
0
LINE
8
BLACK
6
CONTINUOUS
10
2.32755905511811
20
1.0755708661417323
11
2.3305723228346458
21
1.0749714960629921
0
LINE
8
BLACK
6
CONTINUOUS
10
2.2305723228346457
20
1.0747746456692913
11
2.233126811023622
21
1.0730677559055117
0
LINE
8
BLACK
6
CONTINUOUS
10
2.233126811023622
20
1.0730677559055117
11
2.2348337007874015
21
1.0705132677165354
0
LINE
8
BLACK
6
CONTINUOUS
10
2.2348337007874015
20
1.0705132677165354
11
2.2354330708661418
21
1.0674999999999999
0
LINE
8
BLACK
6
CONTINUOUS
10
2.2354330708661418
20
1.0674999999999999
11
2.2354330708661418
21
1.0325
0
LINE
8
BLACK
6
CONTINUOUS
10
2.2354330708661418
20
1.0325
11
2.2348337007874015
21
1.0294867322834644
0
LINE
8
BLACK
6
CONTINUOUS
10
2.2348337007874015
20
1.0294867322834644
11
2.233126811023622
21
1.0269322440944881
0
LINE
8
BLACK
6
CONTINUOUS
10
2.233126811023622
20
1.0269322440944881
11
2.2305723228346457
21
1.0252253543307086
0
LINE
8
BLACK
6
CONTINUOUS
10
2.2305723228346457
20
1.0252253543307086
11
2.2275590551181104
21
1.0246259842519685
0
LINE
8
BLACK
6
CONTINUOUS
10
2.2275590551181104
20
1.0246259842519685
11
2.1724409448818895
21
1.0246259842519685
0
LINE
8
BLACK
6
CONTINUOUS
10
2.1724409448818895
20
1.0246259842519685
11
2.1694276771653542
21
1.0252253543307086
0
LINE
8
BLACK
6
CONTINUOUS
10
2.1694276771653542
20
1.0252253543307086
11
2.1668731889763779
21
1.0269322440944881
0
LINE
8
BLACK
6
CONTINUOUS
10
2.1668731889763779
20
1.0269322440944881
11
2.1651662992125984
21
1.0294867322834644
0
LINE
8
BLACK
6
CONTINUOUS
10
2.1651662992125984
20
1.0294867322834644
11
2.1645669291338581
21
1.0325
0
LINE
8
BLACK
6
CONTINUOUS
10
2.1645669291338581
20
1.0325
11
2.1645669291338581
21
1.0674999999999999
0
LINE
8
BLACK
6
CONTINUOUS
10
2.1645669291338581
20
1.0674999999999999
11
2.1651662992125984
21
1.0705132677165354
0
LINE
8
BLACK
6
CONTINUOUS
10
2.1651662992125984
20
1.0705132677165354
11
2.1668731889763779
21
1.0730677559055117
0
LINE
8
BLACK
6
CONTINUOUS
10
2.1668731889763779
20
1.0730677559055117
11
2.1694276771653542
21
1.0747746456692913
0
LINE
8
BLACK
6
CONTINUOUS
10
2.1694276771653542
20
1.0747746456692913
11
2.1724409448818895
21
1.0753740157480314
0
LINE
8
BLACK
6
CONTINUOUS
10
2.1724409448818895
20
1.0753740157480314
11
2.2275590551181104
21
1.0753740157480314
0
LINE
8
BLACK
6
CONTINUOUS
10
2.2275590551181104
20
1.0753740157480314
11
2.2305723228346457
21
1.0747746456692913
0
LINE
8
BLACK
6
CONTINUOUS
10
1.4629289763779527
20
1.1485901968503938
11
1.4710585039370079
21
1.1454407874015748
0
LINE
8
BLACK
6
CONTINUOUS
10
1.4710585039370079
20
1.1454407874015748
11
1.4784709448818898
21
1.140851220472441
0
LINE
8
BLACK
6
CONTINUOUS
10
1.4784709448818898
20
1.140851220472441
11
1.4849138188976378
21
1.1349777559055119
0
LINE
8
BLACK
6
CONTINUOUS
10
1.4849138188976378
20
1.1349777559055119
11
1.4901677559055118
21
1.1280204330708661
0
LINE
8
BLACK
6
CONTINUOUS
10
1.4901677559055118
20
1.1280204330708661
11
1.4940538188976378
21
1.1202161417322833
0
LINE
8
BLACK
6
CONTINUOUS
10
1.4940538188976378
20
1.1202161417322833
11
1.49643968503937
21
1.1118306692913384
0
LINE
8
BLACK
6
CONTINUOUS
10
1.49643968503937
20
1.1118306692913384
11
1.4972440944881888
21
1.1031496062992125
0
LINE
8
BLACK
6
CONTINUOUS
10
1.4972440944881888
20
1.1031496062992125
11
1.49643968503937
21
1.0944685433070866
0
LINE
8
BLACK
6
CONTINUOUS
10
1.49643968503937
20
1.0944685433070866
11
1.4940538188976378
21
1.0860830708661418
0
LINE
8
BLACK
6
CONTINUOUS
10
1.4940538188976378
20
1.0860830708661418
11
1.4901677559055118
21
1.078278779527559
0
LINE
8
BLACK
6
CONTINUOUS
10
1.4901677559055118
20
1.078278779527559
11
1.4849138188976378
21
1.0713214566929135
0
LINE
8
BLACK
6
CONTINUOUS
10
1.4849138188976378
20
1.0713214566929135
11
1.4784709448818898
21
1.0654479921259843
0
LINE
8
BLACK
6
CONTINUOUS
10
1.4784709448818898
20
1.0654479921259843
11
1.4710585039370079
21
1.0608584251968505
0
LINE
8
BLACK
6
CONTINUOUS
10
1.4710585039370079
20
1.0608584251968505
11
1.4629289763779527
21
1.0577090157480316
0
LINE
8
BLACK
6
CONTINUOUS
10
1.4629289763779527
20
1.0577090157480316
11
1.4543591338582678
21
1.0561070472440945
0
LINE
8
BLACK
6
CONTINUOUS
10
1.4543591338582678
20
1.0561070472440945
11
1.4456408661417322
21
1.0561070472440945
0
LINE
8
BLACK
6
CONTINUOUS
10
1.4456408661417322
20
1.0561070472440945
11
1.4370710236220472
21
1.0577090157480316
0
LINE
8
BLACK
6
CONTINUOUS
10
1.4370710236220472
20
1.0577090157480316
11
1.428941496062992
21
1.0608584251968505
0
LINE
8
BLACK
6
CONTINUOUS
10
1.428941496062992
20
1.0608584251968505
11
1.4215290551181101
21
1.0654479921259843
0
LINE
8
BLACK
6
CONTINUOUS
10
1.4215290551181101
20
1.0654479921259843
11
1.4150861811023621
21
1.0713214566929135
0
LINE
8
BLACK
6
CONTINUOUS
10
1.4150861811023621
20
1.0713214566929135
11
1.4098322440944882
21
1.078278779527559
0
LINE
8
BLACK
6
CONTINUOUS
10
1.4098322440944882
20
1.078278779527559
11
1.4059461811023621
21
1.0860830708661418
0
LINE
8
BLACK
6
CONTINUOUS
10
1.4059461811023621
20
1.0860830708661418
11
1.4035603149606299
21
1.0944685433070866
0
LINE
8
BLACK
6
CONTINUOUS
10
1.4035603149606299
20
1.0944685433070866
11
1.4027559055118111
21
1.1031496062992125
0
LINE
8
BLACK
6
CONTINUOUS
10
1.4027559055118111
20
1.1031496062992125
11
1.4035603149606299
21
1.1118306692913384
0
LINE
8
BLACK
6
CONTINUOUS
10
1.4035603149606299
20
1.1118306692913384
11
1.4059461811023621
21
1.1202161417322833
0
LINE
8
BLACK
6
CONTINUOUS
10
1.4059461811023621
20
1.1202161417322833
11
1.4098322440944882
21
1.1280204330708661
0
LINE
8
BLACK
6
CONTINUOUS
10
1.4098322440944882
20
1.1280204330708661
11
1.4150861811023621
21
1.1349777559055119
0
LINE
8
BLACK
6
CONTINUOUS
10
1.4150861811023621
20
1.1349777559055119
11
1.4215290551181101
21
1.140851220472441
0
LINE
8
BLACK
6
CONTINUOUS
10
1.4215290551181101
20
1.140851220472441
11
1.428941496062992
21
1.1454407874015748
0
LINE
8
BLACK
6
CONTINUOUS
10
1.428941496062992
20
1.1454407874015748
11
1.4370710236220472
21
1.1485901968503938
0
LINE
8
BLACK
6
CONTINUOUS
10
1.4370710236220472
20
1.1485901968503938
11
1.4456408661417322
21
1.1501921653543308
0
LINE
8
BLACK
6
CONTINUOUS
10
1.4456408661417322
20
1.1501921653543308
11
1.4543591338582678
21
1.1501921653543308
0
LINE
8
BLACK
6
CONTINUOUS
10
1.4543591338582678
20
1.1501921653543308
11
1.4629289763779527
21
1.1485901968503938
0
LINE
8
BLACK
6
CONTINUOUS
10
2.0861927559055116
20
1.1594477165354331
11
2.0931102362204723
21
1.1563678346456692
0
LINE
8
BLACK
6
CONTINUOUS
10
2.0931102362204723
20
1.1563678346456692
11
2.0992362204724411
21
1.1519170472440945
0
LINE
8
BLACK
6
CONTINUOUS
10
2.0992362204724411
20
1.1519170472440945
11
2.1043029921259842
21
1.146289842519685
0
LINE
8
BLACK
6
CONTINUOUS
10
2.1043029921259842
20
1.146289842519685
11
2.1080890551181102
21
1.1397322047244094
0
LINE
8
BLACK
6
CONTINUOUS
10
2.1080890551181102
20
1.1397322047244094
11
2.1104289763779529
21
1.1325306692913386
0
LINE
8
BLACK
6
CONTINUOUS
10
2.1104289763779529
20
1.1325306692913386
11
2.1112204724409449
21
1.125
0
LINE
8
BLACK
6
CONTINUOUS
10
2.1112204724409449
20
1.125
11
2.1104289763779529
21
1.1174693307086614
0
LINE
8
BLACK
6
CONTINUOUS
10
2.1104289763779529
20
1.1174693307086614
11
2.1080890551181102
21
1.1102677952755906
0
LINE
8
BLACK
6
CONTINUOUS
10
2.1080890551181102
20
1.1102677952755906
11
2.1043029921259842
21
1.103710157480315
0
LINE
8
BLACK
6
CONTINUOUS
10
2.1043029921259842
20
1.103710157480315
11
2.0992362204724411
21
1.0980829527559055
0
LINE
8
BLACK
6
CONTINUOUS
10
2.0992362204724411
20
1.0980829527559055
11
2.0931102362204723
21
1.0936321653543306
0
LINE
8
BLACK
6
CONTINUOUS
10
2.0931102362204723
20
1.0936321653543306
11
2.0861927559055116
21
1.0905522834645669
0
LINE
8
BLACK
6
CONTINUOUS
10
2.0861927559055116
20
1.0905522834645669
11
2.0787860629921258
21
1.0889779527559056
0
LINE
8
BLACK
6
CONTINUOUS
10
2.0787860629921258
20
1.0889779527559056
11
2.0712139370078742
21
1.0889779527559056
0
LINE
8
BLACK
6
CONTINUOUS
10
2.0712139370078742
20
1.0889779527559056
11
2.0638072440944883
21
1.0905522834645669
0
LINE
8
BLACK
6
CONTINUOUS
10
2.0638072440944883
20
1.0905522834645669
11
2.0568897637795276
21
1.0936321653543306
0
LINE
8
BLACK
6
CONTINUOUS
10
2.0568897637795276
20
1.0936321653543306
11
2.0507637795275588
21
1.0980829527559055
0
LINE
8
BLACK
6
CONTINUOUS
10
2.0507637795275588
20
1.0980829527559055
11
2.0456970078740158
21
1.103710157480315
0
LINE
8
BLACK
6
CONTINUOUS
10
2.0456970078740158
20
1.103710157480315
11
2.0419109448818897
21
1.1102677952755906
0
LINE
8
BLACK
6
CONTINUOUS
10
2.0419109448818897
20
1.1102677952755906
11
2.039571023622047
21
1.1174693307086614
0
LINE
8
BLACK
6
CONTINUOUS
10
2.039571023622047
20
1.1174693307086614
11
2.038779527559055
21
1.125
0
LINE
8
BLACK
6
CONTINUOUS
10
2.038779527559055
20
1.125
11
2.039571023622047
21
1.1325306692913386
0
LINE
8
BLACK
6
CONTINUOUS
10
2.039571023622047
20
1.1325306692913386
11
2.0419109448818897
21
1.1397322047244094
0
LINE
8
BLACK
6
CONTINUOUS
10
2.0419109448818897
20
1.1397322047244094
11
2.0456970078740158
21
1.146289842519685
0
LINE
8
BLACK
6
CONTINUOUS
10
2.0456970078740158
20
1.146289842519685
11
2.0507637795275588
21
1.1519170472440945
0
LINE
8
BLACK
6
CONTINUOUS
10
2.0507637795275588
20
1.1519170472440945
11
2.0568897637795276
21
1.1563678346456692
0
LINE
8
BLACK
6
CONTINUOUS
10
2.0568897637795276
20
1.1563678346456692
11
2.0638072440944883
21
1.1594477165354331
0
LINE
8
BLACK
6
CONTINUOUS
10
2.0638072440944883
20
1.1594477165354331
11
2.0712139370078742
21
1.1610220472440944
0
LINE
8
BLACK
6
CONTINUOUS
10
2.0712139370078742
20
1.1610220472440944
11
2.0787860629921258
21
1.1610220472440944
0
LINE
8
BLACK
6
CONTINUOUS
10
2.0787860629921258
20
1.1610220472440944
11
2.0861927559055116
21
1.1594477165354331
0
LINE
8
BLACK
6
CONTINUOUS
10
2.1861927559055117
20
1.1594477165354331
11
2.1931102362204724
21
1.1563678346456692
0
LINE
8
BLACK
6
CONTINUOUS
10
2.1931102362204724
20
1.1563678346456692
11
2.1992362204724407
21
1.1519170472440945
0
LINE
8
BLACK
6
CONTINUOUS
10
2.1992362204724407
20
1.1519170472440945
11
2.2043029921259842
21
1.146289842519685
0
LINE
8
BLACK
6
CONTINUOUS
10
2.2043029921259842
20
1.146289842519685
11
2.2080890551181103
21
1.1397322047244094
0
LINE
8
BLACK
6
CONTINUOUS
10
2.2080890551181103
20
1.1397322047244094
11
2.2104289763779525
21
1.1325306692913386
0
LINE
8
BLACK
6
CONTINUOUS
10
2.2104289763779525
20
1.1325306692913386
11
2.211220472440945
21
1.125
0
LINE
8
BLACK
6
CONTINUOUS
10
2.211220472440945
20
1.125
11
2.2104289763779525
21
1.1174693307086614
0
LINE
8
BLACK
6
CONTINUOUS
10
2.2104289763779525
20
1.1174693307086614
11
2.2080890551181103
21
1.1102677952755906
0
LINE
8
BLACK
6
CONTINUOUS
10
2.2080890551181103
20
1.1102677952755906
11
2.2043029921259842
21
1.103710157480315
0
LINE
8
BLACK
6
CONTINUOUS
10
2.2043029921259842
20
1.103710157480315
11
2.1992362204724407
21
1.0980829527559055
0
LINE
8
BLACK
6
CONTINUOUS
10
2.1992362204724407
20
1.0980829527559055
11
2.1931102362204724
21
1.0936321653543306
0
LINE
8
BLACK
6
CONTINUOUS
10
2.1931102362204724
20
1.0936321653543306
11
2.1861927559055117
21
1.0905522834645669
0
LINE
8
BLACK
6
CONTINUOUS
10
2.1861927559055117
20
1.0905522834645669
11
2.1787860629921258
21
1.0889779527559056
0
LINE
8
BLACK
6
CONTINUOUS
10
2.1787860629921258
20
1.0889779527559056
11
2.1712139370078738
21
1.0889779527559056
0
LINE
8
BLACK
6
CONTINUOUS
10
2.1712139370078738
20
1.0889779527559056
11
2.163807244094488
21
1.0905522834645669
0
LINE
8
BLACK
6
CONTINUOUS
10
2.163807244094488
20
1.0905522834645669
11
2.1568897637795277
21
1.0936321653543306
0
LINE
8
BLACK
6
CONTINUOUS
10
2.1568897637795277
20
1.0936321653543306
11
2.1507637795275589
21
1.0980829527559055
0
LINE
8
BLACK
6
CONTINUOUS
10
2.1507637795275589
20
1.0980829527559055
11
2.1456970078740158
21
1.103710157480315
0
LINE
8
BLACK
6
CONTINUOUS
10
2.1456970078740158
20
1.103710157480315
11
2.1419109448818898
21
1.1102677952755906
0
LINE
8
BLACK
6
CONTINUOUS
10
2.1419109448818898
20
1.1102677952755906
11
2.1395710236220471
21
1.1174693307086614
0
LINE
8
BLACK
6
CONTINUOUS
10
2.1395710236220471
20
1.1174693307086614
11
2.1387795275590551
21
1.125
0
LINE
8
BLACK
6
CONTINUOUS
10
2.1387795275590551
20
1.125
11
2.1395710236220471
21
1.1325306692913386
0
LINE
8
BLACK
6
CONTINUOUS
10
2.1395710236220471
20
1.1325306692913386
11
2.1419109448818898
21
1.1397322047244094
0
LINE
8
BLACK
6
CONTINUOUS
10
2.1419109448818898
20
1.1397322047244094
11
2.1456970078740158
21
1.146289842519685
0
LINE
8
BLACK
6
CONTINUOUS
10
2.1456970078740158
20
1.146289842519685
11
2.1507637795275589
21
1.1519170472440945
0
LINE
8
BLACK
6
CONTINUOUS
10
2.1507637795275589
20
1.1519170472440945
11
2.1568897637795277
21
1.1563678346456692
0
LINE
8
BLACK
6
CONTINUOUS
10
2.1568897637795277
20
1.1563678346456692
11
2.163807244094488
21
1.1594477165354331
0
LINE
8
BLACK
6
CONTINUOUS
10
2.163807244094488
20
1.1594477165354331
11
2.1712139370078738
21
1.1610220472440944
0
LINE
8
BLACK
6
CONTINUOUS
10
2.1712139370078738
20
1.1610220472440944
11
2.1787860629921258
21
1.1610220472440944
0
LINE
8
BLACK
6
CONTINUOUS
10
2.1787860629921258
20
1.1610220472440944
11
2.1861927559055117
21
1.1594477165354331
0
LINE
8
BLACK
6
CONTINUOUS
10
2.2861927559055117
20
1.1594477165354331
11
2.2931102362204725
21
1.1563678346456692
0
LINE
8
BLACK
6
CONTINUOUS
10
2.2931102362204725
20
1.1563678346456692
11
2.2992362204724408
21
1.1519170472440945
0
LINE
8
BLACK
6
CONTINUOUS
10
2.2992362204724408
20
1.1519170472440945
11
2.3043029921259843
21
1.146289842519685
0
LINE
8
BLACK
6
CONTINUOUS
10
2.3043029921259843
20
1.146289842519685
11
2.3080890551181104
21
1.1397322047244094
0
LINE
8
BLACK
6
CONTINUOUS
10
2.3080890551181104
20
1.1397322047244094
11
2.3104289763779526
21
1.1325306692913386
0
LINE
8
BLACK
6
CONTINUOUS
10
2.3104289763779526
20
1.1325306692913386
11
2.3112204724409446
21
1.125
0
LINE
8
BLACK
6
CONTINUOUS
10
2.3112204724409446
20
1.125
11
2.3104289763779526
21
1.1174693307086614
0
LINE
8
BLACK
6
CONTINUOUS
10
2.3104289763779526
20
1.1174693307086614
11
2.3080890551181104
21
1.1102677952755906
0
LINE
8
BLACK
6
CONTINUOUS
10
2.3080890551181104
20
1.1102677952755906
11
2.3043029921259843
21
1.103710157480315
0
LINE
8
BLACK
6
CONTINUOUS
10
2.3043029921259843
20
1.103710157480315
11
2.2992362204724408
21
1.0980829527559055
0
LINE
8
BLACK
6
CONTINUOUS
10
2.2992362204724408
20
1.0980829527559055
11
2.2931102362204725
21
1.0936321653543306
0
LINE
8
BLACK
6
CONTINUOUS
10
2.2931102362204725
20
1.0936321653543306
11
2.2861927559055117
21
1.0905522834645669
0
LINE
8
BLACK
6
CONTINUOUS
10
2.2861927559055117
20
1.0905522834645669
11
2.2787860629921259
21
1.0889779527559056
0
LINE
8
BLACK
6
CONTINUOUS
10
2.2787860629921259
20
1.0889779527559056
11
2.2712139370078739
21
1.0889779527559056
0
LINE
8
BLACK
6
CONTINUOUS
10
2.2712139370078739
20
1.0889779527559056
11
2.2638072440944881
21
1.0905522834645669
0
LINE
8
BLACK
6
CONTINUOUS
10
2.2638072440944881
20
1.0905522834645669
11
2.2568897637795273
21
1.0936321653543306
0
LINE
8
BLACK
6
CONTINUOUS
10
2.2568897637795273
20
1.0936321653543306
11
2.250763779527559
21
1.0980829527559055
0
LINE
8
BLACK
6
CONTINUOUS
10
2.250763779527559
20
1.0980829527559055
11
2.2456970078740155
21
1.103710157480315
0
LINE
8
BLACK
6
CONTINUOUS
10
2.2456970078740155
20
1.103710157480315
11
2.2419109448818899
21
1.1102677952755906
0
LINE
8
BLACK
6
CONTINUOUS
10
2.2419109448818899
20
1.1102677952755906
11
2.2395710236220472
21
1.1174693307086614
0
LINE
8
BLACK
6
CONTINUOUS
10
2.2395710236220472
20
1.1174693307086614
11
2.2387795275590552
21
1.125
0
LINE
8
BLACK
6
CONTINUOUS
10
2.2387795275590552
20
1.125
11
2.2395710236220472
21
1.1325306692913386
0
LINE
8
BLACK
6
CONTINUOUS
10
2.2395710236220472
20
1.1325306692913386
11
2.2419109448818899
21
1.1397322047244094
0
LINE
8
BLACK
6
CONTINUOUS
10
2.2419109448818899
20
1.1397322047244094
11
2.2456970078740155
21
1.146289842519685
0
LINE
8
BLACK
6
CONTINUOUS
10
2.2456970078740155
20
1.146289842519685
11
2.250763779527559
21
1.1519170472440945
0
LINE
8
BLACK
6
CONTINUOUS
10
2.250763779527559
20
1.1519170472440945
11
2.2568897637795273
21
1.1563678346456692
0
LINE
8
BLACK
6
CONTINUOUS
10
2.2568897637795273
20
1.1563678346456692
11
2.2638072440944881
21
1.1594477165354331
0
LINE
8
BLACK
6
CONTINUOUS
10
2.2638072440944881
20
1.1594477165354331
11
2.2712139370078739
21
1.1610220472440944
0
LINE
8
BLACK
6
CONTINUOUS
10
2.2712139370078739
20
1.1610220472440944
11
2.2787860629921259
21
1.1610220472440944
0
LINE
8
BLACK
6
CONTINUOUS
10
2.2787860629921259
20
1.1610220472440944
11
2.2861927559055117
21
1.1594477165354331
0
LINE
8
BLACK
6
CONTINUOUS
10
1.4923833464566929
20
1.3466447244094488
11
1.4949378346456692
21
1.3449378346456693
0
LINE
8
BLACK
6
CONTINUOUS
10
1.4949378346456692
20
1.3449378346456693
11
1.4966447244094487
21
1.3423833464566928
0
LINE
8
BLACK
6
CONTINUOUS
10
1.4966447244094487
20
1.3423833464566928
11
1.4972440944881888
21
1.3393700787401575
0
LINE
8
BLACK
6
CONTINUOUS
10
1.4972440944881888
20
1.3393700787401575
11
1.4972440944881888
21
1.2606299212598424
0
LINE
8
BLACK
6
CONTINUOUS
10
1.4972440944881888
20
1.2606299212598424
11
1.4966447244094487
21
1.2576166535433071
0
LINE
8
BLACK
6
CONTINUOUS
10
1.4966447244094487
20
1.2576166535433071
11
1.4949378346456692
21
1.2550621653543306
0
LINE
8
BLACK
6
CONTINUOUS
10
1.4949378346456692
20
1.2550621653543306
11
1.4923833464566929
21
1.253355275590551
0
LINE
8
BLACK
6
CONTINUOUS
10
1.4923833464566929
20
1.253355275590551
11
1.4893700787401574
21
1.2527559055118109
0
LINE
8
BLACK
6
CONTINUOUS
10
1.4893700787401574
20
1.2527559055118109
11
1.4106299212598425
21
1.2527559055118109
0
LINE
8
BLACK
6
CONTINUOUS
10
1.4106299212598425
20
1.2527559055118109
11
1.407616653543307
21
1.253355275590551
0
LINE
8
BLACK
6
CONTINUOUS
10
1.407616653543307
20
1.253355275590551
11
1.4050621653543307
21
1.2550621653543306
0
LINE
8
BLACK
6
CONTINUOUS
10
1.4050621653543307
20
1.2550621653543306
11
1.4033552755905512
21
1.2576166535433071
0
LINE
8
BLACK
6
CONTINUOUS
10
1.4033552755905512
20
1.2576166535433071
11
1.4027559055118111
21
1.2606299212598424
0
LINE
8
BLACK
6
CONTINUOUS
10
1.4027559055118111
20
1.2606299212598424
11
1.4027559055118111
21
1.3393700787401575
0
LINE
8
BLACK
6
CONTINUOUS
10
1.4027559055118111
20
1.3393700787401575
11
1.4033552755905512
21
1.3423833464566928
0
LINE
8
BLACK
6
CONTINUOUS
10
1.4033552755905512
20
1.3423833464566928
11
1.4050621653543307
21
1.3449378346456693
0
LINE
8
BLACK
6
CONTINUOUS
10
1.4050621653543307
20
1.3449378346456693
11
1.407616653543307
21
1.3466447244094488
0
LINE
8
BLACK
6
CONTINUOUS
10
1.407616653543307
20
1.3466447244094488
11
1.4106299212598425
21
1.3472440944881889
0
LINE
8
BLACK
6
CONTINUOUS
10
1.4106299212598425
20
1.3472440944881889
11
1.4893700787401574
21
1.3472440944881889
0
LINE
8
BLACK
6
CONTINUOUS
10
1.4893700787401574
20
1.3472440944881889
11
1.4923833464566929
21
1.3466447244094488
0
LINE
8
BLACK
6
CONTINUOUS
10
0.2141057480314961
20
1.5251920866141733
11
0.2280341338582677
21
1.5228255511811024
0
LINE
8
BLACK
6
CONTINUOUS
10
0.2280341338582677
20
1.5228255511811024
11
0.2416099606299213
21
1.5189144488188977
0
LINE
8
BLACK
6
CONTINUOUS
10
0.2416099606299213
20
1.5189144488188977
11
0.2546625196850394
21
1.5135078740157479
0
LINE
8
BLACK
6
CONTINUOUS
10
0.2546625196850394
20
1.5135078740157479
11
0.2670276771653543
21
1.5066738976377951
0
LINE
8
BLACK
6
CONTINUOUS
10
0.2670276771653543
20
1.5066738976377951
11
0.2785498818897638
21
1.498498464566929
0
LINE
8
BLACK
6
CONTINUOUS
10
0.2785498818897638
20
1.498498464566929
11
0.2890843307086614
21
1.4890843307086614
0
LINE
8
BLACK
6
CONTINUOUS
10
0.2890843307086614
20
1.4890843307086614
11
0.2984984645669291
21
1.4785498818897638
0
LINE
8
BLACK
6
CONTINUOUS
10
0.2984984645669291
20
1.4785498818897638
11
0.3066738976377953
21
1.4670276771653543
0
LINE
8
BLACK
6
CONTINUOUS
10
0.3066738976377953
20
1.4670276771653543
11
0.313507874015748
21
1.4546625196850393
0
LINE
8
BLACK
6
CONTINUOUS
10
0.313507874015748
20
1.4546625196850393
11
0.3189144488188976
21
1.4416099606299213
0
LINE
8
BLACK
6
CONTINUOUS
10
0.3189144488188976
20
1.4416099606299213
11
0.3228255511811023
21
1.4280341338582676
0
LINE
8
BLACK
6
CONTINUOUS
10
0.3228255511811023
20
1.4280341338582676
11
0.3251920866141732
21
1.414105748031496
0
LINE
8
BLACK
6
CONTINUOUS
10
0.3251920866141732
20
1.414105748031496
11
0.3259842519685039
21
1.3999999999999999
0
LINE
8
BLACK
6
CONTINUOUS
10
0.3259842519685039
20
1.3999999999999999
11
0.3251920866141732
21
1.3858942519685038
0
LINE
8
BLACK
6
CONTINUOUS
10
0.3251920866141732
20
1.3858942519685038
11
0.3228255511811023
21
1.3719658661417322
0
LINE
8
BLACK
6
CONTINUOUS
10
0.3228255511811023
20
1.3719658661417322
11
0.3189144488188976
21
1.3583900393700787
0
LINE
8
BLACK
6
CONTINUOUS
10
0.3189144488188976
20
1.3583900393700787
11
0.313507874015748
21
1.3453374803149607
0
LINE
8
BLACK
6
CONTINUOUS
10
0.313507874015748
20
1.3453374803149607
11
0.3066738976377953
21
1.3329723228346457
0
LINE
8
BLACK
6
CONTINUOUS
10
0.3066738976377953
20
1.3329723228346457
11
0.2984984645669291
21
1.3214501181102363
0
LINE
8
BLACK
6
CONTINUOUS
10
0.2984984645669291
20
1.3214501181102363
11
0.2890843307086614
21
1.3109156692913386
0
LINE
8
BLACK
6
CONTINUOUS
10
0.2890843307086614
20
1.3109156692913386
11
0.2785498818897638
21
1.3015015354330708
0
LINE
8
BLACK
6
CONTINUOUS
10
0.2785498818897638
20
1.3015015354330708
11
0.2670276771653543
21
1.2933261023622047
0
LINE
8
BLACK
6
CONTINUOUS
10
0.2670276771653543
20
1.2933261023622047
11
0.2546625196850394
21
1.2864921259842519
0
LINE
8
BLACK
6
CONTINUOUS
10
0.2546625196850394
20
1.2864921259842519
11
0.2416099606299213
21
1.2810855511811023
0
LINE
8
BLACK
6
CONTINUOUS
10
0.2416099606299213
20
1.2810855511811023
11
0.2280341338582677
21
1.2771744488188976
0
LINE
8
BLACK
6
CONTINUOUS
10
0.2280341338582677
20
1.2771744488188976
11
0.2141057480314961
21
1.2748079133858268
0
LINE
8
BLACK
6
CONTINUOUS
10
0.2141057480314961
20
1.2748079133858268
11
0.2
21
1.274015748031496
0
LINE
8
BLACK
6
CONTINUOUS
10
0.2
20
1.274015748031496
11
0.1858942519685039
21
1.2748079133858268
0
LINE
8
BLACK
6
CONTINUOUS
10
0.1858942519685039
20
1.2748079133858268
11
0.1719658661417323
21
1.2771744488188976
0
LINE
8
BLACK
6
CONTINUOUS
10
0.1719658661417323
20
1.2771744488188976
11
0.1583900393700787
21
1.2810855511811023
0
LINE
8
BLACK
6
CONTINUOUS
10
0.1583900393700787
20
1.2810855511811023
11
0.1453374803149606
21
1.2864921259842519
0
LINE
8
BLACK
6
CONTINUOUS
10
0.1453374803149606
20
1.2864921259842519
11
0.1329723228346457
21
1.2933261023622047
0
LINE
8
BLACK
6
CONTINUOUS
10
0.1329723228346457
20
1.2933261023622047
11
0.1214501181102362
21
1.3015015354330708
0
LINE
8
BLACK
6
CONTINUOUS
10
0.1214501181102362
20
1.3015015354330708
11
0.1109156692913386
21
1.3109156692913386
0
LINE
8
BLACK
6
CONTINUOUS
10
0.1109156692913386
20
1.3109156692913386
11
0.1015015354330709
21
1.3214501181102363
0
LINE
8
BLACK
6
CONTINUOUS
10
0.1015015354330709
20
1.3214501181102363
11
0.0933261023622047
21
1.3329723228346457
0
LINE
8
BLACK
6
CONTINUOUS
10
0.0933261023622047
20
1.3329723228346457
11
0.086492125984252
21
1.3453374803149607
0
LINE
8
BLACK
6
CONTINUOUS
10
0.086492125984252
20
1.3453374803149607
11
0.0810855511811024
21
1.3583900393700787
0
LINE
8
BLACK
6
CONTINUOUS
10
0.0810855511811024
20
1.3583900393700787
11
0.0771744488188976
21
1.3719658661417322
0
LINE
8
BLACK
6
CONTINUOUS
10
0.0771744488188976
20
1.3719658661417322
11
0.0748079133858268
21
1.3858942519685038
0
LINE
8
BLACK
6
CONTINUOUS
10
0.0748079133858268
20
1.3858942519685038
11
0.0740157480314961
21
1.3999999999999999
0
LINE
8
BLACK
6
CONTINUOUS
10
0.0740157480314961
20
1.3999999999999999
11
0.0748079133858268
21
1.414105748031496
0
LINE
8
BLACK
6
CONTINUOUS
10
0.0748079133858268
20
1.414105748031496
11
0.0771744488188976
21
1.4280341338582676
0
LINE
8
BLACK
6
CONTINUOUS
10
0.0771744488188976
20
1.4280341338582676
11
0.0810855511811024
21
1.4416099606299213
0
LINE
8
BLACK
6
CONTINUOUS
10
0.0810855511811024
20
1.4416099606299213
11
0.086492125984252
21
1.4546625196850393
0
LINE
8
BLACK
6
CONTINUOUS
10
0.086492125984252
20
1.4546625196850393
11
0.0933261023622047
21
1.4670276771653543
0
LINE
8
BLACK
6
CONTINUOUS
10
0.0933261023622047
20
1.4670276771653543
11
0.1015015354330709
21
1.4785498818897638
0
LINE
8
BLACK
6
CONTINUOUS
10
0.1015015354330709
20
1.4785498818897638
11
0.1109156692913386
21
1.4890843307086614
0
LINE
8
BLACK
6
CONTINUOUS
10
0.1109156692913386
20
1.4890843307086614
11
0.1214501181102362
21
1.498498464566929
0
LINE
8
BLACK
6
CONTINUOUS
10
0.1214501181102362
20
1.498498464566929
11
0.1329723228346457
21
1.5066738976377951
0
LINE
8
BLACK
6
CONTINUOUS
10
0.1329723228346457
20
1.5066738976377951
11
0.1453374803149606
21
1.5135078740157479
0
LINE
8
BLACK
6
CONTINUOUS
10
0.1453374803149606
20
1.5135078740157479
11
0.1583900393700787
21
1.5189144488188977
0
LINE
8
BLACK
6
CONTINUOUS
10
0.1583900393700787
20
1.5189144488188977
11
0.1719658661417323
21
1.5228255511811024
0
LINE
8
BLACK
6
CONTINUOUS
10
0.1719658661417323
20
1.5228255511811024
11
0.1858942519685039
21
1.5251920866141733
0
LINE
8
BLACK
6
CONTINUOUS
10
0.1858942519685039
20
1.5251920866141733
11
0.2
21
1.5259842519685038
0
LINE
8
BLACK
6
CONTINUOUS
10
0.2
20
1.5259842519685038
11
0.2141057480314961
21
1.5251920866141733
0
LINE
8
BLACK
6
CONTINUOUS
10
2.2141057480314958
20
1.5251920866141733
11
2.2280341338582677
21
1.5228255511811024
0
LINE
8
BLACK
6
CONTINUOUS
10
2.2280341338582677
20
1.5228255511811024
11
2.2416099606299213
21
1.5189144488188977
0
LINE
8
BLACK
6
CONTINUOUS
10
2.2416099606299213
20
1.5189144488188977
11
2.2546625196850392
21
1.5135078740157479
0
LINE
8
BLACK
6
CONTINUOUS
10
2.2546625196850392
20
1.5135078740157479
11
2.2670276771653541
21
1.5066738976377951
0
LINE
8
BLACK
6
CONTINUOUS
10
2.2670276771653541
20
1.5066738976377951
11
2.2785498818897638
21
1.498498464566929
0
LINE
8
BLACK
6
CONTINUOUS
10
2.2785498818897638
20
1.498498464566929
11
2.2890843307086612
21
1.4890843307086614
0
LINE
8
BLACK
6
CONTINUOUS
10
2.2890843307086612
20
1.4890843307086614
11
2.2984984645669293
21
1.4785498818897638
0
LINE
8
BLACK
6
CONTINUOUS
10
2.2984984645669293
20
1.4785498818897638
11
2.3066738976377952
21
1.4670276771653543
0
LINE
8
BLACK
6
CONTINUOUS
10
2.3066738976377952
20
1.4670276771653543
11
2.3135078740157482
21
1.4546625196850393
0
LINE
8
BLACK
6
CONTINUOUS
10
2.3135078740157482
20
1.4546625196850393
11
2.3189144488188975
21
1.4416099606299213
0
LINE
8
BLACK
6
CONTINUOUS
10
2.3189144488188975
20
1.4416099606299213
11
2.3228255511811025
21
1.4280341338582676
0
LINE
8
BLACK
6
CONTINUOUS
10
2.3228255511811025
20
1.4280341338582676
11
2.3251920866141731
21
1.414105748031496
0
LINE
8
BLACK
6
CONTINUOUS
10
2.3251920866141731
20
1.414105748031496
11
2.3259842519685039
21
1.3999999999999999
0
LINE
8
BLACK
6
CONTINUOUS
10
2.3259842519685039
20
1.3999999999999999
11
2.3251920866141731
21
1.3858942519685038
0
LINE
8
BLACK
6
CONTINUOUS
10
2.3251920866141731
20
1.3858942519685038
11
2.3228255511811025
21
1.3719658661417322
0
LINE
8
BLACK
6
CONTINUOUS
10
2.3228255511811025
20
1.3719658661417322
11
2.3189144488188975
21
1.3583900393700787
0
LINE
8
BLACK
6
CONTINUOUS
10
2.3189144488188975
20
1.3583900393700787
11
2.3135078740157482
21
1.3453374803149607
0
LINE
8
BLACK
6
CONTINUOUS
10
2.3135078740157482
20
1.3453374803149607
11
2.3066738976377952
21
1.3329723228346457
0
LINE
8
BLACK
6
CONTINUOUS
10
2.3066738976377952
20
1.3329723228346457
11
2.2984984645669293
21
1.3214501181102363
0
LINE
8
BLACK
6
CONTINUOUS
10
2.2984984645669293
20
1.3214501181102363
11
2.2890843307086612
21
1.3109156692913386
0
LINE
8
BLACK
6
CONTINUOUS
10
2.2890843307086612
20
1.3109156692913386
11
2.2785498818897638
21
1.3015015354330708
0
LINE
8
BLACK
6
CONTINUOUS
10
2.2785498818897638
20
1.3015015354330708
11
2.2670276771653541
21
1.2933261023622047
0
LINE
8
BLACK
6
CONTINUOUS
10
2.2670276771653541
20
1.2933261023622047
11
2.2546625196850392
21
1.2864921259842519
0
LINE
8
BLACK
6
CONTINUOUS
10
2.2546625196850392
20
1.2864921259842519
11
2.2416099606299213
21
1.2810855511811023
0
LINE
8
BLACK
6
CONTINUOUS
10
2.2416099606299213
20
1.2810855511811023
11
2.2280341338582677
21
1.2771744488188976
0
LINE
8
BLACK
6
CONTINUOUS
10
2.2280341338582677
20
1.2771744488188976
11
2.2141057480314958
21
1.2748079133858268
0
LINE
8
BLACK
6
CONTINUOUS
10
2.2141057480314958
20
1.2748079133858268
11
2.1999999999999997
21
1.274015748031496
0
LINE
8
BLACK
6
CONTINUOUS
10
2.1999999999999997
20
1.274015748031496
11
2.1858942519685041
21
1.2748079133858268
0
LINE
8
BLACK
6
CONTINUOUS
10
2.1858942519685041
20
1.2748079133858268
11
2.1719658661417323
21
1.2771744488188976
0
LINE
8
BLACK
6
CONTINUOUS
10
2.1719658661417323
20
1.2771744488188976
11
2.1583900393700786
21
1.2810855511811023
0
LINE
8
BLACK
6
CONTINUOUS
10
2.1583900393700786
20
1.2810855511811023
11
2.1453374803149607
21
1.2864921259842519
0
LINE
8
BLACK
6
CONTINUOUS
10
2.1453374803149607
20
1.2864921259842519
11
2.1329723228346458
21
1.2933261023622047
0
LINE
8
BLACK
6
CONTINUOUS
10
2.1329723228346458
20
1.2933261023622047
11
2.1214501181102361
21
1.3015015354330708
0
LINE
8
BLACK
6
CONTINUOUS
10
2.1214501181102361
20
1.3015015354330708
11
2.1109156692913387
21
1.3109156692913386
0
LINE
8
BLACK
6
CONTINUOUS
10
2.1109156692913387
20
1.3109156692913386
11
2.1015015354330706
21
1.3214501181102363
0
LINE
8
BLACK
6
CONTINUOUS
10
2.1015015354330706
20
1.3214501181102363
11
2.0933261023622047
21
1.3329723228346457
0
LINE
8
BLACK
6
CONTINUOUS
10
2.0933261023622047
20
1.3329723228346457
11
2.0864921259842517
21
1.3453374803149607
0
LINE
8
BLACK
6
CONTINUOUS
10
2.0864921259842517
20
1.3453374803149607
11
2.0810855511811024
21
1.3583900393700787
0
LINE
8
BLACK
6
CONTINUOUS
10
2.0810855511811024
20
1.3583900393700787
11
2.0771744488188975
21
1.3719658661417322
0
LINE
8
BLACK
6
CONTINUOUS
10
2.0771744488188975
20
1.3719658661417322
11
2.0748079133858268
21
1.3858942519685038
0
LINE
8
BLACK
6
CONTINUOUS
10
2.0748079133858268
20
1.3858942519685038
11
2.074015748031496
21
1.3999999999999999
0
LINE
8
BLACK
6
CONTINUOUS
10
2.074015748031496
20
1.3999999999999999
11
2.0748079133858268
21
1.414105748031496
0
LINE
8
BLACK
6
CONTINUOUS
10
2.0748079133858268
20
1.414105748031496
11
2.0771744488188975
21
1.4280341338582676
0
LINE
8
BLACK
6
CONTINUOUS
10
2.0771744488188975
20
1.4280341338582676
11
2.0810855511811024
21
1.4416099606299213
0
LINE
8
BLACK
6
CONTINUOUS
10
2.0810855511811024
20
1.4416099606299213
11
2.0864921259842517
21
1.4546625196850393
0
LINE
8
BLACK
6
CONTINUOUS
10
2.0864921259842517
20
1.4546625196850393
11
2.0933261023622047
21
1.4670276771653543
0
LINE
8
BLACK
6
CONTINUOUS
10
2.0933261023622047
20
1.4670276771653543
11
2.1015015354330706
21
1.4785498818897638
0
LINE
8
BLACK
6
CONTINUOUS
10
2.1015015354330706
20
1.4785498818897638
11
2.1109156692913387
21
1.4890843307086614
0
LINE
8
BLACK
6
CONTINUOUS
10
2.1109156692913387
20
1.4890843307086614
11
2.1214501181102361
21
1.498498464566929
0
LINE
8
BLACK
6
CONTINUOUS
10
2.1214501181102361
20
1.498498464566929
11
2.1329723228346458
21
1.5066738976377951
0
LINE
8
BLACK
6
CONTINUOUS
10
2.1329723228346458
20
1.5066738976377951
11
2.1453374803149607
21
1.5135078740157479
0
LINE
8
BLACK
6
CONTINUOUS
10
2.1453374803149607
20
1.5135078740157479
11
2.1583900393700786
21
1.5189144488188977
0
LINE
8
BLACK
6
CONTINUOUS
10
2.1583900393700786
20
1.5189144488188977
11
2.1719658661417323
21
1.5228255511811024
0
LINE
8
BLACK
6
CONTINUOUS
10
2.1719658661417323
20
1.5228255511811024
11
2.1858942519685041
21
1.5251920866141733
0
LINE
8
BLACK
6
CONTINUOUS
10
2.1858942519685041
20
1.5251920866141733
11
2.1999999999999997
21
1.5259842519685038
0
LINE
8
BLACK
6
CONTINUOUS
10
2.1999999999999997
20
1.5259842519685038
11
2.2141057480314958
21
1.5251920866141733
0
LINE
8
BLACK
6
CONTINUOUS
10
1.7390139370078739
20
1.4793555118110235
11
1.7479314173228346
21
1.4762941338582676
0
LINE
8
BLACK
6
CONTINUOUS
10
1.7479314173228346
20
1.4762941338582676
11
1.7562234251968503
21
1.4718067322834645
0
LINE
8
BLACK
6
CONTINUOUS
10
1.7562234251968503
20
1.4718067322834645
11
1.7636637007874016
21
1.4660157480314959
0
LINE
8
BLACK
6
CONTINUOUS
10
1.7636637007874016
20
1.4660157480314959
11
1.7700493700787401
21
1.4590790551181103
0
LINE
8
BLACK
6
CONTINUOUS
10
1.7700493700787401
20
1.4590790551181103
11
1.7752061811023621
21
1.4511859842519685
0
LINE
8
BLACK
6
CONTINUOUS
10
1.7752061811023621
20
1.4511859842519685
11
1.7789935039370077
21
1.4425517322834644
0
LINE
8
BLACK
6
CONTINUOUS
10
1.7789935039370077
20
1.4425517322834644
11
1.781308031496063
21
1.4334118897637795
0
LINE
8
BLACK
6
CONTINUOUS
10
1.781308031496063
20
1.4334118897637795
11
1.7820866141732283
21
1.4240157480314961
0
LINE
8
BLACK
6
CONTINUOUS
10
1.7820866141732283
20
1.4240157480314961
11
1.781308031496063
21
1.4146196062992125
0
LINE
8
BLACK
6
CONTINUOUS
10
1.781308031496063
20
1.4146196062992125
11
1.7789935039370077
21
1.4054797637795275
0
LINE
8
BLACK
6
CONTINUOUS
10
1.7789935039370077
20
1.4054797637795275
11
1.7752061811023621
21
1.3968455118110237
0
LINE
8
BLACK
6
CONTINUOUS
10
1.7752061811023621
20
1.3968455118110237
11
1.7700493700787401
21
1.3889524409448819
0
LINE
8
BLACK
6
CONTINUOUS
10
1.7700493700787401
20
1.3889524409448819
11
1.7636637007874016
21
1.3820157480314961
0
LINE
8
BLACK
6
CONTINUOUS
10
1.7636637007874016
20
1.3820157480314961
11
1.7562234251968503
21
1.3762247637795275
0
LINE
8
BLACK
6
CONTINUOUS
10
1.7562234251968503
20
1.3762247637795275
11
1.7479314173228346
21
1.3717373622047244
0
LINE
8
BLACK
6
CONTINUOUS
10
1.7479314173228346
20
1.3717373622047244
11
1.7390139370078739
21
1.3686759842519685
0
LINE
8
BLACK
6
CONTINUOUS
10
1.7390139370078739
20
1.3686759842519685
11
1.7297141732283463
21
1.3671240944881888
0
LINE
8
BLACK
6
CONTINUOUS
10
1.7297141732283463
20
1.3671240944881888
11
1.7202858267716534
21
1.3671240944881888
0
LINE
8
BLACK
6
CONTINUOUS
10
1.7202858267716534
20
1.3671240944881888
11
1.7109860629921259
21
1.3686759842519685
0
LINE
8
BLACK
6
CONTINUOUS
10
1.7109860629921259
20
1.3686759842519685
11
1.7020685826771653
21
1.3717373622047244
0
LINE
8
BLACK
6
CONTINUOUS
10
1.7020685826771653
20
1.3717373622047244
11
1.6937765748031495
21
1.3762247637795275
0
LINE
8
BLACK
6
CONTINUOUS
10
1.6937765748031495
20
1.3762247637795275
11
1.6863362992125983
21
1.3820157480314961
0
LINE
8
BLACK
6
CONTINUOUS
10
1.6863362992125983
20
1.3820157480314961
11
1.6799506299212599
21
1.3889524409448819
0
LINE
8
BLACK
6
CONTINUOUS
10
1.6799506299212599
20
1.3889524409448819
11
1.6747938188976377
21
1.3968455118110237
0
LINE
8
BLACK
6
CONTINUOUS
10
1.6747938188976377
20
1.3968455118110237
11
1.671006496062992
21
1.4054797637795275
0
LINE
8
BLACK
6
CONTINUOUS
10
1.671006496062992
20
1.4054797637795275
11
1.668691968503937
21
1.4146196062992125
0
LINE
8
BLACK
6
CONTINUOUS
10
1.668691968503937
20
1.4146196062992125
11
1.6679133858267716
21
1.4240157480314961
0
LINE
8
BLACK
6
CONTINUOUS
10
1.6679133858267716
20
1.4240157480314961
11
1.668691968503937
21
1.4334118897637795
0
LINE
8
BLACK
6
CONTINUOUS
10
1.668691968503937
20
1.4334118897637795
11
1.671006496062992
21
1.4425517322834644
0
LINE
8
BLACK
6
CONTINUOUS
10
1.671006496062992
20
1.4425517322834644
11
1.6747938188976377
21
1.4511859842519685
0
LINE
8
BLACK
6
CONTINUOUS
10
1.6747938188976377
20
1.4511859842519685
11
1.6799506299212599
21
1.4590790551181103
0
LINE
8
BLACK
6
CONTINUOUS
10
1.6799506299212599
20
1.4590790551181103
11
1.6863362992125983
21
1.4660157480314959
0
LINE
8
BLACK
6
CONTINUOUS
10
1.6863362992125983
20
1.4660157480314959
11
1.6937765748031495
21
1.4718067322834645
0
LINE
8
BLACK
6
CONTINUOUS
10
1.6937765748031495
20
1.4718067322834645
11
1.7020685826771653
21
1.4762941338582676
0
LINE
8
BLACK
6
CONTINUOUS
10
1.7020685826771653
20
1.4762941338582676
11
1.7109860629921259
21
1.4793555118110235
0
LINE
8
BLACK
6
CONTINUOUS
10
1.7109860629921259
20
1.4793555118110235
11
1.7202858267716534
21
1.4809074015748032
0
LINE
8
BLACK
6
CONTINUOUS
10
1.7202858267716534
20
1.4809074015748032
11
1.7297141732283463
21
1.4809074015748032
0
LINE
8
BLACK
6
CONTINUOUS
10
1.7297141732283463
20
1.4809074015748032
11
1.7390139370078739
21
1.4793555118110235
0
LINE
8
BLACK
6
CONTINUOUS
10
0.6732888582677166
20
1.4765659842519685
11
0.6758433464566929
21
1.474859094488189
0
LINE
8
BLACK
6
CONTINUOUS
10
0.6758433464566929
20
1.474859094488189
11
0.6775502362204724
21
1.4723046062992127
0
LINE
8
BLACK
6
CONTINUOUS
10
0.6775502362204724
20
1.4723046062992127
11
0.6781496062992126
21
1.4692913385826771
0
LINE
8
BLACK
6
CONTINUOUS
10
0.6781496062992126
20
1.4692913385826771
11
0.6781496062992126
21
1.3787401574803149
0
LINE
8
BLACK
6
CONTINUOUS
10
0.6781496062992126
20
1.3787401574803149
11
0.6775502362204724
21
1.3757268897637795
0
LINE
8
BLACK
6
CONTINUOUS
10
0.6775502362204724
20
1.3757268897637795
11
0.6758433464566929
21
1.373172401574803
0
LINE
8
BLACK
6
CONTINUOUS
10
0.6758433464566929
20
1.373172401574803
11
0.6732888582677166
21
1.3714655118110235
0
LINE
8
BLACK
6
CONTINUOUS
10
0.6732888582677166
20
1.3714655118110235
11
0.6702755905511811
21
1.3708661417322834
0
LINE
8
BLACK
6
CONTINUOUS
10
0.6702755905511811
20
1.3708661417322834
11
0.5797244094488189
21
1.3708661417322834
0
LINE
8
BLACK
6
CONTINUOUS
10
0.5797244094488189
20
1.3708661417322834
11
0.5767111417322834
21
1.3714655118110235
0
LINE
8
BLACK
6
CONTINUOUS
10
0.5767111417322834
20
1.3714655118110235
11
0.574156653543307
21
1.373172401574803
0
LINE
8
BLACK
6
CONTINUOUS
10
0.574156653543307
20
1.373172401574803
11
0.5724497637795275
21
1.3757268897637795
0
LINE
8
BLACK
6
CONTINUOUS
10
0.5724497637795275
20
1.3757268897637795
11
0.5718503937007874
21
1.3787401574803149
0
LINE
8
BLACK
6
CONTINUOUS
10
0.5718503937007874
20
1.3787401574803149
11
0.5718503937007874
21
1.4692913385826771
0
LINE
8
BLACK
6
CONTINUOUS
10
0.5718503937007874
20
1.4692913385826771
11
0.5724497637795275
21
1.4723046062992127
0
LINE
8
BLACK
6
CONTINUOUS
10
0.5724497637795275
20
1.4723046062992127
11
0.574156653543307
21
1.474859094488189
0
LINE
8
BLACK
6
CONTINUOUS
10
0.574156653543307
20
1.474859094488189
11
0.5767111417322834
21
1.4765659842519685
0
LINE
8
BLACK
6
CONTINUOUS
10
0.5767111417322834
20
1.4765659842519685
11
0.5797244094488189
21
1.4771653543307086
0
LINE
8
BLACK
6
CONTINUOUS
10
0.5797244094488189
20
1.4771653543307086
11
0.6702755905511811
21
1.4771653543307086
0
LINE
8
BLACK
6
CONTINUOUS
10
0.6702755905511811
20
1.4771653543307086
11
0.6732888582677166
21
1.4765659842519685
0
LINE
8
BLACK
6
CONTINUOUS
10
1.2232888582677166
20
1.4765659842519685
11
1.2258433464566929
21
1.474859094488189
0
LINE
8
BLACK
6
CONTINUOUS
10
1.2258433464566929
20
1.474859094488189
11
1.2275502362204724
21
1.4723046062992127
0
LINE
8
BLACK
6
CONTINUOUS
10
1.2275502362204724
20
1.4723046062992127
11
1.2281496062992125
21
1.4692913385826771
0
LINE
8
BLACK
6
CONTINUOUS
10
1.2281496062992125
20
1.4692913385826771
11
1.2281496062992125
21
1.3787401574803149
0
LINE
8
BLACK
6
CONTINUOUS
10
1.2281496062992125
20
1.3787401574803149
11
1.2275502362204724
21
1.3757268897637795
0
LINE
8
BLACK
6
CONTINUOUS
10
1.2275502362204724
20
1.3757268897637795
11
1.2258433464566929
21
1.373172401574803
0
LINE
8
BLACK
6
CONTINUOUS
10
1.2258433464566929
20
1.373172401574803
11
1.2232888582677166
21
1.3714655118110235
0
LINE
8
BLACK
6
CONTINUOUS
10
1.2232888582677166
20
1.3714655118110235
11
1.2202755905511811
21
1.3708661417322834
0
LINE
8
BLACK
6
CONTINUOUS
10
1.2202755905511811
20
1.3708661417322834
11
1.1297244094488188
21
1.3708661417322834
0
LINE
8
BLACK
6
CONTINUOUS
10
1.1297244094488188
20
1.3708661417322834
11
1.1267111417322835
21
1.3714655118110235
0
LINE
8
BLACK
6
CONTINUOUS
10
1.1267111417322835
20
1.3714655118110235
11
1.124156653543307
21
1.373172401574803
0
LINE
8
BLACK
6
CONTINUOUS
10
1.124156653543307
20
1.373172401574803
11
1.1224497637795274
21
1.3757268897637795
0
LINE
8
BLACK
6
CONTINUOUS
10
1.1224497637795274
20
1.3757268897637795
11
1.1218503937007873
21
1.3787401574803149
0
LINE
8
BLACK
6
CONTINUOUS
10
1.1218503937007873
20
1.3787401574803149
11
1.1218503937007873
21
1.4692913385826771
0
LINE
8
BLACK
6
CONTINUOUS
10
1.1218503937007873
20
1.4692913385826771
11
1.1224497637795274
21
1.4723046062992127
0
LINE
8
BLACK
6
CONTINUOUS
10
1.1224497637795274
20
1.4723046062992127
11
1.124156653543307
21
1.474859094488189
0
LINE
8
BLACK
6
CONTINUOUS
10
1.124156653543307
20
1.474859094488189
11
1.1267111417322835
21
1.4765659842519685
0
LINE
8
BLACK
6
CONTINUOUS
10
1.1267111417322835
20
1.4765659842519685
11
1.1297244094488188
21
1.4771653543307086
0
LINE
8
BLACK
6
CONTINUOUS
10
1.1297244094488188
20
1.4771653543307086
11
1.2202755905511811
21
1.4771653543307086
0
LINE
8
BLACK
6
CONTINUOUS
10
1.2202755905511811
20
1.4771653543307086
11
1.2232888582677166
21
1.4765659842519685
  0
ENDSEC
  0
EOF
