  0
SECTION
  2
HEADER
  9
$ANGBASE
  50
0.0
  9
$ANGDIR
  70
1
  9
$MEASUREMENT
  70
0
  0
ENDSEC
  0
SECTION
  2
TABLES
  0
TABLE
  2
LTYPE
  70
4
  0
LTYPE
  5
40F
  2
CONTINUOUS
  70
0
  3
Solid line
  72
65
  73
0
  40
0.0
  0
LTYPE
  5
410
  2
DASHDOT
 70
0
  3
Dash Dot ____ _ ____ _
 72
65
 73
4
 40
2.0
 49
1.25
 49
-0.25
 49
0.25
 49
-0.25
  0
LTYPE
  5
411
  2
DASHED
 70
0
  3
Dashed __ __ __ __ __
 72
65
 73
2
 40
0.75
 49
0.5
 49
-0.25
  0
LTYPE
  5
43B
  2
DOTTED
 70
0
  3
Dotted .  .  .  .
 72
65
 73
2
 40
0.2
 49
0.0
 49
-0.2
  0
ENDTAB
  0
TABLE
  2
STYLE
  70
4
  0
STYLE
  2
KICAD
  70
0
  40
0
  41
1
  42
1
  50
0
  71
0
  3
isocp.shx
  0
STYLE
  2
KICADB
  70
0
  40
0
  41
1
  42
1
  50
0
  71
0
  3
isocp.shx
  0
STYLE
  2
KICADI
  70
0
  40
0
  41
1
  42
1
  50
15
  71
0
  3
isocp.shx
  0
STYLE
  2
KICADBI
  70
0
  40
0
  41
1
  42
1
  50
15
  71
0
  3
isocp.shx
  0
ENDTAB
  0
TABLE
  2
LAYER
  70
1
  0
LAYER
  2
BLACK
  70
0
  62
7
  6
CONTINUOUS
  0
ENDTAB
  0
ENDSEC
  0
SECTION
  2
ENTITIES
0
LINE
8
BLACK
6
CONTINUOUS
10
2.3040183858267715
20
0.588310905511811
11
2.3045510629921258
21
0.5877782283464567
0
LINE
8
BLACK
6
CONTINUOUS
10
2.3045510629921258
20
0.5877782283464567
11
2.3046259842519685
21
0.5125984251968504
0
LINE
8
BLACK
6
CONTINUOUS
10
2.3046259842519685
20
0.5125984251968504
11
2.3045510629921258
21
0.5122217716535433
0
LINE
8
BLACK
6
CONTINUOUS
10
2.3045510629921258
20
0.5122217716535433
11
2.3040183858267715
21
0.511689094488189
0
LINE
8
BLACK
6
CONTINUOUS
10
2.3040183858267715
20
0.511689094488189
11
2.1713582677165353
21
0.5116141732283465
0
LINE
8
BLACK
6
CONTINUOUS
10
2.1713582677165353
20
0.5116141732283465
11
2.1709816141732281
21
0.511689094488189
0
LINE
8
BLACK
6
CONTINUOUS
10
2.1709816141732281
20
0.511689094488189
11
2.1704489370078739
21
0.5122217716535433
0
LINE
8
BLACK
6
CONTINUOUS
10
2.1704489370078739
20
0.5122217716535433
11
2.1703740157480316
21
0.5874015748031496
0
LINE
8
BLACK
6
CONTINUOUS
10
2.1703740157480316
20
0.5874015748031496
11
2.1704489370078739
21
0.5877782283464567
0
LINE
8
BLACK
6
CONTINUOUS
10
2.1704489370078739
20
0.5877782283464567
11
2.1709816141732281
21
0.588310905511811
0
LINE
8
BLACK
6
CONTINUOUS
10
2.1709816141732281
20
0.588310905511811
11
2.3036417322834644
21
0.5883858267716535
0
LINE
8
BLACK
6
CONTINUOUS
10
2.3036417322834644
20
0.5883858267716535
11
2.3040183858267715
21
0.588310905511811
0
LINE
8
BLACK
6
CONTINUOUS
10
2.1722689370078738
20
0.5864178346456693
11
2.1723415748031494
21
0.5135085039370079
0
LINE
8
BLACK
6
CONTINUOUS
10
2.1723415748031494
20
0.5135085039370079
11
2.3027310236220471
21
0.5135821259842519
0
LINE
8
BLACK
6
CONTINUOUS
10
2.3027310236220471
20
0.5135821259842519
11
2.3026583858267715
21
0.5864914566929134
0
LINE
8
BLACK
6
CONTINUOUS
10
2.3026583858267715
20
0.5864914566929134
11
2.1722689370078738
21
0.5864178346456693
0
LINE
8
BLACK
6
CONTINUOUS
10
2.3040183858267715
20
0.813310905511811
11
2.3045510629921258
21
0.8127782283464566
0
LINE
8
BLACK
6
CONTINUOUS
10
2.3045510629921258
20
0.8127782283464566
11
2.3046259842519685
21
0.7375984251968504
0
LINE
8
BLACK
6
CONTINUOUS
10
2.3046259842519685
20
0.7375984251968504
11
2.3045510629921258
21
0.7372217716535433
0
LINE
8
BLACK
6
CONTINUOUS
10
2.3045510629921258
20
0.7372217716535433
11
2.3040183858267715
21
0.736689094488189
0
LINE
8
BLACK
6
CONTINUOUS
10
2.3040183858267715
20
0.736689094488189
11
2.1713582677165353
21
0.7366141732283464
0
LINE
8
BLACK
6
CONTINUOUS
10
2.1713582677165353
20
0.7366141732283464
11
2.1709816141732281
21
0.736689094488189
0
LINE
8
BLACK
6
CONTINUOUS
10
2.1709816141732281
20
0.736689094488189
11
2.1704489370078739
21
0.7372217716535433
0
LINE
8
BLACK
6
CONTINUOUS
10
2.1704489370078739
20
0.7372217716535433
11
2.1703740157480316
21
0.8124015748031496
0
LINE
8
BLACK
6
CONTINUOUS
10
2.1703740157480316
20
0.8124015748031496
11
2.1704489370078739
21
0.8127782283464566
0
LINE
8
BLACK
6
CONTINUOUS
10
2.1704489370078739
20
0.8127782283464566
11
2.1709816141732281
21
0.813310905511811
0
LINE
8
BLACK
6
CONTINUOUS
10
2.1709816141732281
20
0.813310905511811
11
2.3036417322834644
21
0.8133858267716535
0
LINE
8
BLACK
6
CONTINUOUS
10
2.3036417322834644
20
0.8133858267716535
11
2.3040183858267715
21
0.813310905511811
0
LINE
8
BLACK
6
CONTINUOUS
10
2.1722689370078738
20
0.8114178346456693
11
2.1723415748031494
21
0.7385085039370078
0
LINE
8
BLACK
6
CONTINUOUS
10
2.1723415748031494
20
0.7385085039370078
11
2.3027310236220471
21
0.738582125984252
0
LINE
8
BLACK
6
CONTINUOUS
10
2.3027310236220471
20
0.738582125984252
11
2.3026583858267715
21
0.8114914566929133
0
LINE
8
BLACK
6
CONTINUOUS
10
2.3026583858267715
20
0.8114914566929133
11
2.1722689370078738
21
0.8114178346456693
0
LINE
8
BLACK
6
CONTINUOUS
10
2.2377782283464565
20
1.0795510629921259
11
2.2383109055118111
21
1.0790183858267717
0
LINE
8
BLACK
6
CONTINUOUS
10
2.2383109055118111
20
1.0790183858267717
11
2.2383858267716534
21
0.9463582677165354
0
LINE
8
BLACK
6
CONTINUOUS
10
2.2383858267716534
20
0.9463582677165354
11
2.2383109055118111
21
0.9459816141732283
0
LINE
8
BLACK
6
CONTINUOUS
10
2.2383109055118111
20
0.9459816141732283
11
2.2377782283464565
21
0.945448937007874
0
LINE
8
BLACK
6
CONTINUOUS
10
2.2377782283464565
20
0.945448937007874
11
2.1625984251968502
21
0.9453740157480315
0
LINE
8
BLACK
6
CONTINUOUS
10
2.1625984251968502
20
0.9453740157480315
11
2.1622217716535435
21
0.945448937007874
0
LINE
8
BLACK
6
CONTINUOUS
10
2.1622217716535435
20
0.945448937007874
11
2.1616890944881888
21
0.9459816141732283
0
LINE
8
BLACK
6
CONTINUOUS
10
2.1616890944881888
20
0.9459816141732283
11
2.1616141732283465
21
1.0786417322834645
0
LINE
8
BLACK
6
CONTINUOUS
10
2.1616141732283465
20
1.0786417322834645
11
2.1616890944881888
21
1.0790183858267717
0
LINE
8
BLACK
6
CONTINUOUS
10
2.1616890944881888
20
1.0790183858267717
11
2.1622217716535435
21
1.0795510629921259
0
LINE
8
BLACK
6
CONTINUOUS
10
2.1622217716535435
20
1.0795510629921259
11
2.2374015748031497
21
1.0796259842519684
0
LINE
8
BLACK
6
CONTINUOUS
10
2.2374015748031497
20
1.0796259842519684
11
2.2377782283464565
21
1.0795510629921259
0
LINE
8
BLACK
6
CONTINUOUS
10
2.1635085039370079
20
1.0776583858267716
11
2.1635821259842518
21
0.947268937007874
0
LINE
8
BLACK
6
CONTINUOUS
10
2.1635821259842518
20
0.947268937007874
11
2.2364914566929133
21
0.9473415748031496
0
LINE
8
BLACK
6
CONTINUOUS
10
2.2364914566929133
20
0.9473415748031496
11
2.2364178346456693
21
1.0777310236220472
0
LINE
8
BLACK
6
CONTINUOUS
10
2.2364178346456693
20
1.0777310236220472
11
2.1635085039370079
21
1.0776583858267716
0
LINE
8
BLACK
6
CONTINUOUS
10
2.3377782283464565
20
1.0795510629921259
11
2.3383109055118108
21
1.0790183858267717
0
LINE
8
BLACK
6
CONTINUOUS
10
2.3383109055118108
20
1.0790183858267717
11
2.3383858267716535
21
0.9463582677165354
0
LINE
8
BLACK
6
CONTINUOUS
10
2.3383858267716535
20
0.9463582677165354
11
2.3383109055118108
21
0.9459816141732283
0
LINE
8
BLACK
6
CONTINUOUS
10
2.3383109055118108
20
0.9459816141732283
11
2.3377782283464565
21
0.945448937007874
0
LINE
8
BLACK
6
CONTINUOUS
10
2.3377782283464565
20
0.945448937007874
11
2.2625984251968503
21
0.9453740157480315
0
LINE
8
BLACK
6
CONTINUOUS
10
2.2625984251968503
20
0.9453740157480315
11
2.2622217716535431
21
0.945448937007874
0
LINE
8
BLACK
6
CONTINUOUS
10
2.2622217716535431
20
0.945448937007874
11
2.2616890944881889
21
0.9459816141732283
0
LINE
8
BLACK
6
CONTINUOUS
10
2.2616890944881889
20
0.9459816141732283
11
2.2616141732283466
21
1.0786417322834645
0
LINE
8
BLACK
6
CONTINUOUS
10
2.2616141732283466
20
1.0786417322834645
11
2.2616890944881889
21
1.0790183858267717
0
LINE
8
BLACK
6
CONTINUOUS
10
2.2616890944881889
20
1.0790183858267717
11
2.2622217716535431
21
1.0795510629921259
0
LINE
8
BLACK
6
CONTINUOUS
10
2.2622217716535431
20
1.0795510629921259
11
2.3374015748031494
21
1.0796259842519684
0
LINE
8
BLACK
6
CONTINUOUS
10
2.3374015748031494
20
1.0796259842519684
11
2.3377782283464565
21
1.0795510629921259
0
LINE
8
BLACK
6
CONTINUOUS
10
2.263508503937008
20
1.0776583858267716
11
2.2635821259842519
21
0.947268937007874
0
LINE
8
BLACK
6
CONTINUOUS
10
2.2635821259842519
20
0.947268937007874
11
2.3364914566929134
21
0.9473415748031496
0
LINE
8
BLACK
6
CONTINUOUS
10
2.3364914566929134
20
0.9473415748031496
11
2.3364178346456694
21
1.0777310236220472
0
LINE
8
BLACK
6
CONTINUOUS
10
2.3364178346456694
20
1.0777310236220472
11
2.263508503937008
21
1.0776583858267716
  0
ENDSEC
  0
EOF
