  0
SECTION
  2
HEADER
  9
$ANGBASE
  50
0.0
  9
$ANGDIR
  70
1
  9
$MEASUREMENT
  70
0
  0
ENDSEC
  0
SECTION
  2
TABLES
  0
TABLE
  2
LTYPE
  70
4
  0
LTYPE
  5
40F
  2
CONTINUOUS
  70
0
  3
Solid line
  72
65
  73
0
  40
0.0
  0
LTYPE
  5
410
  2
DASHDOT
 70
0
  3
Dash Dot ____ _ ____ _
 72
65
 73
4
 40
2.0
 49
1.25
 49
-0.25
 49
0.25
 49
-0.25
  0
LTYPE
  5
411
  2
DASHED
 70
0
  3
Dashed __ __ __ __ __
 72
65
 73
2
 40
0.75
 49
0.5
 49
-0.25
  0
LTYPE
  5
43B
  2
DOTTED
 70
0
  3
Dotted .  .  .  .
 72
65
 73
2
 40
0.2
 49
0.0
 49
-0.2
  0
ENDTAB
  0
TABLE
  2
STYLE
  70
4
  0
STYLE
  2
KICAD
  70
0
  40
0
  41
1
  42
1
  50
0
  71
0
  3
isocp.shx
  0
STYLE
  2
KICADB
  70
0
  40
0
  41
1
  42
1
  50
0
  71
0
  3
isocp.shx
  0
STYLE
  2
KICADI
  70
0
  40
0
  41
1
  42
1
  50
15
  71
0
  3
isocp.shx
  0
STYLE
  2
KICADBI
  70
0
  40
0
  41
1
  42
1
  50
15
  71
0
  3
isocp.shx
  0
ENDTAB
  0
TABLE
  2
LAYER
  70
1
  0
LAYER
  2
BLACK
  70
0
  62
7
  6
CONTINUOUS
  0
ENDTAB
  0
ENDSEC
  0
SECTION
  2
ENTITIES
0
LINE
8
BLACK
6
CONTINUOUS
10
2.2176968503937009
20
0.5224409448818897
11
2.182303149606299
21
0.5224409448818897
0
LINE
8
BLACK
6
CONTINUOUS
10
2.182303149606299
20
0.5224409448818897
11
2.182303149606299
21
0.5775590551181102
0
LINE
8
BLACK
6
CONTINUOUS
10
2.182303149606299
20
0.5775590551181102
11
2.2176968503937009
21
0.5775590551181102
0
LINE
8
BLACK
6
CONTINUOUS
10
2.2176968503937009
20
0.5775590551181102
11
2.2176968503937009
21
0.5224409448818897
0
LINE
8
BLACK
6
CONTINUOUS
10
2.2925
20
0.5224409448818897
11
2.2574999999999998
21
0.5224409448818897
0
LINE
8
BLACK
6
CONTINUOUS
10
2.2574999999999998
20
0.5224409448818897
11
2.2574999999999998
21
0.5775590551181102
0
LINE
8
BLACK
6
CONTINUOUS
10
2.2574999999999998
20
0.5775590551181102
11
2.2925
21
0.5775590551181102
0
LINE
8
BLACK
6
CONTINUOUS
10
2.2925
20
0.5775590551181102
11
2.2925
21
0.5224409448818897
0
LINE
8
BLACK
6
CONTINUOUS
10
2.2176968503937009
20
0.7474409448818897
11
2.182303149606299
21
0.7474409448818897
0
LINE
8
BLACK
6
CONTINUOUS
10
2.182303149606299
20
0.7474409448818897
11
2.182303149606299
21
0.8025590551181102
0
LINE
8
BLACK
6
CONTINUOUS
10
2.182303149606299
20
0.8025590551181102
11
2.2176968503937009
21
0.8025590551181102
0
LINE
8
BLACK
6
CONTINUOUS
10
2.2176968503937009
20
0.8025590551181102
11
2.2176968503937009
21
0.7474409448818897
0
LINE
8
BLACK
6
CONTINUOUS
10
2.2925
20
0.7474409448818897
11
2.2574999999999998
21
0.7474409448818897
0
LINE
8
BLACK
6
CONTINUOUS
10
2.2574999999999998
20
0.7474409448818897
11
2.2574999999999998
21
0.8025590551181102
0
LINE
8
BLACK
6
CONTINUOUS
10
2.2574999999999998
20
0.8025590551181102
11
2.2925
21
0.8025590551181102
0
LINE
8
BLACK
6
CONTINUOUS
10
2.2925
20
0.8025590551181102
11
2.2925
21
0.7474409448818897
0
LINE
8
BLACK
6
CONTINUOUS
10
2.2275590551181104
20
0.9573031496062991
11
2.1724409448818895
21
0.9573031496062991
0
LINE
8
BLACK
6
CONTINUOUS
10
2.1724409448818895
20
0.9573031496062991
11
2.1724409448818895
21
0.9926968503937008
0
LINE
8
BLACK
6
CONTINUOUS
10
2.1724409448818895
20
0.9926968503937008
11
2.2275590551181104
21
0.9926968503937008
0
LINE
8
BLACK
6
CONTINUOUS
10
2.2275590551181104
20
0.9926968503937008
11
2.2275590551181104
21
0.9573031496062991
0
LINE
8
BLACK
6
CONTINUOUS
10
2.32755905511811
20
0.9575
11
2.2724409448818896
21
0.9575
0
LINE
8
BLACK
6
CONTINUOUS
10
2.2724409448818896
20
0.9575
11
2.2724409448818896
21
0.9924999999999999
0
LINE
8
BLACK
6
CONTINUOUS
10
2.2724409448818896
20
0.9924999999999999
11
2.32755905511811
21
0.9924999999999999
0
LINE
8
BLACK
6
CONTINUOUS
10
2.32755905511811
20
0.9924999999999999
11
2.32755905511811
21
0.9575
0
LINE
8
BLACK
6
CONTINUOUS
10
2.32755905511811
20
1.0323031496062991
11
2.2724409448818896
21
1.0323031496062991
0
LINE
8
BLACK
6
CONTINUOUS
10
2.2724409448818896
20
1.0323031496062991
11
2.2724409448818896
21
1.0676968503937008
0
LINE
8
BLACK
6
CONTINUOUS
10
2.2724409448818896
20
1.0676968503937008
11
2.32755905511811
21
1.0676968503937008
0
LINE
8
BLACK
6
CONTINUOUS
10
2.32755905511811
20
1.0676968503937008
11
2.32755905511811
21
1.0323031496062991
0
LINE
8
BLACK
6
CONTINUOUS
10
2.2275590551181104
20
1.0325
11
2.1724409448818895
21
1.0325
0
LINE
8
BLACK
6
CONTINUOUS
10
2.1724409448818895
20
1.0325
11
2.1724409448818895
21
1.0674999999999999
0
LINE
8
BLACK
6
CONTINUOUS
10
2.1724409448818895
20
1.0674999999999999
11
2.2275590551181104
21
1.0674999999999999
0
LINE
8
BLACK
6
CONTINUOUS
10
2.2275590551181104
20
1.0674999999999999
11
2.2275590551181104
21
1.0325
  0
ENDSEC
  0
EOF
