  0
SECTION
  2
HEADER
  9
$ANGBASE
  50
0.0
  9
$ANGDIR
  70
1
  9
$MEASUREMENT
  70
0
  0
ENDSEC
  0
SECTION
  2
TABLES
  0
TABLE
  2
LTYPE
  70
4
  0
LTYPE
  5
40F
  2
CONTINUOUS
  70
0
  3
Solid line
  72
65
  73
0
  40
0.0
  0
LTYPE
  5
410
  2
DASHDOT
 70
0
  3
Dash Dot ____ _ ____ _
 72
65
 73
4
 40
2.0
 49
1.25
 49
-0.25
 49
0.25
 49
-0.25
  0
LTYPE
  5
411
  2
DASHED
 70
0
  3
Dashed __ __ __ __ __
 72
65
 73
2
 40
0.75
 49
0.5
 49
-0.25
  0
LTYPE
  5
43B
  2
DOTTED
 70
0
  3
Dotted .  .  .  .
 72
65
 73
2
 40
0.2
 49
0.0
 49
-0.2
  0
ENDTAB
  0
TABLE
  2
STYLE
  70
4
  0
STYLE
  2
KICAD
  70
0
  40
0
  41
1
  42
1
  50
0
  71
0
  3
isocp.shx
  0
STYLE
  2
KICADB
  70
0
  40
0
  41
1
  42
1
  50
0
  71
0
  3
isocp.shx
  0
STYLE
  2
KICADI
  70
0
  40
0
  41
1
  42
1
  50
15
  71
0
  3
isocp.shx
  0
STYLE
  2
KICADBI
  70
0
  40
0
  41
1
  42
1
  50
15
  71
0
  3
isocp.shx
  0
ENDTAB
  0
TABLE
  2
LAYER
  70
1
  0
LAYER
  2
BLACK
  70
0
  62
7
  6
CONTINUOUS
  0
ENDTAB
  0
ENDSEC
  0
SECTION
  2
ENTITIES
0
LINE
8
BLACK
6
CONTINUOUS
10
2.3036417322834644
20
0.5883858267716535
11
2.3043377165354331
21
0.5880975590551181
0
LINE
8
BLACK
6
CONTINUOUS
10
2.3043377165354331
20
0.5880975590551181
11
2.3046259842519685
21
0.5874015748031496
0
LINE
8
BLACK
6
CONTINUOUS
10
2.3046259842519685
20
0.5874015748031496
11
2.3046259842519685
21
0.5125984251968504
0
LINE
8
BLACK
6
CONTINUOUS
10
2.3046259842519685
20
0.5125984251968504
11
2.3043377165354331
21
0.5119024409448819
0
LINE
8
BLACK
6
CONTINUOUS
10
2.3043377165354331
20
0.5119024409448819
11
2.3036417322834644
21
0.5116141732283465
0
LINE
8
BLACK
6
CONTINUOUS
10
2.3036417322834644
20
0.5116141732283465
11
2.1713582677165353
21
0.5116141732283465
0
LINE
8
BLACK
6
CONTINUOUS
10
2.1713582677165353
20
0.5116141732283465
11
2.170662283464567
21
0.5119024409448819
0
LINE
8
BLACK
6
CONTINUOUS
10
2.170662283464567
20
0.5119024409448819
11
2.1703740157480316
21
0.5125984251968504
0
LINE
8
BLACK
6
CONTINUOUS
10
2.1703740157480316
20
0.5125984251968504
11
2.1703740157480316
21
0.5874015748031496
0
LINE
8
BLACK
6
CONTINUOUS
10
2.1703740157480316
20
0.5874015748031496
11
2.170662283464567
21
0.5880975590551181
0
LINE
8
BLACK
6
CONTINUOUS
10
2.170662283464567
20
0.5880975590551181
11
2.1713582677165353
21
0.5883858267716535
0
LINE
8
BLACK
6
CONTINUOUS
10
2.1713582677165353
20
0.5883858267716535
11
2.3036417322834644
21
0.5883858267716535
0
LINE
8
BLACK
6
CONTINUOUS
10
2.1723425196850394
20
0.5864173228346456
11
2.1723425196850394
21
0.5135826771653543
0
LINE
8
BLACK
6
CONTINUOUS
10
2.1723425196850394
20
0.5135826771653543
11
2.3026574803149606
21
0.5135826771653543
0
LINE
8
BLACK
6
CONTINUOUS
10
2.3026574803149606
20
0.5135826771653543
11
2.3026574803149606
21
0.5864173228346456
0
LINE
8
BLACK
6
CONTINUOUS
10
2.3026574803149606
20
0.5864173228346456
11
2.1723425196850394
21
0.5864173228346456
0
LINE
8
BLACK
6
CONTINUOUS
10
2.3036417322834644
20
0.8133858267716535
11
2.3043377165354331
21
0.813097559055118
0
LINE
8
BLACK
6
CONTINUOUS
10
2.3043377165354331
20
0.813097559055118
11
2.3046259842519685
21
0.8124015748031496
0
LINE
8
BLACK
6
CONTINUOUS
10
2.3046259842519685
20
0.8124015748031496
11
2.3046259842519685
21
0.7375984251968504
0
LINE
8
BLACK
6
CONTINUOUS
10
2.3046259842519685
20
0.7375984251968504
11
2.3043377165354331
21
0.7369024409448819
0
LINE
8
BLACK
6
CONTINUOUS
10
2.3043377165354331
20
0.7369024409448819
11
2.3036417322834644
21
0.7366141732283464
0
LINE
8
BLACK
6
CONTINUOUS
10
2.3036417322834644
20
0.7366141732283464
11
2.1713582677165353
21
0.7366141732283464
0
LINE
8
BLACK
6
CONTINUOUS
10
2.1713582677165353
20
0.7366141732283464
11
2.170662283464567
21
0.7369024409448819
0
LINE
8
BLACK
6
CONTINUOUS
10
2.170662283464567
20
0.7369024409448819
11
2.1703740157480316
21
0.7375984251968504
0
LINE
8
BLACK
6
CONTINUOUS
10
2.1703740157480316
20
0.7375984251968504
11
2.1703740157480316
21
0.8124015748031496
0
LINE
8
BLACK
6
CONTINUOUS
10
2.1703740157480316
20
0.8124015748031496
11
2.170662283464567
21
0.813097559055118
0
LINE
8
BLACK
6
CONTINUOUS
10
2.170662283464567
20
0.813097559055118
11
2.1713582677165353
21
0.8133858267716535
0
LINE
8
BLACK
6
CONTINUOUS
10
2.1713582677165353
20
0.8133858267716535
11
2.3036417322834644
21
0.8133858267716535
0
LINE
8
BLACK
6
CONTINUOUS
10
2.1723425196850394
20
0.8114173228346456
11
2.1723425196850394
21
0.7385826771653543
0
LINE
8
BLACK
6
CONTINUOUS
10
2.1723425196850394
20
0.7385826771653543
11
2.3026574803149606
21
0.7385826771653543
0
LINE
8
BLACK
6
CONTINUOUS
10
2.3026574803149606
20
0.7385826771653543
11
2.3026574803149606
21
0.8114173228346456
0
LINE
8
BLACK
6
CONTINUOUS
10
2.3026574803149606
20
0.8114173228346456
11
2.1723425196850394
21
0.8114173228346456
0
LINE
8
BLACK
6
CONTINUOUS
10
2.2374015748031497
20
1.0796259842519684
11
2.238097559055118
21
1.079337716535433
0
LINE
8
BLACK
6
CONTINUOUS
10
2.238097559055118
20
1.079337716535433
11
2.2383858267716534
21
1.0786417322834645
0
LINE
8
BLACK
6
CONTINUOUS
10
2.2383858267716534
20
1.0786417322834645
11
2.2383858267716534
21
0.9463582677165354
0
LINE
8
BLACK
6
CONTINUOUS
10
2.2383858267716534
20
0.9463582677165354
11
2.238097559055118
21
0.9456622834645669
0
LINE
8
BLACK
6
CONTINUOUS
10
2.238097559055118
20
0.9456622834645669
11
2.2374015748031497
21
0.9453740157480315
0
LINE
8
BLACK
6
CONTINUOUS
10
2.2374015748031497
20
0.9453740157480315
11
2.1625984251968502
21
0.9453740157480315
0
LINE
8
BLACK
6
CONTINUOUS
10
2.1625984251968502
20
0.9453740157480315
11
2.1619024409448819
21
0.9456622834645669
0
LINE
8
BLACK
6
CONTINUOUS
10
2.1619024409448819
20
0.9456622834645669
11
2.1616141732283465
21
0.9463582677165354
0
LINE
8
BLACK
6
CONTINUOUS
10
2.1616141732283465
20
0.9463582677165354
11
2.1616141732283465
21
1.0786417322834645
0
LINE
8
BLACK
6
CONTINUOUS
10
2.1616141732283465
20
1.0786417322834645
11
2.1619024409448819
21
1.079337716535433
0
LINE
8
BLACK
6
CONTINUOUS
10
2.1619024409448819
20
1.079337716535433
11
2.1625984251968502
21
1.0796259842519684
0
LINE
8
BLACK
6
CONTINUOUS
10
2.1625984251968502
20
1.0796259842519684
11
2.2374015748031497
21
1.0796259842519684
0
LINE
8
BLACK
6
CONTINUOUS
10
2.1635826771653544
20
1.0776574803149606
11
2.1635826771653544
21
0.9473425196850394
0
LINE
8
BLACK
6
CONTINUOUS
10
2.1635826771653544
20
0.9473425196850394
11
2.2364173228346456
21
0.9473425196850394
0
LINE
8
BLACK
6
CONTINUOUS
10
2.2364173228346456
20
0.9473425196850394
11
2.2364173228346456
21
1.0776574803149606
0
LINE
8
BLACK
6
CONTINUOUS
10
2.2364173228346456
20
1.0776574803149606
11
2.1635826771653544
21
1.0776574803149606
0
LINE
8
BLACK
6
CONTINUOUS
10
2.3374015748031494
20
1.0796259842519684
11
2.3380975590551181
21
1.079337716535433
0
LINE
8
BLACK
6
CONTINUOUS
10
2.3380975590551181
20
1.079337716535433
11
2.3383858267716535
21
1.0786417322834645
0
LINE
8
BLACK
6
CONTINUOUS
10
2.3383858267716535
20
1.0786417322834645
11
2.3383858267716535
21
0.9463582677165354
0
LINE
8
BLACK
6
CONTINUOUS
10
2.3383858267716535
20
0.9463582677165354
11
2.3380975590551181
21
0.9456622834645669
0
LINE
8
BLACK
6
CONTINUOUS
10
2.3380975590551181
20
0.9456622834645669
11
2.3374015748031494
21
0.9453740157480315
0
LINE
8
BLACK
6
CONTINUOUS
10
2.3374015748031494
20
0.9453740157480315
11
2.2625984251968503
21
0.9453740157480315
0
LINE
8
BLACK
6
CONTINUOUS
10
2.2625984251968503
20
0.9453740157480315
11
2.261902440944882
21
0.9456622834645669
0
LINE
8
BLACK
6
CONTINUOUS
10
2.261902440944882
20
0.9456622834645669
11
2.2616141732283466
21
0.9463582677165354
0
LINE
8
BLACK
6
CONTINUOUS
10
2.2616141732283466
20
0.9463582677165354
11
2.2616141732283466
21
1.0786417322834645
0
LINE
8
BLACK
6
CONTINUOUS
10
2.2616141732283466
20
1.0786417322834645
11
2.261902440944882
21
1.079337716535433
0
LINE
8
BLACK
6
CONTINUOUS
10
2.261902440944882
20
1.079337716535433
11
2.2625984251968503
21
1.0796259842519684
0
LINE
8
BLACK
6
CONTINUOUS
10
2.2625984251968503
20
1.0796259842519684
11
2.3374015748031494
21
1.0796259842519684
0
LINE
8
BLACK
6
CONTINUOUS
10
2.2635826771653544
20
1.0776574803149606
11
2.2635826771653544
21
0.9473425196850394
0
LINE
8
BLACK
6
CONTINUOUS
10
2.2635826771653544
20
0.9473425196850394
11
2.3364173228346456
21
0.9473425196850394
0
LINE
8
BLACK
6
CONTINUOUS
10
2.3364173228346456
20
0.9473425196850394
11
2.3364173228346456
21
1.0776574803149606
0
LINE
8
BLACK
6
CONTINUOUS
10
2.3364173228346456
20
1.0776574803149606
11
2.2635826771653544
21
1.0776574803149606
  0
ENDSEC
  0
EOF
