  0
SECTION
  2
HEADER
  9
$ANGBASE
  50
0.0
  9
$ANGDIR
  70
1
  9
$MEASUREMENT
  70
0
  0
ENDSEC
  0
SECTION
  2
TABLES
  0
TABLE
  2
LTYPE
  70
4
  0
LTYPE
  5
40F
  2
CONTINUOUS
  70
0
  3
Solid line
  72
65
  73
0
  40
0.0
  0
LTYPE
  5
410
  2
DASHDOT
 70
0
  3
Dash Dot ____ _ ____ _
 72
65
 73
4
 40
2.0
 49
1.25
 49
-0.25
 49
0.25
 49
-0.25
  0
LTYPE
  5
411
  2
DASHED
 70
0
  3
Dashed __ __ __ __ __
 72
65
 73
2
 40
0.75
 49
0.5
 49
-0.25
  0
LTYPE
  5
43B
  2
DOTTED
 70
0
  3
Dotted .  .  .  .
 72
65
 73
2
 40
0.2
 49
0.0
 49
-0.2
  0
ENDTAB
  0
TABLE
  2
STYLE
  70
4
  0
STYLE
  2
KICAD
  70
0
  40
0
  41
1
  42
1
  50
0
  71
0
  3
isocp.shx
  0
STYLE
  2
KICADB
  70
0
  40
0
  41
1
  42
1
  50
0
  71
0
  3
isocp.shx
  0
STYLE
  2
KICADI
  70
0
  40
0
  41
1
  42
1
  50
15
  71
0
  3
isocp.shx
  0
STYLE
  2
KICADBI
  70
0
  40
0
  41
1
  42
1
  50
15
  71
0
  3
isocp.shx
  0
ENDTAB
  0
TABLE
  2
LAYER
  70
1
  0
LAYER
  2
BLACK
  70
0
  62
7
  6
CONTINUOUS
  0
ENDTAB
  0
ENDSEC
  0
SECTION
  2
ENTITIES
0
LINE
8
BLACK
6
CONTINUOUS
10
2.3907680708661418
20
1.593861377952756
11
2.3921872834645668
21
1.5932735039370078
0
LINE
8
BLACK
6
CONTINUOUS
10
2.3921872834645668
20
1.5932735039370078
11
2.3932735039370079
21
1.5921872834645669
0
LINE
8
BLACK
6
CONTINUOUS
10
2.3932735039370079
20
1.5921872834645669
11
2.393861377952756
21
1.5907680708661418
0
LINE
8
BLACK
6
CONTINUOUS
10
2.393861377952756
20
1.5907680708661418
11
2.3939370078740159
21
0.01
0
LINE
8
BLACK
6
CONTINUOUS
10
2.3939370078740159
20
0.01
11
2.393861377952756
21
0.0092319291338583
0
LINE
8
BLACK
6
CONTINUOUS
10
2.393861377952756
20
0.0092319291338583
11
2.3932735039370079
21
0.0078127165354331
0
LINE
8
BLACK
6
CONTINUOUS
10
2.3932735039370079
20
0.0078127165354331
11
2.3921872834645668
21
0.0067264960629921
0
LINE
8
BLACK
6
CONTINUOUS
10
2.3921872834645668
20
0.0067264960629921
11
2.3907680708661418
21
0.0061386220472441
0
LINE
8
BLACK
6
CONTINUOUS
10
2.3907680708661418
20
0.0061386220472441
11
0.01
21
0.0060629921259843
0
LINE
8
BLACK
6
CONTINUOUS
10
0.01
20
0.0060629921259843
11
0.0092319291338583
21
0.0061386220472441
0
LINE
8
BLACK
6
CONTINUOUS
10
0.0092319291338583
20
0.0061386220472441
11
0.0078127165354331
21
0.0067264960629921
0
LINE
8
BLACK
6
CONTINUOUS
10
0.0078127165354331
20
0.0067264960629921
11
0.0067264960629921
21
0.0078127165354331
0
LINE
8
BLACK
6
CONTINUOUS
10
0.0067264960629921
20
0.0078127165354331
11
0.0061386220472441
21
0.0092319291338583
0
LINE
8
BLACK
6
CONTINUOUS
10
0.0061386220472441
20
0.0092319291338583
11
0.0060629921259843
21
1.5899999999999999
0
LINE
8
BLACK
6
CONTINUOUS
10
0.0060629921259843
20
1.5899999999999999
11
0.0061386220472441
21
1.5907680708661418
0
LINE
8
BLACK
6
CONTINUOUS
10
0.0061386220472441
20
1.5907680708661418
11
0.0067264960629921
21
1.5921872834645669
0
LINE
8
BLACK
6
CONTINUOUS
10
0.0067264960629921
20
1.5921872834645669
11
0.0078127165354331
21
1.5932735039370078
0
LINE
8
BLACK
6
CONTINUOUS
10
0.0078127165354331
20
1.5932735039370078
11
0.0092319291338583
21
1.593861377952756
0
LINE
8
BLACK
6
CONTINUOUS
10
0.0092319291338583
20
1.593861377952756
11
2.3900000000000001
21
1.5939370078740158
0
LINE
8
BLACK
6
CONTINUOUS
10
2.3900000000000001
20
1.5939370078740158
11
2.3907680708661418
21
1.593861377952756
0
LINE
8
BLACK
6
CONTINUOUS
10
0.0138615748031496
20
1.5860631102362204
11
0.013936811023622
21
0.0138614960629921
0
LINE
8
BLACK
6
CONTINUOUS
10
0.013936811023622
20
0.0138614960629921
11
2.3861383858267717
21
0.0139368503937008
0
LINE
8
BLACK
6
CONTINUOUS
10
2.3861383858267717
20
0.0139368503937008
11
2.3860631496062989
21
1.5861384645669292
0
LINE
8
BLACK
6
CONTINUOUS
10
2.3860631496062989
20
1.5861384645669292
11
0.0138615748031496
21
1.5860631102362204
  0
ENDSEC
  0
EOF
