  0
SECTION
  2
HEADER
  9
$ANGBASE
  50
0.0
  9
$ANGDIR
  70
1
  9
$MEASUREMENT
  70
0
  0
ENDSEC
  0
SECTION
  2
TABLES
  0
TABLE
  2
LTYPE
  70
4
  0
LTYPE
  5
40F
  2
CONTINUOUS
  70
0
  3
Solid line
  72
65
  73
0
  40
0.0
  0
LTYPE
  5
410
  2
DASHDOT
 70
0
  3
Dash Dot ____ _ ____ _
 72
65
 73
4
 40
2.0
 49
1.25
 49
-0.25
 49
0.25
 49
-0.25
  0
LTYPE
  5
411
  2
DASHED
 70
0
  3
Dashed __ __ __ __ __
 72
65
 73
2
 40
0.75
 49
0.5
 49
-0.25
  0
LTYPE
  5
43B
  2
DOTTED
 70
0
  3
Dotted .  .  .  .
 72
65
 73
2
 40
0.2
 49
0.0
 49
-0.2
  0
ENDTAB
  0
TABLE
  2
STYLE
  70
4
  0
STYLE
  2
KICAD
  70
0
  40
0
  41
1
  42
1
  50
0
  71
0
  3
isocp.shx
  0
STYLE
  2
KICADB
  70
0
  40
0
  41
1
  42
1
  50
0
  71
0
  3
isocp.shx
  0
STYLE
  2
KICADI
  70
0
  40
0
  41
1
  42
1
  50
15
  71
0
  3
isocp.shx
  0
STYLE
  2
KICADBI
  70
0
  40
0
  41
1
  42
1
  50
15
  71
0
  3
isocp.shx
  0
ENDTAB
  0
TABLE
  2
LAYER
  70
1
  0
LAYER
  2
BLACK
  70
0
  62
7
  6
CONTINUOUS
  0
ENDTAB
  0
ENDSEC
  0
SECTION
  2
ENTITIES
0
LINE
8
BLACK
6
CONTINUOUS
10
1.8624015748031495
20
0.4546259842519685
11
1.863097559055118
21
0.454337716535433
0
LINE
8
BLACK
6
CONTINUOUS
10
1.863097559055118
20
0.454337716535433
11
1.8633858267716534
21
0.4536417322834645
0
LINE
8
BLACK
6
CONTINUOUS
10
1.8633858267716534
20
0.4536417322834645
11
1.8633858267716534
21
0.3213582677165354
0
LINE
8
BLACK
6
CONTINUOUS
10
1.8633858267716534
20
0.3213582677165354
11
1.863097559055118
21
0.3206622834645669
0
LINE
8
BLACK
6
CONTINUOUS
10
1.863097559055118
20
0.3206622834645669
11
1.8624015748031495
21
0.3203740157480315
0
LINE
8
BLACK
6
CONTINUOUS
10
1.8624015748031495
20
0.3203740157480315
11
1.7875984251968504
21
0.3203740157480315
0
LINE
8
BLACK
6
CONTINUOUS
10
1.7875984251968504
20
0.3203740157480315
11
1.7869024409448819
21
0.3206622834645669
0
LINE
8
BLACK
6
CONTINUOUS
10
1.7869024409448819
20
0.3206622834645669
11
1.7866141732283465
21
0.3213582677165354
0
LINE
8
BLACK
6
CONTINUOUS
10
1.7866141732283465
20
0.3213582677165354
11
1.7866141732283465
21
0.4536417322834645
0
LINE
8
BLACK
6
CONTINUOUS
10
1.7866141732283465
20
0.4536417322834645
11
1.7869024409448819
21
0.454337716535433
0
LINE
8
BLACK
6
CONTINUOUS
10
1.7869024409448819
20
0.454337716535433
11
1.7875984251968504
21
0.4546259842519685
0
LINE
8
BLACK
6
CONTINUOUS
10
1.7875984251968504
20
0.4546259842519685
11
1.8624015748031495
21
0.4546259842519685
0
LINE
8
BLACK
6
CONTINUOUS
10
1.7885826771653544
20
0.4526574803149606
11
1.7885826771653544
21
0.3223425196850394
0
LINE
8
BLACK
6
CONTINUOUS
10
1.7885826771653544
20
0.3223425196850394
11
1.8614173228346456
21
0.3223425196850394
0
LINE
8
BLACK
6
CONTINUOUS
10
1.8614173228346456
20
0.3223425196850394
11
1.8614173228346456
21
0.4526574803149606
0
LINE
8
BLACK
6
CONTINUOUS
10
1.8614173228346456
20
0.4526574803149606
11
1.7885826771653544
21
0.4526574803149606
0
LINE
8
BLACK
6
CONTINUOUS
10
1.9624015748031496
20
0.4546259842519685
11
1.9630975590551181
21
0.454337716535433
0
LINE
8
BLACK
6
CONTINUOUS
10
1.9630975590551181
20
0.454337716535433
11
1.9633858267716535
21
0.4536417322834645
0
LINE
8
BLACK
6
CONTINUOUS
10
1.9633858267716535
20
0.4536417322834645
11
1.9633858267716535
21
0.3213582677165354
0
LINE
8
BLACK
6
CONTINUOUS
10
1.9633858267716535
20
0.3213582677165354
11
1.9630975590551181
21
0.3206622834645669
0
LINE
8
BLACK
6
CONTINUOUS
10
1.9630975590551181
20
0.3206622834645669
11
1.9624015748031496
21
0.3203740157480315
0
LINE
8
BLACK
6
CONTINUOUS
10
1.9624015748031496
20
0.3203740157480315
11
1.8875984251968503
21
0.3203740157480315
0
LINE
8
BLACK
6
CONTINUOUS
10
1.8875984251968503
20
0.3203740157480315
11
1.8869024409448818
21
0.3206622834645669
0
LINE
8
BLACK
6
CONTINUOUS
10
1.8869024409448818
20
0.3206622834645669
11
1.8866141732283463
21
0.3213582677165354
0
LINE
8
BLACK
6
CONTINUOUS
10
1.8866141732283463
20
0.3213582677165354
11
1.8866141732283463
21
0.4536417322834645
0
LINE
8
BLACK
6
CONTINUOUS
10
1.8866141732283463
20
0.4536417322834645
11
1.8869024409448818
21
0.454337716535433
0
LINE
8
BLACK
6
CONTINUOUS
10
1.8869024409448818
20
0.454337716535433
11
1.8875984251968503
21
0.4546259842519685
0
LINE
8
BLACK
6
CONTINUOUS
10
1.8875984251968503
20
0.4546259842519685
11
1.9624015748031496
21
0.4546259842519685
0
LINE
8
BLACK
6
CONTINUOUS
10
1.8885826771653542
20
0.4526574803149606
11
1.8885826771653542
21
0.3223425196850394
0
LINE
8
BLACK
6
CONTINUOUS
10
1.8885826771653542
20
0.3223425196850394
11
1.9614173228346456
21
0.3223425196850394
0
LINE
8
BLACK
6
CONTINUOUS
10
1.9614173228346456
20
0.3223425196850394
11
1.9614173228346456
21
0.4526574803149606
0
LINE
8
BLACK
6
CONTINUOUS
10
1.9614173228346456
20
0.4526574803149606
11
1.8885826771653542
21
0.4526574803149606
0
LINE
8
BLACK
6
CONTINUOUS
10
2.3734251968503934
20
0.5572834645669291
11
2.3741211811023621
21
0.5569951968503937
0
LINE
8
BLACK
6
CONTINUOUS
10
2.3741211811023621
20
0.5569951968503937
11
2.3744094488188976
21
0.5562992125984252
0
LINE
8
BLACK
6
CONTINUOUS
10
2.3744094488188976
20
0.5562992125984252
11
2.3744094488188976
21
0.3437007874015748
0
LINE
8
BLACK
6
CONTINUOUS
10
2.3744094488188976
20
0.3437007874015748
11
2.3741211811023621
21
0.3430048031496063
0
LINE
8
BLACK
6
CONTINUOUS
10
2.3741211811023621
20
0.3430048031496063
11
2.3734251968503934
21
0.3427165354330708
0
LINE
8
BLACK
6
CONTINUOUS
10
2.3734251968503934
20
0.3427165354330708
11
1.9757874015748031
21
0.3427165354330708
0
LINE
8
BLACK
6
CONTINUOUS
10
1.9757874015748031
20
0.3427165354330708
11
1.9750914173228347
21
0.3430048031496063
0
LINE
8
BLACK
6
CONTINUOUS
10
1.9750914173228347
20
0.3430048031496063
11
1.9748031496062992
21
0.3437007874015748
0
LINE
8
BLACK
6
CONTINUOUS
10
1.9748031496062992
20
0.3437007874015748
11
1.9748031496062992
21
0.4616141732283465
0
LINE
8
BLACK
6
CONTINUOUS
10
1.9748031496062992
20
0.4616141732283465
11
1.8463582677165353
21
0.4616141732283465
0
LINE
8
BLACK
6
CONTINUOUS
10
1.8463582677165353
20
0.4616141732283465
11
1.8456622834645668
21
0.4619024409448819
0
LINE
8
BLACK
6
CONTINUOUS
10
1.8456622834645668
20
0.4619024409448819
11
1.8453740157480314
21
0.4625984251968504
0
LINE
8
BLACK
6
CONTINUOUS
10
1.8453740157480314
20
0.4625984251968504
11
1.8453740157480314
21
0.5374015748031495
0
LINE
8
BLACK
6
CONTINUOUS
10
1.8453740157480314
20
0.5374015748031495
11
1.8456622834645668
21
0.5380975590551181
0
LINE
8
BLACK
6
CONTINUOUS
10
1.8456622834645668
20
0.5380975590551181
11
1.8463582677165353
21
0.5383858267716536
0
LINE
8
BLACK
6
CONTINUOUS
10
1.8463582677165353
20
0.5383858267716536
11
1.9748031496062992
21
0.5383858267716536
0
LINE
8
BLACK
6
CONTINUOUS
10
1.9748031496062992
20
0.5383858267716536
11
1.9748031496062992
21
0.5562992125984252
0
LINE
8
BLACK
6
CONTINUOUS
10
1.9748031496062992
20
0.5562992125984252
11
1.9750914173228347
21
0.5569951968503937
0
LINE
8
BLACK
6
CONTINUOUS
10
1.9750914173228347
20
0.5569951968503937
11
1.9757874015748031
21
0.5572834645669291
0
LINE
8
BLACK
6
CONTINUOUS
10
1.9757874015748031
20
0.5572834645669291
11
2.3734251968503934
21
0.5572834645669291
0
LINE
8
BLACK
6
CONTINUOUS
10
1.9767716535433071
20
0.5553149606299213
11
1.9767716535433071
21
0.5383858267716536
0
LINE
8
BLACK
6
CONTINUOUS
10
1.9767716535433071
20
0.5383858267716536
11
1.9786417322834646
21
0.5383858267716536
0
LINE
8
BLACK
6
CONTINUOUS
10
1.9786417322834646
20
0.5383858267716536
11
1.9793377165354331
21
0.5380975590551181
0
LINE
8
BLACK
6
CONTINUOUS
10
1.9793377165354331
20
0.5380975590551181
11
1.9796259842519686
21
0.5374015748031495
0
LINE
8
BLACK
6
CONTINUOUS
10
1.9796259842519686
20
0.5374015748031495
11
1.9796259842519686
21
0.4625984251968504
0
LINE
8
BLACK
6
CONTINUOUS
10
1.9796259842519686
20
0.4625984251968504
11
1.9793377165354331
21
0.4619024409448819
0
LINE
8
BLACK
6
CONTINUOUS
10
1.9793377165354331
20
0.4619024409448819
11
1.9786417322834646
21
0.4616141732283465
0
LINE
8
BLACK
6
CONTINUOUS
10
1.9786417322834646
20
0.4616141732283465
11
1.9767716535433071
21
0.4616141732283465
0
LINE
8
BLACK
6
CONTINUOUS
10
1.9767716535433071
20
0.4616141732283465
11
1.9767716535433071
21
0.3446850393700787
0
LINE
8
BLACK
6
CONTINUOUS
10
1.9767716535433071
20
0.3446850393700787
11
2.3724409448818897
21
0.3446850393700787
0
LINE
8
BLACK
6
CONTINUOUS
10
2.3724409448818897
20
0.3446850393700787
11
2.3724409448818897
21
0.5553149606299213
0
LINE
8
BLACK
6
CONTINUOUS
10
2.3724409448818897
20
0.5553149606299213
11
1.9767716535433071
21
0.5553149606299213
0
LINE
8
BLACK
6
CONTINUOUS
10
1.8473425196850393
20
0.5364173228346456
11
1.8473425196850393
21
0.4635826771653543
0
LINE
8
BLACK
6
CONTINUOUS
10
1.8473425196850393
20
0.4635826771653543
11
1.9748031496062992
21
0.4635826771653543
0
LINE
8
BLACK
6
CONTINUOUS
10
1.9748031496062992
20
0.4635826771653543
11
1.9748031496062992
21
0.5364173228346456
0
LINE
8
BLACK
6
CONTINUOUS
10
1.9748031496062992
20
0.5364173228346456
11
1.8473425196850393
21
0.5364173228346456
0
LINE
8
BLACK
6
CONTINUOUS
10
1.9767716535433071
20
0.5364173228346456
11
1.9767716535433071
21
0.4635826771653543
0
LINE
8
BLACK
6
CONTINUOUS
10
1.9767716535433071
20
0.4635826771653543
11
1.9776574803149607
21
0.4635826771653543
0
LINE
8
BLACK
6
CONTINUOUS
10
1.9776574803149607
20
0.4635826771653543
11
1.9776574803149607
21
0.5364173228346456
0
LINE
8
BLACK
6
CONTINUOUS
10
1.9776574803149607
20
0.5364173228346456
11
1.9767716535433071
21
0.5364173228346456
0
LINE
8
BLACK
6
CONTINUOUS
10
1.8624015748031495
20
0.6796259842519685
11
1.863097559055118
21
0.6793377165354331
0
LINE
8
BLACK
6
CONTINUOUS
10
1.863097559055118
20
0.6793377165354331
11
1.8633858267716534
21
0.6786417322834646
0
LINE
8
BLACK
6
CONTINUOUS
10
1.8633858267716534
20
0.6786417322834646
11
1.8633858267716534
21
0.5463582677165354
0
LINE
8
BLACK
6
CONTINUOUS
10
1.8633858267716534
20
0.5463582677165354
11
1.863097559055118
21
0.5456622834645669
0
LINE
8
BLACK
6
CONTINUOUS
10
1.863097559055118
20
0.5456622834645669
11
1.8624015748031495
21
0.5453740157480315
0
LINE
8
BLACK
6
CONTINUOUS
10
1.8624015748031495
20
0.5453740157480315
11
1.7875984251968504
21
0.5453740157480315
0
LINE
8
BLACK
6
CONTINUOUS
10
1.7875984251968504
20
0.5453740157480315
11
1.7869024409448819
21
0.5456622834645669
0
LINE
8
BLACK
6
CONTINUOUS
10
1.7869024409448819
20
0.5456622834645669
11
1.7866141732283465
21
0.5463582677165354
0
LINE
8
BLACK
6
CONTINUOUS
10
1.7866141732283465
20
0.5463582677165354
11
1.7866141732283465
21
0.6786417322834646
0
LINE
8
BLACK
6
CONTINUOUS
10
1.7866141732283465
20
0.6786417322834646
11
1.7869024409448819
21
0.6793377165354331
0
LINE
8
BLACK
6
CONTINUOUS
10
1.7869024409448819
20
0.6793377165354331
11
1.7875984251968504
21
0.6796259842519685
0
LINE
8
BLACK
6
CONTINUOUS
10
1.7875984251968504
20
0.6796259842519685
11
1.8624015748031495
21
0.6796259842519685
0
LINE
8
BLACK
6
CONTINUOUS
10
1.7885826771653544
20
0.6776574803149606
11
1.7885826771653544
21
0.5473425196850393
0
LINE
8
BLACK
6
CONTINUOUS
10
1.7885826771653544
20
0.5473425196850393
11
1.8614173228346456
21
0.5473425196850393
0
LINE
8
BLACK
6
CONTINUOUS
10
1.8614173228346456
20
0.5473425196850393
11
1.8614173228346456
21
0.6776574803149606
0
LINE
8
BLACK
6
CONTINUOUS
10
1.8614173228346456
20
0.6776574803149606
11
1.7885826771653544
21
0.6776574803149606
0
LINE
8
BLACK
6
CONTINUOUS
10
1.9624015748031496
20
0.6796259842519685
11
1.9630975590551181
21
0.6793377165354331
0
LINE
8
BLACK
6
CONTINUOUS
10
1.9630975590551181
20
0.6793377165354331
11
1.9633858267716535
21
0.6786417322834646
0
LINE
8
BLACK
6
CONTINUOUS
10
1.9633858267716535
20
0.6786417322834646
11
1.9633858267716535
21
0.5463582677165354
0
LINE
8
BLACK
6
CONTINUOUS
10
1.9633858267716535
20
0.5463582677165354
11
1.9630975590551181
21
0.5456622834645669
0
LINE
8
BLACK
6
CONTINUOUS
10
1.9630975590551181
20
0.5456622834645669
11
1.9624015748031496
21
0.5453740157480315
0
LINE
8
BLACK
6
CONTINUOUS
10
1.9624015748031496
20
0.5453740157480315
11
1.8875984251968503
21
0.5453740157480315
0
LINE
8
BLACK
6
CONTINUOUS
10
1.8875984251968503
20
0.5453740157480315
11
1.8869024409448818
21
0.5456622834645669
0
LINE
8
BLACK
6
CONTINUOUS
10
1.8869024409448818
20
0.5456622834645669
11
1.8866141732283463
21
0.5463582677165354
0
LINE
8
BLACK
6
CONTINUOUS
10
1.8866141732283463
20
0.5463582677165354
11
1.8866141732283463
21
0.6786417322834646
0
LINE
8
BLACK
6
CONTINUOUS
10
1.8866141732283463
20
0.6786417322834646
11
1.8869024409448818
21
0.6793377165354331
0
LINE
8
BLACK
6
CONTINUOUS
10
1.8869024409448818
20
0.6793377165354331
11
1.8875984251968503
21
0.6796259842519685
0
LINE
8
BLACK
6
CONTINUOUS
10
1.8875984251968503
20
0.6796259842519685
11
1.9624015748031496
21
0.6796259842519685
0
LINE
8
BLACK
6
CONTINUOUS
10
1.8885826771653542
20
0.6776574803149606
11
1.8885826771653542
21
0.5473425196850393
0
LINE
8
BLACK
6
CONTINUOUS
10
1.8885826771653542
20
0.5473425196850393
11
1.9614173228346456
21
0.5473425196850393
0
LINE
8
BLACK
6
CONTINUOUS
10
1.9614173228346456
20
0.5473425196850393
11
1.9614173228346456
21
0.6776574803149606
0
LINE
8
BLACK
6
CONTINUOUS
10
1.9614173228346456
20
0.6776574803149606
11
1.8885826771653542
21
0.6776574803149606
0
LINE
8
BLACK
6
CONTINUOUS
10
2.3734251968503934
20
0.7822834645669291
11
2.3741211811023621
21
0.7819951968503936
0
LINE
8
BLACK
6
CONTINUOUS
10
2.3741211811023621
20
0.7819951968503936
11
2.3744094488188976
21
0.7812992125984252
0
LINE
8
BLACK
6
CONTINUOUS
10
2.3744094488188976
20
0.7812992125984252
11
2.3744094488188976
21
0.5687007874015748
0
LINE
8
BLACK
6
CONTINUOUS
10
2.3744094488188976
20
0.5687007874015748
11
2.3741211811023621
21
0.5680048031496063
0
LINE
8
BLACK
6
CONTINUOUS
10
2.3741211811023621
20
0.5680048031496063
11
2.3734251968503934
21
0.5677165354330709
0
LINE
8
BLACK
6
CONTINUOUS
10
2.3734251968503934
20
0.5677165354330709
11
1.9757874015748031
21
0.5677165354330709
0
LINE
8
BLACK
6
CONTINUOUS
10
1.9757874015748031
20
0.5677165354330709
11
1.9750914173228347
21
0.5680048031496063
0
LINE
8
BLACK
6
CONTINUOUS
10
1.9750914173228347
20
0.5680048031496063
11
1.9748031496062992
21
0.5687007874015748
0
LINE
8
BLACK
6
CONTINUOUS
10
1.9748031496062992
20
0.5687007874015748
11
1.9748031496062992
21
0.6866141732283464
0
LINE
8
BLACK
6
CONTINUOUS
10
1.9748031496062992
20
0.6866141732283464
11
1.8463582677165353
21
0.6866141732283464
0
LINE
8
BLACK
6
CONTINUOUS
10
1.8463582677165353
20
0.6866141732283464
11
1.8456622834645668
21
0.6869024409448818
0
LINE
8
BLACK
6
CONTINUOUS
10
1.8456622834645668
20
0.6869024409448818
11
1.8453740157480314
21
0.6875984251968503
0
LINE
8
BLACK
6
CONTINUOUS
10
1.8453740157480314
20
0.6875984251968503
11
1.8453740157480314
21
0.7624015748031496
0
LINE
8
BLACK
6
CONTINUOUS
10
1.8453740157480314
20
0.7624015748031496
11
1.8456622834645668
21
0.7630975590551181
0
LINE
8
BLACK
6
CONTINUOUS
10
1.8456622834645668
20
0.7630975590551181
11
1.8463582677165353
21
0.7633858267716536
0
LINE
8
BLACK
6
CONTINUOUS
10
1.8463582677165353
20
0.7633858267716536
11
1.9748031496062992
21
0.7633858267716536
0
LINE
8
BLACK
6
CONTINUOUS
10
1.9748031496062992
20
0.7633858267716536
11
1.9748031496062992
21
0.7812992125984252
0
LINE
8
BLACK
6
CONTINUOUS
10
1.9748031496062992
20
0.7812992125984252
11
1.9750914173228347
21
0.7819951968503936
0
LINE
8
BLACK
6
CONTINUOUS
10
1.9750914173228347
20
0.7819951968503936
11
1.9757874015748031
21
0.7822834645669291
0
LINE
8
BLACK
6
CONTINUOUS
10
1.9757874015748031
20
0.7822834645669291
11
2.3734251968503934
21
0.7822834645669291
0
LINE
8
BLACK
6
CONTINUOUS
10
1.9767716535433071
20
0.7803149606299212
11
1.9767716535433071
21
0.7633858267716536
0
LINE
8
BLACK
6
CONTINUOUS
10
1.9767716535433071
20
0.7633858267716536
11
1.9786417322834646
21
0.7633858267716536
0
LINE
8
BLACK
6
CONTINUOUS
10
1.9786417322834646
20
0.7633858267716536
11
1.9793377165354331
21
0.7630975590551181
0
LINE
8
BLACK
6
CONTINUOUS
10
1.9793377165354331
20
0.7630975590551181
11
1.9796259842519686
21
0.7624015748031496
0
LINE
8
BLACK
6
CONTINUOUS
10
1.9796259842519686
20
0.7624015748031496
11
1.9796259842519686
21
0.6875984251968503
0
LINE
8
BLACK
6
CONTINUOUS
10
1.9796259842519686
20
0.6875984251968503
11
1.9793377165354331
21
0.6869024409448818
0
LINE
8
BLACK
6
CONTINUOUS
10
1.9793377165354331
20
0.6869024409448818
11
1.9786417322834646
21
0.6866141732283464
0
LINE
8
BLACK
6
CONTINUOUS
10
1.9786417322834646
20
0.6866141732283464
11
1.9767716535433071
21
0.6866141732283464
0
LINE
8
BLACK
6
CONTINUOUS
10
1.9767716535433071
20
0.6866141732283464
11
1.9767716535433071
21
0.5696850393700787
0
LINE
8
BLACK
6
CONTINUOUS
10
1.9767716535433071
20
0.5696850393700787
11
2.3724409448818897
21
0.5696850393700787
0
LINE
8
BLACK
6
CONTINUOUS
10
2.3724409448818897
20
0.5696850393700787
11
2.3724409448818897
21
0.7803149606299212
0
LINE
8
BLACK
6
CONTINUOUS
10
2.3724409448818897
20
0.7803149606299212
11
1.9767716535433071
21
0.7803149606299212
0
LINE
8
BLACK
6
CONTINUOUS
10
1.8473425196850393
20
0.7614173228346457
11
1.8473425196850393
21
0.6885826771653543
0
LINE
8
BLACK
6
CONTINUOUS
10
1.8473425196850393
20
0.6885826771653543
11
1.9748031496062992
21
0.6885826771653543
0
LINE
8
BLACK
6
CONTINUOUS
10
1.9748031496062992
20
0.6885826771653543
11
1.9748031496062992
21
0.7614173228346457
0
LINE
8
BLACK
6
CONTINUOUS
10
1.9748031496062992
20
0.7614173228346457
11
1.8473425196850393
21
0.7614173228346457
0
LINE
8
BLACK
6
CONTINUOUS
10
1.9767716535433071
20
0.7614173228346457
11
1.9767716535433071
21
0.6885826771653543
0
LINE
8
BLACK
6
CONTINUOUS
10
1.9767716535433071
20
0.6885826771653543
11
1.9776574803149607
21
0.6885826771653543
0
LINE
8
BLACK
6
CONTINUOUS
10
1.9776574803149607
20
0.6885826771653543
11
1.9776574803149607
21
0.7614173228346457
0
LINE
8
BLACK
6
CONTINUOUS
10
1.9776574803149607
20
0.7614173228346457
11
1.9767716535433071
21
0.7614173228346457
0
LINE
8
BLACK
6
CONTINUOUS
10
1.8624015748031495
20
0.9046259842519685
11
1.863097559055118
21
0.904337716535433
0
LINE
8
BLACK
6
CONTINUOUS
10
1.863097559055118
20
0.904337716535433
11
1.8633858267716534
21
0.9036417322834646
0
LINE
8
BLACK
6
CONTINUOUS
10
1.8633858267716534
20
0.9036417322834646
11
1.8633858267716534
21
0.7713582677165354
0
LINE
8
BLACK
6
CONTINUOUS
10
1.8633858267716534
20
0.7713582677165354
11
1.863097559055118
21
0.7706622834645669
0
LINE
8
BLACK
6
CONTINUOUS
10
1.863097559055118
20
0.7706622834645669
11
1.8624015748031495
21
0.7703740157480314
0
LINE
8
BLACK
6
CONTINUOUS
10
1.8624015748031495
20
0.7703740157480314
11
1.7875984251968504
21
0.7703740157480314
0
LINE
8
BLACK
6
CONTINUOUS
10
1.7875984251968504
20
0.7703740157480314
11
1.7869024409448819
21
0.7706622834645669
0
LINE
8
BLACK
6
CONTINUOUS
10
1.7869024409448819
20
0.7706622834645669
11
1.7866141732283465
21
0.7713582677165354
0
LINE
8
BLACK
6
CONTINUOUS
10
1.7866141732283465
20
0.7713582677165354
11
1.7866141732283465
21
0.9036417322834646
0
LINE
8
BLACK
6
CONTINUOUS
10
1.7866141732283465
20
0.9036417322834646
11
1.7869024409448819
21
0.904337716535433
0
LINE
8
BLACK
6
CONTINUOUS
10
1.7869024409448819
20
0.904337716535433
11
1.7875984251968504
21
0.9046259842519685
0
LINE
8
BLACK
6
CONTINUOUS
10
1.7875984251968504
20
0.9046259842519685
11
1.8624015748031495
21
0.9046259842519685
0
LINE
8
BLACK
6
CONTINUOUS
10
1.7885826771653544
20
0.9026574803149606
11
1.7885826771653544
21
0.7723425196850393
0
LINE
8
BLACK
6
CONTINUOUS
10
1.7885826771653544
20
0.7723425196850393
11
1.8614173228346456
21
0.7723425196850393
0
LINE
8
BLACK
6
CONTINUOUS
10
1.8614173228346456
20
0.7723425196850393
11
1.8614173228346456
21
0.9026574803149606
0
LINE
8
BLACK
6
CONTINUOUS
10
1.8614173228346456
20
0.9026574803149606
11
1.7885826771653544
21
0.9026574803149606
0
LINE
8
BLACK
6
CONTINUOUS
10
1.9624015748031496
20
0.9046259842519685
11
1.9630975590551181
21
0.904337716535433
0
LINE
8
BLACK
6
CONTINUOUS
10
1.9630975590551181
20
0.904337716535433
11
1.9633858267716535
21
0.9036417322834646
0
LINE
8
BLACK
6
CONTINUOUS
10
1.9633858267716535
20
0.9036417322834646
11
1.9633858267716535
21
0.7713582677165354
0
LINE
8
BLACK
6
CONTINUOUS
10
1.9633858267716535
20
0.7713582677165354
11
1.9630975590551181
21
0.7706622834645669
0
LINE
8
BLACK
6
CONTINUOUS
10
1.9630975590551181
20
0.7706622834645669
11
1.9624015748031496
21
0.7703740157480314
0
LINE
8
BLACK
6
CONTINUOUS
10
1.9624015748031496
20
0.7703740157480314
11
1.8875984251968503
21
0.7703740157480314
0
LINE
8
BLACK
6
CONTINUOUS
10
1.8875984251968503
20
0.7703740157480314
11
1.8869024409448818
21
0.7706622834645669
0
LINE
8
BLACK
6
CONTINUOUS
10
1.8869024409448818
20
0.7706622834645669
11
1.8866141732283463
21
0.7713582677165354
0
LINE
8
BLACK
6
CONTINUOUS
10
1.8866141732283463
20
0.7713582677165354
11
1.8866141732283463
21
0.9036417322834646
0
LINE
8
BLACK
6
CONTINUOUS
10
1.8866141732283463
20
0.9036417322834646
11
1.8869024409448818
21
0.904337716535433
0
LINE
8
BLACK
6
CONTINUOUS
10
1.8869024409448818
20
0.904337716535433
11
1.8875984251968503
21
0.9046259842519685
0
LINE
8
BLACK
6
CONTINUOUS
10
1.8875984251968503
20
0.9046259842519685
11
1.9624015748031496
21
0.9046259842519685
0
LINE
8
BLACK
6
CONTINUOUS
10
1.8885826771653542
20
0.9026574803149606
11
1.8885826771653542
21
0.7723425196850393
0
LINE
8
BLACK
6
CONTINUOUS
10
1.8885826771653542
20
0.7723425196850393
11
1.9614173228346456
21
0.7723425196850393
0
LINE
8
BLACK
6
CONTINUOUS
10
1.9614173228346456
20
0.7723425196850393
11
1.9614173228346456
21
0.9026574803149606
0
LINE
8
BLACK
6
CONTINUOUS
10
1.9614173228346456
20
0.9026574803149606
11
1.8885826771653542
21
0.9026574803149606
0
LINE
8
BLACK
6
CONTINUOUS
10
2.3734251968503934
20
1.0072834645669291
11
2.3741211811023621
21
1.0069951968503936
0
LINE
8
BLACK
6
CONTINUOUS
10
2.3741211811023621
20
1.0069951968503936
11
2.3744094488188976
21
1.0062992125984251
0
LINE
8
BLACK
6
CONTINUOUS
10
2.3744094488188976
20
1.0062992125984251
11
2.3744094488188976
21
0.7937007874015748
0
LINE
8
BLACK
6
CONTINUOUS
10
2.3744094488188976
20
0.7937007874015748
11
2.3741211811023621
21
0.7930048031496063
0
LINE
8
BLACK
6
CONTINUOUS
10
2.3741211811023621
20
0.7930048031496063
11
2.3734251968503934
21
0.7927165354330709
0
LINE
8
BLACK
6
CONTINUOUS
10
2.3734251968503934
20
0.7927165354330709
11
1.9757874015748031
21
0.7927165354330709
0
LINE
8
BLACK
6
CONTINUOUS
10
1.9757874015748031
20
0.7927165354330709
11
1.9750914173228347
21
0.7930048031496063
0
LINE
8
BLACK
6
CONTINUOUS
10
1.9750914173228347
20
0.7930048031496063
11
1.9748031496062992
21
0.7937007874015748
0
LINE
8
BLACK
6
CONTINUOUS
10
1.9748031496062992
20
0.7937007874015748
11
1.9748031496062992
21
0.9116141732283465
0
LINE
8
BLACK
6
CONTINUOUS
10
1.9748031496062992
20
0.9116141732283465
11
1.8463582677165353
21
0.9116141732283465
0
LINE
8
BLACK
6
CONTINUOUS
10
1.8463582677165353
20
0.9116141732283465
11
1.8456622834645668
21
0.9119024409448818
0
LINE
8
BLACK
6
CONTINUOUS
10
1.8456622834645668
20
0.9119024409448818
11
1.8453740157480314
21
0.9125984251968504
0
LINE
8
BLACK
6
CONTINUOUS
10
1.8453740157480314
20
0.9125984251968504
11
1.8453740157480314
21
0.9874015748031496
0
LINE
8
BLACK
6
CONTINUOUS
10
1.8453740157480314
20
0.9874015748031496
11
1.8456622834645668
21
0.9880975590551181
0
LINE
8
BLACK
6
CONTINUOUS
10
1.8456622834645668
20
0.9880975590551181
11
1.8463582677165353
21
0.9883858267716535
0
LINE
8
BLACK
6
CONTINUOUS
10
1.8463582677165353
20
0.9883858267716535
11
1.9748031496062992
21
0.9883858267716535
0
LINE
8
BLACK
6
CONTINUOUS
10
1.9748031496062992
20
0.9883858267716535
11
1.9748031496062992
21
1.0062992125984251
0
LINE
8
BLACK
6
CONTINUOUS
10
1.9748031496062992
20
1.0062992125984251
11
1.9750914173228347
21
1.0069951968503936
0
LINE
8
BLACK
6
CONTINUOUS
10
1.9750914173228347
20
1.0069951968503936
11
1.9757874015748031
21
1.0072834645669291
0
LINE
8
BLACK
6
CONTINUOUS
10
1.9757874015748031
20
1.0072834645669291
11
2.3734251968503934
21
1.0072834645669291
0
LINE
8
BLACK
6
CONTINUOUS
10
1.9767716535433071
20
1.0053149606299212
11
1.9767716535433071
21
0.9883858267716535
0
LINE
8
BLACK
6
CONTINUOUS
10
1.9767716535433071
20
0.9883858267716535
11
1.9786417322834646
21
0.9883858267716535
0
LINE
8
BLACK
6
CONTINUOUS
10
1.9786417322834646
20
0.9883858267716535
11
1.9793377165354331
21
0.9880975590551181
0
LINE
8
BLACK
6
CONTINUOUS
10
1.9793377165354331
20
0.9880975590551181
11
1.9796259842519686
21
0.9874015748031496
0
LINE
8
BLACK
6
CONTINUOUS
10
1.9796259842519686
20
0.9874015748031496
11
1.9796259842519686
21
0.9125984251968504
0
LINE
8
BLACK
6
CONTINUOUS
10
1.9796259842519686
20
0.9125984251968504
11
1.9793377165354331
21
0.9119024409448818
0
LINE
8
BLACK
6
CONTINUOUS
10
1.9793377165354331
20
0.9119024409448818
11
1.9786417322834646
21
0.9116141732283465
0
LINE
8
BLACK
6
CONTINUOUS
10
1.9786417322834646
20
0.9116141732283465
11
1.9767716535433071
21
0.9116141732283465
0
LINE
8
BLACK
6
CONTINUOUS
10
1.9767716535433071
20
0.9116141732283465
11
1.9767716535433071
21
0.7946850393700787
0
LINE
8
BLACK
6
CONTINUOUS
10
1.9767716535433071
20
0.7946850393700787
11
2.3724409448818897
21
0.7946850393700787
0
LINE
8
BLACK
6
CONTINUOUS
10
2.3724409448818897
20
0.7946850393700787
11
2.3724409448818897
21
1.0053149606299212
0
LINE
8
BLACK
6
CONTINUOUS
10
2.3724409448818897
20
1.0053149606299212
11
1.9767716535433071
21
1.0053149606299212
0
LINE
8
BLACK
6
CONTINUOUS
10
1.8473425196850393
20
0.9864173228346457
11
1.8473425196850393
21
0.9135826771653544
0
LINE
8
BLACK
6
CONTINUOUS
10
1.8473425196850393
20
0.9135826771653544
11
1.9748031496062992
21
0.9135826771653544
0
LINE
8
BLACK
6
CONTINUOUS
10
1.9748031496062992
20
0.9135826771653544
11
1.9748031496062992
21
0.9864173228346457
0
LINE
8
BLACK
6
CONTINUOUS
10
1.9748031496062992
20
0.9864173228346457
11
1.8473425196850393
21
0.9864173228346457
0
LINE
8
BLACK
6
CONTINUOUS
10
1.9767716535433071
20
0.9864173228346457
11
1.9767716535433071
21
0.9135826771653544
0
LINE
8
BLACK
6
CONTINUOUS
10
1.9767716535433071
20
0.9135826771653544
11
1.9776574803149607
21
0.9135826771653544
0
LINE
8
BLACK
6
CONTINUOUS
10
1.9776574803149607
20
0.9135826771653544
11
1.9776574803149607
21
0.9864173228346457
0
LINE
8
BLACK
6
CONTINUOUS
10
1.9776574803149607
20
0.9864173228346457
11
1.9767716535433071
21
0.9864173228346457
0
LINE
8
BLACK
6
CONTINUOUS
10
1.4681002755905512
20
1.4084616929133857
11
1.4860627559055117
21
1.4060968897637796
0
LINE
8
BLACK
6
CONTINUOUS
10
1.4860627559055117
20
1.4060968897637796
11
1.5037507874015748
21
1.4021755511811023
0
LINE
8
BLACK
6
CONTINUOUS
10
1.5037507874015748
20
1.4021755511811023
11
1.5210297637795276
21
1.3967275196850393
0
LINE
8
BLACK
6
CONTINUOUS
10
1.5210297637795276
20
1.3967275196850393
11
1.5377681496062992
21
1.3897942519685038
0
LINE
8
BLACK
6
CONTINUOUS
10
1.5377681496062992
20
1.3897942519685038
11
1.5538385826771652
21
1.3814285039370078
0
LINE
8
BLACK
6
CONTINUOUS
10
1.5538385826771652
20
1.3814285039370078
11
1.5691187401574802
21
1.3716939763779528
0
LINE
8
BLACK
6
CONTINUOUS
10
1.5691187401574802
20
1.3716939763779528
11
1.5834923228346456
21
1.3606647244094487
0
LINE
8
BLACK
6
CONTINUOUS
10
1.5834923228346456
20
1.3606647244094487
11
1.5968499212598424
21
1.3484247244094487
0
LINE
8
BLACK
6
CONTINUOUS
10
1.5968499212598424
20
1.3484247244094487
11
1.6090899212598424
21
1.3350671259842519
0
LINE
8
BLACK
6
CONTINUOUS
10
1.6090899212598424
20
1.3350671259842519
11
1.6201191732283464
21
1.3206935433070865
0
LINE
8
BLACK
6
CONTINUOUS
10
1.6201191732283464
20
1.3206935433070865
11
1.6298537007874014
21
1.3054133858267716
0
LINE
8
BLACK
6
CONTINUOUS
10
1.6298537007874014
20
1.3054133858267716
11
1.6382194488188977
21
1.2893429527559055
0
LINE
8
BLACK
6
CONTINUOUS
10
1.6382194488188977
20
1.2893429527559055
11
1.6451527165354329
21
1.2726045669291339
0
LINE
8
BLACK
6
CONTINUOUS
10
1.6451527165354329
20
1.2726045669291339
11
1.6506007480314959
21
1.2553255905511811
0
LINE
8
BLACK
6
CONTINUOUS
10
1.6506007480314959
20
1.2553255905511811
11
1.6545220866141732
21
1.2376375590551181
0
LINE
8
BLACK
6
CONTINUOUS
10
1.6545220866141732
20
1.2376375590551181
11
1.6568868897637794
21
1.2196750787401573
0
LINE
8
BLACK
6
CONTINUOUS
10
1.6568868897637794
20
1.2196750787401573
11
1.6576771653543307
21
1.2015748031496063
0
LINE
8
BLACK
6
CONTINUOUS
10
1.6576771653543307
20
1.2015748031496063
11
1.6568868897637794
21
1.183474527559055
0
LINE
8
BLACK
6
CONTINUOUS
10
1.6568868897637794
20
1.183474527559055
11
1.6545220866141732
21
1.1655120472440945
0
LINE
8
BLACK
6
CONTINUOUS
10
1.6545220866141732
20
1.1655120472440945
11
1.6506007480314959
21
1.1478240157480315
0
LINE
8
BLACK
6
CONTINUOUS
10
1.6506007480314959
20
1.1478240157480315
11
1.6451527165354329
21
1.1305450393700787
0
LINE
8
BLACK
6
CONTINUOUS
10
1.6451527165354329
20
1.1305450393700787
11
1.6382194488188977
21
1.1138066535433071
0
LINE
8
BLACK
6
CONTINUOUS
10
1.6382194488188977
20
1.1138066535433071
11
1.6298537007874014
21
1.097736220472441
0
LINE
8
BLACK
6
CONTINUOUS
10
1.6298537007874014
20
1.097736220472441
11
1.6201191732283464
21
1.082456062992126
0
LINE
8
BLACK
6
CONTINUOUS
10
1.6201191732283464
20
1.082456062992126
11
1.6090899212598424
21
1.0680824803149607
0
LINE
8
BLACK
6
CONTINUOUS
10
1.6090899212598424
20
1.0680824803149607
11
1.5968499212598424
21
1.0547248818897637
0
LINE
8
BLACK
6
CONTINUOUS
10
1.5968499212598424
20
1.0547248818897637
11
1.5834923228346456
21
1.0424848818897638
0
LINE
8
BLACK
6
CONTINUOUS
10
1.5834923228346456
20
1.0424848818897638
11
1.5691187401574802
21
1.0314556299212598
0
LINE
8
BLACK
6
CONTINUOUS
10
1.5691187401574802
20
1.0314556299212598
11
1.5538385826771652
21
1.0217211023622046
0
LINE
8
BLACK
6
CONTINUOUS
10
1.5538385826771652
20
1.0217211023622046
11
1.5377681496062992
21
1.0133553543307086
0
LINE
8
BLACK
6
CONTINUOUS
10
1.5377681496062992
20
1.0133553543307086
11
1.5210297637795276
21
1.0064220866141731
0
LINE
8
BLACK
6
CONTINUOUS
10
1.5210297637795276
20
1.0064220866141731
11
1.5037507874015748
21
1.0009740551181101
0
LINE
8
BLACK
6
CONTINUOUS
10
1.5037507874015748
20
1.0009740551181101
11
1.4860627559055117
21
0.997052716535433
0
LINE
8
BLACK
6
CONTINUOUS
10
1.4860627559055117
20
0.997052716535433
11
1.4681002755905512
21
0.9946879133858267
0
LINE
8
BLACK
6
CONTINUOUS
10
1.4681002755905512
20
0.9946879133858267
11
1.45
21
0.9938976377952755
0
LINE
8
BLACK
6
CONTINUOUS
10
1.45
20
0.9938976377952755
11
1.4318997244094487
21
0.9946879133858267
0
LINE
8
BLACK
6
CONTINUOUS
10
1.4318997244094487
20
0.9946879133858267
11
1.4139372440944882
21
0.997052716535433
0
LINE
8
BLACK
6
CONTINUOUS
10
1.4139372440944882
20
0.997052716535433
11
1.3962492125984252
21
1.0009740551181101
0
LINE
8
BLACK
6
CONTINUOUS
10
1.3962492125984252
20
1.0009740551181101
11
1.3789702362204723
21
1.0064220866141731
0
LINE
8
BLACK
6
CONTINUOUS
10
1.3789702362204723
20
1.0064220866141731
11
1.3622318503937008
21
1.0133553543307086
0
LINE
8
BLACK
6
CONTINUOUS
10
1.3622318503937008
20
1.0133553543307086
11
1.3461614173228347
21
1.0217211023622046
0
LINE
8
BLACK
6
CONTINUOUS
10
1.3461614173228347
20
1.0217211023622046
11
1.3308812598425197
21
1.0314556299212598
0
LINE
8
BLACK
6
CONTINUOUS
10
1.3308812598425197
20
1.0314556299212598
11
1.3165076771653543
21
1.0424848818897638
0
LINE
8
BLACK
6
CONTINUOUS
10
1.3165076771653543
20
1.0424848818897638
11
1.3031500787401575
21
1.0547248818897637
0
LINE
8
BLACK
6
CONTINUOUS
10
1.3031500787401575
20
1.0547248818897637
11
1.2909100787401575
21
1.0680824803149607
0
LINE
8
BLACK
6
CONTINUOUS
10
1.2909100787401575
20
1.0680824803149607
11
1.2798808267716535
21
1.082456062992126
0
LINE
8
BLACK
6
CONTINUOUS
10
1.2798808267716535
20
1.082456062992126
11
1.2701462992125985
21
1.097736220472441
0
LINE
8
BLACK
6
CONTINUOUS
10
1.2701462992125985
20
1.097736220472441
11
1.2617805511811024
21
1.1138066535433071
0
LINE
8
BLACK
6
CONTINUOUS
10
1.2617805511811024
20
1.1138066535433071
11
1.254847283464567
21
1.1305450393700787
0
LINE
8
BLACK
6
CONTINUOUS
10
1.254847283464567
20
1.1305450393700787
11
1.249399251968504
21
1.1478240157480315
0
LINE
8
BLACK
6
CONTINUOUS
10
1.249399251968504
20
1.1478240157480315
11
1.2454779133858267
21
1.1655120472440945
0
LINE
8
BLACK
6
CONTINUOUS
10
1.2454779133858267
20
1.1655120472440945
11
1.2431131102362205
21
1.183474527559055
0
LINE
8
BLACK
6
CONTINUOUS
10
1.2431131102362205
20
1.183474527559055
11
1.2423228346456692
21
1.2015748031496063
0
LINE
8
BLACK
6
CONTINUOUS
10
1.2423228346456692
20
1.2015748031496063
11
1.2431131102362205
21
1.2196750787401573
0
LINE
8
BLACK
6
CONTINUOUS
10
1.2431131102362205
20
1.2196750787401573
11
1.2454779133858267
21
1.2376375590551181
0
LINE
8
BLACK
6
CONTINUOUS
10
1.2454779133858267
20
1.2376375590551181
11
1.249399251968504
21
1.2553255905511811
0
LINE
8
BLACK
6
CONTINUOUS
10
1.249399251968504
20
1.2553255905511811
11
1.254847283464567
21
1.2726045669291339
0
LINE
8
BLACK
6
CONTINUOUS
10
1.254847283464567
20
1.2726045669291339
11
1.2617805511811024
21
1.2893429527559055
0
LINE
8
BLACK
6
CONTINUOUS
10
1.2617805511811024
20
1.2893429527559055
11
1.2701462992125985
21
1.3054133858267716
0
LINE
8
BLACK
6
CONTINUOUS
10
1.2701462992125985
20
1.3054133858267716
11
1.2798808267716535
21
1.3206935433070865
0
LINE
8
BLACK
6
CONTINUOUS
10
1.2798808267716535
20
1.3206935433070865
11
1.2909100787401575
21
1.3350671259842519
0
LINE
8
BLACK
6
CONTINUOUS
10
1.2909100787401575
20
1.3350671259842519
11
1.3031500787401575
21
1.3484247244094487
0
LINE
8
BLACK
6
CONTINUOUS
10
1.3031500787401575
20
1.3484247244094487
11
1.3165076771653543
21
1.3606647244094487
0
LINE
8
BLACK
6
CONTINUOUS
10
1.3165076771653543
20
1.3606647244094487
11
1.3308812598425197
21
1.3716939763779528
0
LINE
8
BLACK
6
CONTINUOUS
10
1.3308812598425197
20
1.3716939763779528
11
1.3461614173228347
21
1.3814285039370078
0
LINE
8
BLACK
6
CONTINUOUS
10
1.3461614173228347
20
1.3814285039370078
11
1.3622318503937008
21
1.3897942519685038
0
LINE
8
BLACK
6
CONTINUOUS
10
1.3622318503937008
20
1.3897942519685038
11
1.3789702362204723
21
1.3967275196850393
0
LINE
8
BLACK
6
CONTINUOUS
10
1.3789702362204723
20
1.3967275196850393
11
1.3962492125984252
21
1.4021755511811023
0
LINE
8
BLACK
6
CONTINUOUS
10
1.3962492125984252
20
1.4021755511811023
11
1.4139372440944882
21
1.4060968897637796
0
LINE
8
BLACK
6
CONTINUOUS
10
1.4139372440944882
20
1.4060968897637796
11
1.4318997244094487
21
1.4084616929133857
0
LINE
8
BLACK
6
CONTINUOUS
10
1.4318997244094487
20
1.4084616929133857
11
1.45
21
1.4092519685039371
0
LINE
8
BLACK
6
CONTINUOUS
10
1.45
20
1.4092519685039371
11
1.4681002755905512
21
1.4084616929133857
0
LINE
8
BLACK
6
CONTINUOUS
10
1.2448788976377954
20
1.1836290157480314
11
1.2472235039370079
21
1.1658198425196851
0
LINE
8
BLACK
6
CONTINUOUS
10
1.2472235039370079
20
1.1658198425196851
11
1.2511113779527558
21
1.1482827559055118
0
LINE
8
BLACK
6
CONTINUOUS
10
1.2511113779527558
20
1.1482827559055118
11
1.2565129133858268
21
1.1311512598425197
0
LINE
8
BLACK
6
CONTINUOUS
10
1.2565129133858268
20
1.1311512598425197
11
1.2633870078740157
21
1.114555748031496
0
LINE
8
BLACK
6
CONTINUOUS
10
1.2633870078740157
20
1.114555748031496
11
1.2716813385826771
21
1.0986224803149607
0
LINE
8
BLACK
6
CONTINUOUS
10
1.2716813385826771
20
1.0986224803149607
11
1.2813327952755906
21
1.0834727559055117
0
LINE
8
BLACK
6
CONTINUOUS
10
1.2813327952755906
20
1.0834727559055117
11
1.2922678740157481
21
1.0692218503937008
0
LINE
8
BLACK
6
CONTINUOUS
10
1.2922678740157481
20
1.0692218503937008
11
1.3044034251968504
21
1.0559782283464567
0
LINE
8
BLACK
6
CONTINUOUS
10
1.3044034251968504
20
1.0559782283464567
11
1.3176470472440944
21
1.0438426771653544
0
LINE
8
BLACK
6
CONTINUOUS
10
1.3176470472440944
20
1.0438426771653544
11
1.3318979527559054
21
1.0329075984251967
0
LINE
8
BLACK
6
CONTINUOUS
10
1.3318979527559054
20
1.0329075984251967
11
1.3470476771653543
21
1.0232561417322834
0
LINE
8
BLACK
6
CONTINUOUS
10
1.3470476771653543
20
1.0232561417322834
11
1.3629809448818897
21
1.014961811023622
0
LINE
8
BLACK
6
CONTINUOUS
10
1.3629809448818897
20
1.014961811023622
11
1.3795764566929134
21
1.0080877165354329
0
LINE
8
BLACK
6
CONTINUOUS
10
1.3795764566929134
20
1.0080877165354329
11
1.3967079527559054
21
1.0026861811023622
0
LINE
8
BLACK
6
CONTINUOUS
10
1.3967079527559054
20
1.0026861811023622
11
1.4142450393700787
21
0.9987983070866141
0
LINE
8
BLACK
6
CONTINUOUS
10
1.4142450393700787
20
0.9987983070866141
11
1.4320542125984252
21
0.9964537007874016
0
LINE
8
BLACK
6
CONTINUOUS
10
1.4320542125984252
20
0.9964537007874016
11
1.45
21
0.995670157480315
0
LINE
8
BLACK
6
CONTINUOUS
10
1.45
20
0.995670157480315
11
1.4679457874015747
21
0.9964537007874016
0
LINE
8
BLACK
6
CONTINUOUS
10
1.4679457874015747
20
0.9964537007874016
11
1.4857549606299212
21
0.9987983070866141
0
LINE
8
BLACK
6
CONTINUOUS
10
1.4857549606299212
20
0.9987983070866141
11
1.5032920472440945
21
1.0026861811023622
0
LINE
8
BLACK
6
CONTINUOUS
10
1.5032920472440945
20
1.0026861811023622
11
1.5204235433070865
21
1.0080877165354329
0
LINE
8
BLACK
6
CONTINUOUS
10
1.5204235433070865
20
1.0080877165354329
11
1.5370190551181102
21
1.014961811023622
0
LINE
8
BLACK
6
CONTINUOUS
10
1.5370190551181102
20
1.014961811023622
11
1.5529523228346456
21
1.0232561417322834
0
LINE
8
BLACK
6
CONTINUOUS
10
1.5529523228346456
20
1.0232561417322834
11
1.5681020472440945
21
1.0329075984251967
0
LINE
8
BLACK
6
CONTINUOUS
10
1.5681020472440945
20
1.0329075984251967
11
1.5823529527559055
21
1.0438426771653544
0
LINE
8
BLACK
6
CONTINUOUS
10
1.5823529527559055
20
1.0438426771653544
11
1.5955965748031495
21
1.0559782283464567
0
LINE
8
BLACK
6
CONTINUOUS
10
1.5955965748031495
20
1.0559782283464567
11
1.6077321259842519
21
1.0692218503937008
0
LINE
8
BLACK
6
CONTINUOUS
10
1.6077321259842519
20
1.0692218503937008
11
1.6186672047244095
21
1.0834727559055117
0
LINE
8
BLACK
6
CONTINUOUS
10
1.6186672047244095
20
1.0834727559055117
11
1.6283186614173228
21
1.0986224803149607
0
LINE
8
BLACK
6
CONTINUOUS
10
1.6283186614173228
20
1.0986224803149607
11
1.6366129921259842
21
1.114555748031496
0
LINE
8
BLACK
6
CONTINUOUS
10
1.6366129921259842
20
1.114555748031496
11
1.6434870866141731
21
1.1311512598425197
0
LINE
8
BLACK
6
CONTINUOUS
10
1.6434870866141731
20
1.1311512598425197
11
1.6488886220472441
21
1.1482827559055118
0
LINE
8
BLACK
6
CONTINUOUS
10
1.6488886220472441
20
1.1482827559055118
11
1.652776496062992
21
1.1658198425196851
0
LINE
8
BLACK
6
CONTINUOUS
10
1.652776496062992
20
1.1658198425196851
11
1.6551211023622048
21
1.1836290157480314
0
LINE
8
BLACK
6
CONTINUOUS
10
1.6551211023622048
20
1.1836290157480314
11
1.6559046456692914
21
1.2015748031496063
0
LINE
8
BLACK
6
CONTINUOUS
10
1.6559046456692914
20
1.2015748031496063
11
1.6551211023622048
21
1.219520590551181
0
LINE
8
BLACK
6
CONTINUOUS
10
1.6551211023622048
20
1.219520590551181
11
1.652776496062992
21
1.2373297637795275
0
LINE
8
BLACK
6
CONTINUOUS
10
1.652776496062992
20
1.2373297637795275
11
1.6488886220472441
21
1.2548668503937008
0
LINE
8
BLACK
6
CONTINUOUS
10
1.6488886220472441
20
1.2548668503937008
11
1.6434870866141731
21
1.2719983464566929
0
LINE
8
BLACK
6
CONTINUOUS
10
1.6434870866141731
20
1.2719983464566929
11
1.6366129921259842
21
1.2885938582677166
0
LINE
8
BLACK
6
CONTINUOUS
10
1.6366129921259842
20
1.2885938582677166
11
1.6283186614173228
21
1.3045271259842519
0
LINE
8
BLACK
6
CONTINUOUS
10
1.6283186614173228
20
1.3045271259842519
11
1.6186672047244095
21
1.3196768503937009
0
LINE
8
BLACK
6
CONTINUOUS
10
1.6186672047244095
20
1.3196768503937009
11
1.6077321259842519
21
1.3339277559055118
0
LINE
8
BLACK
6
CONTINUOUS
10
1.6077321259842519
20
1.3339277559055118
11
1.5955965748031495
21
1.3471713779527559
0
LINE
8
BLACK
6
CONTINUOUS
10
1.5955965748031495
20
1.3471713779527559
11
1.5823529527559055
21
1.3593069291338582
0
LINE
8
BLACK
6
CONTINUOUS
10
1.5823529527559055
20
1.3593069291338582
11
1.5681020472440945
21
1.3702420078740156
0
LINE
8
BLACK
6
CONTINUOUS
10
1.5681020472440945
20
1.3702420078740156
11
1.5529523228346456
21
1.3798934645669292
0
LINE
8
BLACK
6
CONTINUOUS
10
1.5529523228346456
20
1.3798934645669292
11
1.5370190551181102
21
1.3881877952755906
0
LINE
8
BLACK
6
CONTINUOUS
10
1.5370190551181102
20
1.3881877952755906
11
1.5204235433070865
21
1.3950618897637794
0
LINE
8
BLACK
6
CONTINUOUS
10
1.5204235433070865
20
1.3950618897637794
11
1.5032920472440945
21
1.4004634251968504
0
LINE
8
BLACK
6
CONTINUOUS
10
1.5032920472440945
20
1.4004634251968504
11
1.4857549606299212
21
1.4043512992125984
0
LINE
8
BLACK
6
CONTINUOUS
10
1.4857549606299212
20
1.4043512992125984
11
1.4679457874015747
21
1.4066959055118109
0
LINE
8
BLACK
6
CONTINUOUS
10
1.4679457874015747
20
1.4066959055118109
11
1.45
21
1.4074794488188975
0
LINE
8
BLACK
6
CONTINUOUS
10
1.45
20
1.4074794488188975
11
1.4320542125984252
21
1.4066959055118109
0
LINE
8
BLACK
6
CONTINUOUS
10
1.4320542125984252
20
1.4066959055118109
11
1.4142450393700787
21
1.4043512992125984
0
LINE
8
BLACK
6
CONTINUOUS
10
1.4142450393700787
20
1.4043512992125984
11
1.3967079527559054
21
1.4004634251968504
0
LINE
8
BLACK
6
CONTINUOUS
10
1.3967079527559054
20
1.4004634251968504
11
1.3795764566929134
21
1.3950618897637794
0
LINE
8
BLACK
6
CONTINUOUS
10
1.3795764566929134
20
1.3950618897637794
11
1.3629809448818897
21
1.3881877952755906
0
LINE
8
BLACK
6
CONTINUOUS
10
1.3629809448818897
20
1.3881877952755906
11
1.3470476771653543
21
1.3798934645669292
0
LINE
8
BLACK
6
CONTINUOUS
10
1.3470476771653543
20
1.3798934645669292
11
1.3318979527559054
21
1.3702420078740156
0
LINE
8
BLACK
6
CONTINUOUS
10
1.3318979527559054
20
1.3702420078740156
11
1.3176470472440944
21
1.3593069291338582
0
LINE
8
BLACK
6
CONTINUOUS
10
1.3176470472440944
20
1.3593069291338582
11
1.3044034251968504
21
1.3471713779527559
0
LINE
8
BLACK
6
CONTINUOUS
10
1.3044034251968504
20
1.3471713779527559
11
1.2922678740157481
21
1.3339277559055118
0
LINE
8
BLACK
6
CONTINUOUS
10
1.2922678740157481
20
1.3339277559055118
11
1.2813327952755906
21
1.3196768503937009
0
LINE
8
BLACK
6
CONTINUOUS
10
1.2813327952755906
20
1.3196768503937009
11
1.2716813385826771
21
1.3045271259842519
0
LINE
8
BLACK
6
CONTINUOUS
10
1.2716813385826771
20
1.3045271259842519
11
1.2633870078740157
21
1.2885938582677166
0
LINE
8
BLACK
6
CONTINUOUS
10
1.2633870078740157
20
1.2885938582677166
11
1.2565129133858268
21
1.2719983464566929
0
LINE
8
BLACK
6
CONTINUOUS
10
1.2565129133858268
20
1.2719983464566929
11
1.2511113779527558
21
1.2548668503937008
0
LINE
8
BLACK
6
CONTINUOUS
10
1.2511113779527558
20
1.2548668503937008
11
1.2472235039370079
21
1.2373297637795275
0
LINE
8
BLACK
6
CONTINUOUS
10
1.2472235039370079
20
1.2373297637795275
11
1.2448788976377954
21
1.219520590551181
0
LINE
8
BLACK
6
CONTINUOUS
10
1.2448788976377954
20
1.219520590551181
11
1.2440953543307087
21
1.2015748031496063
0
LINE
8
BLACK
6
CONTINUOUS
10
1.2440953543307087
20
1.2015748031496063
11
1.2448788976377954
21
1.1836290157480314
0
LINE
8
BLACK
6
CONTINUOUS
10
1.8624015748031495
20
1.1296259842519685
11
1.863097559055118
21
1.129337716535433
0
LINE
8
BLACK
6
CONTINUOUS
10
1.863097559055118
20
1.129337716535433
11
1.8633858267716534
21
1.1286417322834645
0
LINE
8
BLACK
6
CONTINUOUS
10
1.8633858267716534
20
1.1286417322834645
11
1.8633858267716534
21
0.9963582677165355
0
LINE
8
BLACK
6
CONTINUOUS
10
1.8633858267716534
20
0.9963582677165355
11
1.863097559055118
21
0.9956622834645669
0
LINE
8
BLACK
6
CONTINUOUS
10
1.863097559055118
20
0.9956622834645669
11
1.8624015748031495
21
0.9953740157480315
0
LINE
8
BLACK
6
CONTINUOUS
10
1.8624015748031495
20
0.9953740157480315
11
1.7875984251968504
21
0.9953740157480315
0
LINE
8
BLACK
6
CONTINUOUS
10
1.7875984251968504
20
0.9953740157480315
11
1.7869024409448819
21
0.9956622834645669
0
LINE
8
BLACK
6
CONTINUOUS
10
1.7869024409448819
20
0.9956622834645669
11
1.7866141732283465
21
0.9963582677165355
0
LINE
8
BLACK
6
CONTINUOUS
10
1.7866141732283465
20
0.9963582677165355
11
1.7866141732283465
21
1.1286417322834645
0
LINE
8
BLACK
6
CONTINUOUS
10
1.7866141732283465
20
1.1286417322834645
11
1.7869024409448819
21
1.129337716535433
0
LINE
8
BLACK
6
CONTINUOUS
10
1.7869024409448819
20
1.129337716535433
11
1.7875984251968504
21
1.1296259842519685
0
LINE
8
BLACK
6
CONTINUOUS
10
1.7875984251968504
20
1.1296259842519685
11
1.8624015748031495
21
1.1296259842519685
0
LINE
8
BLACK
6
CONTINUOUS
10
1.7885826771653544
20
1.1276574803149606
11
1.7885826771653544
21
0.9973425196850394
0
LINE
8
BLACK
6
CONTINUOUS
10
1.7885826771653544
20
0.9973425196850394
11
1.8614173228346456
21
0.9973425196850394
0
LINE
8
BLACK
6
CONTINUOUS
10
1.8614173228346456
20
0.9973425196850394
11
1.8614173228346456
21
1.1276574803149606
0
LINE
8
BLACK
6
CONTINUOUS
10
1.8614173228346456
20
1.1276574803149606
11
1.7885826771653544
21
1.1276574803149606
0
LINE
8
BLACK
6
CONTINUOUS
10
1.9624015748031496
20
1.1296259842519685
11
1.9630975590551181
21
1.129337716535433
0
LINE
8
BLACK
6
CONTINUOUS
10
1.9630975590551181
20
1.129337716535433
11
1.9633858267716535
21
1.1286417322834645
0
LINE
8
BLACK
6
CONTINUOUS
10
1.9633858267716535
20
1.1286417322834645
11
1.9633858267716535
21
0.9963582677165355
0
LINE
8
BLACK
6
CONTINUOUS
10
1.9633858267716535
20
0.9963582677165355
11
1.9630975590551181
21
0.9956622834645669
0
LINE
8
BLACK
6
CONTINUOUS
10
1.9630975590551181
20
0.9956622834645669
11
1.9624015748031496
21
0.9953740157480315
0
LINE
8
BLACK
6
CONTINUOUS
10
1.9624015748031496
20
0.9953740157480315
11
1.8875984251968503
21
0.9953740157480315
0
LINE
8
BLACK
6
CONTINUOUS
10
1.8875984251968503
20
0.9953740157480315
11
1.8869024409448818
21
0.9956622834645669
0
LINE
8
BLACK
6
CONTINUOUS
10
1.8869024409448818
20
0.9956622834645669
11
1.8866141732283463
21
0.9963582677165355
0
LINE
8
BLACK
6
CONTINUOUS
10
1.8866141732283463
20
0.9963582677165355
11
1.8866141732283463
21
1.1286417322834645
0
LINE
8
BLACK
6
CONTINUOUS
10
1.8866141732283463
20
1.1286417322834645
11
1.8869024409448818
21
1.129337716535433
0
LINE
8
BLACK
6
CONTINUOUS
10
1.8869024409448818
20
1.129337716535433
11
1.8875984251968503
21
1.1296259842519685
0
LINE
8
BLACK
6
CONTINUOUS
10
1.8875984251968503
20
1.1296259842519685
11
1.9624015748031496
21
1.1296259842519685
0
LINE
8
BLACK
6
CONTINUOUS
10
1.8885826771653542
20
1.1276574803149606
11
1.8885826771653542
21
0.9973425196850394
0
LINE
8
BLACK
6
CONTINUOUS
10
1.8885826771653542
20
0.9973425196850394
11
1.9614173228346456
21
0.9973425196850394
0
LINE
8
BLACK
6
CONTINUOUS
10
1.9614173228346456
20
0.9973425196850394
11
1.9614173228346456
21
1.1276574803149606
0
LINE
8
BLACK
6
CONTINUOUS
10
1.9614173228346456
20
1.1276574803149606
11
1.8885826771653542
21
1.1276574803149606
0
LINE
8
BLACK
6
CONTINUOUS
10
1.9786417322834646
20
1.2383858267716534
11
1.9793377165354331
21
1.238097559055118
0
LINE
8
BLACK
6
CONTINUOUS
10
1.9793377165354331
20
1.238097559055118
11
1.9796259842519686
21
1.2374015748031495
0
LINE
8
BLACK
6
CONTINUOUS
10
1.9796259842519686
20
1.2374015748031495
11
1.9796259842519686
21
1.2322834645669292
0
LINE
8
BLACK
6
CONTINUOUS
10
1.9796259842519686
20
1.2322834645669292
11
2.3734251968503934
21
1.2322834645669292
0
LINE
8
BLACK
6
CONTINUOUS
10
2.3734251968503934
20
1.2322834645669292
11
2.3741211811023621
21
1.2319951968503937
0
LINE
8
BLACK
6
CONTINUOUS
10
2.3741211811023621
20
1.2319951968503937
11
2.3744094488188976
21
1.2312992125984252
0
LINE
8
BLACK
6
CONTINUOUS
10
2.3744094488188976
20
1.2312992125984252
11
2.3744094488188976
21
1.0187007874015748
0
LINE
8
BLACK
6
CONTINUOUS
10
2.3744094488188976
20
1.0187007874015748
11
2.3741211811023621
21
1.0180048031496063
0
LINE
8
BLACK
6
CONTINUOUS
10
2.3741211811023621
20
1.0180048031496063
11
2.3734251968503934
21
1.0177165354330708
0
LINE
8
BLACK
6
CONTINUOUS
10
2.3734251968503934
20
1.0177165354330708
11
1.9757874015748031
21
1.0177165354330708
0
LINE
8
BLACK
6
CONTINUOUS
10
1.9757874015748031
20
1.0177165354330708
11
1.9750914173228347
21
1.0180048031496063
0
LINE
8
BLACK
6
CONTINUOUS
10
1.9750914173228347
20
1.0180048031496063
11
1.9748031496062992
21
1.0187007874015748
0
LINE
8
BLACK
6
CONTINUOUS
10
1.9748031496062992
20
1.0187007874015748
11
1.9748031496062992
21
1.1616141732283465
0
LINE
8
BLACK
6
CONTINUOUS
10
1.9748031496062992
20
1.1616141732283465
11
1.8463582677165353
21
1.1616141732283465
0
LINE
8
BLACK
6
CONTINUOUS
10
1.8463582677165353
20
1.1616141732283465
11
1.8456622834645668
21
1.1619024409448819
0
LINE
8
BLACK
6
CONTINUOUS
10
1.8456622834645668
20
1.1619024409448819
11
1.8453740157480314
21
1.1625984251968504
0
LINE
8
BLACK
6
CONTINUOUS
10
1.8453740157480314
20
1.1625984251968504
11
1.8453740157480314
21
1.2374015748031495
0
LINE
8
BLACK
6
CONTINUOUS
10
1.8453740157480314
20
1.2374015748031495
11
1.8456622834645668
21
1.238097559055118
0
LINE
8
BLACK
6
CONTINUOUS
10
1.8456622834645668
20
1.238097559055118
11
1.8463582677165353
21
1.2383858267716534
0
LINE
8
BLACK
6
CONTINUOUS
10
1.8463582677165353
20
1.2383858267716534
11
1.9786417322834646
21
1.2383858267716534
0
LINE
8
BLACK
6
CONTINUOUS
10
1.9796259842519686
20
1.2303149606299213
11
1.9796259842519686
21
1.1625984251968504
0
LINE
8
BLACK
6
CONTINUOUS
10
1.9796259842519686
20
1.1625984251968504
11
1.9793377165354331
21
1.1619024409448819
0
LINE
8
BLACK
6
CONTINUOUS
10
1.9793377165354331
20
1.1619024409448819
11
1.9786417322834646
21
1.1616141732283465
0
LINE
8
BLACK
6
CONTINUOUS
10
1.9786417322834646
20
1.1616141732283465
11
1.9767716535433071
21
1.1616141732283465
0
LINE
8
BLACK
6
CONTINUOUS
10
1.9767716535433071
20
1.1616141732283465
11
1.9767716535433071
21
1.0196850393700787
0
LINE
8
BLACK
6
CONTINUOUS
10
1.9767716535433071
20
1.0196850393700787
11
2.3724409448818897
21
1.0196850393700787
0
LINE
8
BLACK
6
CONTINUOUS
10
2.3724409448818897
20
1.0196850393700787
11
2.3724409448818897
21
1.2303149606299213
0
LINE
8
BLACK
6
CONTINUOUS
10
2.3724409448818897
20
1.2303149606299213
11
1.9796259842519686
21
1.2303149606299213
0
LINE
8
BLACK
6
CONTINUOUS
10
1.8473425196850393
20
1.2364173228346456
11
1.8473425196850393
21
1.1635826771653544
0
LINE
8
BLACK
6
CONTINUOUS
10
1.8473425196850393
20
1.1635826771653544
11
1.9748031496062992
21
1.1635826771653544
0
LINE
8
BLACK
6
CONTINUOUS
10
1.9748031496062992
20
1.1635826771653544
11
1.9748031496062992
21
1.2312992125984252
0
LINE
8
BLACK
6
CONTINUOUS
10
1.9748031496062992
20
1.2312992125984252
11
1.9750914173228347
21
1.2319951968503937
0
LINE
8
BLACK
6
CONTINUOUS
10
1.9750914173228347
20
1.2319951968503937
11
1.9757874015748031
21
1.2322834645669292
0
LINE
8
BLACK
6
CONTINUOUS
10
1.9757874015748031
20
1.2322834645669292
11
1.9776574803149607
21
1.2322834645669292
0
LINE
8
BLACK
6
CONTINUOUS
10
1.9776574803149607
20
1.2322834645669292
11
1.9776574803149607
21
1.2364173228346456
0
LINE
8
BLACK
6
CONTINUOUS
10
1.9776574803149607
20
1.2364173228346456
11
1.8473425196850393
21
1.2364173228346456
0
LINE
8
BLACK
6
CONTINUOUS
10
1.9767716535433071
20
1.2303149606299213
11
1.9767716535433071
21
1.1635826771653544
0
LINE
8
BLACK
6
CONTINUOUS
10
1.9767716535433071
20
1.1635826771653544
11
1.9776574803149607
21
1.1635826771653544
0
LINE
8
BLACK
6
CONTINUOUS
10
1.9776574803149607
20
1.1635826771653544
11
1.9776574803149607
21
1.2303149606299213
0
LINE
8
BLACK
6
CONTINUOUS
10
1.9776574803149607
20
1.2303149606299213
11
1.9767716535433071
21
1.2303149606299213
0
LINE
8
BLACK
6
CONTINUOUS
10
1.7374015748031495
20
1.2671259842519684
11
1.738097559055118
21
1.266837716535433
0
LINE
8
BLACK
6
CONTINUOUS
10
1.738097559055118
20
1.266837716535433
11
1.7383858267716534
21
1.2661417322834645
0
LINE
8
BLACK
6
CONTINUOUS
10
1.7383858267716534
20
1.2661417322834645
11
1.7383858267716534
21
1.1338582677165354
0
LINE
8
BLACK
6
CONTINUOUS
10
1.7383858267716534
20
1.1338582677165354
11
1.738097559055118
21
1.1331622834645669
0
LINE
8
BLACK
6
CONTINUOUS
10
1.738097559055118
20
1.1331622834645669
11
1.7374015748031495
21
1.1328740157480315
0
LINE
8
BLACK
6
CONTINUOUS
10
1.7374015748031495
20
1.1328740157480315
11
1.6625984251968504
21
1.1328740157480315
0
LINE
8
BLACK
6
CONTINUOUS
10
1.6625984251968504
20
1.1328740157480315
11
1.6619024409448819
21
1.1331622834645669
0
LINE
8
BLACK
6
CONTINUOUS
10
1.6619024409448819
20
1.1331622834645669
11
1.6616141732283465
21
1.1338582677165354
0
LINE
8
BLACK
6
CONTINUOUS
10
1.6616141732283465
20
1.1338582677165354
11
1.6616141732283465
21
1.2661417322834645
0
LINE
8
BLACK
6
CONTINUOUS
10
1.6616141732283465
20
1.2661417322834645
11
1.6619024409448819
21
1.266837716535433
0
LINE
8
BLACK
6
CONTINUOUS
10
1.6619024409448819
20
1.266837716535433
11
1.6625984251968504
21
1.2671259842519684
0
LINE
8
BLACK
6
CONTINUOUS
10
1.6625984251968504
20
1.2671259842519684
11
1.7374015748031495
21
1.2671259842519684
0
LINE
8
BLACK
6
CONTINUOUS
10
1.6635826771653544
20
1.2651574803149606
11
1.6635826771653544
21
1.1348425196850394
0
LINE
8
BLACK
6
CONTINUOUS
10
1.6635826771653544
20
1.1348425196850394
11
1.7364173228346456
21
1.1348425196850394
0
LINE
8
BLACK
6
CONTINUOUS
10
1.7364173228346456
20
1.1348425196850394
11
1.7364173228346456
21
1.2651574803149606
0
LINE
8
BLACK
6
CONTINUOUS
10
1.7364173228346456
20
1.2651574803149606
11
1.6635826771653544
21
1.2651574803149606
0
LINE
8
BLACK
6
CONTINUOUS
10
1.8374015748031496
20
1.2671259842519684
11
1.8380975590551181
21
1.266837716535433
0
LINE
8
BLACK
6
CONTINUOUS
10
1.8380975590551181
20
1.266837716535433
11
1.8383858267716535
21
1.2661417322834645
0
LINE
8
BLACK
6
CONTINUOUS
10
1.8383858267716535
20
1.2661417322834645
11
1.8383858267716535
21
1.1338582677165354
0
LINE
8
BLACK
6
CONTINUOUS
10
1.8383858267716535
20
1.1338582677165354
11
1.8380975590551181
21
1.1331622834645669
0
LINE
8
BLACK
6
CONTINUOUS
10
1.8380975590551181
20
1.1331622834645669
11
1.8374015748031496
21
1.1328740157480315
0
LINE
8
BLACK
6
CONTINUOUS
10
1.8374015748031496
20
1.1328740157480315
11
1.7625984251968503
21
1.1328740157480315
0
LINE
8
BLACK
6
CONTINUOUS
10
1.7625984251968503
20
1.1328740157480315
11
1.7619024409448818
21
1.1331622834645669
0
LINE
8
BLACK
6
CONTINUOUS
10
1.7619024409448818
20
1.1331622834645669
11
1.7616141732283463
21
1.1338582677165354
0
LINE
8
BLACK
6
CONTINUOUS
10
1.7616141732283463
20
1.1338582677165354
11
1.7616141732283463
21
1.2661417322834645
0
LINE
8
BLACK
6
CONTINUOUS
10
1.7616141732283463
20
1.2661417322834645
11
1.7619024409448818
21
1.266837716535433
0
LINE
8
BLACK
6
CONTINUOUS
10
1.7619024409448818
20
1.266837716535433
11
1.7625984251968503
21
1.2671259842519684
0
LINE
8
BLACK
6
CONTINUOUS
10
1.7625984251968503
20
1.2671259842519684
11
1.8374015748031496
21
1.2671259842519684
0
LINE
8
BLACK
6
CONTINUOUS
10
1.7635826771653542
20
1.2651574803149606
11
1.7635826771653542
21
1.1348425196850394
0
LINE
8
BLACK
6
CONTINUOUS
10
1.7635826771653542
20
1.1348425196850394
11
1.8364173228346456
21
1.1348425196850394
0
LINE
8
BLACK
6
CONTINUOUS
10
1.8364173228346456
20
1.1348425196850394
11
1.8364173228346456
21
1.2651574803149606
0
LINE
8
BLACK
6
CONTINUOUS
10
1.8364173228346456
20
1.2651574803149606
11
1.7635826771653542
21
1.2651574803149606
  0
ENDSEC
  0
EOF
