  0
SECTION
  2
HEADER
  9
$ANGBASE
  50
0.0
  9
$ANGDIR
  70
1
  9
$MEASUREMENT
  70
0
  0
ENDSEC
  0
SECTION
  2
TABLES
  0
TABLE
  2
LTYPE
  70
4
  0
LTYPE
  5
40F
  2
CONTINUOUS
  70
0
  3
Solid line
  72
65
  73
0
  40
0.0
  0
LTYPE
  5
410
  2
DASHDOT
 70
0
  3
Dash Dot ____ _ ____ _
 72
65
 73
4
 40
2.0
 49
1.25
 49
-0.25
 49
0.25
 49
-0.25
  0
LTYPE
  5
411
  2
DASHED
 70
0
  3
Dashed __ __ __ __ __
 72
65
 73
2
 40
0.75
 49
0.5
 49
-0.25
  0
LTYPE
  5
43B
  2
DOTTED
 70
0
  3
Dotted .  .  .  .
 72
65
 73
2
 40
0.2
 49
0.0
 49
-0.2
  0
ENDTAB
  0
TABLE
  2
STYLE
  70
4
  0
STYLE
  2
KICAD
  70
0
  40
0
  41
1
  42
1
  50
0
  71
0
  3
isocp.shx
  0
STYLE
  2
KICADB
  70
0
  40
0
  41
1
  42
1
  50
0
  71
0
  3
isocp.shx
  0
STYLE
  2
KICADI
  70
0
  40
0
  41
1
  42
1
  50
15
  71
0
  3
isocp.shx
  0
STYLE
  2
KICADBI
  70
0
  40
0
  41
1
  42
1
  50
15
  71
0
  3
isocp.shx
  0
ENDTAB
  0
TABLE
  2
LAYER
  70
1
  0
LAYER
  2
BLACK
  70
0
  62
7
  6
CONTINUOUS
  0
ENDTAB
  0
ENDSEC
  0
SECTION
  2
ENTITIES
0
LINE
8
BLACK
6
CONTINUOUS
10
1.8525590551181101
20
0.3323031496062992
11
1.7974409448818898
21
0.3323031496062992
0
LINE
8
BLACK
6
CONTINUOUS
10
1.7974409448818898
20
0.3323031496062992
11
1.7974409448818898
21
0.3676968503937008
0
LINE
8
BLACK
6
CONTINUOUS
10
1.7974409448818898
20
0.3676968503937008
11
1.8525590551181101
21
0.3676968503937008
0
LINE
8
BLACK
6
CONTINUOUS
10
1.8525590551181101
20
0.3676968503937008
11
1.8525590551181101
21
0.3323031496062992
0
LINE
8
BLACK
6
CONTINUOUS
10
1.9525590551181102
20
0.3323031496062992
11
1.8974409448818896
21
0.3323031496062992
0
LINE
8
BLACK
6
CONTINUOUS
10
1.8974409448818896
20
0.3323031496062992
11
1.8974409448818896
21
0.3676968503937008
0
LINE
8
BLACK
6
CONTINUOUS
10
1.8974409448818896
20
0.3676968503937008
11
1.9525590551181102
21
0.3676968503937008
0
LINE
8
BLACK
6
CONTINUOUS
10
1.9525590551181102
20
0.3676968503937008
11
1.9525590551181102
21
0.3323031496062992
0
LINE
8
BLACK
6
CONTINUOUS
10
1.8525590551181101
20
0.4075
11
1.7974409448818898
21
0.4075
0
LINE
8
BLACK
6
CONTINUOUS
10
1.7974409448818898
20
0.4075
11
1.7974409448818898
21
0.4425
0
LINE
8
BLACK
6
CONTINUOUS
10
1.7974409448818898
20
0.4425
11
1.8525590551181101
21
0.4425
0
LINE
8
BLACK
6
CONTINUOUS
10
1.8525590551181101
20
0.4425
11
1.8525590551181101
21
0.4075
0
LINE
8
BLACK
6
CONTINUOUS
10
1.9525590551181102
20
0.4075
11
1.8974409448818896
21
0.4075
0
LINE
8
BLACK
6
CONTINUOUS
10
1.8974409448818896
20
0.4075
11
1.8974409448818896
21
0.4425
0
LINE
8
BLACK
6
CONTINUOUS
10
1.8974409448818896
20
0.4425
11
1.9525590551181102
21
0.4425
0
LINE
8
BLACK
6
CONTINUOUS
10
1.9525590551181102
20
0.4425
11
1.9525590551181102
21
0.4075
0
LINE
8
BLACK
6
CONTINUOUS
10
0.6259452362204724
20
0.4783955118110236
11
0.6274140551181102
21
0.4774140551181102
0
LINE
8
BLACK
6
CONTINUOUS
10
0.6274140551181102
20
0.4774140551181102
11
0.6283955118110236
21
0.4759452362204724
0
LINE
8
BLACK
6
CONTINUOUS
10
0.6283955118110236
20
0.4759452362204724
11
0.628740157480315
21
0.4742125984251969
0
LINE
8
BLACK
6
CONTINUOUS
10
0.628740157480315
20
0.4742125984251969
11
0.6283955118110236
21
0.4724799606299213
0
LINE
8
BLACK
6
CONTINUOUS
10
0.6283955118110236
20
0.4724799606299213
11
0.6274140551181102
21
0.4710111417322835
0
LINE
8
BLACK
6
CONTINUOUS
10
0.6274140551181102
20
0.4710111417322835
11
0.6259452362204724
21
0.4700296850393701
0
LINE
8
BLACK
6
CONTINUOUS
10
0.6259452362204724
20
0.4700296850393701
11
0.6242125984251968
21
0.4696850393700787
0
LINE
8
BLACK
6
CONTINUOUS
10
0.6242125984251968
20
0.4696850393700787
11
0.6224799606299213
21
0.4700296850393701
0
LINE
8
BLACK
6
CONTINUOUS
10
0.6224799606299213
20
0.4700296850393701
11
0.6210111417322834
21
0.4710111417322835
0
LINE
8
BLACK
6
CONTINUOUS
10
0.6210111417322834
20
0.4710111417322835
11
0.6200296850393701
21
0.4724799606299213
0
LINE
8
BLACK
6
CONTINUOUS
10
0.6200296850393701
20
0.4724799606299213
11
0.6196850393700787
21
0.4742125984251969
0
LINE
8
BLACK
6
CONTINUOUS
10
0.6196850393700787
20
0.4742125984251969
11
0.6200296850393701
21
0.4759452362204724
0
LINE
8
BLACK
6
CONTINUOUS
10
0.6200296850393701
20
0.4759452362204724
11
0.6210111417322834
21
0.4774140551181102
0
LINE
8
BLACK
6
CONTINUOUS
10
0.6210111417322834
20
0.4774140551181102
11
0.6224799606299213
21
0.4783955118110236
0
LINE
8
BLACK
6
CONTINUOUS
10
0.6224799606299213
20
0.4783955118110236
11
0.6242125984251968
21
0.478740157480315
0
LINE
8
BLACK
6
CONTINUOUS
10
0.6242125984251968
20
0.478740157480315
11
0.6259452362204724
21
0.4783955118110236
0
LINE
8
BLACK
6
CONTINUOUS
10
0.8267326377952756
20
0.4783955118110236
11
0.8282014566929133
21
0.4774140551181102
0
LINE
8
BLACK
6
CONTINUOUS
10
0.8282014566929133
20
0.4774140551181102
11
0.8291829133858267
21
0.4759452362204724
0
LINE
8
BLACK
6
CONTINUOUS
10
0.8291829133858267
20
0.4759452362204724
11
0.8295275590551181
21
0.4742125984251969
0
LINE
8
BLACK
6
CONTINUOUS
10
0.8295275590551181
20
0.4742125984251969
11
0.8291829133858267
21
0.4724799606299213
0
LINE
8
BLACK
6
CONTINUOUS
10
0.8291829133858267
20
0.4724799606299213
11
0.8282014566929133
21
0.4710111417322835
0
LINE
8
BLACK
6
CONTINUOUS
10
0.8282014566929133
20
0.4710111417322835
11
0.8267326377952756
21
0.4700296850393701
0
LINE
8
BLACK
6
CONTINUOUS
10
0.8267326377952756
20
0.4700296850393701
11
0.825
21
0.4696850393700787
0
LINE
8
BLACK
6
CONTINUOUS
10
0.825
20
0.4696850393700787
11
0.8232673622047244
21
0.4700296850393701
0
LINE
8
BLACK
6
CONTINUOUS
10
0.8232673622047244
20
0.4700296850393701
11
0.8217985433070866
21
0.4710111417322835
0
LINE
8
BLACK
6
CONTINUOUS
10
0.8217985433070866
20
0.4710111417322835
11
0.8208170866141732
21
0.4724799606299213
0
LINE
8
BLACK
6
CONTINUOUS
10
0.8208170866141732
20
0.4724799606299213
11
0.8204724409448819
21
0.4742125984251969
0
LINE
8
BLACK
6
CONTINUOUS
10
0.8204724409448819
20
0.4742125984251969
11
0.8208170866141732
21
0.4759452362204724
0
LINE
8
BLACK
6
CONTINUOUS
10
0.8208170866141732
20
0.4759452362204724
11
0.8217985433070866
21
0.4774140551181102
0
LINE
8
BLACK
6
CONTINUOUS
10
0.8217985433070866
20
0.4774140551181102
11
0.8232673622047244
21
0.4783955118110236
0
LINE
8
BLACK
6
CONTINUOUS
10
0.8232673622047244
20
0.4783955118110236
11
0.825
21
0.478740157480315
0
LINE
8
BLACK
6
CONTINUOUS
10
0.825
20
0.478740157480315
11
0.8267326377952756
21
0.4783955118110236
0
LINE
8
BLACK
6
CONTINUOUS
10
1.0275200393700787
20
0.4783955118110236
11
1.0289888582677165
21
0.4774140551181102
0
LINE
8
BLACK
6
CONTINUOUS
10
1.0289888582677165
20
0.4774140551181102
11
1.0299703149606299
21
0.4759452362204724
0
LINE
8
BLACK
6
CONTINUOUS
10
1.0299703149606299
20
0.4759452362204724
11
1.0303149606299213
21
0.4742125984251969
0
LINE
8
BLACK
6
CONTINUOUS
10
1.0303149606299213
20
0.4742125984251969
11
1.0299703149606299
21
0.4724799606299213
0
LINE
8
BLACK
6
CONTINUOUS
10
1.0299703149606299
20
0.4724799606299213
11
1.0289888582677165
21
0.4710111417322835
0
LINE
8
BLACK
6
CONTINUOUS
10
1.0289888582677165
20
0.4710111417322835
11
1.0275200393700787
21
0.4700296850393701
0
LINE
8
BLACK
6
CONTINUOUS
10
1.0275200393700787
20
0.4700296850393701
11
1.0257874015748032
21
0.4696850393700787
0
LINE
8
BLACK
6
CONTINUOUS
10
1.0257874015748032
20
0.4696850393700787
11
1.0240547637795276
21
0.4700296850393701
0
LINE
8
BLACK
6
CONTINUOUS
10
1.0240547637795276
20
0.4700296850393701
11
1.0225859448818897
21
0.4710111417322835
0
LINE
8
BLACK
6
CONTINUOUS
10
1.0225859448818897
20
0.4710111417322835
11
1.0216044881889763
21
0.4724799606299213
0
LINE
8
BLACK
6
CONTINUOUS
10
1.0216044881889763
20
0.4724799606299213
11
1.021259842519685
21
0.4742125984251969
0
LINE
8
BLACK
6
CONTINUOUS
10
1.021259842519685
20
0.4742125984251969
11
1.0216044881889763
21
0.4759452362204724
0
LINE
8
BLACK
6
CONTINUOUS
10
1.0216044881889763
20
0.4759452362204724
11
1.0225859448818897
21
0.4774140551181102
0
LINE
8
BLACK
6
CONTINUOUS
10
1.0225859448818897
20
0.4774140551181102
11
1.0240547637795276
21
0.4783955118110236
0
LINE
8
BLACK
6
CONTINUOUS
10
1.0240547637795276
20
0.4783955118110236
11
1.0257874015748032
21
0.478740157480315
0
LINE
8
BLACK
6
CONTINUOUS
10
1.0257874015748032
20
0.478740157480315
11
1.0275200393700787
21
0.4783955118110236
0
LINE
8
BLACK
6
CONTINUOUS
10
1.8924999999999998
20
0.4724409448818898
11
1.8574999999999999
21
0.4724409448818898
0
LINE
8
BLACK
6
CONTINUOUS
10
1.8574999999999999
20
0.4724409448818898
11
1.8574999999999999
21
0.5275590551181102
0
LINE
8
BLACK
6
CONTINUOUS
10
1.8574999999999999
20
0.5275590551181102
11
1.8924999999999998
21
0.5275590551181102
0
LINE
8
BLACK
6
CONTINUOUS
10
1.8924999999999998
20
0.5275590551181102
11
1.8924999999999998
21
0.4724409448818898
0
LINE
8
BLACK
6
CONTINUOUS
10
1.9676968503937007
20
0.4724409448818898
11
1.9323031496062992
21
0.4724409448818898
0
LINE
8
BLACK
6
CONTINUOUS
10
1.9323031496062992
20
0.4724409448818898
11
1.9323031496062992
21
0.5275590551181102
0
LINE
8
BLACK
6
CONTINUOUS
10
1.9323031496062992
20
0.5275590551181102
11
1.9676968503937007
21
0.5275590551181102
0
LINE
8
BLACK
6
CONTINUOUS
10
1.9676968503937007
20
0.5275590551181102
11
1.9676968503937007
21
0.4724409448818898
0
LINE
8
BLACK
6
CONTINUOUS
10
1.3986220472440944
20
0.5356299212598425
11
1.3513779527559056
21
0.5356299212598425
0
LINE
8
BLACK
6
CONTINUOUS
10
1.3513779527559056
20
0.5356299212598425
11
1.3513779527559056
21
0.6143700787401575
0
LINE
8
BLACK
6
CONTINUOUS
10
1.3513779527559056
20
0.6143700787401575
11
1.3986220472440944
21
0.6143700787401575
0
LINE
8
BLACK
6
CONTINUOUS
10
1.3986220472440944
20
0.6143700787401575
11
1.3986220472440944
21
0.5356299212598425
0
LINE
8
BLACK
6
CONTINUOUS
10
1.4616141732283465
20
0.5356299212598425
11
1.4143700787401574
21
0.5356299212598425
0
LINE
8
BLACK
6
CONTINUOUS
10
1.4143700787401574
20
0.5356299212598425
11
1.4143700787401574
21
0.6143700787401575
0
LINE
8
BLACK
6
CONTINUOUS
10
1.4143700787401574
20
0.6143700787401575
11
1.4616141732283465
21
0.6143700787401575
0
LINE
8
BLACK
6
CONTINUOUS
10
1.4616141732283465
20
0.6143700787401575
11
1.4616141732283465
21
0.5356299212598425
0
LINE
8
BLACK
6
CONTINUOUS
10
1.8525590551181101
20
0.5573031496062992
11
1.7974409448818898
21
0.5573031496062992
0
LINE
8
BLACK
6
CONTINUOUS
10
1.7974409448818898
20
0.5573031496062992
11
1.7974409448818898
21
0.5926968503937008
0
LINE
8
BLACK
6
CONTINUOUS
10
1.7974409448818898
20
0.5926968503937008
11
1.8525590551181101
21
0.5926968503937008
0
LINE
8
BLACK
6
CONTINUOUS
10
1.8525590551181101
20
0.5926968503937008
11
1.8525590551181101
21
0.5573031496062992
0
LINE
8
BLACK
6
CONTINUOUS
10
1.9525590551181102
20
0.5573031496062992
11
1.8974409448818896
21
0.5573031496062992
0
LINE
8
BLACK
6
CONTINUOUS
10
1.8974409448818896
20
0.5573031496062992
11
1.8974409448818896
21
0.5926968503937008
0
LINE
8
BLACK
6
CONTINUOUS
10
1.8974409448818896
20
0.5926968503937008
11
1.9525590551181102
21
0.5926968503937008
0
LINE
8
BLACK
6
CONTINUOUS
10
1.9525590551181102
20
0.5926968503937008
11
1.9525590551181102
21
0.5573031496062992
0
LINE
8
BLACK
6
CONTINUOUS
10
1.8525590551181101
20
0.6325
11
1.7974409448818898
21
0.6325
0
LINE
8
BLACK
6
CONTINUOUS
10
1.7974409448818898
20
0.6325
11
1.7974409448818898
21
0.6675
0
LINE
8
BLACK
6
CONTINUOUS
10
1.7974409448818898
20
0.6675
11
1.8525590551181101
21
0.6675
0
LINE
8
BLACK
6
CONTINUOUS
10
1.8525590551181101
20
0.6675
11
1.8525590551181101
21
0.6325
0
LINE
8
BLACK
6
CONTINUOUS
10
1.9525590551181102
20
0.6325
11
1.8974409448818896
21
0.6325
0
LINE
8
BLACK
6
CONTINUOUS
10
1.8974409448818896
20
0.6325
11
1.8974409448818896
21
0.6675
0
LINE
8
BLACK
6
CONTINUOUS
10
1.8974409448818896
20
0.6675
11
1.9525590551181102
21
0.6675
0
LINE
8
BLACK
6
CONTINUOUS
10
1.9525590551181102
20
0.6675
11
1.9525590551181102
21
0.6325
0
LINE
8
BLACK
6
CONTINUOUS
10
1.3986220472440944
20
0.6356299212598425
11
1.3513779527559056
21
0.6356299212598425
0
LINE
8
BLACK
6
CONTINUOUS
10
1.3513779527559056
20
0.6356299212598425
11
1.3513779527559056
21
0.7143700787401575
0
LINE
8
BLACK
6
CONTINUOUS
10
1.3513779527559056
20
0.7143700787401575
11
1.3986220472440944
21
0.7143700787401575
0
LINE
8
BLACK
6
CONTINUOUS
10
1.3986220472440944
20
0.7143700787401575
11
1.3986220472440944
21
0.6356299212598425
0
LINE
8
BLACK
6
CONTINUOUS
10
1.4616141732283465
20
0.6356299212598425
11
1.4143700787401574
21
0.6356299212598425
0
LINE
8
BLACK
6
CONTINUOUS
10
1.4143700787401574
20
0.6356299212598425
11
1.4143700787401574
21
0.7143700787401575
0
LINE
8
BLACK
6
CONTINUOUS
10
1.4143700787401574
20
0.7143700787401575
11
1.4616141732283465
21
0.7143700787401575
0
LINE
8
BLACK
6
CONTINUOUS
10
1.4616141732283465
20
0.7143700787401575
11
1.4616141732283465
21
0.6356299212598425
0
LINE
8
BLACK
6
CONTINUOUS
10
0.6259452362204724
20
0.6791829133858267
11
0.6274140551181102
21
0.6782014566929133
0
LINE
8
BLACK
6
CONTINUOUS
10
0.6274140551181102
20
0.6782014566929133
11
0.6283955118110236
21
0.6767326377952756
0
LINE
8
BLACK
6
CONTINUOUS
10
0.6283955118110236
20
0.6767326377952756
11
0.628740157480315
21
0.6749999999999999
0
LINE
8
BLACK
6
CONTINUOUS
10
0.628740157480315
20
0.6749999999999999
11
0.6283955118110236
21
0.6732673622047244
0
LINE
8
BLACK
6
CONTINUOUS
10
0.6283955118110236
20
0.6732673622047244
11
0.6274140551181102
21
0.6717985433070865
0
LINE
8
BLACK
6
CONTINUOUS
10
0.6274140551181102
20
0.6717985433070865
11
0.6259452362204724
21
0.6708170866141732
0
LINE
8
BLACK
6
CONTINUOUS
10
0.6259452362204724
20
0.6708170866141732
11
0.6242125984251968
21
0.6704724409448819
0
LINE
8
BLACK
6
CONTINUOUS
10
0.6242125984251968
20
0.6704724409448819
11
0.6224799606299213
21
0.6708170866141732
0
LINE
8
BLACK
6
CONTINUOUS
10
0.6224799606299213
20
0.6708170866141732
11
0.6210111417322834
21
0.6717985433070865
0
LINE
8
BLACK
6
CONTINUOUS
10
0.6210111417322834
20
0.6717985433070865
11
0.6200296850393701
21
0.6732673622047244
0
LINE
8
BLACK
6
CONTINUOUS
10
0.6200296850393701
20
0.6732673622047244
11
0.6196850393700787
21
0.6749999999999999
0
LINE
8
BLACK
6
CONTINUOUS
10
0.6196850393700787
20
0.6749999999999999
11
0.6200296850393701
21
0.6767326377952756
0
LINE
8
BLACK
6
CONTINUOUS
10
0.6200296850393701
20
0.6767326377952756
11
0.6210111417322834
21
0.6782014566929133
0
LINE
8
BLACK
6
CONTINUOUS
10
0.6210111417322834
20
0.6782014566929133
11
0.6224799606299213
21
0.6791829133858267
0
LINE
8
BLACK
6
CONTINUOUS
10
0.6224799606299213
20
0.6791829133858267
11
0.6242125984251968
21
0.6795275590551181
0
LINE
8
BLACK
6
CONTINUOUS
10
0.6242125984251968
20
0.6795275590551181
11
0.6259452362204724
21
0.6791829133858267
0
LINE
8
BLACK
6
CONTINUOUS
10
0.8267326377952756
20
0.6791829133858267
11
0.8282014566929133
21
0.6782014566929133
0
LINE
8
BLACK
6
CONTINUOUS
10
0.8282014566929133
20
0.6782014566929133
11
0.8291829133858267
21
0.6767326377952756
0
LINE
8
BLACK
6
CONTINUOUS
10
0.8291829133858267
20
0.6767326377952756
11
0.8295275590551181
21
0.6749999999999999
0
LINE
8
BLACK
6
CONTINUOUS
10
0.8295275590551181
20
0.6749999999999999
11
0.8291829133858267
21
0.6732673622047244
0
LINE
8
BLACK
6
CONTINUOUS
10
0.8291829133858267
20
0.6732673622047244
11
0.8282014566929133
21
0.6717985433070865
0
LINE
8
BLACK
6
CONTINUOUS
10
0.8282014566929133
20
0.6717985433070865
11
0.8267326377952756
21
0.6708170866141732
0
LINE
8
BLACK
6
CONTINUOUS
10
0.8267326377952756
20
0.6708170866141732
11
0.825
21
0.6704724409448819
0
LINE
8
BLACK
6
CONTINUOUS
10
0.825
20
0.6704724409448819
11
0.8232673622047244
21
0.6708170866141732
0
LINE
8
BLACK
6
CONTINUOUS
10
0.8232673622047244
20
0.6708170866141732
11
0.8217985433070866
21
0.6717985433070865
0
LINE
8
BLACK
6
CONTINUOUS
10
0.8217985433070866
20
0.6717985433070865
11
0.8208170866141732
21
0.6732673622047244
0
LINE
8
BLACK
6
CONTINUOUS
10
0.8208170866141732
20
0.6732673622047244
11
0.8204724409448819
21
0.6749999999999999
0
LINE
8
BLACK
6
CONTINUOUS
10
0.8204724409448819
20
0.6749999999999999
11
0.8208170866141732
21
0.6767326377952756
0
LINE
8
BLACK
6
CONTINUOUS
10
0.8208170866141732
20
0.6767326377952756
11
0.8217985433070866
21
0.6782014566929133
0
LINE
8
BLACK
6
CONTINUOUS
10
0.8217985433070866
20
0.6782014566929133
11
0.8232673622047244
21
0.6791829133858267
0
LINE
8
BLACK
6
CONTINUOUS
10
0.8232673622047244
20
0.6791829133858267
11
0.825
21
0.6795275590551181
0
LINE
8
BLACK
6
CONTINUOUS
10
0.825
20
0.6795275590551181
11
0.8267326377952756
21
0.6791829133858267
0
LINE
8
BLACK
6
CONTINUOUS
10
1.0275200393700787
20
0.6791829133858267
11
1.0289888582677165
21
0.6782014566929133
0
LINE
8
BLACK
6
CONTINUOUS
10
1.0289888582677165
20
0.6782014566929133
11
1.0299703149606299
21
0.6767326377952756
0
LINE
8
BLACK
6
CONTINUOUS
10
1.0299703149606299
20
0.6767326377952756
11
1.0303149606299213
21
0.6749999999999999
0
LINE
8
BLACK
6
CONTINUOUS
10
1.0303149606299213
20
0.6749999999999999
11
1.0299703149606299
21
0.6732673622047244
0
LINE
8
BLACK
6
CONTINUOUS
10
1.0299703149606299
20
0.6732673622047244
11
1.0289888582677165
21
0.6717985433070865
0
LINE
8
BLACK
6
CONTINUOUS
10
1.0289888582677165
20
0.6717985433070865
11
1.0275200393700787
21
0.6708170866141732
0
LINE
8
BLACK
6
CONTINUOUS
10
1.0275200393700787
20
0.6708170866141732
11
1.0257874015748032
21
0.6704724409448819
0
LINE
8
BLACK
6
CONTINUOUS
10
1.0257874015748032
20
0.6704724409448819
11
1.0240547637795276
21
0.6708170866141732
0
LINE
8
BLACK
6
CONTINUOUS
10
1.0240547637795276
20
0.6708170866141732
11
1.0225859448818897
21
0.6717985433070865
0
LINE
8
BLACK
6
CONTINUOUS
10
1.0225859448818897
20
0.6717985433070865
11
1.0216044881889763
21
0.6732673622047244
0
LINE
8
BLACK
6
CONTINUOUS
10
1.0216044881889763
20
0.6732673622047244
11
1.021259842519685
21
0.6749999999999999
0
LINE
8
BLACK
6
CONTINUOUS
10
1.021259842519685
20
0.6749999999999999
11
1.0216044881889763
21
0.6767326377952756
0
LINE
8
BLACK
6
CONTINUOUS
10
1.0216044881889763
20
0.6767326377952756
11
1.0225859448818897
21
0.6782014566929133
0
LINE
8
BLACK
6
CONTINUOUS
10
1.0225859448818897
20
0.6782014566929133
11
1.0240547637795276
21
0.6791829133858267
0
LINE
8
BLACK
6
CONTINUOUS
10
1.0240547637795276
20
0.6791829133858267
11
1.0257874015748032
21
0.6795275590551181
0
LINE
8
BLACK
6
CONTINUOUS
10
1.0257874015748032
20
0.6795275590551181
11
1.0275200393700787
21
0.6791829133858267
0
LINE
8
BLACK
6
CONTINUOUS
10
1.8924999999999998
20
0.6974409448818898
11
1.8574999999999999
21
0.6974409448818898
0
LINE
8
BLACK
6
CONTINUOUS
10
1.8574999999999999
20
0.6974409448818898
11
1.8574999999999999
21
0.7525590551181102
0
LINE
8
BLACK
6
CONTINUOUS
10
1.8574999999999999
20
0.7525590551181102
11
1.8924999999999998
21
0.7525590551181102
0
LINE
8
BLACK
6
CONTINUOUS
10
1.8924999999999998
20
0.7525590551181102
11
1.8924999999999998
21
0.6974409448818898
0
LINE
8
BLACK
6
CONTINUOUS
10
1.9676968503937007
20
0.6974409448818898
11
1.9323031496062992
21
0.6974409448818898
0
LINE
8
BLACK
6
CONTINUOUS
10
1.9323031496062992
20
0.6974409448818898
11
1.9323031496062992
21
0.7525590551181102
0
LINE
8
BLACK
6
CONTINUOUS
10
1.9323031496062992
20
0.7525590551181102
11
1.9676968503937007
21
0.7525590551181102
0
LINE
8
BLACK
6
CONTINUOUS
10
1.9676968503937007
20
0.7525590551181102
11
1.9676968503937007
21
0.6974409448818898
0
LINE
8
BLACK
6
CONTINUOUS
10
1.3986220472440944
20
0.7356299212598425
11
1.3513779527559056
21
0.7356299212598425
0
LINE
8
BLACK
6
CONTINUOUS
10
1.3513779527559056
20
0.7356299212598425
11
1.3513779527559056
21
0.8143700787401574
0
LINE
8
BLACK
6
CONTINUOUS
10
1.3513779527559056
20
0.8143700787401574
11
1.3986220472440944
21
0.8143700787401574
0
LINE
8
BLACK
6
CONTINUOUS
10
1.3986220472440944
20
0.8143700787401574
11
1.3986220472440944
21
0.7356299212598425
0
LINE
8
BLACK
6
CONTINUOUS
10
1.4616141732283465
20
0.7356299212598425
11
1.4143700787401574
21
0.7356299212598425
0
LINE
8
BLACK
6
CONTINUOUS
10
1.4143700787401574
20
0.7356299212598425
11
1.4143700787401574
21
0.8143700787401574
0
LINE
8
BLACK
6
CONTINUOUS
10
1.4143700787401574
20
0.8143700787401574
11
1.4616141732283465
21
0.8143700787401574
0
LINE
8
BLACK
6
CONTINUOUS
10
1.4616141732283465
20
0.8143700787401574
11
1.4616141732283465
21
0.7356299212598425
0
LINE
8
BLACK
6
CONTINUOUS
10
1.8525590551181101
20
0.7823031496062992
11
1.7974409448818898
21
0.7823031496062992
0
LINE
8
BLACK
6
CONTINUOUS
10
1.7974409448818898
20
0.7823031496062992
11
1.7974409448818898
21
0.8176968503937008
0
LINE
8
BLACK
6
CONTINUOUS
10
1.7974409448818898
20
0.8176968503937008
11
1.8525590551181101
21
0.8176968503937008
0
LINE
8
BLACK
6
CONTINUOUS
10
1.8525590551181101
20
0.8176968503937008
11
1.8525590551181101
21
0.7823031496062992
0
LINE
8
BLACK
6
CONTINUOUS
10
1.9525590551181102
20
0.7823031496062992
11
1.8974409448818896
21
0.7823031496062992
0
LINE
8
BLACK
6
CONTINUOUS
10
1.8974409448818896
20
0.7823031496062992
11
1.8974409448818896
21
0.8176968503937008
0
LINE
8
BLACK
6
CONTINUOUS
10
1.8974409448818896
20
0.8176968503937008
11
1.9525590551181102
21
0.8176968503937008
0
LINE
8
BLACK
6
CONTINUOUS
10
1.9525590551181102
20
0.8176968503937008
11
1.9525590551181102
21
0.7823031496062992
0
LINE
8
BLACK
6
CONTINUOUS
10
1.3986220472440944
20
0.8356299212598425
11
1.3513779527559056
21
0.8356299212598425
0
LINE
8
BLACK
6
CONTINUOUS
10
1.3513779527559056
20
0.8356299212598425
11
1.3513779527559056
21
0.9143700787401574
0
LINE
8
BLACK
6
CONTINUOUS
10
1.3513779527559056
20
0.9143700787401574
11
1.3986220472440944
21
0.9143700787401574
0
LINE
8
BLACK
6
CONTINUOUS
10
1.3986220472440944
20
0.9143700787401574
11
1.3986220472440944
21
0.8356299212598425
0
LINE
8
BLACK
6
CONTINUOUS
10
1.4616141732283465
20
0.8356299212598425
11
1.4143700787401574
21
0.8356299212598425
0
LINE
8
BLACK
6
CONTINUOUS
10
1.4143700787401574
20
0.8356299212598425
11
1.4143700787401574
21
0.9143700787401574
0
LINE
8
BLACK
6
CONTINUOUS
10
1.4143700787401574
20
0.9143700787401574
11
1.4616141732283465
21
0.9143700787401574
0
LINE
8
BLACK
6
CONTINUOUS
10
1.4616141732283465
20
0.9143700787401574
11
1.4616141732283465
21
0.8356299212598425
0
LINE
8
BLACK
6
CONTINUOUS
10
1.8525590551181101
20
0.8574999999999999
11
1.7974409448818898
21
0.8574999999999999
0
LINE
8
BLACK
6
CONTINUOUS
10
1.7974409448818898
20
0.8574999999999999
11
1.7974409448818898
21
0.8925
0
LINE
8
BLACK
6
CONTINUOUS
10
1.7974409448818898
20
0.8925
11
1.8525590551181101
21
0.8925
0
LINE
8
BLACK
6
CONTINUOUS
10
1.8525590551181101
20
0.8925
11
1.8525590551181101
21
0.8574999999999999
0
LINE
8
BLACK
6
CONTINUOUS
10
1.9525590551181102
20
0.8574999999999999
11
1.8974409448818896
21
0.8574999999999999
0
LINE
8
BLACK
6
CONTINUOUS
10
1.8974409448818896
20
0.8574999999999999
11
1.8974409448818896
21
0.8925
0
LINE
8
BLACK
6
CONTINUOUS
10
1.8974409448818896
20
0.8925
11
1.9525590551181102
21
0.8925
0
LINE
8
BLACK
6
CONTINUOUS
10
1.9525590551181102
20
0.8925
11
1.9525590551181102
21
0.8574999999999999
0
LINE
8
BLACK
6
CONTINUOUS
10
0.6259452362204724
20
0.8799703149606299
11
0.6274140551181102
21
0.8789888582677166
0
LINE
8
BLACK
6
CONTINUOUS
10
0.6274140551181102
20
0.8789888582677166
11
0.6283955118110236
21
0.8775200393700787
0
LINE
8
BLACK
6
CONTINUOUS
10
0.6283955118110236
20
0.8775200393700787
11
0.628740157480315
21
0.8757874015748032
0
LINE
8
BLACK
6
CONTINUOUS
10
0.628740157480315
20
0.8757874015748032
11
0.6283955118110236
21
0.8740547637795275
0
LINE
8
BLACK
6
CONTINUOUS
10
0.6283955118110236
20
0.8740547637795275
11
0.6274140551181102
21
0.8725859448818898
0
LINE
8
BLACK
6
CONTINUOUS
10
0.6274140551181102
20
0.8725859448818898
11
0.6259452362204724
21
0.8716044881889764
0
LINE
8
BLACK
6
CONTINUOUS
10
0.6259452362204724
20
0.8716044881889764
11
0.6242125984251968
21
0.871259842519685
0
LINE
8
BLACK
6
CONTINUOUS
10
0.6242125984251968
20
0.871259842519685
11
0.6224799606299213
21
0.8716044881889764
0
LINE
8
BLACK
6
CONTINUOUS
10
0.6224799606299213
20
0.8716044881889764
11
0.6210111417322834
21
0.8725859448818898
0
LINE
8
BLACK
6
CONTINUOUS
10
0.6210111417322834
20
0.8725859448818898
11
0.6200296850393701
21
0.8740547637795275
0
LINE
8
BLACK
6
CONTINUOUS
10
0.6200296850393701
20
0.8740547637795275
11
0.6196850393700787
21
0.8757874015748032
0
LINE
8
BLACK
6
CONTINUOUS
10
0.6196850393700787
20
0.8757874015748032
11
0.6200296850393701
21
0.8775200393700787
0
LINE
8
BLACK
6
CONTINUOUS
10
0.6200296850393701
20
0.8775200393700787
11
0.6210111417322834
21
0.8789888582677166
0
LINE
8
BLACK
6
CONTINUOUS
10
0.6210111417322834
20
0.8789888582677166
11
0.6224799606299213
21
0.8799703149606299
0
LINE
8
BLACK
6
CONTINUOUS
10
0.6224799606299213
20
0.8799703149606299
11
0.6242125984251968
21
0.8803149606299212
0
LINE
8
BLACK
6
CONTINUOUS
10
0.6242125984251968
20
0.8803149606299212
11
0.6259452362204724
21
0.8799703149606299
0
LINE
8
BLACK
6
CONTINUOUS
10
0.8267326377952756
20
0.8799703149606299
11
0.8282014566929133
21
0.8789888582677166
0
LINE
8
BLACK
6
CONTINUOUS
10
0.8282014566929133
20
0.8789888582677166
11
0.8291829133858267
21
0.8775200393700787
0
LINE
8
BLACK
6
CONTINUOUS
10
0.8291829133858267
20
0.8775200393700787
11
0.8295275590551181
21
0.8757874015748032
0
LINE
8
BLACK
6
CONTINUOUS
10
0.8295275590551181
20
0.8757874015748032
11
0.8291829133858267
21
0.8740547637795275
0
LINE
8
BLACK
6
CONTINUOUS
10
0.8291829133858267
20
0.8740547637795275
11
0.8282014566929133
21
0.8725859448818898
0
LINE
8
BLACK
6
CONTINUOUS
10
0.8282014566929133
20
0.8725859448818898
11
0.8267326377952756
21
0.8716044881889764
0
LINE
8
BLACK
6
CONTINUOUS
10
0.8267326377952756
20
0.8716044881889764
11
0.825
21
0.871259842519685
0
LINE
8
BLACK
6
CONTINUOUS
10
0.825
20
0.871259842519685
11
0.8232673622047244
21
0.8716044881889764
0
LINE
8
BLACK
6
CONTINUOUS
10
0.8232673622047244
20
0.8716044881889764
11
0.8217985433070866
21
0.8725859448818898
0
LINE
8
BLACK
6
CONTINUOUS
10
0.8217985433070866
20
0.8725859448818898
11
0.8208170866141732
21
0.8740547637795275
0
LINE
8
BLACK
6
CONTINUOUS
10
0.8208170866141732
20
0.8740547637795275
11
0.8204724409448819
21
0.8757874015748032
0
LINE
8
BLACK
6
CONTINUOUS
10
0.8204724409448819
20
0.8757874015748032
11
0.8208170866141732
21
0.8775200393700787
0
LINE
8
BLACK
6
CONTINUOUS
10
0.8208170866141732
20
0.8775200393700787
11
0.8217985433070866
21
0.8789888582677166
0
LINE
8
BLACK
6
CONTINUOUS
10
0.8217985433070866
20
0.8789888582677166
11
0.8232673622047244
21
0.8799703149606299
0
LINE
8
BLACK
6
CONTINUOUS
10
0.8232673622047244
20
0.8799703149606299
11
0.825
21
0.8803149606299212
0
LINE
8
BLACK
6
CONTINUOUS
10
0.825
20
0.8803149606299212
11
0.8267326377952756
21
0.8799703149606299
0
LINE
8
BLACK
6
CONTINUOUS
10
1.0275200393700787
20
0.8799703149606299
11
1.0289888582677165
21
0.8789888582677166
0
LINE
8
BLACK
6
CONTINUOUS
10
1.0289888582677165
20
0.8789888582677166
11
1.0299703149606299
21
0.8775200393700787
0
LINE
8
BLACK
6
CONTINUOUS
10
1.0299703149606299
20
0.8775200393700787
11
1.0303149606299213
21
0.8757874015748032
0
LINE
8
BLACK
6
CONTINUOUS
10
1.0303149606299213
20
0.8757874015748032
11
1.0299703149606299
21
0.8740547637795275
0
LINE
8
BLACK
6
CONTINUOUS
10
1.0299703149606299
20
0.8740547637795275
11
1.0289888582677165
21
0.8725859448818898
0
LINE
8
BLACK
6
CONTINUOUS
10
1.0289888582677165
20
0.8725859448818898
11
1.0275200393700787
21
0.8716044881889764
0
LINE
8
BLACK
6
CONTINUOUS
10
1.0275200393700787
20
0.8716044881889764
11
1.0257874015748032
21
0.871259842519685
0
LINE
8
BLACK
6
CONTINUOUS
10
1.0257874015748032
20
0.871259842519685
11
1.0240547637795276
21
0.8716044881889764
0
LINE
8
BLACK
6
CONTINUOUS
10
1.0240547637795276
20
0.8716044881889764
11
1.0225859448818897
21
0.8725859448818898
0
LINE
8
BLACK
6
CONTINUOUS
10
1.0225859448818897
20
0.8725859448818898
11
1.0216044881889763
21
0.8740547637795275
0
LINE
8
BLACK
6
CONTINUOUS
10
1.0216044881889763
20
0.8740547637795275
11
1.021259842519685
21
0.8757874015748032
0
LINE
8
BLACK
6
CONTINUOUS
10
1.021259842519685
20
0.8757874015748032
11
1.0216044881889763
21
0.8775200393700787
0
LINE
8
BLACK
6
CONTINUOUS
10
1.0216044881889763
20
0.8775200393700787
11
1.0225859448818897
21
0.8789888582677166
0
LINE
8
BLACK
6
CONTINUOUS
10
1.0225859448818897
20
0.8789888582677166
11
1.0240547637795276
21
0.8799703149606299
0
LINE
8
BLACK
6
CONTINUOUS
10
1.0240547637795276
20
0.8799703149606299
11
1.0257874015748032
21
0.8803149606299212
0
LINE
8
BLACK
6
CONTINUOUS
10
1.0257874015748032
20
0.8803149606299212
11
1.0275200393700787
21
0.8799703149606299
0
LINE
8
BLACK
6
CONTINUOUS
10
1.8924999999999998
20
0.9224409448818898
11
1.8574999999999999
21
0.9224409448818898
0
LINE
8
BLACK
6
CONTINUOUS
10
1.8574999999999999
20
0.9224409448818898
11
1.8574999999999999
21
0.9775590551181103
0
LINE
8
BLACK
6
CONTINUOUS
10
1.8574999999999999
20
0.9775590551181103
11
1.8924999999999998
21
0.9775590551181103
0
LINE
8
BLACK
6
CONTINUOUS
10
1.8924999999999998
20
0.9775590551181103
11
1.8924999999999998
21
0.9224409448818898
0
LINE
8
BLACK
6
CONTINUOUS
10
1.9676968503937007
20
0.9224409448818898
11
1.9323031496062992
21
0.9224409448818898
0
LINE
8
BLACK
6
CONTINUOUS
10
1.9323031496062992
20
0.9224409448818898
11
1.9323031496062992
21
0.9775590551181103
0
LINE
8
BLACK
6
CONTINUOUS
10
1.9323031496062992
20
0.9775590551181103
11
1.9676968503937007
21
0.9775590551181103
0
LINE
8
BLACK
6
CONTINUOUS
10
1.9676968503937007
20
0.9775590551181103
11
1.9676968503937007
21
0.9224409448818898
0
LINE
8
BLACK
6
CONTINUOUS
10
1.8525590551181101
20
1.0073031496062992
11
1.7974409448818898
21
1.0073031496062992
0
LINE
8
BLACK
6
CONTINUOUS
10
1.7974409448818898
20
1.0073031496062992
11
1.7974409448818898
21
1.0426968503937009
0
LINE
8
BLACK
6
CONTINUOUS
10
1.7974409448818898
20
1.0426968503937009
11
1.8525590551181101
21
1.0426968503937009
0
LINE
8
BLACK
6
CONTINUOUS
10
1.8525590551181101
20
1.0426968503937009
11
1.8525590551181101
21
1.0073031496062992
0
LINE
8
BLACK
6
CONTINUOUS
10
1.9525590551181102
20
1.0073031496062992
11
1.8974409448818896
21
1.0073031496062992
0
LINE
8
BLACK
6
CONTINUOUS
10
1.8974409448818896
20
1.0073031496062992
11
1.8974409448818896
21
1.0426968503937009
0
LINE
8
BLACK
6
CONTINUOUS
10
1.8974409448818896
20
1.0426968503937009
11
1.9525590551181102
21
1.0426968503937009
0
LINE
8
BLACK
6
CONTINUOUS
10
1.9525590551181102
20
1.0426968503937009
11
1.9525590551181102
21
1.0073031496062992
0
LINE
8
BLACK
6
CONTINUOUS
10
1.1741999999999999
20
1.026
11
1.0757999999999999
21
1.026
0
LINE
8
BLACK
6
CONTINUOUS
10
1.0757999999999999
20
1.026
11
1.0757999999999999
21
1.1264000000000001
0
LINE
8
BLACK
6
CONTINUOUS
10
1.0757999999999999
20
1.1264000000000001
11
1.1741999999999999
21
1.1264000000000001
0
LINE
8
BLACK
6
CONTINUOUS
10
1.1741999999999999
20
1.1264000000000001
11
1.1741999999999999
21
1.026
0
LINE
8
BLACK
6
CONTINUOUS
10
1.8525590551181101
20
1.0825
11
1.7974409448818898
21
1.0825
0
LINE
8
BLACK
6
CONTINUOUS
10
1.7974409448818898
20
1.0825
11
1.7974409448818898
21
1.1174999999999999
0
LINE
8
BLACK
6
CONTINUOUS
10
1.7974409448818898
20
1.1174999999999999
11
1.8525590551181101
21
1.1174999999999999
0
LINE
8
BLACK
6
CONTINUOUS
10
1.8525590551181101
20
1.1174999999999999
11
1.8525590551181101
21
1.0825
0
LINE
8
BLACK
6
CONTINUOUS
10
1.9525590551181102
20
1.0825
11
1.8974409448818896
21
1.0825
0
LINE
8
BLACK
6
CONTINUOUS
10
1.8974409448818896
20
1.0825
11
1.8974409448818896
21
1.1174999999999999
0
LINE
8
BLACK
6
CONTINUOUS
10
1.8974409448818896
20
1.1174999999999999
11
1.9525590551181102
21
1.1174999999999999
0
LINE
8
BLACK
6
CONTINUOUS
10
1.9525590551181102
20
1.1174999999999999
11
1.9525590551181102
21
1.0825
0
LINE
8
BLACK
6
CONTINUOUS
10
1.7275590551181101
20
1.145
11
1.6724409448818898
21
1.145
0
LINE
8
BLACK
6
CONTINUOUS
10
1.6724409448818898
20
1.145
11
1.6724409448818898
21
1.1799999999999999
0
LINE
8
BLACK
6
CONTINUOUS
10
1.6724409448818898
20
1.1799999999999999
11
1.7275590551181101
21
1.1799999999999999
0
LINE
8
BLACK
6
CONTINUOUS
10
1.7275590551181101
20
1.1799999999999999
11
1.7275590551181101
21
1.145
0
LINE
8
BLACK
6
CONTINUOUS
10
1.8275590551181102
20
1.145
11
1.7724409448818896
21
1.145
0
LINE
8
BLACK
6
CONTINUOUS
10
1.7724409448818896
20
1.145
11
1.7724409448818896
21
1.1799999999999999
0
LINE
8
BLACK
6
CONTINUOUS
10
1.7724409448818896
20
1.1799999999999999
11
1.8275590551181102
21
1.1799999999999999
0
LINE
8
BLACK
6
CONTINUOUS
10
1.8275590551181102
20
1.1799999999999999
11
1.8275590551181102
21
1.145
0
LINE
8
BLACK
6
CONTINUOUS
10
1.8924999999999998
20
1.1724409448818898
11
1.8574999999999999
21
1.1724409448818898
0
LINE
8
BLACK
6
CONTINUOUS
10
1.8574999999999999
20
1.1724409448818898
11
1.8574999999999999
21
1.2275590551181101
0
LINE
8
BLACK
6
CONTINUOUS
10
1.8574999999999999
20
1.2275590551181101
11
1.8924999999999998
21
1.2275590551181101
0
LINE
8
BLACK
6
CONTINUOUS
10
1.8924999999999998
20
1.2275590551181101
11
1.8924999999999998
21
1.1724409448818898
0
LINE
8
BLACK
6
CONTINUOUS
10
1.9676968503937007
20
1.1724409448818898
11
1.9323031496062992
21
1.1724409448818898
0
LINE
8
BLACK
6
CONTINUOUS
10
1.9323031496062992
20
1.1724409448818898
11
1.9323031496062992
21
1.2275590551181101
0
LINE
8
BLACK
6
CONTINUOUS
10
1.9323031496062992
20
1.2275590551181101
11
1.9676968503937007
21
1.2275590551181101
0
LINE
8
BLACK
6
CONTINUOUS
10
1.9676968503937007
20
1.2275590551181101
11
1.9676968503937007
21
1.1724409448818898
0
LINE
8
BLACK
6
CONTINUOUS
10
1.7275590551181101
20
1.2198031496062991
11
1.6724409448818898
21
1.2198031496062991
0
LINE
8
BLACK
6
CONTINUOUS
10
1.6724409448818898
20
1.2198031496062991
11
1.6724409448818898
21
1.2551968503937008
0
LINE
8
BLACK
6
CONTINUOUS
10
1.6724409448818898
20
1.2551968503937008
11
1.7275590551181101
21
1.2551968503937008
0
LINE
8
BLACK
6
CONTINUOUS
10
1.7275590551181101
20
1.2551968503937008
11
1.7275590551181101
21
1.2198031496062991
0
LINE
8
BLACK
6
CONTINUOUS
10
1.8275590551181102
20
1.2198031496062991
11
1.7724409448818896
21
1.2198031496062991
0
LINE
8
BLACK
6
CONTINUOUS
10
1.7724409448818896
20
1.2198031496062991
11
1.7724409448818896
21
1.2551968503937008
0
LINE
8
BLACK
6
CONTINUOUS
10
1.7724409448818896
20
1.2551968503937008
11
1.8275590551181102
21
1.2551968503937008
0
LINE
8
BLACK
6
CONTINUOUS
10
1.8275590551181102
20
1.2551968503937008
11
1.8275590551181102
21
1.2198031496062991
0
LINE
8
BLACK
6
CONTINUOUS
10
1.1741999999999999
20
1.2247999999999999
11
1.0757999999999999
21
1.2247999999999999
0
LINE
8
BLACK
6
CONTINUOUS
10
1.0757999999999999
20
1.2247999999999999
11
1.0757999999999999
21
1.3251999999999999
0
LINE
8
BLACK
6
CONTINUOUS
10
1.0757999999999999
20
1.3251999999999999
11
1.1741999999999999
21
1.3251999999999999
0
LINE
8
BLACK
6
CONTINUOUS
10
1.1741999999999999
20
1.3251999999999999
11
1.1741999999999999
21
1.2247999999999999
  0
ENDSEC
  0
EOF
