M48
; DRILL file {KiCad 8.0.3+1} date 2024-07-16T01:09:23+0000
; FORMAT={3:3/ absolute / metric / suppress leading zeros}
; #@! TF.CreationDate,2024-07-16T01:09:23+00:00
; #@! TF.GenerationSoftware,Kicad,Pcbnew,8.0.3+1
; #@! TF.FileFunction,Plated,1,2,PTH
FMAT,2
METRIC,TZ
; #@! TA.AperFunction,Plated,PTH,ViaDrill
T1C0.400
; #@! TA.AperFunction,Plated,PTH,ComponentDrill
T2C0.800
; #@! TA.AperFunction,Plated,PTH,ComponentDrill
T3C0.889
; #@! TA.AperFunction,Plated,PTH,ComponentDrill
T4C1.000
; #@! TA.AperFunction,Plated,PTH,ComponentDrill
T5C1.200
; #@! TA.AperFunction,Plated,PTH,ComponentDrill
T6C3.000
%
G90
G05
T1
X29845Y12065
X43180Y27305
X43180Y22225
X43180Y16510
X44450Y11430
X50165Y32385
T2
X52705Y28575
X52705Y22860
X52705Y17145
X52705Y11430
X55245Y28575
X55245Y22860
X55245Y17145
X55245Y11430
X57785Y28575
X57785Y22860
X57785Y17145
X57785Y11430
T3
X3810Y26035
X3810Y23495
X3810Y20955
X3810Y18415
X6350Y26035
X6350Y23495
X6350Y20955
X6350Y18415
T4
X36830Y33020
X36830Y28020
T5
X15875Y36170
X15875Y4470
X29845Y36170
X29845Y4470
X43815Y36170
X43815Y4470
T6
X5080Y35560
X5080Y5080
X55880Y35560
X55880Y5080
M30
