%TF.GenerationSoftware,KiCad,Pcbnew,8.0.3+1*%
%TF.CreationDate,2024-07-16T01:09:23+00:00*%
%TF.ProjectId,SIPM01,5349504d-3031-42e6-9b69-6361645f7063,rev?*%
%TF.SameCoordinates,Original*%
%TF.FileFunction,Copper,L2,Bot*%
%TF.FilePolarity,Positive*%
%FSLAX46Y46*%
G04 Gerber Fmt 4.6, Leading zero omitted, Abs format (unit mm)*
G04 Created by KiCad (PCBNEW 8.0.3+1) date 2024-07-16 01:09:23*
%MOMM*%
%LPD*%
G01*
G04 APERTURE LIST*
%ADD10C,0.300000*%
%TA.AperFunction,NonConductor*%
%ADD11C,0.300000*%
%TD*%
%TA.AperFunction,ComponentPad*%
%ADD12R,2.000000X2.000000*%
%TD*%
%TA.AperFunction,ComponentPad*%
%ADD13C,2.000000*%
%TD*%
%TA.AperFunction,ComponentPad*%
%ADD14R,1.524000X1.524000*%
%TD*%
%TA.AperFunction,ComponentPad*%
%ADD15C,6.000000*%
%TD*%
%TA.AperFunction,ComponentPad*%
%ADD16C,1.440000*%
%TD*%
%TA.AperFunction,ComponentPad*%
%ADD17R,2.300000X2.300000*%
%TD*%
%TA.AperFunction,ComponentPad*%
%ADD18C,2.500000*%
%TD*%
%TA.AperFunction,SMDPad,CuDef*%
%ADD19R,1.400000X0.899000*%
%TD*%
%TA.AperFunction,SMDPad,CuDef*%
%ADD20R,1.400000X0.889000*%
%TD*%
%TA.AperFunction,SMDPad,CuDef*%
%ADD21R,0.899000X1.400000*%
%TD*%
%TA.AperFunction,SMDPad,CuDef*%
%ADD22R,0.889000X1.400000*%
%TD*%
%TA.AperFunction,ViaPad*%
%ADD23C,0.800000*%
%TD*%
%TA.AperFunction,Conductor*%
%ADD24C,0.800000*%
%TD*%
%TA.AperFunction,Conductor*%
%ADD25C,1.000000*%
%TD*%
G04 APERTURE END LIST*
D10*
D11*
X33146904Y36047266D02*
X31623095Y36047266D01*
X32384999Y35285361D02*
X32384999Y36809171D01*
D10*
D11*
X47116904Y4932266D02*
X45593095Y4932266D01*
X46354999Y4170361D02*
X46354999Y5694171D01*
D10*
D11*
X11941428Y10116671D02*
X11941428Y11616671D01*
X11941428Y11616671D02*
X11441428Y10545242D01*
X11441428Y10545242D02*
X10941428Y11616671D01*
X10941428Y11616671D02*
X10941428Y10116671D01*
X9512856Y10116671D02*
X10227142Y10116671D01*
X10227142Y10116671D02*
X10227142Y11616671D01*
X9084284Y10545242D02*
X8369999Y10545242D01*
X9227141Y10116671D02*
X8727141Y11616671D01*
X8727141Y11616671D02*
X8227141Y10116671D01*
X7227142Y10902385D02*
X7012856Y10830957D01*
X7012856Y10830957D02*
X6941427Y10759528D01*
X6941427Y10759528D02*
X6869999Y10616671D01*
X6869999Y10616671D02*
X6869999Y10402385D01*
X6869999Y10402385D02*
X6941427Y10259528D01*
X6941427Y10259528D02*
X7012856Y10188100D01*
X7012856Y10188100D02*
X7155713Y10116671D01*
X7155713Y10116671D02*
X7727142Y10116671D01*
X7727142Y10116671D02*
X7727142Y11616671D01*
X7727142Y11616671D02*
X7227142Y11616671D01*
X7227142Y11616671D02*
X7084285Y11545242D01*
X7084285Y11545242D02*
X7012856Y11473814D01*
X7012856Y11473814D02*
X6941427Y11330957D01*
X6941427Y11330957D02*
X6941427Y11188100D01*
X6941427Y11188100D02*
X7012856Y11045242D01*
X7012856Y11045242D02*
X7084285Y10973814D01*
X7084285Y10973814D02*
X7227142Y10902385D01*
X7227142Y10902385D02*
X7727142Y10902385D01*
X6227142Y10259528D02*
X6155713Y10188100D01*
X6155713Y10188100D02*
X6227142Y10116671D01*
X6227142Y10116671D02*
X6298570Y10188100D01*
X6298570Y10188100D02*
X6227142Y10259528D01*
X6227142Y10259528D02*
X6227142Y10116671D01*
X4655713Y10259528D02*
X4727141Y10188100D01*
X4727141Y10188100D02*
X4941427Y10116671D01*
X4941427Y10116671D02*
X5084284Y10116671D01*
X5084284Y10116671D02*
X5298570Y10188100D01*
X5298570Y10188100D02*
X5441427Y10330957D01*
X5441427Y10330957D02*
X5512856Y10473814D01*
X5512856Y10473814D02*
X5584284Y10759528D01*
X5584284Y10759528D02*
X5584284Y10973814D01*
X5584284Y10973814D02*
X5512856Y11259528D01*
X5512856Y11259528D02*
X5441427Y11402385D01*
X5441427Y11402385D02*
X5298570Y11545242D01*
X5298570Y11545242D02*
X5084284Y11616671D01*
X5084284Y11616671D02*
X4941427Y11616671D01*
X4941427Y11616671D02*
X4727141Y11545242D01*
X4727141Y11545242D02*
X4655713Y11473814D01*
X4155713Y11616671D02*
X3155713Y11616671D01*
X3155713Y11616671D02*
X4155713Y10116671D01*
X4155713Y10116671D02*
X3155713Y10116671D01*
D10*
D11*
X19176904Y36047266D02*
X17653095Y36047266D01*
X18414999Y35285361D02*
X18414999Y36809171D01*
D12*
%TO.P,C2,1*%
%TO.N,Net-(BT1-Pad2)*%
X36830000Y33020000D03*
D13*
%TO.P,C2,2*%
%TO.N,Net-(BT3-Pad1)*%
X36830000Y28020000D03*
%TD*%
D14*
%TO.P,J1,1*%
%TO.N,GND*%
X6350000Y18415000D03*
%TO.P,J1,2*%
X3810000Y18415000D03*
%TO.P,J1,3*%
%TO.N,Net-(J1-Pad3)*%
X6350000Y20955000D03*
%TO.P,J1,4*%
X3810000Y20955000D03*
%TO.P,J1,5*%
%TO.N,Net-(BT3-Pad1)*%
X6350000Y23495000D03*
%TO.P,J1,6*%
X3810000Y23495000D03*
%TO.P,J1,7*%
%TO.N,GND*%
X6350000Y26035000D03*
%TO.P,J1,8*%
X3810000Y26035000D03*
%TD*%
D15*
%TO.P,M1,1*%
%TO.N,GND*%
X55880000Y35560000D03*
%TD*%
%TO.P,M2,1*%
%TO.N,GND*%
X5080000Y5080000D03*
%TD*%
%TO.P,M3,1*%
%TO.N,GND*%
X5080000Y35560000D03*
%TD*%
%TO.P,M4,1*%
%TO.N,GND*%
X55880000Y5080000D03*
%TD*%
D16*
%TO.P,RV1,1*%
%TO.N,Net-(R1-Pad2)*%
X57785000Y28575000D03*
%TO.P,RV1,2*%
%TO.N,/U1*%
X55245000Y28575000D03*
%TO.P,RV1,3*%
%TO.N,Net-(R2-Pad1)*%
X52705000Y28575000D03*
%TD*%
%TO.P,RV2,1*%
%TO.N,Net-(R3-Pad2)*%
X57785000Y22860000D03*
%TO.P,RV2,2*%
%TO.N,/U2*%
X55245000Y22860000D03*
%TO.P,RV2,3*%
%TO.N,Net-(R4-Pad1)*%
X52705000Y22860000D03*
%TD*%
%TO.P,RV3,1*%
%TO.N,Net-(R5-Pad2)*%
X57785000Y17145000D03*
%TO.P,RV3,2*%
%TO.N,/U3*%
X55245000Y17145000D03*
%TO.P,RV3,3*%
%TO.N,Net-(R6-Pad1)*%
X52705000Y17145000D03*
%TD*%
%TO.P,RV4,1*%
%TO.N,Net-(R7-Pad2)*%
X57785000Y11430000D03*
%TO.P,RV4,2*%
%TO.N,/U4*%
X55245000Y11430000D03*
%TO.P,RV4,3*%
%TO.N,Net-(R8-Pad1)*%
X52705000Y11430000D03*
%TD*%
D17*
%TO.P,BT2,1*%
%TO.N,Net-(BT2-Pad1)*%
X29845000Y36170000D03*
D18*
%TO.P,BT2,2*%
%TO.N,Net-(BT1-Pad1)*%
X29845000Y4470000D03*
%TD*%
D19*
%TO.P,R3,1*%
%TO.N,Net-(BT1-Pad2)*%
X58420000Y26670000D03*
D20*
%TO.P,R3,2*%
%TO.N,Net-(R3-Pad2)*%
X58420000Y24765000D03*
%TD*%
D21*
%TO.P,R5,1*%
%TO.N,Net-(BT1-Pad2)*%
X55880000Y19685000D03*
D22*
%TO.P,R5,2*%
%TO.N,Net-(R5-Pad2)*%
X57785000Y19685000D03*
%TD*%
D21*
%TO.P,R7,1*%
%TO.N,Net-(BT1-Pad2)*%
X55880000Y13970000D03*
D22*
%TO.P,R7,2*%
%TO.N,Net-(R7-Pad2)*%
X57785000Y13970000D03*
%TD*%
D17*
%TO.P,BT3,1*%
%TO.N,Net-(BT3-Pad1)*%
X15875000Y36170000D03*
D18*
%TO.P,BT3,2*%
%TO.N,Net-(BT2-Pad1)*%
X15875000Y4470000D03*
%TD*%
D17*
%TO.P,BT1,1*%
%TO.N,Net-(BT1-Pad1)*%
X43815000Y4470000D03*
D18*
%TO.P,BT1,2*%
%TO.N,Net-(BT1-Pad2)*%
X43815000Y36170000D03*
%TD*%
D19*
%TO.P,R1,1*%
%TO.N,Net-(BT1-Pad2)*%
X55880000Y24765000D03*
D20*
%TO.P,R1,2*%
%TO.N,Net-(R1-Pad2)*%
X55880000Y26670000D03*
%TD*%
D23*
%TO.N,Net-(BT1-Pad2)*%
X50165000Y32385000D03*
%TO.N,Net-(BT2-Pad1)*%
X29845000Y12065000D03*
%TO.N,Net-(BT3-Pad1)*%
X43180000Y16510000D03*
X43180000Y22225000D03*
X43180000Y27305000D03*
X44450000Y11430000D03*
%TD*%
D24*
%TO.N,Net-(BT1-Pad2)*%
X58169500Y26670000D02*
X58420000Y26670000D01*
X50165000Y32385000D02*
X50800000Y31750000D01*
X50800000Y31750000D02*
X50800000Y24765000D01*
X55880000Y24765000D02*
X50800000Y24765000D01*
X50800000Y19685000D02*
X50800000Y14605000D01*
X55880000Y19685000D02*
X50800000Y19685000D01*
X56264500Y24765000D02*
X58169500Y26670000D01*
X51435000Y13970000D02*
X55880000Y13970000D01*
X55880000Y24765000D02*
X56264500Y24765000D01*
X50800000Y24765000D02*
X50800000Y19685000D01*
X50800000Y14605000D02*
X51435000Y13970000D01*
D25*
%TO.N,Net-(BT2-Pad1)*%
X29845000Y12065000D02*
X29845000Y36170000D01*
%TO.N,Net-(BT3-Pad1)*%
X43180000Y12700000D02*
X44450000Y11430000D01*
X43180000Y16510000D02*
X43180000Y12700000D01*
X43180000Y27305000D02*
X43180000Y22225000D01*
X43180000Y22225000D02*
X43180000Y16510000D01*
D24*
%TO.N,Net-(R1-Pad2)*%
X55880000Y26670000D02*
X57785000Y28575000D01*
%TO.N,Net-(R3-Pad2)*%
X57785000Y24130000D02*
X58420000Y24765000D01*
X57785000Y22860000D02*
X57785000Y24130000D01*
%TO.N,Net-(R5-Pad2)*%
X57785000Y19685000D02*
X57785000Y17145000D01*
%TO.N,Net-(R7-Pad2)*%
X57785000Y11430000D02*
X57785000Y13970000D01*
%TD*%
%TA.AperFunction,Conductor*%
%TO.N,GND*%
G36*
X60547621Y40265498D02*
G01*
X60594114Y40211842D01*
X60605500Y40159500D01*
X60605500Y480500D01*
X60585498Y412379D01*
X60531842Y365886D01*
X60479500Y354500D01*
X480500Y354500D01*
X412379Y374502D01*
X365886Y428158D01*
X354500Y480500D01*
X354500Y4470000D01*
X14111569Y4470000D01*
X14131265Y4207174D01*
X14131265Y4207169D01*
X14131266Y4207169D01*
X14189911Y3950224D01*
X14286202Y3704879D01*
X14286205Y3704871D01*
X14417982Y3476627D01*
X14582315Y3270561D01*
X14775520Y3091293D01*
X14775525Y3091289D01*
X14993275Y2942829D01*
X14993283Y2942825D01*
X15230742Y2828469D01*
X15230754Y2828464D01*
X15482589Y2750784D01*
X15482598Y2750782D01*
X15482600Y2750782D01*
X15743219Y2711500D01*
X15743223Y2711500D01*
X16006777Y2711500D01*
X16006781Y2711500D01*
X16267400Y2750782D01*
X16267402Y2750782D01*
X16267410Y2750784D01*
X16519245Y2828464D01*
X16519257Y2828469D01*
X16756718Y2942825D01*
X16756725Y2942829D01*
X16974474Y3091289D01*
X16974475Y3091290D01*
X16974481Y3091294D01*
X17167686Y3270562D01*
X17332015Y3476624D01*
X17342899Y3495475D01*
X17463794Y3704871D01*
X17463797Y3704879D01*
X17560087Y3950220D01*
X17618735Y4207174D01*
X17638431Y4470000D01*
X28081569Y4470000D01*
X28101265Y4207174D01*
X28101265Y4207169D01*
X28101266Y4207169D01*
X28159911Y3950224D01*
X28256202Y3704879D01*
X28256205Y3704871D01*
X28387982Y3476627D01*
X28552315Y3270561D01*
X28745520Y3091293D01*
X28745525Y3091289D01*
X28963275Y2942829D01*
X28963283Y2942825D01*
X29200742Y2828469D01*
X29200754Y2828464D01*
X29452589Y2750784D01*
X29452598Y2750782D01*
X29452600Y2750782D01*
X29713219Y2711500D01*
X29713223Y2711500D01*
X29976777Y2711500D01*
X29976781Y2711500D01*
X30237400Y2750782D01*
X30237402Y2750782D01*
X30237410Y2750784D01*
X30489245Y2828464D01*
X30489257Y2828469D01*
X30726718Y2942825D01*
X30726725Y2942829D01*
X30944474Y3091289D01*
X30944475Y3091290D01*
X30944481Y3091294D01*
X31137686Y3270562D01*
X31302015Y3476624D01*
X31312899Y3495475D01*
X31433794Y3704871D01*
X31433797Y3704879D01*
X31530087Y3950220D01*
X31588735Y4207174D01*
X31608431Y4470000D01*
X31588735Y4732826D01*
X31530087Y4989780D01*
X31433796Y5235124D01*
X31302015Y5463376D01*
X31138315Y5668649D01*
X42156500Y5668649D01*
X42156500Y3271350D01*
X42163009Y3210803D01*
X42163011Y3210795D01*
X42214110Y3073797D01*
X42214112Y3073792D01*
X42301738Y2956738D01*
X42418792Y2869112D01*
X42418797Y2869110D01*
X42555795Y2818011D01*
X42555803Y2818009D01*
X42616350Y2811500D01*
X42616362Y2811500D01*
X45013649Y2811500D01*
X45074196Y2818009D01*
X45074204Y2818011D01*
X45211202Y2869110D01*
X45211207Y2869112D01*
X45328261Y2956738D01*
X45415887Y3073792D01*
X45415889Y3073797D01*
X45422414Y3091289D01*
X45466989Y3210799D01*
X45466990Y3210803D01*
X45473499Y3271350D01*
X45473500Y3271367D01*
X45473500Y3380861D01*
X45493502Y3448982D01*
X45547158Y3495475D01*
X45599500Y3506861D01*
X47780404Y3506861D01*
X47780404Y6357671D01*
X44929595Y6357671D01*
X44929595Y6254500D01*
X44909593Y6186379D01*
X44855937Y6139886D01*
X44803595Y6128500D01*
X42616362Y6128500D01*
X42616355Y6128499D01*
X42616350Y6128499D01*
X42555803Y6121990D01*
X42555795Y6121988D01*
X42477875Y6092924D01*
X42418796Y6070889D01*
X42418794Y6070888D01*
X42418792Y6070887D01*
X42301738Y5983261D01*
X42214112Y5866207D01*
X42214110Y5866202D01*
X42163011Y5729204D01*
X42163009Y5729196D01*
X42156500Y5668649D01*
X31138315Y5668649D01*
X31137686Y5669438D01*
X30944481Y5848706D01*
X30726716Y5997176D01*
X30489254Y6111532D01*
X30489247Y6111534D01*
X30489245Y6111535D01*
X30237410Y6189215D01*
X30237409Y6189215D01*
X30237400Y6189218D01*
X29976781Y6228500D01*
X29713219Y6228500D01*
X29452600Y6189218D01*
X29452591Y6189215D01*
X29452589Y6189215D01*
X29200754Y6111535D01*
X29200749Y6111532D01*
X29200746Y6111532D01*
X28963285Y5997176D01*
X28963279Y5997172D01*
X28963275Y5997170D01*
X28771188Y5866207D01*
X28745519Y5848706D01*
X28552314Y5669438D01*
X28387985Y5463376D01*
X28387982Y5463372D01*
X28256205Y5235128D01*
X28256202Y5235120D01*
X28159911Y4989775D01*
X28106662Y4756472D01*
X28101265Y4732826D01*
X28081569Y4470000D01*
X17638431Y4470000D01*
X17618735Y4732826D01*
X17560087Y4989780D01*
X17463796Y5235124D01*
X17332015Y5463376D01*
X17167686Y5669438D01*
X16974481Y5848706D01*
X16756716Y5997176D01*
X16519254Y6111532D01*
X16519247Y6111534D01*
X16519245Y6111535D01*
X16267410Y6189215D01*
X16267409Y6189215D01*
X16267400Y6189218D01*
X16006781Y6228500D01*
X15743219Y6228500D01*
X15482600Y6189218D01*
X15482591Y6189215D01*
X15482589Y6189215D01*
X15230754Y6111535D01*
X15230749Y6111532D01*
X15230746Y6111532D01*
X14993285Y5997176D01*
X14993279Y5997172D01*
X14993275Y5997170D01*
X14801188Y5866207D01*
X14775519Y5848706D01*
X14582314Y5669438D01*
X14417985Y5463376D01*
X14417982Y5463372D01*
X14286205Y5235128D01*
X14286202Y5235120D01*
X14189911Y4989775D01*
X14136662Y4756472D01*
X14131265Y4732826D01*
X14111569Y4470000D01*
X354500Y4470000D01*
X354500Y9450327D01*
X2489369Y9450327D01*
X12606089Y9450327D01*
X12606089Y12283015D01*
X2489369Y12283015D01*
X2489369Y9450327D01*
X354500Y9450327D01*
X354500Y24305649D01*
X2539500Y24305649D01*
X2539500Y22684350D01*
X2546009Y22623803D01*
X2546011Y22623795D01*
X2597110Y22486797D01*
X2597112Y22486792D01*
X2684739Y22369738D01*
X2743343Y22325867D01*
X2785889Y22269031D01*
X2790953Y22198216D01*
X2756928Y22135904D01*
X2743343Y22124133D01*
X2684739Y22080261D01*
X2597112Y21963207D01*
X2597110Y21963202D01*
X2546011Y21826204D01*
X2546009Y21826196D01*
X2539500Y21765649D01*
X2539500Y20144350D01*
X2546009Y20083803D01*
X2546011Y20083795D01*
X2597110Y19946797D01*
X2597112Y19946792D01*
X2684738Y19829738D01*
X2801792Y19742112D01*
X2801797Y19742110D01*
X2938795Y19691011D01*
X2938803Y19691009D01*
X2999350Y19684500D01*
X2999362Y19684500D01*
X4620649Y19684500D01*
X4681196Y19691009D01*
X4681204Y19691011D01*
X4818202Y19742110D01*
X4818207Y19742112D01*
X4935261Y19829739D01*
X4979133Y19888343D01*
X5035969Y19930889D01*
X5106784Y19935953D01*
X5169096Y19901928D01*
X5180867Y19888343D01*
X5224738Y19829739D01*
X5341792Y19742112D01*
X5341797Y19742110D01*
X5478795Y19691011D01*
X5478803Y19691009D01*
X5539350Y19684500D01*
X5539362Y19684500D01*
X7160649Y19684500D01*
X7221196Y19691009D01*
X7221204Y19691011D01*
X7358202Y19742110D01*
X7358207Y19742112D01*
X7475261Y19829738D01*
X7562887Y19946792D01*
X7562889Y19946797D01*
X7613988Y20083795D01*
X7613990Y20083803D01*
X7620499Y20144350D01*
X7620500Y20144367D01*
X7620500Y21765632D01*
X7620499Y21765649D01*
X7613990Y21826196D01*
X7613988Y21826204D01*
X7580749Y21915319D01*
X7562889Y21963204D01*
X7475261Y22080261D01*
X7416657Y22124132D01*
X7374110Y22180968D01*
X7369046Y22251784D01*
X7403071Y22314096D01*
X7416657Y22325868D01*
X7475261Y22369738D01*
X7562887Y22486792D01*
X7562889Y22486797D01*
X7613988Y22623795D01*
X7613990Y22623803D01*
X7620499Y22684350D01*
X7620500Y22684367D01*
X7620500Y24305632D01*
X7620499Y24305649D01*
X7613990Y24366196D01*
X7613988Y24366204D01*
X7606960Y24385045D01*
X7562889Y24503204D01*
X7475261Y24620261D01*
X7358204Y24707889D01*
X7221201Y24758989D01*
X7221199Y24758989D01*
X7221196Y24758990D01*
X7160649Y24765499D01*
X7160645Y24765499D01*
X7160638Y24765500D01*
X5539362Y24765500D01*
X5539355Y24765499D01*
X5539350Y24765499D01*
X5478803Y24758990D01*
X5478795Y24758988D01*
X5400875Y24729924D01*
X5341796Y24707889D01*
X5341794Y24707888D01*
X5341792Y24707887D01*
X5224738Y24620261D01*
X5180868Y24561657D01*
X5124032Y24519110D01*
X5053216Y24514046D01*
X4990904Y24548071D01*
X4979132Y24561657D01*
X4935261Y24620261D01*
X4818207Y24707887D01*
X4818206Y24707887D01*
X4818204Y24707889D01*
X4681201Y24758989D01*
X4681199Y24758989D01*
X4681196Y24758990D01*
X4620649Y24765499D01*
X4620645Y24765499D01*
X4620638Y24765500D01*
X2999362Y24765500D01*
X2999355Y24765499D01*
X2999350Y24765499D01*
X2938803Y24758990D01*
X2938795Y24758988D01*
X2860875Y24729924D01*
X2801796Y24707889D01*
X2801794Y24707888D01*
X2801792Y24707887D01*
X2684738Y24620261D01*
X2597112Y24503207D01*
X2597110Y24503202D01*
X2546011Y24366204D01*
X2546009Y24366196D01*
X2539500Y24305649D01*
X354500Y24305649D01*
X354500Y37368649D01*
X14216500Y37368649D01*
X14216500Y34971350D01*
X14223009Y34910803D01*
X14223011Y34910795D01*
X14274110Y34773797D01*
X14274112Y34773792D01*
X14361738Y34656738D01*
X14478792Y34569112D01*
X14478797Y34569110D01*
X14615795Y34518011D01*
X14615803Y34518009D01*
X14676350Y34511500D01*
X14676362Y34511500D01*
X17073649Y34511500D01*
X17134196Y34518009D01*
X17134204Y34518011D01*
X17271202Y34569110D01*
X17271207Y34569112D01*
X17308098Y34596729D01*
X17374618Y34621540D01*
X17383607Y34621861D01*
X19840404Y34621861D01*
X19840404Y37368649D01*
X28186500Y37368649D01*
X28186500Y34971350D01*
X28193009Y34910803D01*
X28193011Y34910795D01*
X28244110Y34773797D01*
X28244112Y34773792D01*
X28331738Y34656738D01*
X28448792Y34569112D01*
X28448797Y34569110D01*
X28585795Y34518011D01*
X28585803Y34518009D01*
X28646350Y34511500D01*
X28646362Y34511500D01*
X28710500Y34511500D01*
X28778621Y34491498D01*
X28825114Y34437842D01*
X28836500Y34385500D01*
X28836500Y11965668D01*
X28875256Y11770830D01*
X28875258Y11770825D01*
X28951279Y11587296D01*
X29061644Y11422123D01*
X29061649Y11422116D01*
X29202116Y11281649D01*
X29202123Y11281644D01*
X29367296Y11171279D01*
X29550825Y11095258D01*
X29550830Y11095256D01*
X29745668Y11056500D01*
X29745671Y11056500D01*
X29944331Y11056500D01*
X30139169Y11095256D01*
X30139174Y11095258D01*
X30237125Y11135831D01*
X30322704Y11171279D01*
X30487881Y11281647D01*
X30628353Y11422119D01*
X30738721Y11587296D01*
X30814744Y11770831D01*
X30853500Y11965671D01*
X30853500Y28020000D01*
X35316835Y28020000D01*
X35335465Y27783289D01*
X35390894Y27552407D01*
X35481759Y27333038D01*
X35605825Y27130582D01*
X35605826Y27130580D01*
X35760030Y26950030D01*
X35940580Y26795826D01*
X35940582Y26795825D01*
X36143038Y26671759D01*
X36362407Y26580894D01*
X36593289Y26525465D01*
X36830000Y26506835D01*
X37066711Y26525465D01*
X37139651Y26542976D01*
X37297592Y26580894D01*
X37516961Y26671759D01*
X37516963Y26671760D01*
X37719416Y26795824D01*
X37719417Y26795825D01*
X37719419Y26795826D01*
X37899969Y26950030D01*
X38054173Y27130580D01*
X38054174Y27130582D01*
X38054176Y27130584D01*
X38178240Y27333037D01*
X38207771Y27404331D01*
X42171500Y27404331D01*
X42171500Y12600668D01*
X42210256Y12405830D01*
X42210258Y12405825D01*
X42223161Y12374676D01*
X42261128Y12283015D01*
X42286122Y12222676D01*
X42286280Y12222294D01*
X42396644Y12057123D01*
X42396649Y12057116D01*
X43807116Y10646649D01*
X43807123Y10646644D01*
X43972296Y10536279D01*
X44155825Y10460258D01*
X44155830Y10460256D01*
X44350668Y10421500D01*
X44350671Y10421500D01*
X44549331Y10421500D01*
X44744168Y10460256D01*
X44744173Y10460258D01*
X44804668Y10485316D01*
X44927704Y10536279D01*
X45092881Y10646647D01*
X45233353Y10787119D01*
X45343721Y10952296D01*
X45419744Y11135832D01*
X45458500Y11330671D01*
X45458500Y11529329D01*
X45419744Y11724169D01*
X45343721Y11907704D01*
X45233353Y12072881D01*
X44225405Y13080829D01*
X44191379Y13143141D01*
X44188500Y13169924D01*
X44188500Y27404327D01*
X44188500Y27404329D01*
X44149744Y27599169D01*
X44073721Y27782704D01*
X43963353Y27947881D01*
X43822881Y28088353D01*
X43657704Y28198721D01*
X43474169Y28274744D01*
X43279329Y28313500D01*
X43080671Y28313500D01*
X42885831Y28274744D01*
X42702296Y28198721D01*
X42537119Y28088353D01*
X42396647Y27947881D01*
X42286279Y27782704D01*
X42281817Y27771932D01*
X42210258Y27599174D01*
X42210256Y27599169D01*
X42171500Y27404331D01*
X38207771Y27404331D01*
X38269105Y27552406D01*
X38324535Y27783289D01*
X38343165Y28020000D01*
X38324535Y28256711D01*
X38269105Y28487594D01*
X38178240Y28706963D01*
X38054176Y28909416D01*
X37899969Y29089969D01*
X37719416Y29244176D01*
X37516963Y29368240D01*
X37297594Y29459105D01*
X37066711Y29514535D01*
X36830000Y29533165D01*
X36593289Y29514535D01*
X36362406Y29459105D01*
X36143037Y29368240D01*
X35940584Y29244176D01*
X35940582Y29244174D01*
X35940580Y29244173D01*
X35760030Y29089969D01*
X35605826Y28909419D01*
X35605825Y28909417D01*
X35481759Y28706961D01*
X35390894Y28487592D01*
X35360468Y28360858D01*
X35339795Y28274744D01*
X35335465Y28256710D01*
X35316835Y28020000D01*
X30853500Y28020000D01*
X30853500Y34068649D01*
X35321500Y34068649D01*
X35321500Y31971350D01*
X35328009Y31910803D01*
X35328011Y31910795D01*
X35379110Y31773797D01*
X35379112Y31773792D01*
X35466738Y31656738D01*
X35583792Y31569112D01*
X35583797Y31569110D01*
X35720795Y31518011D01*
X35720803Y31518009D01*
X35781350Y31511500D01*
X35781362Y31511500D01*
X37878649Y31511500D01*
X37939196Y31518009D01*
X37939204Y31518011D01*
X38076202Y31569110D01*
X38076207Y31569112D01*
X38193261Y31656738D01*
X38280887Y31773792D01*
X38280889Y31773797D01*
X38297466Y31818239D01*
X38305388Y31839479D01*
X38331988Y31910795D01*
X38331990Y31910803D01*
X38338499Y31971350D01*
X38338500Y31971367D01*
X38338500Y32384999D01*
X49251496Y32384999D01*
X49255810Y32343954D01*
X49256500Y32330784D01*
X49256500Y32295514D01*
X49264702Y32254282D01*
X49266432Y32242876D01*
X49271457Y32195074D01*
X49271458Y32195068D01*
X49282111Y32162283D01*
X49285855Y32147937D01*
X49291413Y32120001D01*
X49291415Y32119992D01*
X49310105Y32074869D01*
X49313527Y32065593D01*
X49330471Y32013446D01*
X49330473Y32013443D01*
X49344312Y31989471D01*
X49351597Y31974698D01*
X49359894Y31954667D01*
X49359897Y31954662D01*
X49390800Y31908412D01*
X49395152Y31901415D01*
X49425961Y31848054D01*
X49439932Y31832537D01*
X49451053Y31818239D01*
X49459320Y31805867D01*
X49459325Y31805861D01*
X49503444Y31761742D01*
X49507984Y31756958D01*
X49553746Y31706134D01*
X49565132Y31697861D01*
X49580159Y31685026D01*
X49854595Y31410591D01*
X49888620Y31348278D01*
X49891500Y31321495D01*
X49891500Y14515518D01*
X49926413Y14339999D01*
X49926415Y14339994D01*
X49994897Y14174664D01*
X50094321Y14025865D01*
X50094326Y14025859D01*
X50855859Y13264326D01*
X50855865Y13264321D01*
X51004664Y13164897D01*
X51121572Y13116472D01*
X51169997Y13096414D01*
X51170000Y13096413D01*
X51345518Y13061500D01*
X51345521Y13061500D01*
X51524480Y13061500D01*
X54888315Y13061500D01*
X54956436Y13041498D01*
X54989183Y13011009D01*
X55067239Y12906737D01*
X55113114Y12872396D01*
X55155660Y12815560D01*
X55160724Y12744745D01*
X55126699Y12682433D01*
X55064386Y12648408D01*
X55048594Y12646009D01*
X55030858Y12644458D01*
X54823223Y12588822D01*
X54628404Y12497976D01*
X54628400Y12497974D01*
X54452323Y12374685D01*
X54452313Y12374676D01*
X54300323Y12222686D01*
X54300314Y12222676D01*
X54177025Y12046599D01*
X54177024Y12046596D01*
X54112258Y11907704D01*
X54089195Y11858246D01*
X54042278Y11804961D01*
X53974000Y11785500D01*
X53906041Y11806042D01*
X53860805Y11858246D01*
X53837743Y11907703D01*
X53772976Y12046596D01*
X53649681Y12222681D01*
X53497681Y12374681D01*
X53321597Y12497976D01*
X53126777Y12588822D01*
X52919142Y12644458D01*
X52705000Y12663193D01*
X52490858Y12644458D01*
X52283223Y12588822D01*
X52088404Y12497976D01*
X52088400Y12497974D01*
X51912323Y12374685D01*
X51912313Y12374676D01*
X51760323Y12222686D01*
X51760314Y12222676D01*
X51637025Y12046599D01*
X51546179Y11851779D01*
X51546177Y11851774D01*
X51490542Y11644141D01*
X51471807Y11430000D01*
X51490542Y11215858D01*
X51546177Y11008225D01*
X51546179Y11008219D01*
X51637024Y10813402D01*
X51760316Y10637322D01*
X51760321Y10637316D01*
X51912316Y10485321D01*
X51912322Y10485316D01*
X52088402Y10362024D01*
X52283219Y10271179D01*
X52283225Y10271177D01*
X52490858Y10215542D01*
X52705000Y10196807D01*
X52919142Y10215542D01*
X53039019Y10247663D01*
X53126774Y10271177D01*
X53126780Y10271179D01*
X53321597Y10362024D01*
X53497677Y10485316D01*
X53497683Y10485321D01*
X53649678Y10637316D01*
X53649681Y10637319D01*
X53772976Y10813403D01*
X53860805Y11001753D01*
X53907722Y11055038D01*
X53976000Y11074499D01*
X54043959Y11053957D01*
X54089195Y11001753D01*
X54177024Y10813402D01*
X54300316Y10637322D01*
X54300321Y10637316D01*
X54452316Y10485321D01*
X54452322Y10485316D01*
X54628402Y10362024D01*
X54823219Y10271179D01*
X54823225Y10271177D01*
X55030858Y10215542D01*
X55245000Y10196807D01*
X55459142Y10215542D01*
X55579019Y10247663D01*
X55666774Y10271177D01*
X55666780Y10271179D01*
X55861597Y10362024D01*
X56037677Y10485316D01*
X56037683Y10485321D01*
X56189678Y10637316D01*
X56189681Y10637319D01*
X56312976Y10813403D01*
X56400805Y11001753D01*
X56447722Y11055038D01*
X56516000Y11074499D01*
X56583959Y11053957D01*
X56629195Y11001753D01*
X56717024Y10813402D01*
X56840316Y10637322D01*
X56840321Y10637316D01*
X56992316Y10485321D01*
X56992322Y10485316D01*
X57168402Y10362024D01*
X57363219Y10271179D01*
X57363225Y10271177D01*
X57570858Y10215542D01*
X57785000Y10196807D01*
X57999142Y10215542D01*
X58119019Y10247663D01*
X58206774Y10271177D01*
X58206780Y10271179D01*
X58401597Y10362024D01*
X58577677Y10485316D01*
X58577683Y10485321D01*
X58729678Y10637316D01*
X58729681Y10637319D01*
X58852976Y10813403D01*
X58943822Y11008223D01*
X58999458Y11215858D01*
X59018193Y11430000D01*
X58999458Y11644142D01*
X58943822Y11851777D01*
X58852976Y12046596D01*
X58729681Y12222681D01*
X58729679Y12222682D01*
X58726146Y12226894D01*
X58727221Y12227796D01*
X58696384Y12284249D01*
X58693500Y12311052D01*
X58693500Y13036213D01*
X58701444Y13080245D01*
X58714956Y13116472D01*
X58731489Y13160799D01*
X58738000Y13221362D01*
X58738000Y14718638D01*
X58731489Y14779201D01*
X58680389Y14916204D01*
X58665982Y14935449D01*
X58592761Y15033261D01*
X58475707Y15120887D01*
X58475706Y15120887D01*
X58475704Y15120889D01*
X58338701Y15171989D01*
X58338699Y15171989D01*
X58338696Y15171990D01*
X58278149Y15178499D01*
X58278145Y15178499D01*
X58278138Y15178500D01*
X57291862Y15178500D01*
X57291855Y15178499D01*
X57291850Y15178499D01*
X57231303Y15171990D01*
X57231295Y15171988D01*
X57153375Y15142924D01*
X57094296Y15120889D01*
X57094294Y15120888D01*
X57094292Y15120887D01*
X56977238Y15033261D01*
X56935868Y14977996D01*
X56879033Y14935449D01*
X56808217Y14930384D01*
X56745905Y14964409D01*
X56734132Y14977996D01*
X56692761Y15033261D01*
X56575707Y15120887D01*
X56575706Y15120887D01*
X56575704Y15120889D01*
X56438701Y15171989D01*
X56438699Y15171989D01*
X56438696Y15171990D01*
X56378149Y15178499D01*
X56378145Y15178499D01*
X56378138Y15178500D01*
X55381862Y15178500D01*
X55381855Y15178499D01*
X55381850Y15178499D01*
X55321303Y15171990D01*
X55321295Y15171988D01*
X55243375Y15142924D01*
X55184296Y15120889D01*
X55184294Y15120888D01*
X55184292Y15120887D01*
X55067238Y15033261D01*
X54989183Y14928991D01*
X54932347Y14886444D01*
X54888315Y14878500D01*
X51863503Y14878500D01*
X51795382Y14898502D01*
X51774408Y14915405D01*
X51745405Y14944408D01*
X51711379Y15006720D01*
X51708500Y15033503D01*
X51708500Y16101135D01*
X51728502Y16169256D01*
X51782158Y16215749D01*
X51852432Y16225853D01*
X51906544Y16201663D01*
X51907813Y16203474D01*
X52088402Y16077024D01*
X52283219Y15986179D01*
X52283225Y15986177D01*
X52490858Y15930542D01*
X52705000Y15911807D01*
X52919142Y15930542D01*
X53039019Y15962663D01*
X53126774Y15986177D01*
X53126780Y15986179D01*
X53321597Y16077024D01*
X53497677Y16200316D01*
X53497683Y16200321D01*
X53649678Y16352316D01*
X53649681Y16352319D01*
X53772976Y16528403D01*
X53860805Y16716753D01*
X53907722Y16770038D01*
X53976000Y16789499D01*
X54043959Y16768957D01*
X54089195Y16716753D01*
X54177024Y16528402D01*
X54300316Y16352322D01*
X54300321Y16352316D01*
X54452316Y16200321D01*
X54452322Y16200316D01*
X54628402Y16077024D01*
X54823219Y15986179D01*
X54823225Y15986177D01*
X55030858Y15930542D01*
X55245000Y15911807D01*
X55459142Y15930542D01*
X55579019Y15962663D01*
X55666774Y15986177D01*
X55666780Y15986179D01*
X55861597Y16077024D01*
X56037677Y16200316D01*
X56037683Y16200321D01*
X56189678Y16352316D01*
X56189681Y16352319D01*
X56312976Y16528403D01*
X56400805Y16716753D01*
X56447722Y16770038D01*
X56516000Y16789499D01*
X56583959Y16768957D01*
X56629195Y16716753D01*
X56717024Y16528402D01*
X56840316Y16352322D01*
X56840321Y16352316D01*
X56992316Y16200321D01*
X56992322Y16200316D01*
X57168402Y16077024D01*
X57363219Y15986179D01*
X57363225Y15986177D01*
X57570858Y15930542D01*
X57785000Y15911807D01*
X57999142Y15930542D01*
X58119019Y15962663D01*
X58206774Y15986177D01*
X58206780Y15986179D01*
X58401597Y16077024D01*
X58577677Y16200316D01*
X58577683Y16200321D01*
X58729678Y16352316D01*
X58729681Y16352319D01*
X58852976Y16528403D01*
X58943822Y16723223D01*
X58999458Y16930858D01*
X59018193Y17145000D01*
X58999458Y17359142D01*
X58943822Y17566777D01*
X58852976Y17761596D01*
X58729681Y17937681D01*
X58729679Y17937682D01*
X58726146Y17941894D01*
X58727221Y17942796D01*
X58696384Y17999249D01*
X58693500Y18026052D01*
X58693500Y18751213D01*
X58701444Y18795245D01*
X58731489Y18875800D01*
X58731490Y18875804D01*
X58737999Y18936350D01*
X58738000Y18936367D01*
X58738000Y20433632D01*
X58737999Y20433649D01*
X58731490Y20494196D01*
X58731488Y20494204D01*
X58694452Y20593500D01*
X58680389Y20631204D01*
X58665982Y20650449D01*
X58592761Y20748261D01*
X58475707Y20835887D01*
X58475706Y20835887D01*
X58475704Y20835889D01*
X58338701Y20886989D01*
X58338699Y20886989D01*
X58338696Y20886990D01*
X58278149Y20893499D01*
X58278145Y20893499D01*
X58278138Y20893500D01*
X57291862Y20893500D01*
X57291855Y20893499D01*
X57291850Y20893499D01*
X57231303Y20886990D01*
X57231295Y20886988D01*
X57153375Y20857924D01*
X57094296Y20835889D01*
X57094294Y20835888D01*
X57094292Y20835887D01*
X56977238Y20748261D01*
X56935868Y20692996D01*
X56879033Y20650449D01*
X56808217Y20645384D01*
X56745905Y20679409D01*
X56734132Y20692996D01*
X56692761Y20748261D01*
X56575707Y20835887D01*
X56575706Y20835887D01*
X56575704Y20835889D01*
X56438701Y20886989D01*
X56438699Y20886989D01*
X56438696Y20886990D01*
X56378149Y20893499D01*
X56378145Y20893499D01*
X56378138Y20893500D01*
X55381862Y20893500D01*
X55381855Y20893499D01*
X55381850Y20893499D01*
X55321303Y20886990D01*
X55321295Y20886988D01*
X55243375Y20857924D01*
X55184296Y20835889D01*
X55184294Y20835888D01*
X55184292Y20835887D01*
X55067238Y20748261D01*
X54989183Y20643991D01*
X54932347Y20601444D01*
X54888315Y20593500D01*
X51834500Y20593500D01*
X51766379Y20613502D01*
X51719886Y20667158D01*
X51708500Y20719500D01*
X51708500Y21816135D01*
X51728502Y21884256D01*
X51782158Y21930749D01*
X51852432Y21940853D01*
X51906544Y21916663D01*
X51907813Y21918474D01*
X52088402Y21792024D01*
X52283219Y21701179D01*
X52283225Y21701177D01*
X52490858Y21645542D01*
X52705000Y21626807D01*
X52919142Y21645542D01*
X53039019Y21677663D01*
X53126774Y21701177D01*
X53126780Y21701179D01*
X53321597Y21792024D01*
X53497677Y21915316D01*
X53497683Y21915321D01*
X53649678Y22067316D01*
X53649681Y22067319D01*
X53772976Y22243403D01*
X53860805Y22431753D01*
X53907722Y22485038D01*
X53976000Y22504499D01*
X54043959Y22483957D01*
X54089195Y22431753D01*
X54177024Y22243402D01*
X54300316Y22067322D01*
X54300321Y22067316D01*
X54452316Y21915321D01*
X54452322Y21915316D01*
X54628402Y21792024D01*
X54823219Y21701179D01*
X54823225Y21701177D01*
X55030858Y21645542D01*
X55245000Y21626807D01*
X55459142Y21645542D01*
X55579019Y21677663D01*
X55666774Y21701177D01*
X55666780Y21701179D01*
X55861597Y21792024D01*
X56037677Y21915316D01*
X56037683Y21915321D01*
X56189678Y22067316D01*
X56189681Y22067319D01*
X56312976Y22243403D01*
X56400805Y22431753D01*
X56447722Y22485038D01*
X56516000Y22504499D01*
X56583959Y22483957D01*
X56629195Y22431753D01*
X56717024Y22243402D01*
X56840316Y22067322D01*
X56840321Y22067316D01*
X56992316Y21915321D01*
X56992322Y21915316D01*
X57168402Y21792024D01*
X57363219Y21701179D01*
X57363225Y21701177D01*
X57570858Y21645542D01*
X57785000Y21626807D01*
X57999142Y21645542D01*
X58119019Y21677663D01*
X58206774Y21701177D01*
X58206780Y21701179D01*
X58401597Y21792024D01*
X58577677Y21915316D01*
X58577683Y21915321D01*
X58729678Y22067316D01*
X58729681Y22067319D01*
X58852976Y22243403D01*
X58943822Y22438223D01*
X58999458Y22645858D01*
X59018193Y22860000D01*
X58999458Y23074142D01*
X58943822Y23281777D01*
X58852976Y23476596D01*
X58756955Y23613730D01*
X58734267Y23681004D01*
X58751552Y23749864D01*
X58803322Y23798448D01*
X58860168Y23812000D01*
X59168649Y23812000D01*
X59229196Y23818509D01*
X59229204Y23818511D01*
X59366202Y23869610D01*
X59366207Y23869612D01*
X59483261Y23957238D01*
X59570887Y24074292D01*
X59570889Y24074297D01*
X59621988Y24211295D01*
X59621990Y24211303D01*
X59628499Y24271850D01*
X59628500Y24271867D01*
X59628500Y25258132D01*
X59628499Y25258149D01*
X59621990Y25318696D01*
X59621988Y25318704D01*
X59614960Y25337545D01*
X59570889Y25455704D01*
X59483261Y25572761D01*
X59427996Y25614132D01*
X59385449Y25670967D01*
X59380384Y25741783D01*
X59414409Y25804095D01*
X59427996Y25815868D01*
X59483261Y25857238D01*
X59570887Y25974292D01*
X59570889Y25974297D01*
X59621988Y26111295D01*
X59621990Y26111303D01*
X59628499Y26171850D01*
X59628500Y26171867D01*
X59628500Y27168132D01*
X59628499Y27168149D01*
X59621990Y27228696D01*
X59621988Y27228704D01*
X59583073Y27333037D01*
X59570889Y27365704D01*
X59483261Y27482761D01*
X59418641Y27531135D01*
X59366207Y27570387D01*
X59366206Y27570387D01*
X59366204Y27570389D01*
X59229201Y27621489D01*
X59229199Y27621489D01*
X59229196Y27621490D01*
X59168649Y27627999D01*
X59168645Y27627999D01*
X59168638Y27628000D01*
X59168632Y27628000D01*
X58863670Y27628000D01*
X58795549Y27648002D01*
X58749056Y27701658D01*
X58738952Y27771932D01*
X58760457Y27826270D01*
X58852974Y27958399D01*
X58913574Y28088355D01*
X58943822Y28153223D01*
X58999458Y28360858D01*
X59018193Y28575000D01*
X58999458Y28789142D01*
X58943822Y28996777D01*
X58852976Y29191596D01*
X58816161Y29244174D01*
X58729685Y29367676D01*
X58729682Y29367679D01*
X58729681Y29367681D01*
X58577681Y29519681D01*
X58401597Y29642976D01*
X58206777Y29733822D01*
X57999142Y29789458D01*
X57785000Y29808193D01*
X57570858Y29789458D01*
X57363223Y29733822D01*
X57168404Y29642976D01*
X57168400Y29642974D01*
X56992323Y29519685D01*
X56992313Y29519676D01*
X56840323Y29367686D01*
X56840314Y29367676D01*
X56717025Y29191599D01*
X56629195Y29003246D01*
X56582278Y28949961D01*
X56514000Y28930500D01*
X56446041Y28951042D01*
X56400805Y29003246D01*
X56312976Y29191596D01*
X56276161Y29244174D01*
X56189685Y29367676D01*
X56189682Y29367679D01*
X56189681Y29367681D01*
X56037681Y29519681D01*
X55861597Y29642976D01*
X55666777Y29733822D01*
X55459142Y29789458D01*
X55245000Y29808193D01*
X55030858Y29789458D01*
X54823223Y29733822D01*
X54628404Y29642976D01*
X54628400Y29642974D01*
X54452323Y29519685D01*
X54452313Y29519676D01*
X54300323Y29367686D01*
X54300314Y29367676D01*
X54177025Y29191599D01*
X54089195Y29003246D01*
X54042278Y28949961D01*
X53974000Y28930500D01*
X53906041Y28951042D01*
X53860805Y29003246D01*
X53772976Y29191596D01*
X53736161Y29244174D01*
X53649685Y29367676D01*
X53649682Y29367679D01*
X53649681Y29367681D01*
X53497681Y29519681D01*
X53321597Y29642976D01*
X53126777Y29733822D01*
X52919142Y29789458D01*
X52705000Y29808193D01*
X52490858Y29789458D01*
X52283223Y29733822D01*
X52088404Y29642976D01*
X52088400Y29642974D01*
X51907812Y29516526D01*
X51906490Y29518413D01*
X51850497Y29493884D01*
X51780388Y29505075D01*
X51727459Y29552394D01*
X51708500Y29618864D01*
X51708500Y31839477D01*
X51708500Y31839479D01*
X51673587Y32015000D01*
X51653528Y32063425D01*
X51650680Y32070300D01*
X51644072Y32086253D01*
X51605103Y32180336D01*
X51505678Y32329135D01*
X50826529Y33008282D01*
X50822044Y33013008D01*
X50776253Y33063866D01*
X50764868Y33072136D01*
X50749840Y33084971D01*
X50744135Y33090678D01*
X50686589Y33129127D01*
X50682602Y33131906D01*
X50621752Y33176118D01*
X50615133Y33179065D01*
X50596365Y33189415D01*
X50595336Y33190103D01*
X50525073Y33219206D01*
X50522178Y33220450D01*
X50447288Y33253794D01*
X50446886Y33253879D01*
X50436070Y33257246D01*
X50435931Y33256787D01*
X50430008Y33258583D01*
X50430000Y33258587D01*
X50348753Y33274746D01*
X50347391Y33275026D01*
X50260487Y33293500D01*
X50069513Y33293500D01*
X49982607Y33275027D01*
X49981244Y33274746D01*
X49930271Y33264608D01*
X49900003Y33258588D01*
X49894074Y33256789D01*
X49893936Y33257242D01*
X49883113Y33253879D01*
X49882712Y33253794D01*
X49882707Y33253792D01*
X49882705Y33253791D01*
X49807847Y33220462D01*
X49804889Y33219191D01*
X49734664Y33190103D01*
X49733620Y33189405D01*
X49714867Y33179065D01*
X49708248Y33176118D01*
X49647421Y33131924D01*
X49643399Y33129121D01*
X49585865Y33090678D01*
X49580161Y33084974D01*
X49565128Y33072134D01*
X49558331Y33067196D01*
X49553744Y33063864D01*
X49507984Y33013041D01*
X49503460Y33008273D01*
X49459322Y32964135D01*
X49451056Y32951764D01*
X49439929Y32937458D01*
X49425961Y32921945D01*
X49425958Y32921941D01*
X49395153Y32868587D01*
X49390801Y32861589D01*
X49359898Y32815338D01*
X49359895Y32815333D01*
X49351599Y32795303D01*
X49344307Y32780517D01*
X49330476Y32756563D01*
X49330470Y32756549D01*
X49313529Y32704413D01*
X49310107Y32695137D01*
X49291416Y32650010D01*
X49291411Y32649994D01*
X49285856Y32622067D01*
X49282111Y32607716D01*
X49271459Y32574933D01*
X49271457Y32574925D01*
X49266432Y32527122D01*
X49264702Y32515715D01*
X49256500Y32474483D01*
X49256500Y32439215D01*
X49255810Y32426045D01*
X49251496Y32384999D01*
X38338500Y32384999D01*
X38338500Y34068632D01*
X38338499Y34068649D01*
X38331990Y34129196D01*
X38331988Y34129204D01*
X38324960Y34148045D01*
X38280889Y34266204D01*
X38193261Y34383261D01*
X38103061Y34450784D01*
X38076207Y34470887D01*
X38076206Y34470887D01*
X38076204Y34470889D01*
X37939201Y34521989D01*
X37939199Y34521989D01*
X37939196Y34521990D01*
X37878649Y34528499D01*
X37878645Y34528499D01*
X37878638Y34528500D01*
X35781362Y34528500D01*
X35781355Y34528499D01*
X35781350Y34528499D01*
X35720803Y34521990D01*
X35720795Y34521988D01*
X35662150Y34500114D01*
X35583796Y34470889D01*
X35583794Y34470888D01*
X35583792Y34470887D01*
X35466738Y34383261D01*
X35379112Y34266207D01*
X35379110Y34266202D01*
X35328011Y34129204D01*
X35328009Y34129196D01*
X35321500Y34068649D01*
X30853500Y34068649D01*
X30853500Y34385500D01*
X30873502Y34453621D01*
X30927158Y34500114D01*
X30979500Y34511500D01*
X31043649Y34511500D01*
X31104196Y34518009D01*
X31104204Y34518011D01*
X31241202Y34569110D01*
X31241207Y34569112D01*
X31278098Y34596729D01*
X31344618Y34621540D01*
X31353607Y34621861D01*
X33810404Y34621861D01*
X33810404Y36170000D01*
X42051569Y36170000D01*
X42071265Y35907174D01*
X42071265Y35907169D01*
X42071266Y35907169D01*
X42129911Y35650224D01*
X42226202Y35404879D01*
X42226205Y35404871D01*
X42357982Y35176627D01*
X42522315Y34970561D01*
X42715520Y34791293D01*
X42715525Y34791289D01*
X42933275Y34642829D01*
X42933283Y34642825D01*
X43170742Y34528469D01*
X43170754Y34528464D01*
X43422589Y34450784D01*
X43422598Y34450782D01*
X43422600Y34450782D01*
X43683219Y34411500D01*
X43683223Y34411500D01*
X43946777Y34411500D01*
X43946781Y34411500D01*
X44207400Y34450782D01*
X44207402Y34450782D01*
X44207410Y34450784D01*
X44459245Y34528464D01*
X44459257Y34528469D01*
X44696718Y34642825D01*
X44696725Y34642829D01*
X44914474Y34791289D01*
X44914475Y34791290D01*
X44914481Y34791294D01*
X45107686Y34970562D01*
X45272015Y35176624D01*
X45272017Y35176627D01*
X45403794Y35404871D01*
X45403797Y35404879D01*
X45500087Y35650220D01*
X45558735Y35907174D01*
X45578431Y36170000D01*
X45558735Y36432826D01*
X45500087Y36689780D01*
X45403796Y36935124D01*
X45272015Y37163376D01*
X45107686Y37369438D01*
X44914481Y37548706D01*
X44696716Y37697176D01*
X44459254Y37811532D01*
X44459247Y37811534D01*
X44459245Y37811535D01*
X44207410Y37889215D01*
X44207409Y37889215D01*
X44207400Y37889218D01*
X43946781Y37928500D01*
X43683219Y37928500D01*
X43422600Y37889218D01*
X43422591Y37889215D01*
X43422589Y37889215D01*
X43170754Y37811535D01*
X43170749Y37811532D01*
X43170746Y37811532D01*
X42933285Y37697176D01*
X42933279Y37697172D01*
X42933275Y37697170D01*
X42741190Y37566208D01*
X42715519Y37548706D01*
X42522314Y37369438D01*
X42357985Y37163376D01*
X42357982Y37163372D01*
X42226205Y36935128D01*
X42226202Y36935120D01*
X42129911Y36689775D01*
X42076662Y36456472D01*
X42071265Y36432826D01*
X42051569Y36170000D01*
X33810404Y36170000D01*
X33810404Y37472671D01*
X31568258Y37472671D01*
X31500137Y37492673D01*
X31453644Y37546329D01*
X31450210Y37554616D01*
X31445889Y37566204D01*
X31358261Y37683261D01*
X31339681Y37697170D01*
X31241207Y37770887D01*
X31241206Y37770887D01*
X31241204Y37770889D01*
X31104201Y37821989D01*
X31104199Y37821989D01*
X31104196Y37821990D01*
X31043649Y37828499D01*
X31043645Y37828499D01*
X31043638Y37828500D01*
X28646362Y37828500D01*
X28646355Y37828499D01*
X28646350Y37828499D01*
X28585803Y37821990D01*
X28585795Y37821988D01*
X28507875Y37792924D01*
X28448796Y37770889D01*
X28448794Y37770888D01*
X28448792Y37770887D01*
X28331738Y37683261D01*
X28244112Y37566207D01*
X28244110Y37566202D01*
X28193011Y37429204D01*
X28193009Y37429196D01*
X28186500Y37368649D01*
X19840404Y37368649D01*
X19840404Y37472671D01*
X17598258Y37472671D01*
X17530137Y37492673D01*
X17483644Y37546329D01*
X17480210Y37554616D01*
X17475889Y37566204D01*
X17388261Y37683261D01*
X17369681Y37697170D01*
X17271207Y37770887D01*
X17271206Y37770887D01*
X17271204Y37770889D01*
X17134201Y37821989D01*
X17134199Y37821989D01*
X17134196Y37821990D01*
X17073649Y37828499D01*
X17073645Y37828499D01*
X17073638Y37828500D01*
X14676362Y37828500D01*
X14676355Y37828499D01*
X14676350Y37828499D01*
X14615803Y37821990D01*
X14615795Y37821988D01*
X14537875Y37792924D01*
X14478796Y37770889D01*
X14478794Y37770888D01*
X14478792Y37770887D01*
X14361738Y37683261D01*
X14274112Y37566207D01*
X14274110Y37566202D01*
X14223011Y37429204D01*
X14223009Y37429196D01*
X14216500Y37368649D01*
X354500Y37368649D01*
X354500Y40159500D01*
X374502Y40227621D01*
X428158Y40274114D01*
X480500Y40285500D01*
X60479500Y40285500D01*
X60547621Y40265498D01*
G37*
%TD.AperFunction*%
%TD*%
M02*
