%TF.GenerationSoftware,KiCad,Pcbnew,7.0.11+1*%
%TF.CreationDate,2024-07-04T21:11:31+00:00*%
%TF.ProjectId,SIPM01,5349504d-3031-42e6-9b69-6361645f7063,rev?*%
%TF.SameCoordinates,Original*%
%TF.FileFunction,Legend,Top*%
%TF.FilePolarity,Positive*%
%FSLAX46Y46*%
G04 Gerber Fmt 4.6, Leading zero omitted, Abs format (unit mm)*
G04 Created by KiCad (PCBNEW 7.0.11+1) date 2024-07-04 21:11:31*
%MOMM*%
%LPD*%
G01*
G04 APERTURE LIST*
%ADD10C,0.300000*%
%ADD11C,0.150000*%
%ADD12C,0.304800*%
%ADD13C,0.050000*%
%ADD14C,0.120000*%
%ADD15R,1.524000X1.524000*%
G04 APERTURE END LIST*
D10*
X9595225Y19165242D02*
X9452368Y19236671D01*
X9452368Y19236671D02*
X9238082Y19236671D01*
X9238082Y19236671D02*
X9023796Y19165242D01*
X9023796Y19165242D02*
X8880939Y19022385D01*
X8880939Y19022385D02*
X8809510Y18879528D01*
X8809510Y18879528D02*
X8738082Y18593814D01*
X8738082Y18593814D02*
X8738082Y18379528D01*
X8738082Y18379528D02*
X8809510Y18093814D01*
X8809510Y18093814D02*
X8880939Y17950957D01*
X8880939Y17950957D02*
X9023796Y17808100D01*
X9023796Y17808100D02*
X9238082Y17736671D01*
X9238082Y17736671D02*
X9380939Y17736671D01*
X9380939Y17736671D02*
X9595225Y17808100D01*
X9595225Y17808100D02*
X9666653Y17879528D01*
X9666653Y17879528D02*
X9666653Y18379528D01*
X9666653Y18379528D02*
X9380939Y18379528D01*
X10309510Y17736671D02*
X10309510Y19236671D01*
X10309510Y19236671D02*
X11166653Y17736671D01*
X11166653Y17736671D02*
X11166653Y19236671D01*
X11880939Y17736671D02*
X11880939Y19236671D01*
X11880939Y19236671D02*
X12238082Y19236671D01*
X12238082Y19236671D02*
X12452368Y19165242D01*
X12452368Y19165242D02*
X12595225Y19022385D01*
X12595225Y19022385D02*
X12666654Y18879528D01*
X12666654Y18879528D02*
X12738082Y18593814D01*
X12738082Y18593814D02*
X12738082Y18379528D01*
X12738082Y18379528D02*
X12666654Y18093814D01*
X12666654Y18093814D02*
X12595225Y17950957D01*
X12595225Y17950957D02*
X12452368Y17808100D01*
X12452368Y17808100D02*
X12238082Y17736671D01*
X12238082Y17736671D02*
X11880939Y17736671D01*
X9666653Y20419528D02*
X9595225Y20348100D01*
X9595225Y20348100D02*
X9380939Y20276671D01*
X9380939Y20276671D02*
X9238082Y20276671D01*
X9238082Y20276671D02*
X9023796Y20348100D01*
X9023796Y20348100D02*
X8880939Y20490957D01*
X8880939Y20490957D02*
X8809510Y20633814D01*
X8809510Y20633814D02*
X8738082Y20919528D01*
X8738082Y20919528D02*
X8738082Y21133814D01*
X8738082Y21133814D02*
X8809510Y21419528D01*
X8809510Y21419528D02*
X8880939Y21562385D01*
X8880939Y21562385D02*
X9023796Y21705242D01*
X9023796Y21705242D02*
X9238082Y21776671D01*
X9238082Y21776671D02*
X9380939Y21776671D01*
X9380939Y21776671D02*
X9595225Y21705242D01*
X9595225Y21705242D02*
X9666653Y21633814D01*
X10238082Y20705242D02*
X10952368Y20705242D01*
X10095225Y20276671D02*
X10595225Y21776671D01*
X10595225Y21776671D02*
X11095225Y20276671D01*
X11380939Y21776671D02*
X12238082Y21776671D01*
X11809510Y20276671D02*
X11809510Y21776671D01*
X12738081Y20419528D02*
X12809510Y20348100D01*
X12809510Y20348100D02*
X12738081Y20276671D01*
X12738081Y20276671D02*
X12666653Y20348100D01*
X12666653Y20348100D02*
X12738081Y20419528D01*
X12738081Y20419528D02*
X12738081Y20276671D01*
X8809510Y23388100D02*
X9952368Y23388100D01*
X9380939Y22816671D02*
X9380939Y23959528D01*
X31095715Y7013100D02*
X31310001Y6941671D01*
X31310001Y6941671D02*
X31667143Y6941671D01*
X31667143Y6941671D02*
X31810001Y7013100D01*
X31810001Y7013100D02*
X31881429Y7084528D01*
X31881429Y7084528D02*
X31952858Y7227385D01*
X31952858Y7227385D02*
X31952858Y7370242D01*
X31952858Y7370242D02*
X31881429Y7513100D01*
X31881429Y7513100D02*
X31810001Y7584528D01*
X31810001Y7584528D02*
X31667143Y7655957D01*
X31667143Y7655957D02*
X31381429Y7727385D01*
X31381429Y7727385D02*
X31238572Y7798814D01*
X31238572Y7798814D02*
X31167143Y7870242D01*
X31167143Y7870242D02*
X31095715Y8013100D01*
X31095715Y8013100D02*
X31095715Y8155957D01*
X31095715Y8155957D02*
X31167143Y8298814D01*
X31167143Y8298814D02*
X31238572Y8370242D01*
X31238572Y8370242D02*
X31381429Y8441671D01*
X31381429Y8441671D02*
X31738572Y8441671D01*
X31738572Y8441671D02*
X31952858Y8370242D01*
X32595714Y6941671D02*
X32595714Y8441671D01*
X33310000Y6941671D02*
X33310000Y8441671D01*
X33310000Y8441671D02*
X33881429Y8441671D01*
X33881429Y8441671D02*
X34024286Y8370242D01*
X34024286Y8370242D02*
X34095715Y8298814D01*
X34095715Y8298814D02*
X34167143Y8155957D01*
X34167143Y8155957D02*
X34167143Y7941671D01*
X34167143Y7941671D02*
X34095715Y7798814D01*
X34095715Y7798814D02*
X34024286Y7727385D01*
X34024286Y7727385D02*
X33881429Y7655957D01*
X33881429Y7655957D02*
X33310000Y7655957D01*
X34810000Y6941671D02*
X34810000Y8441671D01*
X34810000Y8441671D02*
X35310000Y7370242D01*
X35310000Y7370242D02*
X35810000Y8441671D01*
X35810000Y8441671D02*
X35810000Y6941671D01*
X36810001Y8441671D02*
X36952858Y8441671D01*
X36952858Y8441671D02*
X37095715Y8370242D01*
X37095715Y8370242D02*
X37167144Y8298814D01*
X37167144Y8298814D02*
X37238572Y8155957D01*
X37238572Y8155957D02*
X37310001Y7870242D01*
X37310001Y7870242D02*
X37310001Y7513100D01*
X37310001Y7513100D02*
X37238572Y7227385D01*
X37238572Y7227385D02*
X37167144Y7084528D01*
X37167144Y7084528D02*
X37095715Y7013100D01*
X37095715Y7013100D02*
X36952858Y6941671D01*
X36952858Y6941671D02*
X36810001Y6941671D01*
X36810001Y6941671D02*
X36667144Y7013100D01*
X36667144Y7013100D02*
X36595715Y7084528D01*
X36595715Y7084528D02*
X36524286Y7227385D01*
X36524286Y7227385D02*
X36452858Y7513100D01*
X36452858Y7513100D02*
X36452858Y7870242D01*
X36452858Y7870242D02*
X36524286Y8155957D01*
X36524286Y8155957D02*
X36595715Y8298814D01*
X36595715Y8298814D02*
X36667144Y8370242D01*
X36667144Y8370242D02*
X36810001Y8441671D01*
X38738572Y6941671D02*
X37881429Y6941671D01*
X38310000Y6941671D02*
X38310000Y8441671D01*
X38310000Y8441671D02*
X38167143Y8227385D01*
X38167143Y8227385D02*
X38024286Y8084528D01*
X38024286Y8084528D02*
X37881429Y8013100D01*
X39310000Y7370242D02*
X40024286Y7370242D01*
X39167143Y6941671D02*
X39667143Y8441671D01*
X39667143Y8441671D02*
X40167143Y6941671D01*
X2965000Y14156671D02*
X2965000Y13085242D01*
X2965000Y13085242D02*
X2893571Y12870957D01*
X2893571Y12870957D02*
X2750714Y12728100D01*
X2750714Y12728100D02*
X2536428Y12656671D01*
X2536428Y12656671D02*
X2393571Y12656671D01*
X3607857Y13085242D02*
X4322143Y13085242D01*
X3465000Y12656671D02*
X3965000Y14156671D01*
X3965000Y14156671D02*
X4465000Y12656671D01*
X5822142Y12799528D02*
X5750714Y12728100D01*
X5750714Y12728100D02*
X5536428Y12656671D01*
X5536428Y12656671D02*
X5393571Y12656671D01*
X5393571Y12656671D02*
X5179285Y12728100D01*
X5179285Y12728100D02*
X5036428Y12870957D01*
X5036428Y12870957D02*
X4964999Y13013814D01*
X4964999Y13013814D02*
X4893571Y13299528D01*
X4893571Y13299528D02*
X4893571Y13513814D01*
X4893571Y13513814D02*
X4964999Y13799528D01*
X4964999Y13799528D02*
X5036428Y13942385D01*
X5036428Y13942385D02*
X5179285Y14085242D01*
X5179285Y14085242D02*
X5393571Y14156671D01*
X5393571Y14156671D02*
X5536428Y14156671D01*
X5536428Y14156671D02*
X5750714Y14085242D01*
X5750714Y14085242D02*
X5822142Y14013814D01*
X6464999Y12656671D02*
X6464999Y14156671D01*
X6464999Y13442385D02*
X7322142Y13442385D01*
X7322142Y12656671D02*
X7322142Y14156671D01*
X8322143Y14156671D02*
X8607857Y14156671D01*
X8607857Y14156671D02*
X8750714Y14085242D01*
X8750714Y14085242D02*
X8893571Y13942385D01*
X8893571Y13942385D02*
X8965000Y13656671D01*
X8965000Y13656671D02*
X8965000Y13156671D01*
X8965000Y13156671D02*
X8893571Y12870957D01*
X8893571Y12870957D02*
X8750714Y12728100D01*
X8750714Y12728100D02*
X8607857Y12656671D01*
X8607857Y12656671D02*
X8322143Y12656671D01*
X8322143Y12656671D02*
X8179286Y12728100D01*
X8179286Y12728100D02*
X8036428Y12870957D01*
X8036428Y12870957D02*
X7965000Y13156671D01*
X7965000Y13156671D02*
X7965000Y13656671D01*
X7965000Y13656671D02*
X8036428Y13942385D01*
X8036428Y13942385D02*
X8179286Y14085242D01*
X8179286Y14085242D02*
X8322143Y14156671D01*
X3143572Y11473814D02*
X3215000Y11545242D01*
X3215000Y11545242D02*
X3357858Y11616671D01*
X3357858Y11616671D02*
X3715000Y11616671D01*
X3715000Y11616671D02*
X3857858Y11545242D01*
X3857858Y11545242D02*
X3929286Y11473814D01*
X3929286Y11473814D02*
X4000715Y11330957D01*
X4000715Y11330957D02*
X4000715Y11188100D01*
X4000715Y11188100D02*
X3929286Y10973814D01*
X3929286Y10973814D02*
X3072143Y10116671D01*
X3072143Y10116671D02*
X4000715Y10116671D01*
X4929286Y11616671D02*
X5072143Y11616671D01*
X5072143Y11616671D02*
X5215000Y11545242D01*
X5215000Y11545242D02*
X5286429Y11473814D01*
X5286429Y11473814D02*
X5357857Y11330957D01*
X5357857Y11330957D02*
X5429286Y11045242D01*
X5429286Y11045242D02*
X5429286Y10688100D01*
X5429286Y10688100D02*
X5357857Y10402385D01*
X5357857Y10402385D02*
X5286429Y10259528D01*
X5286429Y10259528D02*
X5215000Y10188100D01*
X5215000Y10188100D02*
X5072143Y10116671D01*
X5072143Y10116671D02*
X4929286Y10116671D01*
X4929286Y10116671D02*
X4786429Y10188100D01*
X4786429Y10188100D02*
X4715000Y10259528D01*
X4715000Y10259528D02*
X4643571Y10402385D01*
X4643571Y10402385D02*
X4572143Y10688100D01*
X4572143Y10688100D02*
X4572143Y11045242D01*
X4572143Y11045242D02*
X4643571Y11330957D01*
X4643571Y11330957D02*
X4715000Y11473814D01*
X4715000Y11473814D02*
X4786429Y11545242D01*
X4786429Y11545242D02*
X4929286Y11616671D01*
X6857857Y10116671D02*
X6000714Y10116671D01*
X6429285Y10116671D02*
X6429285Y11616671D01*
X6429285Y11616671D02*
X6286428Y11402385D01*
X6286428Y11402385D02*
X6143571Y11259528D01*
X6143571Y11259528D02*
X6000714Y11188100D01*
X7714999Y10973814D02*
X7572142Y11045242D01*
X7572142Y11045242D02*
X7500713Y11116671D01*
X7500713Y11116671D02*
X7429285Y11259528D01*
X7429285Y11259528D02*
X7429285Y11330957D01*
X7429285Y11330957D02*
X7500713Y11473814D01*
X7500713Y11473814D02*
X7572142Y11545242D01*
X7572142Y11545242D02*
X7714999Y11616671D01*
X7714999Y11616671D02*
X8000713Y11616671D01*
X8000713Y11616671D02*
X8143571Y11545242D01*
X8143571Y11545242D02*
X8214999Y11473814D01*
X8214999Y11473814D02*
X8286428Y11330957D01*
X8286428Y11330957D02*
X8286428Y11259528D01*
X8286428Y11259528D02*
X8214999Y11116671D01*
X8214999Y11116671D02*
X8143571Y11045242D01*
X8143571Y11045242D02*
X8000713Y10973814D01*
X8000713Y10973814D02*
X7714999Y10973814D01*
X7714999Y10973814D02*
X7572142Y10902385D01*
X7572142Y10902385D02*
X7500713Y10830957D01*
X7500713Y10830957D02*
X7429285Y10688100D01*
X7429285Y10688100D02*
X7429285Y10402385D01*
X7429285Y10402385D02*
X7500713Y10259528D01*
X7500713Y10259528D02*
X7572142Y10188100D01*
X7572142Y10188100D02*
X7714999Y10116671D01*
X7714999Y10116671D02*
X8000713Y10116671D01*
X8000713Y10116671D02*
X8143571Y10188100D01*
X8143571Y10188100D02*
X8214999Y10259528D01*
X8214999Y10259528D02*
X8286428Y10402385D01*
X8286428Y10402385D02*
X8286428Y10688100D01*
X8286428Y10688100D02*
X8214999Y10830957D01*
X8214999Y10830957D02*
X8143571Y10902385D01*
X8143571Y10902385D02*
X8000713Y10973814D01*
X38019510Y20506671D02*
X38019510Y19292385D01*
X38019510Y19292385D02*
X38090939Y19149528D01*
X38090939Y19149528D02*
X38162368Y19078100D01*
X38162368Y19078100D02*
X38305225Y19006671D01*
X38305225Y19006671D02*
X38590939Y19006671D01*
X38590939Y19006671D02*
X38733796Y19078100D01*
X38733796Y19078100D02*
X38805225Y19149528D01*
X38805225Y19149528D02*
X38876653Y19292385D01*
X38876653Y19292385D02*
X38876653Y20506671D01*
X39519511Y20363814D02*
X39590939Y20435242D01*
X39590939Y20435242D02*
X39733797Y20506671D01*
X39733797Y20506671D02*
X40090939Y20506671D01*
X40090939Y20506671D02*
X40233797Y20435242D01*
X40233797Y20435242D02*
X40305225Y20363814D01*
X40305225Y20363814D02*
X40376654Y20220957D01*
X40376654Y20220957D02*
X40376654Y20078100D01*
X40376654Y20078100D02*
X40305225Y19863814D01*
X40305225Y19863814D02*
X39448082Y19006671D01*
X39448082Y19006671D02*
X40376654Y19006671D01*
X38019510Y17966671D02*
X38019510Y16752385D01*
X38019510Y16752385D02*
X38090939Y16609528D01*
X38090939Y16609528D02*
X38162368Y16538100D01*
X38162368Y16538100D02*
X38305225Y16466671D01*
X38305225Y16466671D02*
X38590939Y16466671D01*
X38590939Y16466671D02*
X38733796Y16538100D01*
X38733796Y16538100D02*
X38805225Y16609528D01*
X38805225Y16609528D02*
X38876653Y16752385D01*
X38876653Y16752385D02*
X38876653Y17966671D01*
X39448082Y17966671D02*
X40376654Y17966671D01*
X40376654Y17966671D02*
X39876654Y17395242D01*
X39876654Y17395242D02*
X40090939Y17395242D01*
X40090939Y17395242D02*
X40233797Y17323814D01*
X40233797Y17323814D02*
X40305225Y17252385D01*
X40305225Y17252385D02*
X40376654Y17109528D01*
X40376654Y17109528D02*
X40376654Y16752385D01*
X40376654Y16752385D02*
X40305225Y16609528D01*
X40305225Y16609528D02*
X40233797Y16538100D01*
X40233797Y16538100D02*
X40090939Y16466671D01*
X40090939Y16466671D02*
X39662368Y16466671D01*
X39662368Y16466671D02*
X39519511Y16538100D01*
X39519511Y16538100D02*
X39448082Y16609528D01*
X38019510Y15426671D02*
X38019510Y14212385D01*
X38019510Y14212385D02*
X38090939Y14069528D01*
X38090939Y14069528D02*
X38162368Y13998100D01*
X38162368Y13998100D02*
X38305225Y13926671D01*
X38305225Y13926671D02*
X38590939Y13926671D01*
X38590939Y13926671D02*
X38733796Y13998100D01*
X38733796Y13998100D02*
X38805225Y14069528D01*
X38805225Y14069528D02*
X38876653Y14212385D01*
X38876653Y14212385D02*
X38876653Y15426671D01*
X40233797Y14926671D02*
X40233797Y13926671D01*
X39876654Y15498100D02*
X39519511Y14426671D01*
X39519511Y14426671D02*
X40448082Y14426671D01*
X38019510Y23046671D02*
X38019510Y21832385D01*
X38019510Y21832385D02*
X38090939Y21689528D01*
X38090939Y21689528D02*
X38162368Y21618100D01*
X38162368Y21618100D02*
X38305225Y21546671D01*
X38305225Y21546671D02*
X38590939Y21546671D01*
X38590939Y21546671D02*
X38733796Y21618100D01*
X38733796Y21618100D02*
X38805225Y21689528D01*
X38805225Y21689528D02*
X38876653Y21832385D01*
X38876653Y21832385D02*
X38876653Y23046671D01*
X40376654Y21546671D02*
X39519511Y21546671D01*
X39948082Y21546671D02*
X39948082Y23046671D01*
X39948082Y23046671D02*
X39805225Y22832385D01*
X39805225Y22832385D02*
X39662368Y22689528D01*
X39662368Y22689528D02*
X39519511Y22618100D01*
X9595225Y26785242D02*
X9452368Y26856671D01*
X9452368Y26856671D02*
X9238082Y26856671D01*
X9238082Y26856671D02*
X9023796Y26785242D01*
X9023796Y26785242D02*
X8880939Y26642385D01*
X8880939Y26642385D02*
X8809510Y26499528D01*
X8809510Y26499528D02*
X8738082Y26213814D01*
X8738082Y26213814D02*
X8738082Y25999528D01*
X8738082Y25999528D02*
X8809510Y25713814D01*
X8809510Y25713814D02*
X8880939Y25570957D01*
X8880939Y25570957D02*
X9023796Y25428100D01*
X9023796Y25428100D02*
X9238082Y25356671D01*
X9238082Y25356671D02*
X9380939Y25356671D01*
X9380939Y25356671D02*
X9595225Y25428100D01*
X9595225Y25428100D02*
X9666653Y25499528D01*
X9666653Y25499528D02*
X9666653Y25999528D01*
X9666653Y25999528D02*
X9380939Y25999528D01*
X10309510Y25356671D02*
X10309510Y26856671D01*
X10309510Y26856671D02*
X11166653Y25356671D01*
X11166653Y25356671D02*
X11166653Y26856671D01*
X11880939Y25356671D02*
X11880939Y26856671D01*
X11880939Y26856671D02*
X12238082Y26856671D01*
X12238082Y26856671D02*
X12452368Y26785242D01*
X12452368Y26785242D02*
X12595225Y26642385D01*
X12595225Y26642385D02*
X12666654Y26499528D01*
X12666654Y26499528D02*
X12738082Y26213814D01*
X12738082Y26213814D02*
X12738082Y25999528D01*
X12738082Y25999528D02*
X12666654Y25713814D01*
X12666654Y25713814D02*
X12595225Y25570957D01*
X12595225Y25570957D02*
X12452368Y25428100D01*
X12452368Y25428100D02*
X12238082Y25356671D01*
X12238082Y25356671D02*
X11880939Y25356671D01*
X31238571Y9481671D02*
X31238571Y10981671D01*
X31238571Y10981671D02*
X31738571Y9910242D01*
X31738571Y9910242D02*
X32238571Y10981671D01*
X32238571Y10981671D02*
X32238571Y9481671D01*
X33667143Y9481671D02*
X32952857Y9481671D01*
X32952857Y9481671D02*
X32952857Y10981671D01*
X34095715Y9910242D02*
X34810001Y9910242D01*
X33952858Y9481671D02*
X34452858Y10981671D01*
X34452858Y10981671D02*
X34952858Y9481671D01*
X35952857Y10267385D02*
X36167143Y10195957D01*
X36167143Y10195957D02*
X36238572Y10124528D01*
X36238572Y10124528D02*
X36310000Y9981671D01*
X36310000Y9981671D02*
X36310000Y9767385D01*
X36310000Y9767385D02*
X36238572Y9624528D01*
X36238572Y9624528D02*
X36167143Y9553100D01*
X36167143Y9553100D02*
X36024286Y9481671D01*
X36024286Y9481671D02*
X35452857Y9481671D01*
X35452857Y9481671D02*
X35452857Y10981671D01*
X35452857Y10981671D02*
X35952857Y10981671D01*
X35952857Y10981671D02*
X36095715Y10910242D01*
X36095715Y10910242D02*
X36167143Y10838814D01*
X36167143Y10838814D02*
X36238572Y10695957D01*
X36238572Y10695957D02*
X36238572Y10553100D01*
X36238572Y10553100D02*
X36167143Y10410242D01*
X36167143Y10410242D02*
X36095715Y10338814D01*
X36095715Y10338814D02*
X35952857Y10267385D01*
X35952857Y10267385D02*
X35452857Y10267385D01*
X36952857Y9624528D02*
X37024286Y9553100D01*
X37024286Y9553100D02*
X36952857Y9481671D01*
X36952857Y9481671D02*
X36881429Y9553100D01*
X36881429Y9553100D02*
X36952857Y9624528D01*
X36952857Y9624528D02*
X36952857Y9481671D01*
X38524286Y9624528D02*
X38452858Y9553100D01*
X38452858Y9553100D02*
X38238572Y9481671D01*
X38238572Y9481671D02*
X38095715Y9481671D01*
X38095715Y9481671D02*
X37881429Y9553100D01*
X37881429Y9553100D02*
X37738572Y9695957D01*
X37738572Y9695957D02*
X37667143Y9838814D01*
X37667143Y9838814D02*
X37595715Y10124528D01*
X37595715Y10124528D02*
X37595715Y10338814D01*
X37595715Y10338814D02*
X37667143Y10624528D01*
X37667143Y10624528D02*
X37738572Y10767385D01*
X37738572Y10767385D02*
X37881429Y10910242D01*
X37881429Y10910242D02*
X38095715Y10981671D01*
X38095715Y10981671D02*
X38238572Y10981671D01*
X38238572Y10981671D02*
X38452858Y10910242D01*
X38452858Y10910242D02*
X38524286Y10838814D01*
X39024286Y10981671D02*
X40024286Y10981671D01*
X40024286Y10981671D02*
X39024286Y9481671D01*
X39024286Y9481671D02*
X40024286Y9481671D01*
D11*
X39729580Y32218333D02*
X39777200Y32170714D01*
X39777200Y32170714D02*
X39824819Y32027857D01*
X39824819Y32027857D02*
X39824819Y31932619D01*
X39824819Y31932619D02*
X39777200Y31789762D01*
X39777200Y31789762D02*
X39681961Y31694524D01*
X39681961Y31694524D02*
X39586723Y31646905D01*
X39586723Y31646905D02*
X39396247Y31599286D01*
X39396247Y31599286D02*
X39253390Y31599286D01*
X39253390Y31599286D02*
X39062914Y31646905D01*
X39062914Y31646905D02*
X38967676Y31694524D01*
X38967676Y31694524D02*
X38872438Y31789762D01*
X38872438Y31789762D02*
X38824819Y31932619D01*
X38824819Y31932619D02*
X38824819Y32027857D01*
X38824819Y32027857D02*
X38872438Y32170714D01*
X38872438Y32170714D02*
X38920057Y32218333D01*
X38920057Y32599286D02*
X38872438Y32646905D01*
X38872438Y32646905D02*
X38824819Y32742143D01*
X38824819Y32742143D02*
X38824819Y32980238D01*
X38824819Y32980238D02*
X38872438Y33075476D01*
X38872438Y33075476D02*
X38920057Y33123095D01*
X38920057Y33123095D02*
X39015295Y33170714D01*
X39015295Y33170714D02*
X39110533Y33170714D01*
X39110533Y33170714D02*
X39253390Y33123095D01*
X39253390Y33123095D02*
X39824819Y32551667D01*
X39824819Y32551667D02*
X39824819Y33170714D01*
D12*
X25944038Y27051000D02*
X26016610Y26978428D01*
X26016610Y26978428D02*
X26089181Y26760714D01*
X26089181Y26760714D02*
X26089181Y26615571D01*
X26089181Y26615571D02*
X26016610Y26397857D01*
X26016610Y26397857D02*
X25871467Y26252714D01*
X25871467Y26252714D02*
X25726324Y26180143D01*
X25726324Y26180143D02*
X25436038Y26107571D01*
X25436038Y26107571D02*
X25218324Y26107571D01*
X25218324Y26107571D02*
X24928038Y26180143D01*
X24928038Y26180143D02*
X24782895Y26252714D01*
X24782895Y26252714D02*
X24637752Y26397857D01*
X24637752Y26397857D02*
X24565181Y26615571D01*
X24565181Y26615571D02*
X24565181Y26760714D01*
X24565181Y26760714D02*
X24637752Y26978428D01*
X24637752Y26978428D02*
X24710324Y27051000D01*
X24565181Y27559000D02*
X24565181Y28502428D01*
X24565181Y28502428D02*
X25145752Y27994428D01*
X25145752Y27994428D02*
X25145752Y28212143D01*
X25145752Y28212143D02*
X25218324Y28357286D01*
X25218324Y28357286D02*
X25290895Y28429857D01*
X25290895Y28429857D02*
X25436038Y28502428D01*
X25436038Y28502428D02*
X25798895Y28502428D01*
X25798895Y28502428D02*
X25944038Y28429857D01*
X25944038Y28429857D02*
X26016610Y28357286D01*
X26016610Y28357286D02*
X26089181Y28212143D01*
X26089181Y28212143D02*
X26089181Y27776714D01*
X26089181Y27776714D02*
X26016610Y27631571D01*
X26016610Y27631571D02*
X25944038Y27559000D01*
X31233770Y34278389D02*
X31233770Y35439532D01*
X31814341Y34858960D02*
X30653198Y34858960D01*
D11*
X46079580Y33488333D02*
X46127200Y33440714D01*
X46127200Y33440714D02*
X46174819Y33297857D01*
X46174819Y33297857D02*
X46174819Y33202619D01*
X46174819Y33202619D02*
X46127200Y33059762D01*
X46127200Y33059762D02*
X46031961Y32964524D01*
X46031961Y32964524D02*
X45936723Y32916905D01*
X45936723Y32916905D02*
X45746247Y32869286D01*
X45746247Y32869286D02*
X45603390Y32869286D01*
X45603390Y32869286D02*
X45412914Y32916905D01*
X45412914Y32916905D02*
X45317676Y32964524D01*
X45317676Y32964524D02*
X45222438Y33059762D01*
X45222438Y33059762D02*
X45174819Y33202619D01*
X45174819Y33202619D02*
X45174819Y33297857D01*
X45174819Y33297857D02*
X45222438Y33440714D01*
X45222438Y33440714D02*
X45270057Y33488333D01*
X45508152Y34345476D02*
X46174819Y34345476D01*
X45127200Y34107381D02*
X45841485Y33869286D01*
X45841485Y33869286D02*
X45841485Y34488333D01*
X43539580Y33488333D02*
X43587200Y33440714D01*
X43587200Y33440714D02*
X43634819Y33297857D01*
X43634819Y33297857D02*
X43634819Y33202619D01*
X43634819Y33202619D02*
X43587200Y33059762D01*
X43587200Y33059762D02*
X43491961Y32964524D01*
X43491961Y32964524D02*
X43396723Y32916905D01*
X43396723Y32916905D02*
X43206247Y32869286D01*
X43206247Y32869286D02*
X43063390Y32869286D01*
X43063390Y32869286D02*
X42872914Y32916905D01*
X42872914Y32916905D02*
X42777676Y32964524D01*
X42777676Y32964524D02*
X42682438Y33059762D01*
X42682438Y33059762D02*
X42634819Y33202619D01*
X42634819Y33202619D02*
X42634819Y33297857D01*
X42634819Y33297857D02*
X42682438Y33440714D01*
X42682438Y33440714D02*
X42730057Y33488333D01*
X42634819Y34393095D02*
X42634819Y33916905D01*
X42634819Y33916905D02*
X43111009Y33869286D01*
X43111009Y33869286D02*
X43063390Y33916905D01*
X43063390Y33916905D02*
X43015771Y34012143D01*
X43015771Y34012143D02*
X43015771Y34250238D01*
X43015771Y34250238D02*
X43063390Y34345476D01*
X43063390Y34345476D02*
X43111009Y34393095D01*
X43111009Y34393095D02*
X43206247Y34440714D01*
X43206247Y34440714D02*
X43444342Y34440714D01*
X43444342Y34440714D02*
X43539580Y34393095D01*
X43539580Y34393095D02*
X43587200Y34345476D01*
X43587200Y34345476D02*
X43634819Y34250238D01*
X43634819Y34250238D02*
X43634819Y34012143D01*
X43634819Y34012143D02*
X43587200Y33916905D01*
X43587200Y33916905D02*
X43539580Y33869286D01*
X44809580Y20788333D02*
X44857200Y20740714D01*
X44857200Y20740714D02*
X44904819Y20597857D01*
X44904819Y20597857D02*
X44904819Y20502619D01*
X44904819Y20502619D02*
X44857200Y20359762D01*
X44857200Y20359762D02*
X44761961Y20264524D01*
X44761961Y20264524D02*
X44666723Y20216905D01*
X44666723Y20216905D02*
X44476247Y20169286D01*
X44476247Y20169286D02*
X44333390Y20169286D01*
X44333390Y20169286D02*
X44142914Y20216905D01*
X44142914Y20216905D02*
X44047676Y20264524D01*
X44047676Y20264524D02*
X43952438Y20359762D01*
X43952438Y20359762D02*
X43904819Y20502619D01*
X43904819Y20502619D02*
X43904819Y20597857D01*
X43904819Y20597857D02*
X43952438Y20740714D01*
X43952438Y20740714D02*
X44000057Y20788333D01*
X43904819Y21121667D02*
X43904819Y21788333D01*
X43904819Y21788333D02*
X44904819Y21359762D01*
X42904580Y20788333D02*
X42952200Y20740714D01*
X42952200Y20740714D02*
X42999819Y20597857D01*
X42999819Y20597857D02*
X42999819Y20502619D01*
X42999819Y20502619D02*
X42952200Y20359762D01*
X42952200Y20359762D02*
X42856961Y20264524D01*
X42856961Y20264524D02*
X42761723Y20216905D01*
X42761723Y20216905D02*
X42571247Y20169286D01*
X42571247Y20169286D02*
X42428390Y20169286D01*
X42428390Y20169286D02*
X42237914Y20216905D01*
X42237914Y20216905D02*
X42142676Y20264524D01*
X42142676Y20264524D02*
X42047438Y20359762D01*
X42047438Y20359762D02*
X41999819Y20502619D01*
X41999819Y20502619D02*
X41999819Y20597857D01*
X41999819Y20597857D02*
X42047438Y20740714D01*
X42047438Y20740714D02*
X42095057Y20788333D01*
X42428390Y21359762D02*
X42380771Y21264524D01*
X42380771Y21264524D02*
X42333152Y21216905D01*
X42333152Y21216905D02*
X42237914Y21169286D01*
X42237914Y21169286D02*
X42190295Y21169286D01*
X42190295Y21169286D02*
X42095057Y21216905D01*
X42095057Y21216905D02*
X42047438Y21264524D01*
X42047438Y21264524D02*
X41999819Y21359762D01*
X41999819Y21359762D02*
X41999819Y21550238D01*
X41999819Y21550238D02*
X42047438Y21645476D01*
X42047438Y21645476D02*
X42095057Y21693095D01*
X42095057Y21693095D02*
X42190295Y21740714D01*
X42190295Y21740714D02*
X42237914Y21740714D01*
X42237914Y21740714D02*
X42333152Y21693095D01*
X42333152Y21693095D02*
X42380771Y21645476D01*
X42380771Y21645476D02*
X42428390Y21550238D01*
X42428390Y21550238D02*
X42428390Y21359762D01*
X42428390Y21359762D02*
X42476009Y21264524D01*
X42476009Y21264524D02*
X42523628Y21216905D01*
X42523628Y21216905D02*
X42618866Y21169286D01*
X42618866Y21169286D02*
X42809342Y21169286D01*
X42809342Y21169286D02*
X42904580Y21216905D01*
X42904580Y21216905D02*
X42952200Y21264524D01*
X42952200Y21264524D02*
X42999819Y21359762D01*
X42999819Y21359762D02*
X42999819Y21550238D01*
X42999819Y21550238D02*
X42952200Y21645476D01*
X42952200Y21645476D02*
X42904580Y21693095D01*
X42904580Y21693095D02*
X42809342Y21740714D01*
X42809342Y21740714D02*
X42618866Y21740714D01*
X42618866Y21740714D02*
X42523628Y21693095D01*
X42523628Y21693095D02*
X42476009Y21645476D01*
X42476009Y21645476D02*
X42428390Y21550238D01*
X44809580Y15390833D02*
X44857200Y15343214D01*
X44857200Y15343214D02*
X44904819Y15200357D01*
X44904819Y15200357D02*
X44904819Y15105119D01*
X44904819Y15105119D02*
X44857200Y14962262D01*
X44857200Y14962262D02*
X44761961Y14867024D01*
X44761961Y14867024D02*
X44666723Y14819405D01*
X44666723Y14819405D02*
X44476247Y14771786D01*
X44476247Y14771786D02*
X44333390Y14771786D01*
X44333390Y14771786D02*
X44142914Y14819405D01*
X44142914Y14819405D02*
X44047676Y14867024D01*
X44047676Y14867024D02*
X43952438Y14962262D01*
X43952438Y14962262D02*
X43904819Y15105119D01*
X43904819Y15105119D02*
X43904819Y15200357D01*
X43904819Y15200357D02*
X43952438Y15343214D01*
X43952438Y15343214D02*
X44000057Y15390833D01*
X44904819Y15867024D02*
X44904819Y16057500D01*
X44904819Y16057500D02*
X44857200Y16152738D01*
X44857200Y16152738D02*
X44809580Y16200357D01*
X44809580Y16200357D02*
X44666723Y16295595D01*
X44666723Y16295595D02*
X44476247Y16343214D01*
X44476247Y16343214D02*
X44095295Y16343214D01*
X44095295Y16343214D02*
X44000057Y16295595D01*
X44000057Y16295595D02*
X43952438Y16247976D01*
X43952438Y16247976D02*
X43904819Y16152738D01*
X43904819Y16152738D02*
X43904819Y15962262D01*
X43904819Y15962262D02*
X43952438Y15867024D01*
X43952438Y15867024D02*
X44000057Y15819405D01*
X44000057Y15819405D02*
X44095295Y15771786D01*
X44095295Y15771786D02*
X44333390Y15771786D01*
X44333390Y15771786D02*
X44428628Y15819405D01*
X44428628Y15819405D02*
X44476247Y15867024D01*
X44476247Y15867024D02*
X44523866Y15962262D01*
X44523866Y15962262D02*
X44523866Y16152738D01*
X44523866Y16152738D02*
X44476247Y16247976D01*
X44476247Y16247976D02*
X44428628Y16295595D01*
X44428628Y16295595D02*
X44333390Y16343214D01*
X42904580Y14914642D02*
X42952200Y14867023D01*
X42952200Y14867023D02*
X42999819Y14724166D01*
X42999819Y14724166D02*
X42999819Y14628928D01*
X42999819Y14628928D02*
X42952200Y14486071D01*
X42952200Y14486071D02*
X42856961Y14390833D01*
X42856961Y14390833D02*
X42761723Y14343214D01*
X42761723Y14343214D02*
X42571247Y14295595D01*
X42571247Y14295595D02*
X42428390Y14295595D01*
X42428390Y14295595D02*
X42237914Y14343214D01*
X42237914Y14343214D02*
X42142676Y14390833D01*
X42142676Y14390833D02*
X42047438Y14486071D01*
X42047438Y14486071D02*
X41999819Y14628928D01*
X41999819Y14628928D02*
X41999819Y14724166D01*
X41999819Y14724166D02*
X42047438Y14867023D01*
X42047438Y14867023D02*
X42095057Y14914642D01*
X42999819Y15867023D02*
X42999819Y15295595D01*
X42999819Y15581309D02*
X41999819Y15581309D01*
X41999819Y15581309D02*
X42142676Y15486071D01*
X42142676Y15486071D02*
X42237914Y15390833D01*
X42237914Y15390833D02*
X42285533Y15295595D01*
X41999819Y16486071D02*
X41999819Y16581309D01*
X41999819Y16581309D02*
X42047438Y16676547D01*
X42047438Y16676547D02*
X42095057Y16724166D01*
X42095057Y16724166D02*
X42190295Y16771785D01*
X42190295Y16771785D02*
X42380771Y16819404D01*
X42380771Y16819404D02*
X42618866Y16819404D01*
X42618866Y16819404D02*
X42809342Y16771785D01*
X42809342Y16771785D02*
X42904580Y16724166D01*
X42904580Y16724166D02*
X42952200Y16676547D01*
X42952200Y16676547D02*
X42999819Y16581309D01*
X42999819Y16581309D02*
X42999819Y16486071D01*
X42999819Y16486071D02*
X42952200Y16390833D01*
X42952200Y16390833D02*
X42904580Y16343214D01*
X42904580Y16343214D02*
X42809342Y16295595D01*
X42809342Y16295595D02*
X42618866Y16247976D01*
X42618866Y16247976D02*
X42380771Y16247976D01*
X42380771Y16247976D02*
X42190295Y16295595D01*
X42190295Y16295595D02*
X42095057Y16343214D01*
X42095057Y16343214D02*
X42047438Y16390833D01*
X42047438Y16390833D02*
X41999819Y16486071D01*
X44809580Y9199642D02*
X44857200Y9152023D01*
X44857200Y9152023D02*
X44904819Y9009166D01*
X44904819Y9009166D02*
X44904819Y8913928D01*
X44904819Y8913928D02*
X44857200Y8771071D01*
X44857200Y8771071D02*
X44761961Y8675833D01*
X44761961Y8675833D02*
X44666723Y8628214D01*
X44666723Y8628214D02*
X44476247Y8580595D01*
X44476247Y8580595D02*
X44333390Y8580595D01*
X44333390Y8580595D02*
X44142914Y8628214D01*
X44142914Y8628214D02*
X44047676Y8675833D01*
X44047676Y8675833D02*
X43952438Y8771071D01*
X43952438Y8771071D02*
X43904819Y8913928D01*
X43904819Y8913928D02*
X43904819Y9009166D01*
X43904819Y9009166D02*
X43952438Y9152023D01*
X43952438Y9152023D02*
X44000057Y9199642D01*
X44904819Y10152023D02*
X44904819Y9580595D01*
X44904819Y9866309D02*
X43904819Y9866309D01*
X43904819Y9866309D02*
X44047676Y9771071D01*
X44047676Y9771071D02*
X44142914Y9675833D01*
X44142914Y9675833D02*
X44190533Y9580595D01*
X44904819Y11104404D02*
X44904819Y10532976D01*
X44904819Y10818690D02*
X43904819Y10818690D01*
X43904819Y10818690D02*
X44047676Y10723452D01*
X44047676Y10723452D02*
X44142914Y10628214D01*
X44142914Y10628214D02*
X44190533Y10532976D01*
X42904580Y9199642D02*
X42952200Y9152023D01*
X42952200Y9152023D02*
X42999819Y9009166D01*
X42999819Y9009166D02*
X42999819Y8913928D01*
X42999819Y8913928D02*
X42952200Y8771071D01*
X42952200Y8771071D02*
X42856961Y8675833D01*
X42856961Y8675833D02*
X42761723Y8628214D01*
X42761723Y8628214D02*
X42571247Y8580595D01*
X42571247Y8580595D02*
X42428390Y8580595D01*
X42428390Y8580595D02*
X42237914Y8628214D01*
X42237914Y8628214D02*
X42142676Y8675833D01*
X42142676Y8675833D02*
X42047438Y8771071D01*
X42047438Y8771071D02*
X41999819Y8913928D01*
X41999819Y8913928D02*
X41999819Y9009166D01*
X41999819Y9009166D02*
X42047438Y9152023D01*
X42047438Y9152023D02*
X42095057Y9199642D01*
X42999819Y10152023D02*
X42999819Y9580595D01*
X42999819Y9866309D02*
X41999819Y9866309D01*
X41999819Y9866309D02*
X42142676Y9771071D01*
X42142676Y9771071D02*
X42237914Y9675833D01*
X42237914Y9675833D02*
X42285533Y9580595D01*
X42095057Y10532976D02*
X42047438Y10580595D01*
X42047438Y10580595D02*
X41999819Y10675833D01*
X41999819Y10675833D02*
X41999819Y10913928D01*
X41999819Y10913928D02*
X42047438Y11009166D01*
X42047438Y11009166D02*
X42095057Y11056785D01*
X42095057Y11056785D02*
X42190295Y11104404D01*
X42190295Y11104404D02*
X42285533Y11104404D01*
X42285533Y11104404D02*
X42428390Y11056785D01*
X42428390Y11056785D02*
X42999819Y10485357D01*
X42999819Y10485357D02*
X42999819Y11104404D01*
D13*
X8143857Y18186290D02*
X7858143Y18186290D01*
X8001000Y18186290D02*
X8001000Y18686290D01*
X8001000Y18686290D02*
X7953381Y18614861D01*
X7953381Y18614861D02*
X7905762Y18567242D01*
X7905762Y18567242D02*
X7858143Y18543433D01*
D11*
X45553333Y23675180D02*
X45220000Y24151371D01*
X44981905Y23675180D02*
X44981905Y24675180D01*
X44981905Y24675180D02*
X45362857Y24675180D01*
X45362857Y24675180D02*
X45458095Y24627561D01*
X45458095Y24627561D02*
X45505714Y24579942D01*
X45505714Y24579942D02*
X45553333Y24484704D01*
X45553333Y24484704D02*
X45553333Y24341847D01*
X45553333Y24341847D02*
X45505714Y24246609D01*
X45505714Y24246609D02*
X45458095Y24198990D01*
X45458095Y24198990D02*
X45362857Y24151371D01*
X45362857Y24151371D02*
X44981905Y24151371D01*
X46410476Y24341847D02*
X46410476Y23675180D01*
X46172381Y24722800D02*
X45934286Y24008514D01*
X45934286Y24008514D02*
X46553333Y24008514D01*
X45553333Y17960180D02*
X45220000Y18436371D01*
X44981905Y17960180D02*
X44981905Y18960180D01*
X44981905Y18960180D02*
X45362857Y18960180D01*
X45362857Y18960180D02*
X45458095Y18912561D01*
X45458095Y18912561D02*
X45505714Y18864942D01*
X45505714Y18864942D02*
X45553333Y18769704D01*
X45553333Y18769704D02*
X45553333Y18626847D01*
X45553333Y18626847D02*
X45505714Y18531609D01*
X45505714Y18531609D02*
X45458095Y18483990D01*
X45458095Y18483990D02*
X45362857Y18436371D01*
X45362857Y18436371D02*
X44981905Y18436371D01*
X46410476Y18960180D02*
X46220000Y18960180D01*
X46220000Y18960180D02*
X46124762Y18912561D01*
X46124762Y18912561D02*
X46077143Y18864942D01*
X46077143Y18864942D02*
X45981905Y18722085D01*
X45981905Y18722085D02*
X45934286Y18531609D01*
X45934286Y18531609D02*
X45934286Y18150657D01*
X45934286Y18150657D02*
X45981905Y18055419D01*
X45981905Y18055419D02*
X46029524Y18007800D01*
X46029524Y18007800D02*
X46124762Y17960180D01*
X46124762Y17960180D02*
X46315238Y17960180D01*
X46315238Y17960180D02*
X46410476Y18007800D01*
X46410476Y18007800D02*
X46458095Y18055419D01*
X46458095Y18055419D02*
X46505714Y18150657D01*
X46505714Y18150657D02*
X46505714Y18388752D01*
X46505714Y18388752D02*
X46458095Y18483990D01*
X46458095Y18483990D02*
X46410476Y18531609D01*
X46410476Y18531609D02*
X46315238Y18579228D01*
X46315238Y18579228D02*
X46124762Y18579228D01*
X46124762Y18579228D02*
X46029524Y18531609D01*
X46029524Y18531609D02*
X45981905Y18483990D01*
X45981905Y18483990D02*
X45934286Y18388752D01*
X45553333Y12245180D02*
X45220000Y12721371D01*
X44981905Y12245180D02*
X44981905Y13245180D01*
X44981905Y13245180D02*
X45362857Y13245180D01*
X45362857Y13245180D02*
X45458095Y13197561D01*
X45458095Y13197561D02*
X45505714Y13149942D01*
X45505714Y13149942D02*
X45553333Y13054704D01*
X45553333Y13054704D02*
X45553333Y12911847D01*
X45553333Y12911847D02*
X45505714Y12816609D01*
X45505714Y12816609D02*
X45458095Y12768990D01*
X45458095Y12768990D02*
X45362857Y12721371D01*
X45362857Y12721371D02*
X44981905Y12721371D01*
X46124762Y12816609D02*
X46029524Y12864228D01*
X46029524Y12864228D02*
X45981905Y12911847D01*
X45981905Y12911847D02*
X45934286Y13007085D01*
X45934286Y13007085D02*
X45934286Y13054704D01*
X45934286Y13054704D02*
X45981905Y13149942D01*
X45981905Y13149942D02*
X46029524Y13197561D01*
X46029524Y13197561D02*
X46124762Y13245180D01*
X46124762Y13245180D02*
X46315238Y13245180D01*
X46315238Y13245180D02*
X46410476Y13197561D01*
X46410476Y13197561D02*
X46458095Y13149942D01*
X46458095Y13149942D02*
X46505714Y13054704D01*
X46505714Y13054704D02*
X46505714Y13007085D01*
X46505714Y13007085D02*
X46458095Y12911847D01*
X46458095Y12911847D02*
X46410476Y12864228D01*
X46410476Y12864228D02*
X46315238Y12816609D01*
X46315238Y12816609D02*
X46124762Y12816609D01*
X46124762Y12816609D02*
X46029524Y12768990D01*
X46029524Y12768990D02*
X45981905Y12721371D01*
X45981905Y12721371D02*
X45934286Y12626133D01*
X45934286Y12626133D02*
X45934286Y12435657D01*
X45934286Y12435657D02*
X45981905Y12340419D01*
X45981905Y12340419D02*
X46029524Y12292800D01*
X46029524Y12292800D02*
X46124762Y12245180D01*
X46124762Y12245180D02*
X46315238Y12245180D01*
X46315238Y12245180D02*
X46410476Y12292800D01*
X46410476Y12292800D02*
X46458095Y12340419D01*
X46458095Y12340419D02*
X46505714Y12435657D01*
X46505714Y12435657D02*
X46505714Y12626133D01*
X46505714Y12626133D02*
X46458095Y12721371D01*
X46458095Y12721371D02*
X46410476Y12768990D01*
X46410476Y12768990D02*
X46315238Y12816609D01*
X51474761Y31780180D02*
X51141428Y32256371D01*
X50903333Y31780180D02*
X50903333Y32780180D01*
X50903333Y32780180D02*
X51284285Y32780180D01*
X51284285Y32780180D02*
X51379523Y32732561D01*
X51379523Y32732561D02*
X51427142Y32684942D01*
X51427142Y32684942D02*
X51474761Y32589704D01*
X51474761Y32589704D02*
X51474761Y32446847D01*
X51474761Y32446847D02*
X51427142Y32351609D01*
X51427142Y32351609D02*
X51379523Y32303990D01*
X51379523Y32303990D02*
X51284285Y32256371D01*
X51284285Y32256371D02*
X50903333Y32256371D01*
X51760476Y32780180D02*
X52093809Y31780180D01*
X52093809Y31780180D02*
X52427142Y32780180D01*
X53284285Y31780180D02*
X52712857Y31780180D01*
X52998571Y31780180D02*
X52998571Y32780180D01*
X52998571Y32780180D02*
X52903333Y32637323D01*
X52903333Y32637323D02*
X52808095Y32542085D01*
X52808095Y32542085D02*
X52712857Y32494466D01*
X51474761Y24310180D02*
X51141428Y24786371D01*
X50903333Y24310180D02*
X50903333Y25310180D01*
X50903333Y25310180D02*
X51284285Y25310180D01*
X51284285Y25310180D02*
X51379523Y25262561D01*
X51379523Y25262561D02*
X51427142Y25214942D01*
X51427142Y25214942D02*
X51474761Y25119704D01*
X51474761Y25119704D02*
X51474761Y24976847D01*
X51474761Y24976847D02*
X51427142Y24881609D01*
X51427142Y24881609D02*
X51379523Y24833990D01*
X51379523Y24833990D02*
X51284285Y24786371D01*
X51284285Y24786371D02*
X50903333Y24786371D01*
X51760476Y25310180D02*
X52093809Y24310180D01*
X52093809Y24310180D02*
X52427142Y25310180D01*
X52712857Y25214942D02*
X52760476Y25262561D01*
X52760476Y25262561D02*
X52855714Y25310180D01*
X52855714Y25310180D02*
X53093809Y25310180D01*
X53093809Y25310180D02*
X53189047Y25262561D01*
X53189047Y25262561D02*
X53236666Y25214942D01*
X53236666Y25214942D02*
X53284285Y25119704D01*
X53284285Y25119704D02*
X53284285Y25024466D01*
X53284285Y25024466D02*
X53236666Y24881609D01*
X53236666Y24881609D02*
X52665238Y24310180D01*
X52665238Y24310180D02*
X53284285Y24310180D01*
X51474761Y18595180D02*
X51141428Y19071371D01*
X50903333Y18595180D02*
X50903333Y19595180D01*
X50903333Y19595180D02*
X51284285Y19595180D01*
X51284285Y19595180D02*
X51379523Y19547561D01*
X51379523Y19547561D02*
X51427142Y19499942D01*
X51427142Y19499942D02*
X51474761Y19404704D01*
X51474761Y19404704D02*
X51474761Y19261847D01*
X51474761Y19261847D02*
X51427142Y19166609D01*
X51427142Y19166609D02*
X51379523Y19118990D01*
X51379523Y19118990D02*
X51284285Y19071371D01*
X51284285Y19071371D02*
X50903333Y19071371D01*
X51760476Y19595180D02*
X52093809Y18595180D01*
X52093809Y18595180D02*
X52427142Y19595180D01*
X52665238Y19595180D02*
X53284285Y19595180D01*
X53284285Y19595180D02*
X52950952Y19214228D01*
X52950952Y19214228D02*
X53093809Y19214228D01*
X53093809Y19214228D02*
X53189047Y19166609D01*
X53189047Y19166609D02*
X53236666Y19118990D01*
X53236666Y19118990D02*
X53284285Y19023752D01*
X53284285Y19023752D02*
X53284285Y18785657D01*
X53284285Y18785657D02*
X53236666Y18690419D01*
X53236666Y18690419D02*
X53189047Y18642800D01*
X53189047Y18642800D02*
X53093809Y18595180D01*
X53093809Y18595180D02*
X52808095Y18595180D01*
X52808095Y18595180D02*
X52712857Y18642800D01*
X52712857Y18642800D02*
X52665238Y18690419D01*
X51474761Y12880180D02*
X51141428Y13356371D01*
X50903333Y12880180D02*
X50903333Y13880180D01*
X50903333Y13880180D02*
X51284285Y13880180D01*
X51284285Y13880180D02*
X51379523Y13832561D01*
X51379523Y13832561D02*
X51427142Y13784942D01*
X51427142Y13784942D02*
X51474761Y13689704D01*
X51474761Y13689704D02*
X51474761Y13546847D01*
X51474761Y13546847D02*
X51427142Y13451609D01*
X51427142Y13451609D02*
X51379523Y13403990D01*
X51379523Y13403990D02*
X51284285Y13356371D01*
X51284285Y13356371D02*
X50903333Y13356371D01*
X51760476Y13880180D02*
X52093809Y12880180D01*
X52093809Y12880180D02*
X52427142Y13880180D01*
X53189047Y13546847D02*
X53189047Y12880180D01*
X52950952Y13927800D02*
X52712857Y13213514D01*
X52712857Y13213514D02*
X53331904Y13213514D01*
X22314819Y19126295D02*
X23124342Y19126295D01*
X23124342Y19126295D02*
X23219580Y19173914D01*
X23219580Y19173914D02*
X23267200Y19221533D01*
X23267200Y19221533D02*
X23314819Y19316771D01*
X23314819Y19316771D02*
X23314819Y19507247D01*
X23314819Y19507247D02*
X23267200Y19602485D01*
X23267200Y19602485D02*
X23219580Y19650104D01*
X23219580Y19650104D02*
X23124342Y19697723D01*
X23124342Y19697723D02*
X22314819Y19697723D01*
X23314819Y20697723D02*
X23314819Y20126295D01*
X23314819Y20412009D02*
X22314819Y20412009D01*
X22314819Y20412009D02*
X22457676Y20316771D01*
X22457676Y20316771D02*
X22552914Y20221533D01*
X22552914Y20221533D02*
X22600533Y20126295D01*
X26251869Y19793857D02*
X26251869Y20398619D01*
X26614726Y19672905D02*
X25344726Y20096238D01*
X25344726Y20096238D02*
X26614726Y20519572D01*
X26614726Y21608143D02*
X26614726Y20882428D01*
X26614726Y21245285D02*
X25344726Y21245285D01*
X25344726Y21245285D02*
X25526154Y21124333D01*
X25526154Y21124333D02*
X25647107Y21003381D01*
X25647107Y21003381D02*
X25707583Y20882428D01*
X48410833Y31930180D02*
X48077500Y32406371D01*
X47839405Y31930180D02*
X47839405Y32930180D01*
X47839405Y32930180D02*
X48220357Y32930180D01*
X48220357Y32930180D02*
X48315595Y32882561D01*
X48315595Y32882561D02*
X48363214Y32834942D01*
X48363214Y32834942D02*
X48410833Y32739704D01*
X48410833Y32739704D02*
X48410833Y32596847D01*
X48410833Y32596847D02*
X48363214Y32501609D01*
X48363214Y32501609D02*
X48315595Y32453990D01*
X48315595Y32453990D02*
X48220357Y32406371D01*
X48220357Y32406371D02*
X47839405Y32406371D01*
X48791786Y32834942D02*
X48839405Y32882561D01*
X48839405Y32882561D02*
X48934643Y32930180D01*
X48934643Y32930180D02*
X49172738Y32930180D01*
X49172738Y32930180D02*
X49267976Y32882561D01*
X49267976Y32882561D02*
X49315595Y32834942D01*
X49315595Y32834942D02*
X49363214Y32739704D01*
X49363214Y32739704D02*
X49363214Y32644466D01*
X49363214Y32644466D02*
X49315595Y32501609D01*
X49315595Y32501609D02*
X48744167Y31930180D01*
X48744167Y31930180D02*
X49363214Y31930180D01*
X44809580Y27138333D02*
X44857200Y27090714D01*
X44857200Y27090714D02*
X44904819Y26947857D01*
X44904819Y26947857D02*
X44904819Y26852619D01*
X44904819Y26852619D02*
X44857200Y26709762D01*
X44857200Y26709762D02*
X44761961Y26614524D01*
X44761961Y26614524D02*
X44666723Y26566905D01*
X44666723Y26566905D02*
X44476247Y26519286D01*
X44476247Y26519286D02*
X44333390Y26519286D01*
X44333390Y26519286D02*
X44142914Y26566905D01*
X44142914Y26566905D02*
X44047676Y26614524D01*
X44047676Y26614524D02*
X43952438Y26709762D01*
X43952438Y26709762D02*
X43904819Y26852619D01*
X43904819Y26852619D02*
X43904819Y26947857D01*
X43904819Y26947857D02*
X43952438Y27090714D01*
X43952438Y27090714D02*
X44000057Y27138333D01*
X44904819Y28090714D02*
X44904819Y27519286D01*
X44904819Y27805000D02*
X43904819Y27805000D01*
X43904819Y27805000D02*
X44047676Y27709762D01*
X44047676Y27709762D02*
X44142914Y27614524D01*
X44142914Y27614524D02*
X44190533Y27519286D01*
X43539580Y27138333D02*
X43587200Y27090714D01*
X43587200Y27090714D02*
X43634819Y26947857D01*
X43634819Y26947857D02*
X43634819Y26852619D01*
X43634819Y26852619D02*
X43587200Y26709762D01*
X43587200Y26709762D02*
X43491961Y26614524D01*
X43491961Y26614524D02*
X43396723Y26566905D01*
X43396723Y26566905D02*
X43206247Y26519286D01*
X43206247Y26519286D02*
X43063390Y26519286D01*
X43063390Y26519286D02*
X42872914Y26566905D01*
X42872914Y26566905D02*
X42777676Y26614524D01*
X42777676Y26614524D02*
X42682438Y26709762D01*
X42682438Y26709762D02*
X42634819Y26852619D01*
X42634819Y26852619D02*
X42634819Y26947857D01*
X42634819Y26947857D02*
X42682438Y27090714D01*
X42682438Y27090714D02*
X42730057Y27138333D01*
X42634819Y27995476D02*
X42634819Y27805000D01*
X42634819Y27805000D02*
X42682438Y27709762D01*
X42682438Y27709762D02*
X42730057Y27662143D01*
X42730057Y27662143D02*
X42872914Y27566905D01*
X42872914Y27566905D02*
X43063390Y27519286D01*
X43063390Y27519286D02*
X43444342Y27519286D01*
X43444342Y27519286D02*
X43539580Y27566905D01*
X43539580Y27566905D02*
X43587200Y27614524D01*
X43587200Y27614524D02*
X43634819Y27709762D01*
X43634819Y27709762D02*
X43634819Y27900238D01*
X43634819Y27900238D02*
X43587200Y27995476D01*
X43587200Y27995476D02*
X43539580Y28043095D01*
X43539580Y28043095D02*
X43444342Y28090714D01*
X43444342Y28090714D02*
X43206247Y28090714D01*
X43206247Y28090714D02*
X43111009Y28043095D01*
X43111009Y28043095D02*
X43063390Y27995476D01*
X43063390Y27995476D02*
X43015771Y27900238D01*
X43015771Y27900238D02*
X43015771Y27709762D01*
X43015771Y27709762D02*
X43063390Y27614524D01*
X43063390Y27614524D02*
X43111009Y27566905D01*
X43111009Y27566905D02*
X43206247Y27519286D01*
D14*
%TO.C,C2*%
X39705000Y35999646D02*
X39705000Y34999646D01*
X40205000Y35499646D02*
X39205000Y35499646D01*
X41910000Y30520000D02*
X31750000Y30520000D01*
X41910000Y30480000D02*
X31750000Y30480000D01*
X41910000Y30440000D02*
X31750000Y30440000D01*
X41909000Y30400000D02*
X31751000Y30400000D01*
X41908000Y30360000D02*
X31752000Y30360000D01*
X41907000Y30320000D02*
X31753000Y30320000D01*
X41905000Y30280000D02*
X31755000Y30280000D01*
X41903000Y30240000D02*
X31757000Y30240000D01*
X41900000Y30200000D02*
X31760000Y30200000D01*
X41898000Y30160000D02*
X31762000Y30160000D01*
X41895000Y30120000D02*
X31765000Y30120000D01*
X41892000Y30080000D02*
X31768000Y30080000D01*
X41888000Y30040000D02*
X31772000Y30040000D01*
X41884000Y30000000D02*
X31776000Y30000000D01*
X41880000Y29960000D02*
X31780000Y29960000D01*
X41875000Y29920000D02*
X31785000Y29920000D01*
X41870000Y29880000D02*
X31790000Y29880000D01*
X41865000Y29840000D02*
X31795000Y29840000D01*
X41860000Y29799000D02*
X31800000Y29799000D01*
X41854000Y29759000D02*
X31806000Y29759000D01*
X41848000Y29719000D02*
X31812000Y29719000D01*
X41841000Y29679000D02*
X31819000Y29679000D01*
X41834000Y29639000D02*
X31826000Y29639000D01*
X41827000Y29599000D02*
X31833000Y29599000D01*
X41820000Y29559000D02*
X31840000Y29559000D01*
X41812000Y29519000D02*
X31848000Y29519000D01*
X41804000Y29479000D02*
X31856000Y29479000D01*
X41795000Y29439000D02*
X31865000Y29439000D01*
X41786000Y29399000D02*
X31874000Y29399000D01*
X41777000Y29359000D02*
X31883000Y29359000D01*
X41768000Y29319000D02*
X31892000Y29319000D01*
X41758000Y29279000D02*
X31902000Y29279000D01*
X41748000Y29239000D02*
X38071000Y29239000D01*
X35589000Y29239000D02*
X31912000Y29239000D01*
X41737000Y29199000D02*
X38071000Y29199000D01*
X35589000Y29199000D02*
X31923000Y29199000D01*
X41727000Y29159000D02*
X38071000Y29159000D01*
X35589000Y29159000D02*
X31933000Y29159000D01*
X41715000Y29119000D02*
X38071000Y29119000D01*
X35589000Y29119000D02*
X31945000Y29119000D01*
X41704000Y29079000D02*
X38071000Y29079000D01*
X35589000Y29079000D02*
X31956000Y29079000D01*
X41692000Y29039000D02*
X38071000Y29039000D01*
X35589000Y29039000D02*
X31968000Y29039000D01*
X41680000Y28999000D02*
X38071000Y28999000D01*
X35589000Y28999000D02*
X31980000Y28999000D01*
X41667000Y28959000D02*
X38071000Y28959000D01*
X35589000Y28959000D02*
X31993000Y28959000D01*
X41654000Y28919000D02*
X38071000Y28919000D01*
X35589000Y28919000D02*
X32006000Y28919000D01*
X41641000Y28879000D02*
X38071000Y28879000D01*
X35589000Y28879000D02*
X32019000Y28879000D01*
X41627000Y28839000D02*
X38071000Y28839000D01*
X35589000Y28839000D02*
X32033000Y28839000D01*
X41613000Y28799000D02*
X38071000Y28799000D01*
X35589000Y28799000D02*
X32047000Y28799000D01*
X41598000Y28759000D02*
X38071000Y28759000D01*
X35589000Y28759000D02*
X32062000Y28759000D01*
X41584000Y28719000D02*
X38071000Y28719000D01*
X35589000Y28719000D02*
X32076000Y28719000D01*
X41568000Y28679000D02*
X38071000Y28679000D01*
X35589000Y28679000D02*
X32092000Y28679000D01*
X41553000Y28639000D02*
X38071000Y28639000D01*
X35589000Y28639000D02*
X32107000Y28639000D01*
X41537000Y28599000D02*
X38071000Y28599000D01*
X35589000Y28599000D02*
X32123000Y28599000D01*
X41520000Y28559000D02*
X38071000Y28559000D01*
X35589000Y28559000D02*
X32140000Y28559000D01*
X41504000Y28519000D02*
X38071000Y28519000D01*
X35589000Y28519000D02*
X32156000Y28519000D01*
X41487000Y28479000D02*
X38071000Y28479000D01*
X35589000Y28479000D02*
X32173000Y28479000D01*
X41469000Y28439000D02*
X38071000Y28439000D01*
X35589000Y28439000D02*
X32191000Y28439000D01*
X41451000Y28399000D02*
X38071000Y28399000D01*
X35589000Y28399000D02*
X32209000Y28399000D01*
X41433000Y28359000D02*
X38071000Y28359000D01*
X35589000Y28359000D02*
X32227000Y28359000D01*
X41414000Y28319000D02*
X38071000Y28319000D01*
X35589000Y28319000D02*
X32246000Y28319000D01*
X41394000Y28279000D02*
X38071000Y28279000D01*
X35589000Y28279000D02*
X32266000Y28279000D01*
X41375000Y28239000D02*
X38071000Y28239000D01*
X35589000Y28239000D02*
X32285000Y28239000D01*
X41355000Y28199000D02*
X38071000Y28199000D01*
X35589000Y28199000D02*
X32305000Y28199000D01*
X41334000Y28159000D02*
X38071000Y28159000D01*
X35589000Y28159000D02*
X32326000Y28159000D01*
X41313000Y28119000D02*
X38071000Y28119000D01*
X35589000Y28119000D02*
X32347000Y28119000D01*
X41292000Y28079000D02*
X38071000Y28079000D01*
X35589000Y28079000D02*
X32368000Y28079000D01*
X41270000Y28039000D02*
X38071000Y28039000D01*
X35589000Y28039000D02*
X32390000Y28039000D01*
X41247000Y27999000D02*
X38071000Y27999000D01*
X35589000Y27999000D02*
X32413000Y27999000D01*
X41225000Y27959000D02*
X38071000Y27959000D01*
X35589000Y27959000D02*
X32435000Y27959000D01*
X41201000Y27919000D02*
X38071000Y27919000D01*
X35589000Y27919000D02*
X32459000Y27919000D01*
X41177000Y27879000D02*
X38071000Y27879000D01*
X35589000Y27879000D02*
X32483000Y27879000D01*
X41153000Y27839000D02*
X38071000Y27839000D01*
X35589000Y27839000D02*
X32507000Y27839000D01*
X41128000Y27799000D02*
X38071000Y27799000D01*
X35589000Y27799000D02*
X32532000Y27799000D01*
X41103000Y27759000D02*
X38071000Y27759000D01*
X35589000Y27759000D02*
X32557000Y27759000D01*
X41077000Y27719000D02*
X38071000Y27719000D01*
X35589000Y27719000D02*
X32583000Y27719000D01*
X41051000Y27679000D02*
X38071000Y27679000D01*
X35589000Y27679000D02*
X32609000Y27679000D01*
X41024000Y27639000D02*
X38071000Y27639000D01*
X35589000Y27639000D02*
X32636000Y27639000D01*
X40996000Y27599000D02*
X38071000Y27599000D01*
X35589000Y27599000D02*
X32664000Y27599000D01*
X40968000Y27559000D02*
X38071000Y27559000D01*
X35589000Y27559000D02*
X32692000Y27559000D01*
X40940000Y27519000D02*
X38071000Y27519000D01*
X35589000Y27519000D02*
X32720000Y27519000D01*
X40910000Y27479000D02*
X38071000Y27479000D01*
X35589000Y27479000D02*
X32750000Y27479000D01*
X40880000Y27439000D02*
X38071000Y27439000D01*
X35589000Y27439000D02*
X32780000Y27439000D01*
X40850000Y27399000D02*
X38071000Y27399000D01*
X35589000Y27399000D02*
X32810000Y27399000D01*
X40819000Y27359000D02*
X38071000Y27359000D01*
X35589000Y27359000D02*
X32841000Y27359000D01*
X40787000Y27319000D02*
X38071000Y27319000D01*
X35589000Y27319000D02*
X32873000Y27319000D01*
X40755000Y27279000D02*
X38071000Y27279000D01*
X35589000Y27279000D02*
X32905000Y27279000D01*
X40722000Y27239000D02*
X38071000Y27239000D01*
X35589000Y27239000D02*
X32938000Y27239000D01*
X40688000Y27199000D02*
X38071000Y27199000D01*
X35589000Y27199000D02*
X32972000Y27199000D01*
X40654000Y27159000D02*
X38071000Y27159000D01*
X35589000Y27159000D02*
X33006000Y27159000D01*
X40619000Y27119000D02*
X38071000Y27119000D01*
X35589000Y27119000D02*
X33041000Y27119000D01*
X40583000Y27079000D02*
X38071000Y27079000D01*
X35589000Y27079000D02*
X33077000Y27079000D01*
X40546000Y27039000D02*
X38071000Y27039000D01*
X35589000Y27039000D02*
X33114000Y27039000D01*
X40509000Y26999000D02*
X38071000Y26999000D01*
X35589000Y26999000D02*
X33151000Y26999000D01*
X40470000Y26959000D02*
X38071000Y26959000D01*
X35589000Y26959000D02*
X33190000Y26959000D01*
X40431000Y26919000D02*
X38071000Y26919000D01*
X35589000Y26919000D02*
X33229000Y26919000D01*
X40391000Y26879000D02*
X38071000Y26879000D01*
X35589000Y26879000D02*
X33269000Y26879000D01*
X40350000Y26839000D02*
X38071000Y26839000D01*
X35589000Y26839000D02*
X33310000Y26839000D01*
X40308000Y26799000D02*
X38071000Y26799000D01*
X35589000Y26799000D02*
X33352000Y26799000D01*
X40266000Y26759000D02*
X33394000Y26759000D01*
X40222000Y26719000D02*
X33438000Y26719000D01*
X40177000Y26679000D02*
X33483000Y26679000D01*
X40131000Y26639000D02*
X33529000Y26639000D01*
X40084000Y26599000D02*
X33576000Y26599000D01*
X40036000Y26559000D02*
X33624000Y26559000D01*
X39986000Y26519000D02*
X33674000Y26519000D01*
X39936000Y26479000D02*
X33724000Y26479000D01*
X39884000Y26439000D02*
X33776000Y26439000D01*
X39830000Y26399000D02*
X33830000Y26399000D01*
X39775000Y26359000D02*
X33885000Y26359000D01*
X39719000Y26319000D02*
X33941000Y26319000D01*
X39660000Y26279000D02*
X34000000Y26279000D01*
X39600000Y26239000D02*
X34060000Y26239000D01*
X39539000Y26199000D02*
X34121000Y26199000D01*
X39475000Y26159000D02*
X34185000Y26159000D01*
X39409000Y26119000D02*
X34251000Y26119000D01*
X39340000Y26079000D02*
X34320000Y26079000D01*
X39269000Y26039000D02*
X34391000Y26039000D01*
X39195000Y25999000D02*
X34465000Y25999000D01*
X39119000Y25959000D02*
X34541000Y25959000D01*
X39039000Y25919000D02*
X34621000Y25919000D01*
X38955000Y25879000D02*
X34705000Y25879000D01*
X38867000Y25839000D02*
X34793000Y25839000D01*
X38774000Y25799000D02*
X34886000Y25799000D01*
X38676000Y25759000D02*
X34984000Y25759000D01*
X38572000Y25719000D02*
X35088000Y25719000D01*
X38460000Y25679000D02*
X35200000Y25679000D01*
X38340000Y25639000D02*
X35320000Y25639000D01*
X38208000Y25599000D02*
X35452000Y25599000D01*
X38060000Y25559000D02*
X35600000Y25559000D01*
X37892000Y25519000D02*
X35768000Y25519000D01*
X37692000Y25479000D02*
X35968000Y25479000D01*
X37429000Y25439000D02*
X36231000Y25439000D01*
X41950000Y30520000D02*
G75*
G03*
X31710000Y30520000I-5120000J0D01*
G01*
X31710000Y30520000D02*
G75*
G03*
X41950000Y30520000I5120000J0D01*
G01*
D11*
%TO.C,C3*%
X31127700Y35460940D02*
X31127700Y34262060D01*
X31628080Y34861500D02*
X30528260Y34861500D01*
X30274260Y34160460D02*
X26875740Y34160460D01*
X30274260Y26860500D02*
X30274260Y32859980D01*
X26875740Y26860500D02*
X26875740Y32859980D01*
%TO.C,J1*%
X7620000Y17145000D02*
X2540000Y17145000D01*
X7620000Y27305000D02*
X7620000Y17145000D01*
X2540000Y17145000D02*
X2540000Y27305000D01*
X2540000Y27305000D02*
X7620000Y27305000D01*
D14*
%TO.C,RV1*%
X50360000Y31105000D02*
X50360000Y26035000D01*
X50360000Y31105000D02*
X60130000Y31105000D01*
X50360000Y26035000D02*
X60130000Y26035000D01*
X60130000Y31105000D02*
X60130000Y26035000D01*
%TO.C,RV2*%
X50360000Y25390000D02*
X50360000Y20320000D01*
X50360000Y25390000D02*
X60130000Y25390000D01*
X50360000Y20320000D02*
X60130000Y20320000D01*
X60130000Y25390000D02*
X60130000Y20320000D01*
%TO.C,RV3*%
X50360000Y19675000D02*
X50360000Y14605000D01*
X50360000Y19675000D02*
X60130000Y19675000D01*
X50360000Y14605000D02*
X60130000Y14605000D01*
X60130000Y19675000D02*
X60130000Y14605000D01*
%TO.C,RV4*%
X50360000Y13960000D02*
X50360000Y8890000D01*
X50360000Y13960000D02*
X60130000Y13960000D01*
X50360000Y8890000D02*
X60130000Y8890000D01*
X60130000Y13960000D02*
X60130000Y8890000D01*
%TO.C,U1*%
X28055000Y24245000D02*
X13855000Y24245000D01*
X27185000Y23375000D02*
X14725000Y23375000D01*
X27185000Y10915000D02*
X27185000Y23375000D01*
X27185000Y10915000D02*
X14955000Y10915000D01*
X14725000Y10915000D02*
X14725000Y23375000D01*
X28055000Y10045000D02*
X28055000Y24245000D01*
X28055000Y10045000D02*
X13855000Y10045000D01*
X13855000Y10045000D02*
X13855000Y24245000D01*
%TD*%
D15*
%TO.C,J1*%
X6350000Y18415000D03*
X3810000Y18415000D03*
X6350000Y20955000D03*
X3810000Y20955000D03*
X6350000Y23495000D03*
X3810000Y23495000D03*
X6350000Y26035000D03*
X3810000Y26035000D03*
%TD*%
M02*
