%TF.GenerationSoftware,KiCad,Pcbnew,7.0.11+1*%
%TF.CreationDate,2024-07-04T21:11:31+00:00*%
%TF.ProjectId,SIPM01,5349504d-3031-42e6-9b69-6361645f7063,rev?*%
%TF.SameCoordinates,Original*%
%TF.FileFunction,Soldermask,Top*%
%TF.FilePolarity,Negative*%
%FSLAX46Y46*%
G04 Gerber Fmt 4.6, Leading zero omitted, Abs format (unit mm)*
G04 Created by KiCad (PCBNEW 7.0.11+1) date 2024-07-04 21:11:31*
%MOMM*%
%LPD*%
G01*
G04 APERTURE LIST*
G04 Aperture macros list*
%AMRoundRect*
0 Rectangle with rounded corners*
0 $1 Rounding radius*
0 $2 $3 $4 $5 $6 $7 $8 $9 X,Y pos of 4 corners*
0 Add a 4 corners polygon primitive as box body*
4,1,4,$2,$3,$4,$5,$6,$7,$8,$9,$2,$3,0*
0 Add four circle primitives for the rounded corners*
1,1,$1+$1,$2,$3*
1,1,$1+$1,$4,$5*
1,1,$1+$1,$6,$7*
1,1,$1+$1,$8,$9*
0 Add four rect primitives between the rounded corners*
20,1,$1+$1,$2,$3,$4,$5,0*
20,1,$1+$1,$4,$5,$6,$7,0*
20,1,$1+$1,$6,$7,$8,$9,0*
20,1,$1+$1,$8,$9,$2,$3,0*%
G04 Aperture macros list end*
%ADD10RoundRect,0.200000X-1.000000X1.000000X-1.000000X-1.000000X1.000000X-1.000000X1.000000X1.000000X0*%
%ADD11C,2.400000*%
%ADD12RoundRect,0.200000X-1.249680X1.275080X-1.249680X-1.275080X1.249680X-1.275080X1.249680X1.275080X0*%
%ADD13RoundRect,0.200000X-0.700000X0.449500X-0.700000X-0.449500X0.700000X-0.449500X0.700000X0.449500X0*%
%ADD14RoundRect,0.200000X-0.700000X0.444500X-0.700000X-0.444500X0.700000X-0.444500X0.700000X0.444500X0*%
%ADD15RoundRect,0.200000X0.700000X-0.449500X0.700000X0.449500X-0.700000X0.449500X-0.700000X-0.449500X0*%
%ADD16RoundRect,0.200000X0.700000X-0.444500X0.700000X0.444500X-0.700000X0.444500X-0.700000X-0.444500X0*%
%ADD17RoundRect,0.200000X0.762000X0.762000X-0.762000X0.762000X-0.762000X-0.762000X0.762000X-0.762000X0*%
%ADD18C,6.400000*%
%ADD19RoundRect,0.200000X0.449500X0.700000X-0.449500X0.700000X-0.449500X-0.700000X0.449500X-0.700000X0*%
%ADD20RoundRect,0.200000X0.444500X0.700000X-0.444500X0.700000X-0.444500X-0.700000X0.444500X-0.700000X0*%
%ADD21C,1.840000*%
%ADD22C,0.630000*%
%ADD23RoundRect,0.200000X0.600000X-1.000000X0.600000X1.000000X-0.600000X1.000000X-0.600000X-1.000000X0*%
%ADD24RoundRect,0.200000X-1.150000X1.150000X-1.150000X-1.150000X1.150000X-1.150000X1.150000X1.150000X0*%
%ADD25C,2.900000*%
%ADD26RoundRect,0.200000X1.150000X-1.150000X1.150000X1.150000X-1.150000X1.150000X-1.150000X-1.150000X0*%
G04 APERTURE END LIST*
D10*
%TO.C,C2*%
X36830000Y33020000D03*
D11*
X36830000Y28020000D03*
%TD*%
D12*
%TO.C,C3*%
X28575000Y32385000D03*
X28575000Y27335480D03*
%TD*%
D13*
%TO.C,C4*%
X45720000Y31432500D03*
D14*
X45720000Y29527500D03*
%TD*%
D13*
%TO.C,C5*%
X43180000Y31432500D03*
D14*
X43180000Y29527500D03*
%TD*%
D15*
%TO.C,C7*%
X48895000Y20320000D03*
D16*
X48895000Y22225000D03*
%TD*%
D15*
%TO.C,C8*%
X46355000Y20320000D03*
D16*
X46355000Y22225000D03*
%TD*%
D15*
%TO.C,C9*%
X48895000Y14605000D03*
D16*
X48895000Y16510000D03*
%TD*%
D15*
%TO.C,C10*%
X46355000Y14605000D03*
D16*
X46355000Y16510000D03*
%TD*%
D15*
%TO.C,C11*%
X48895000Y8890000D03*
D16*
X48895000Y10795000D03*
%TD*%
D15*
%TO.C,C12*%
X46355000Y8890000D03*
D16*
X46355000Y10795000D03*
%TD*%
D17*
%TO.C,J1*%
X6350000Y18415000D03*
X3810000Y18415000D03*
X6350000Y20955000D03*
X3810000Y20955000D03*
X6350000Y23495000D03*
X3810000Y23495000D03*
X6350000Y26035000D03*
X3810000Y26035000D03*
%TD*%
D18*
%TO.C,M1*%
X55880000Y35560000D03*
%TD*%
%TO.C,M2*%
X5080000Y5080000D03*
%TD*%
%TO.C,M3*%
X5080000Y35560000D03*
%TD*%
%TO.C,M4*%
X55880000Y5080000D03*
%TD*%
D19*
%TO.C,R4*%
X49530000Y24130000D03*
D20*
X47625000Y24130000D03*
%TD*%
D19*
%TO.C,R6*%
X49530000Y18415000D03*
D20*
X47625000Y18415000D03*
%TD*%
D19*
%TO.C,R8*%
X49530000Y12700000D03*
D20*
X47625000Y12700000D03*
%TD*%
D21*
%TO.C,RV1*%
X57785000Y28575000D03*
X55245000Y28575000D03*
X52705000Y28575000D03*
%TD*%
%TO.C,RV2*%
X57785000Y22860000D03*
X55245000Y22860000D03*
X52705000Y22860000D03*
%TD*%
%TO.C,RV3*%
X57785000Y17145000D03*
X55245000Y17145000D03*
X52705000Y17145000D03*
%TD*%
%TO.C,RV4*%
X57785000Y11430000D03*
X55245000Y11430000D03*
X52705000Y11430000D03*
%TD*%
D22*
%TO.C,U1*%
X26055000Y22245000D03*
X26055000Y17145000D03*
X26055000Y12045000D03*
X20955000Y22245000D03*
X20955000Y17145000D03*
X20955000Y12045000D03*
X15855000Y22245000D03*
X15855000Y17145000D03*
X15855000Y12045000D03*
%TD*%
D19*
%TO.C,R2*%
X49530000Y30480000D03*
D20*
X47625000Y30480000D03*
%TD*%
D15*
%TO.C,C1*%
X48895000Y26035000D03*
D16*
X48895000Y27940000D03*
%TD*%
D15*
%TO.C,C6*%
X46355000Y26035000D03*
D16*
X46355000Y27940000D03*
%TD*%
D23*
%TO.C,J2*%
X34925000Y22225000D03*
X36525000Y22225000D03*
%TD*%
%TO.C,J3*%
X34925000Y19685000D03*
X36525000Y19685000D03*
%TD*%
%TO.C,J4*%
X34925000Y17145000D03*
X36525000Y17145000D03*
%TD*%
%TO.C,J5*%
X34925000Y14605000D03*
X36525000Y14605000D03*
%TD*%
D24*
%TO.C,BT2*%
X29845000Y36170000D03*
D25*
X29845000Y4470000D03*
%TD*%
D24*
%TO.C,BT3*%
X15875000Y36170000D03*
D25*
X15875000Y4470000D03*
%TD*%
D26*
%TO.C,BT1*%
X43815000Y4470000D03*
D25*
X43815000Y36170000D03*
%TD*%
M02*
