%TF.GenerationSoftware,KiCad,Pcbnew,8.0.3+1*%
%TF.CreationDate,2024-07-16T01:09:23+00:00*%
%TF.ProjectId,SIPM01,5349504d-3031-42e6-9b69-6361645f7063,rev?*%
%TF.SameCoordinates,Original*%
%TF.FileFunction,Paste,Top*%
%TF.FilePolarity,Positive*%
%FSLAX46Y46*%
G04 Gerber Fmt 4.6, Leading zero omitted, Abs format (unit mm)*
G04 Created by KiCad (PCBNEW 8.0.3+1) date 2024-07-16 01:09:23*
%MOMM*%
%LPD*%
G01*
G04 APERTURE LIST*
%ADD10R,2.499360X2.550160*%
%ADD11R,1.400000X0.899000*%
%ADD12R,1.400000X0.889000*%
%ADD13R,0.899000X1.400000*%
%ADD14R,0.889000X1.400000*%
%ADD15C,0.230000*%
%ADD16R,1.200000X2.000000*%
G04 APERTURE END LIST*
D10*
%TO.C,C3*%
X28575000Y32385000D03*
X28575000Y27335480D03*
%TD*%
D11*
%TO.C,C4*%
X45720000Y31432500D03*
D12*
X45720000Y29527500D03*
%TD*%
D11*
%TO.C,C5*%
X43180000Y31432500D03*
D12*
X43180000Y29527500D03*
%TD*%
D11*
%TO.C,C7*%
X48895000Y20320000D03*
D12*
X48895000Y22225000D03*
%TD*%
D11*
%TO.C,C8*%
X46355000Y20320000D03*
D12*
X46355000Y22225000D03*
%TD*%
D11*
%TO.C,C9*%
X48895000Y14605000D03*
D12*
X48895000Y16510000D03*
%TD*%
D11*
%TO.C,C10*%
X46355000Y14605000D03*
D12*
X46355000Y16510000D03*
%TD*%
D11*
%TO.C,C11*%
X48895000Y8890000D03*
D12*
X48895000Y10795000D03*
%TD*%
D11*
%TO.C,C12*%
X46355000Y8890000D03*
D12*
X46355000Y10795000D03*
%TD*%
D13*
%TO.C,R4*%
X49530000Y24130000D03*
D14*
X47625000Y24130000D03*
%TD*%
D13*
%TO.C,R6*%
X49530000Y18415000D03*
D14*
X47625000Y18415000D03*
%TD*%
D13*
%TO.C,R8*%
X49530000Y12700000D03*
D14*
X47625000Y12700000D03*
%TD*%
D15*
%TO.C,U1*%
X26055000Y22245000D03*
X26055000Y17145000D03*
X26055000Y12045000D03*
X20955000Y22245000D03*
X20955000Y17145000D03*
X20955000Y12045000D03*
X15855000Y22245000D03*
X15855000Y17145000D03*
X15855000Y12045000D03*
%TD*%
D13*
%TO.C,R2*%
X49530000Y30480000D03*
D14*
X47625000Y30480000D03*
%TD*%
D11*
%TO.C,C1*%
X48895000Y26035000D03*
D12*
X48895000Y27940000D03*
%TD*%
D11*
%TO.C,C6*%
X46355000Y26035000D03*
D12*
X46355000Y27940000D03*
%TD*%
D16*
%TO.C,J2*%
X34925000Y22225000D03*
X36525000Y22225000D03*
%TD*%
%TO.C,J3*%
X34925000Y19685000D03*
X36525000Y19685000D03*
%TD*%
%TO.C,J4*%
X34925000Y17145000D03*
X36525000Y17145000D03*
%TD*%
%TO.C,J5*%
X34925000Y14605000D03*
X36525000Y14605000D03*
%TD*%
M02*
