%TF.GenerationSoftware,KiCad,Pcbnew,7.0.11+1*%
%TF.CreationDate,2024-07-04T21:11:31+00:00*%
%TF.ProjectId,SIPM01,5349504d-3031-42e6-9b69-6361645f7063,rev?*%
%TF.SameCoordinates,Original*%
%TF.FileFunction,Legend,Bot*%
%TF.FilePolarity,Positive*%
%FSLAX46Y46*%
G04 Gerber Fmt 4.6, Leading zero omitted, Abs format (unit mm)*
G04 Created by KiCad (PCBNEW 7.0.11+1) date 2024-07-04 21:11:31*
%MOMM*%
%LPD*%
G01*
G04 APERTURE LIST*
%ADD10C,0.150000*%
%ADD11C,0.120000*%
G04 APERTURE END LIST*
D10*
X29674409Y30300514D02*
X29722028Y30157657D01*
X29722028Y30157657D02*
X29769647Y30110038D01*
X29769647Y30110038D02*
X29864885Y30062419D01*
X29864885Y30062419D02*
X30007742Y30062419D01*
X30007742Y30062419D02*
X30102980Y30110038D01*
X30102980Y30110038D02*
X30150600Y30157657D01*
X30150600Y30157657D02*
X30198219Y30252895D01*
X30198219Y30252895D02*
X30198219Y30633847D01*
X30198219Y30633847D02*
X29198219Y30633847D01*
X29198219Y30633847D02*
X29198219Y30300514D01*
X29198219Y30300514D02*
X29245838Y30205276D01*
X29245838Y30205276D02*
X29293457Y30157657D01*
X29293457Y30157657D02*
X29388695Y30110038D01*
X29388695Y30110038D02*
X29483933Y30110038D01*
X29483933Y30110038D02*
X29579171Y30157657D01*
X29579171Y30157657D02*
X29626790Y30205276D01*
X29626790Y30205276D02*
X29674409Y30300514D01*
X29674409Y30300514D02*
X29674409Y30633847D01*
X29198219Y29776704D02*
X29198219Y29205276D01*
X30198219Y29490990D02*
X29198219Y29490990D01*
X29293457Y28919561D02*
X29245838Y28871942D01*
X29245838Y28871942D02*
X29198219Y28776704D01*
X29198219Y28776704D02*
X29198219Y28538609D01*
X29198219Y28538609D02*
X29245838Y28443371D01*
X29245838Y28443371D02*
X29293457Y28395752D01*
X29293457Y28395752D02*
X29388695Y28348133D01*
X29388695Y28348133D02*
X29483933Y28348133D01*
X29483933Y28348133D02*
X29626790Y28395752D01*
X29626790Y28395752D02*
X30198219Y28967180D01*
X30198219Y28967180D02*
X30198219Y28348133D01*
X32001666Y36550551D02*
X32001666Y35788647D01*
X32382619Y36169599D02*
X31620714Y36169599D01*
X57224819Y25884166D02*
X56748628Y26217499D01*
X57224819Y26455594D02*
X56224819Y26455594D01*
X56224819Y26455594D02*
X56224819Y26074642D01*
X56224819Y26074642D02*
X56272438Y25979404D01*
X56272438Y25979404D02*
X56320057Y25931785D01*
X56320057Y25931785D02*
X56415295Y25884166D01*
X56415295Y25884166D02*
X56558152Y25884166D01*
X56558152Y25884166D02*
X56653390Y25931785D01*
X56653390Y25931785D02*
X56701009Y25979404D01*
X56701009Y25979404D02*
X56748628Y26074642D01*
X56748628Y26074642D02*
X56748628Y26455594D01*
X56224819Y25550832D02*
X56224819Y24931785D01*
X56224819Y24931785D02*
X56605771Y25265118D01*
X56605771Y25265118D02*
X56605771Y25122261D01*
X56605771Y25122261D02*
X56653390Y25027023D01*
X56653390Y25027023D02*
X56701009Y24979404D01*
X56701009Y24979404D02*
X56796247Y24931785D01*
X56796247Y24931785D02*
X57034342Y24931785D01*
X57034342Y24931785D02*
X57129580Y24979404D01*
X57129580Y24979404D02*
X57177200Y25027023D01*
X57177200Y25027023D02*
X57224819Y25122261D01*
X57224819Y25122261D02*
X57224819Y25407975D01*
X57224819Y25407975D02*
X57177200Y25503213D01*
X57177200Y25503213D02*
X57129580Y25550832D01*
X56999166Y17580180D02*
X57332499Y18056371D01*
X57570594Y17580180D02*
X57570594Y18580180D01*
X57570594Y18580180D02*
X57189642Y18580180D01*
X57189642Y18580180D02*
X57094404Y18532561D01*
X57094404Y18532561D02*
X57046785Y18484942D01*
X57046785Y18484942D02*
X56999166Y18389704D01*
X56999166Y18389704D02*
X56999166Y18246847D01*
X56999166Y18246847D02*
X57046785Y18151609D01*
X57046785Y18151609D02*
X57094404Y18103990D01*
X57094404Y18103990D02*
X57189642Y18056371D01*
X57189642Y18056371D02*
X57570594Y18056371D01*
X56094404Y18580180D02*
X56570594Y18580180D01*
X56570594Y18580180D02*
X56618213Y18103990D01*
X56618213Y18103990D02*
X56570594Y18151609D01*
X56570594Y18151609D02*
X56475356Y18199228D01*
X56475356Y18199228D02*
X56237261Y18199228D01*
X56237261Y18199228D02*
X56142023Y18151609D01*
X56142023Y18151609D02*
X56094404Y18103990D01*
X56094404Y18103990D02*
X56046785Y18008752D01*
X56046785Y18008752D02*
X56046785Y17770657D01*
X56046785Y17770657D02*
X56094404Y17675419D01*
X56094404Y17675419D02*
X56142023Y17627800D01*
X56142023Y17627800D02*
X56237261Y17580180D01*
X56237261Y17580180D02*
X56475356Y17580180D01*
X56475356Y17580180D02*
X56570594Y17627800D01*
X56570594Y17627800D02*
X56618213Y17675419D01*
X56999166Y11865180D02*
X57332499Y12341371D01*
X57570594Y11865180D02*
X57570594Y12865180D01*
X57570594Y12865180D02*
X57189642Y12865180D01*
X57189642Y12865180D02*
X57094404Y12817561D01*
X57094404Y12817561D02*
X57046785Y12769942D01*
X57046785Y12769942D02*
X56999166Y12674704D01*
X56999166Y12674704D02*
X56999166Y12531847D01*
X56999166Y12531847D02*
X57046785Y12436609D01*
X57046785Y12436609D02*
X57094404Y12388990D01*
X57094404Y12388990D02*
X57189642Y12341371D01*
X57189642Y12341371D02*
X57570594Y12341371D01*
X56665832Y12865180D02*
X55999166Y12865180D01*
X55999166Y12865180D02*
X56427737Y11865180D01*
X15704409Y30300514D02*
X15752028Y30157657D01*
X15752028Y30157657D02*
X15799647Y30110038D01*
X15799647Y30110038D02*
X15894885Y30062419D01*
X15894885Y30062419D02*
X16037742Y30062419D01*
X16037742Y30062419D02*
X16132980Y30110038D01*
X16132980Y30110038D02*
X16180600Y30157657D01*
X16180600Y30157657D02*
X16228219Y30252895D01*
X16228219Y30252895D02*
X16228219Y30633847D01*
X16228219Y30633847D02*
X15228219Y30633847D01*
X15228219Y30633847D02*
X15228219Y30300514D01*
X15228219Y30300514D02*
X15275838Y30205276D01*
X15275838Y30205276D02*
X15323457Y30157657D01*
X15323457Y30157657D02*
X15418695Y30110038D01*
X15418695Y30110038D02*
X15513933Y30110038D01*
X15513933Y30110038D02*
X15609171Y30157657D01*
X15609171Y30157657D02*
X15656790Y30205276D01*
X15656790Y30205276D02*
X15704409Y30300514D01*
X15704409Y30300514D02*
X15704409Y30633847D01*
X15228219Y29776704D02*
X15228219Y29205276D01*
X16228219Y29490990D02*
X15228219Y29490990D01*
X15228219Y28967180D02*
X15228219Y28348133D01*
X15228219Y28348133D02*
X15609171Y28681466D01*
X15609171Y28681466D02*
X15609171Y28538609D01*
X15609171Y28538609D02*
X15656790Y28443371D01*
X15656790Y28443371D02*
X15704409Y28395752D01*
X15704409Y28395752D02*
X15799647Y28348133D01*
X15799647Y28348133D02*
X16037742Y28348133D01*
X16037742Y28348133D02*
X16132980Y28395752D01*
X16132980Y28395752D02*
X16180600Y28443371D01*
X16180600Y28443371D02*
X16228219Y28538609D01*
X16228219Y28538609D02*
X16228219Y28824323D01*
X16228219Y28824323D02*
X16180600Y28919561D01*
X16180600Y28919561D02*
X16132980Y28967180D01*
X18031666Y36550551D02*
X18031666Y35788647D01*
X18412619Y36169599D02*
X17650714Y36169599D01*
X43847609Y11910914D02*
X43895228Y11768057D01*
X43895228Y11768057D02*
X43942847Y11720438D01*
X43942847Y11720438D02*
X44038085Y11672819D01*
X44038085Y11672819D02*
X44180942Y11672819D01*
X44180942Y11672819D02*
X44276180Y11720438D01*
X44276180Y11720438D02*
X44323800Y11768057D01*
X44323800Y11768057D02*
X44371419Y11863295D01*
X44371419Y11863295D02*
X44371419Y12244247D01*
X44371419Y12244247D02*
X43371419Y12244247D01*
X43371419Y12244247D02*
X43371419Y11910914D01*
X43371419Y11910914D02*
X43419038Y11815676D01*
X43419038Y11815676D02*
X43466657Y11768057D01*
X43466657Y11768057D02*
X43561895Y11720438D01*
X43561895Y11720438D02*
X43657133Y11720438D01*
X43657133Y11720438D02*
X43752371Y11768057D01*
X43752371Y11768057D02*
X43799990Y11815676D01*
X43799990Y11815676D02*
X43847609Y11910914D01*
X43847609Y11910914D02*
X43847609Y12244247D01*
X43371419Y11387104D02*
X43371419Y10815676D01*
X44371419Y11101390D02*
X43371419Y11101390D01*
X44371419Y9958533D02*
X44371419Y10529961D01*
X44371419Y10244247D02*
X43371419Y10244247D01*
X43371419Y10244247D02*
X43514276Y10339485D01*
X43514276Y10339485D02*
X43609514Y10434723D01*
X43609514Y10434723D02*
X43657133Y10529961D01*
X41806066Y4851351D02*
X41806066Y4089447D01*
X42187019Y4470399D02*
X41425114Y4470399D01*
X57984819Y25884166D02*
X57508628Y26217499D01*
X57984819Y26455594D02*
X56984819Y26455594D01*
X56984819Y26455594D02*
X56984819Y26074642D01*
X56984819Y26074642D02*
X57032438Y25979404D01*
X57032438Y25979404D02*
X57080057Y25931785D01*
X57080057Y25931785D02*
X57175295Y25884166D01*
X57175295Y25884166D02*
X57318152Y25884166D01*
X57318152Y25884166D02*
X57413390Y25931785D01*
X57413390Y25931785D02*
X57461009Y25979404D01*
X57461009Y25979404D02*
X57508628Y26074642D01*
X57508628Y26074642D02*
X57508628Y26455594D01*
X57984819Y24931785D02*
X57984819Y25503213D01*
X57984819Y25217499D02*
X56984819Y25217499D01*
X56984819Y25217499D02*
X57127676Y25312737D01*
X57127676Y25312737D02*
X57222914Y25407975D01*
X57222914Y25407975D02*
X57270533Y25503213D01*
D11*
%TO.C,BT2*%
X35819600Y38296600D02*
X35819600Y35296600D01*
X27819600Y38296600D02*
X27819600Y37296600D01*
X23819600Y38296600D02*
X23819600Y35296600D01*
X23295000Y38220000D02*
X36395000Y38220000D01*
X31819600Y37296600D02*
X31819600Y38296600D01*
X33819600Y33296600D02*
X33819600Y23296600D01*
X25819600Y33296600D02*
X25819600Y23296600D01*
X28794200Y9072800D02*
X30794200Y9072800D01*
X33794200Y8072800D02*
X33794200Y18072800D01*
X27794200Y8072800D02*
X31794200Y8072800D01*
X25794200Y8072800D02*
X25794200Y18072800D01*
X32794200Y7072800D02*
X26794200Y7072800D01*
X25794200Y6072800D02*
X33794200Y6072800D01*
X35794200Y3072800D02*
X35794200Y6072800D01*
X23794200Y3072800D02*
X23794200Y6072800D01*
X36395000Y2420000D02*
X23295000Y2420000D01*
X36345000Y2420000D02*
X36345000Y38220000D01*
X23295000Y2420000D02*
X23295000Y38220000D01*
X25819600Y33296600D02*
G75*
G03*
X23819600Y35296600I-1999999J1D01*
G01*
X35819600Y35296600D02*
G75*
G03*
X33819600Y33296600I-1J-1999999D01*
G01*
X23819600Y21296600D02*
G75*
G03*
X25819600Y23296600I1J1999999D01*
G01*
X33819600Y23296600D02*
G75*
G03*
X35819600Y21296600I1999999J-1D01*
G01*
X25794200Y18072800D02*
G75*
G03*
X23794200Y20072800I-2000000J0D01*
G01*
X35794200Y20072800D02*
G75*
G03*
X33794200Y18072800I0J-2000000D01*
G01*
X23794200Y6072800D02*
G75*
G03*
X25794200Y8072800I0J2000000D01*
G01*
X33794200Y8072800D02*
G75*
G03*
X35794200Y6072800I2000000J0D01*
G01*
%TO.C,BT3*%
X21849600Y38296600D02*
X21849600Y35296600D01*
X13849600Y38296600D02*
X13849600Y37296600D01*
X9849600Y38296600D02*
X9849600Y35296600D01*
X9325000Y38220000D02*
X22425000Y38220000D01*
X17849600Y37296600D02*
X17849600Y38296600D01*
X19849600Y33296600D02*
X19849600Y23296600D01*
X11849600Y33296600D02*
X11849600Y23296600D01*
X14824200Y9072800D02*
X16824200Y9072800D01*
X19824200Y8072800D02*
X19824200Y18072800D01*
X13824200Y8072800D02*
X17824200Y8072800D01*
X11824200Y8072800D02*
X11824200Y18072800D01*
X18824200Y7072800D02*
X12824200Y7072800D01*
X11824200Y6072800D02*
X19824200Y6072800D01*
X21824200Y3072800D02*
X21824200Y6072800D01*
X9824200Y3072800D02*
X9824200Y6072800D01*
X22425000Y2420000D02*
X9325000Y2420000D01*
X22375000Y2420000D02*
X22375000Y38220000D01*
X9325000Y2420000D02*
X9325000Y38220000D01*
X11849600Y33296600D02*
G75*
G03*
X9849600Y35296600I-1999999J1D01*
G01*
X21849600Y35296600D02*
G75*
G03*
X19849600Y33296600I-1J-1999999D01*
G01*
X9849600Y21296600D02*
G75*
G03*
X11849600Y23296600I1J1999999D01*
G01*
X19849600Y23296600D02*
G75*
G03*
X21849600Y21296600I1999999J-1D01*
G01*
X11824200Y18072800D02*
G75*
G03*
X9824200Y20072800I-2000000J0D01*
G01*
X21824200Y20072800D02*
G75*
G03*
X19824200Y18072800I0J-2000000D01*
G01*
X9824200Y6072800D02*
G75*
G03*
X11824200Y8072800I0J2000000D01*
G01*
X19824200Y8072800D02*
G75*
G03*
X21824200Y6072800I2000000J0D01*
G01*
%TO.C,BT1*%
X37840400Y2343400D02*
X37840400Y5343400D01*
X45840400Y2343400D02*
X45840400Y3343400D01*
X49840400Y2343400D02*
X49840400Y5343400D01*
X50365000Y2420000D02*
X37265000Y2420000D01*
X41840400Y3343400D02*
X41840400Y2343400D01*
X39840400Y7343400D02*
X39840400Y17343400D01*
X47840400Y7343400D02*
X47840400Y17343400D01*
X44865800Y31567200D02*
X42865800Y31567200D01*
X39865800Y32567200D02*
X39865800Y22567200D01*
X45865800Y32567200D02*
X41865800Y32567200D01*
X47865800Y32567200D02*
X47865800Y22567200D01*
X40865800Y33567200D02*
X46865800Y33567200D01*
X47865800Y34567200D02*
X39865800Y34567200D01*
X37865800Y37567200D02*
X37865800Y34567200D01*
X49865800Y37567200D02*
X49865800Y34567200D01*
X37265000Y38220000D02*
X50365000Y38220000D01*
X37315000Y38220000D02*
X37315000Y2420000D01*
X50365000Y38220000D02*
X50365000Y2420000D01*
X47840400Y7343400D02*
G75*
G03*
X49840400Y5343400I1999999J-1D01*
G01*
X37840400Y5343400D02*
G75*
G03*
X39840400Y7343400I1J1999999D01*
G01*
X49840400Y19343400D02*
G75*
G03*
X47840400Y17343400I-1J-1999999D01*
G01*
X39840400Y17343400D02*
G75*
G03*
X37840400Y19343400I-1999999J1D01*
G01*
X47865800Y22567200D02*
G75*
G03*
X49865800Y20567200I2000000J0D01*
G01*
X37865800Y20567200D02*
G75*
G03*
X39865800Y22567200I0J2000000D01*
G01*
X49865800Y34567200D02*
G75*
G03*
X47865800Y32567200I0J-2000000D01*
G01*
X39865800Y32567200D02*
G75*
G03*
X37865800Y34567200I-2000000J0D01*
G01*
%TD*%
M02*
